<?xml version="1.0" encoding="utf-8"?>
<svg xmlns="http://www.w3.org/2000/svg" xmlns:xlink="http://www.w3.org/1999/xlink" width="900" height="350" viewBox="0 0 3600 1400">
<defs>
  <clipPath id="clip180">
    <rect x="0" y="0" width="3600" height="1400"/>
  </clipPath>
</defs>
<path clip-path="url(#clip180)" d="M0 1400 L3600 1400 L3600 0 L0 0  Z" fill="#ffffff" fill-rule="evenodd" fill-opacity="1"/>
<defs>
  <clipPath id="clip181">
    <rect x="720" y="0" width="2521" height="1400"/>
  </clipPath>
</defs>
<path clip-path="url(#clip180)" d="M370.268 1153.16 L2486.95 1153.16 L2486.95 70.8661 L370.268 70.8661  Z" fill="#ffffff" fill-rule="evenodd" fill-opacity="1"/>
<defs>
  <clipPath id="clip182">
    <rect x="370" y="70" width="2118" height="1083"/>
  </clipPath>
</defs>
<polyline clip-path="url(#clip182)" style="stroke:#000000; stroke-linecap:round; stroke-linejoin:round; stroke-width:3; stroke-opacity:0.1; fill:none" points="430.174,1153.16 430.174,70.8661 "/>
<polyline clip-path="url(#clip182)" style="stroke:#000000; stroke-linecap:round; stroke-linejoin:round; stroke-width:3; stroke-opacity:0.1; fill:none" points="929.391,1153.16 929.391,70.8661 "/>
<polyline clip-path="url(#clip182)" style="stroke:#000000; stroke-linecap:round; stroke-linejoin:round; stroke-width:3; stroke-opacity:0.1; fill:none" points="1428.61,1153.16 1428.61,70.8661 "/>
<polyline clip-path="url(#clip182)" style="stroke:#000000; stroke-linecap:round; stroke-linejoin:round; stroke-width:3; stroke-opacity:0.1; fill:none" points="1927.82,1153.16 1927.82,70.8661 "/>
<polyline clip-path="url(#clip182)" style="stroke:#000000; stroke-linecap:round; stroke-linejoin:round; stroke-width:3; stroke-opacity:0.1; fill:none" points="2427.04,1153.16 2427.04,70.8661 "/>
<polyline clip-path="url(#clip182)" style="stroke:#000000; stroke-linecap:round; stroke-linejoin:round; stroke-width:3; stroke-opacity:0.1; fill:none" points="370.268,1153.16 2486.95,1153.16 "/>
<polyline clip-path="url(#clip182)" style="stroke:#000000; stroke-linecap:round; stroke-linejoin:round; stroke-width:3; stroke-opacity:0.1; fill:none" points="370.268,972.777 2486.95,972.777 "/>
<polyline clip-path="url(#clip182)" style="stroke:#000000; stroke-linecap:round; stroke-linejoin:round; stroke-width:3; stroke-opacity:0.1; fill:none" points="370.268,792.395 2486.95,792.395 "/>
<polyline clip-path="url(#clip182)" style="stroke:#000000; stroke-linecap:round; stroke-linejoin:round; stroke-width:3; stroke-opacity:0.1; fill:none" points="370.268,612.013 2486.95,612.013 "/>
<polyline clip-path="url(#clip182)" style="stroke:#000000; stroke-linecap:round; stroke-linejoin:round; stroke-width:3; stroke-opacity:0.1; fill:none" points="370.268,431.631 2486.95,431.631 "/>
<polyline clip-path="url(#clip182)" style="stroke:#000000; stroke-linecap:round; stroke-linejoin:round; stroke-width:3; stroke-opacity:0.1; fill:none" points="370.268,251.248 2486.95,251.248 "/>
<polyline clip-path="url(#clip182)" style="stroke:#000000; stroke-linecap:round; stroke-linejoin:round; stroke-width:3; stroke-opacity:0.1; fill:none" points="370.268,70.8661 2486.95,70.8661 "/>
<polyline clip-path="url(#clip180)" style="stroke:#000000; stroke-linecap:round; stroke-linejoin:round; stroke-width:6; stroke-opacity:1; fill:none" points="370.268,1153.16 2486.95,1153.16 "/>
<polyline clip-path="url(#clip180)" style="stroke:#000000; stroke-linecap:round; stroke-linejoin:round; stroke-width:6; stroke-opacity:1; fill:none" points="430.174,1153.16 430.174,1134.26 "/>
<polyline clip-path="url(#clip180)" style="stroke:#000000; stroke-linecap:round; stroke-linejoin:round; stroke-width:6; stroke-opacity:1; fill:none" points="929.391,1153.16 929.391,1134.26 "/>
<polyline clip-path="url(#clip180)" style="stroke:#000000; stroke-linecap:round; stroke-linejoin:round; stroke-width:6; stroke-opacity:1; fill:none" points="1428.61,1153.16 1428.61,1134.26 "/>
<polyline clip-path="url(#clip180)" style="stroke:#000000; stroke-linecap:round; stroke-linejoin:round; stroke-width:6; stroke-opacity:1; fill:none" points="1927.82,1153.16 1927.82,1134.26 "/>
<polyline clip-path="url(#clip180)" style="stroke:#000000; stroke-linecap:round; stroke-linejoin:round; stroke-width:6; stroke-opacity:1; fill:none" points="2427.04,1153.16 2427.04,1134.26 "/>
<path clip-path="url(#clip180)" d="M365.717 1222.49 Q365.717 1211.34 368.533 1205.26 Q372.461 1196.22 381.725 1196.22 Q383.689 1196.22 385.727 1196.77 Q387.802 1197.29 390.396 1199.33 Q393.027 1201.37 394.62 1204.7 Q397.659 1211.15 397.659 1222.49 Q397.659 1233.57 394.842 1239.61 Q390.729 1248.43 381.651 1248.43 Q378.242 1248.43 374.759 1246.69 Q371.312 1244.94 369.126 1240.76 Q365.717 1234.49 365.717 1222.49 M372.017 1221.56 Q372.017 1233.01 372.832 1237.57 Q373.758 1242.5 376.278 1244.65 Q378.835 1246.76 381.651 1246.76 Q384.689 1246.76 387.209 1244.5 Q389.766 1242.2 390.544 1237.27 Q391.396 1232.42 391.359 1221.56 Q391.359 1211 390.618 1206.78 Q389.618 1201.85 386.95 1199.89 Q384.319 1197.88 381.651 1197.88 Q380.65 1197.88 379.576 1198.18 Q378.538 1198.48 377.019 1199.33 Q375.5 1200.18 374.314 1202.29 Q373.165 1204.41 372.609 1207.59 Q372.017 1211.71 372.017 1221.56 Z" fill="#000000" fill-rule="nonzero" fill-opacity="1" /><path clip-path="url(#clip180)" d="M408.293 1245.54 Q407.145 1244.31 407.145 1242.72 Q407.145 1241.13 408.293 1239.98 Q409.442 1238.79 411.184 1238.79 Q412.851 1238.79 413.963 1239.9 Q415.112 1240.98 415.112 1242.76 Q415.112 1244.5 413.889 1245.65 Q412.703 1246.76 411.184 1246.76 Q409.442 1246.76 408.293 1245.54 Z" fill="#000000" fill-rule="nonzero" fill-opacity="1" /><path clip-path="url(#clip180)" d="M424.746 1222.49 Q424.746 1211.34 427.562 1205.26 Q431.49 1196.22 440.754 1196.22 Q442.718 1196.22 444.756 1196.77 Q446.831 1197.29 449.425 1199.33 Q452.055 1201.37 453.649 1204.7 Q456.687 1211.15 456.687 1222.49 Q456.687 1233.57 453.871 1239.61 Q449.758 1248.43 440.68 1248.43 Q437.27 1248.43 433.787 1246.69 Q430.341 1244.94 428.155 1240.76 Q424.746 1234.49 424.746 1222.49 M431.045 1221.56 Q431.045 1233.01 431.86 1237.57 Q432.787 1242.5 435.307 1244.65 Q437.863 1246.76 440.68 1246.76 Q443.718 1246.76 446.238 1244.5 Q448.795 1242.2 449.573 1237.27 Q450.425 1232.42 450.388 1221.56 Q450.388 1211 449.647 1206.78 Q448.646 1201.85 445.978 1199.89 Q443.347 1197.88 440.68 1197.88 Q439.679 1197.88 438.604 1198.18 Q437.567 1198.48 436.048 1199.33 Q434.528 1200.18 433.343 1202.29 Q432.194 1204.41 431.638 1207.59 Q431.045 1211.71 431.045 1221.56 Z" fill="#000000" fill-rule="nonzero" fill-opacity="1" /><path clip-path="url(#clip180)" d="M462.69 1222.49 Q462.69 1211.34 465.506 1205.26 Q469.434 1196.22 478.698 1196.22 Q480.662 1196.22 482.7 1196.77 Q484.775 1197.29 487.369 1199.33 Q490 1201.37 491.593 1204.7 Q494.632 1211.15 494.632 1222.49 Q494.632 1233.57 491.815 1239.61 Q487.702 1248.43 478.624 1248.43 Q475.215 1248.43 471.732 1246.69 Q468.286 1244.94 466.099 1240.76 Q462.69 1234.49 462.69 1222.49 M468.99 1221.56 Q468.99 1233.01 469.805 1237.57 Q470.731 1242.5 473.251 1244.65 Q475.808 1246.76 478.624 1246.76 Q481.662 1246.76 484.182 1244.5 Q486.739 1242.2 487.517 1237.27 Q488.369 1232.42 488.332 1221.56 Q488.332 1211 487.591 1206.78 Q486.591 1201.85 483.923 1199.89 Q481.292 1197.88 478.624 1197.88 Q477.623 1197.88 476.549 1198.18 Q475.511 1198.48 473.992 1199.33 Q472.473 1200.18 471.287 1202.29 Q470.138 1204.41 469.582 1207.59 Q468.99 1211.71 468.99 1221.56 Z" fill="#000000" fill-rule="nonzero" fill-opacity="1" /><path clip-path="url(#clip180)" d="M865.341 1222.49 Q865.341 1211.34 868.158 1205.26 Q872.085 1196.22 881.349 1196.22 Q883.313 1196.22 885.351 1196.77 Q887.426 1197.29 890.02 1199.33 Q892.651 1201.37 894.244 1204.7 Q897.283 1211.15 897.283 1222.49 Q897.283 1233.57 894.467 1239.61 Q890.354 1248.43 881.275 1248.43 Q877.866 1248.43 874.383 1246.69 Q870.937 1244.94 868.751 1240.76 Q865.341 1234.49 865.341 1222.49 M871.641 1221.56 Q871.641 1233.01 872.456 1237.57 Q873.382 1242.5 875.902 1244.65 Q878.459 1246.76 881.275 1246.76 Q884.314 1246.76 886.833 1244.5 Q889.39 1242.2 890.168 1237.27 Q891.021 1232.42 890.984 1221.56 Q890.984 1211 890.242 1206.78 Q889.242 1201.85 886.574 1199.89 Q883.943 1197.88 881.275 1197.88 Q880.275 1197.88 879.2 1198.18 Q878.162 1198.48 876.643 1199.33 Q875.124 1200.18 873.938 1202.29 Q872.79 1204.41 872.234 1207.59 Q871.641 1211.71 871.641 1221.56 Z" fill="#000000" fill-rule="nonzero" fill-opacity="1" /><path clip-path="url(#clip180)" d="M907.918 1245.54 Q906.769 1244.31 906.769 1242.72 Q906.769 1241.13 907.918 1239.98 Q909.066 1238.79 910.808 1238.79 Q912.475 1238.79 913.587 1239.9 Q914.736 1240.98 914.736 1242.76 Q914.736 1244.5 913.513 1245.65 Q912.327 1246.76 910.808 1246.76 Q909.066 1246.76 907.918 1245.54 Z" fill="#000000" fill-rule="nonzero" fill-opacity="1" /><path clip-path="url(#clip180)" d="M925.185 1246.76 Q925.185 1245.39 925.296 1244.98 Q925.445 1244.57 926.038 1243.94 L940.6 1227.71 Q948.567 1218.75 948.567 1210.93 Q948.567 1205.85 945.899 1202.22 Q943.268 1198.59 938.414 1198.59 Q935.079 1198.59 932.263 1200.63 Q929.447 1202.66 928.15 1206.3 Q928.372 1206.22 929.15 1206.22 Q931.04 1206.22 932.078 1207.41 Q933.152 1208.59 933.152 1210.19 Q933.152 1212.22 931.818 1213.22 Q930.521 1214.19 929.224 1214.19 Q928.706 1214.19 928.002 1214.08 Q927.335 1213.97 926.26 1212.93 Q925.185 1211.85 925.185 1209.96 Q925.185 1204.67 929.187 1200.44 Q933.226 1196.22 939.377 1196.22 Q946.344 1196.22 950.902 1200.37 Q955.496 1204.48 955.496 1210.93 Q955.496 1213.19 954.792 1215.26 Q954.125 1217.3 953.199 1218.89 Q952.31 1220.49 949.864 1223.04 Q947.418 1225.6 945.454 1227.42 Q943.491 1229.23 939.081 1233.09 L931.04 1240.91 L944.713 1240.91 Q951.383 1240.91 951.902 1240.31 Q952.643 1239.24 953.569 1233.57 L955.496 1233.57 L953.347 1246.76 L925.185 1246.76 Z" fill="#000000" fill-rule="nonzero" fill-opacity="1" /><path clip-path="url(#clip180)" d="M963.13 1234.53 Q963.13 1232.27 964.353 1231.42 Q965.575 1230.53 966.872 1230.53 Q968.614 1230.53 969.614 1231.64 Q970.652 1232.72 970.652 1234.24 Q970.652 1235.75 969.614 1236.87 Q968.614 1237.94 966.872 1237.94 Q966.02 1237.94 965.575 1237.79 Q966.576 1241.28 969.614 1243.8 Q972.69 1246.32 976.729 1246.32 Q981.805 1246.32 984.844 1241.39 Q986.66 1238.2 986.66 1230.97 Q986.66 1224.6 985.289 1221.41 Q983.176 1216.56 978.841 1216.56 Q972.69 1216.56 969.058 1221.86 Q968.614 1222.53 968.095 1222.56 Q967.354 1222.56 967.169 1222.16 Q967.02 1221.71 967.02 1220.56 L967.02 1198.11 Q967.02 1196.29 967.762 1196.29 Q968.058 1196.29 968.688 1196.51 Q973.468 1198.63 978.767 1198.66 Q984.214 1198.66 989.105 1196.44 Q989.476 1196.22 989.698 1196.22 Q990.439 1196.22 990.476 1197.07 Q990.476 1197.37 989.846 1198.25 Q989.253 1199.11 987.957 1200.26 Q986.66 1201.37 984.992 1202.44 Q983.325 1203.52 980.879 1204.26 Q978.47 1204.96 975.803 1204.96 Q972.616 1204.96 969.355 1203.96 L969.355 1218.75 Q973.283 1214.89 978.989 1214.89 Q985.066 1214.89 989.253 1219.78 Q993.441 1224.67 993.441 1231.49 Q993.441 1238.64 988.475 1243.54 Q983.547 1248.43 976.877 1248.43 Q970.8 1248.43 966.946 1244.09 Q963.13 1239.76 963.13 1234.53 Z" fill="#000000" fill-rule="nonzero" fill-opacity="1" /><path clip-path="url(#clip180)" d="M1364.15 1222.49 Q1364.15 1211.34 1366.97 1205.26 Q1370.89 1196.22 1380.16 1196.22 Q1382.12 1196.22 1384.16 1196.77 Q1386.24 1197.29 1388.83 1199.33 Q1391.46 1201.37 1393.05 1204.7 Q1396.09 1211.15 1396.09 1222.49 Q1396.09 1233.57 1393.28 1239.61 Q1389.16 1248.43 1380.08 1248.43 Q1376.68 1248.43 1373.19 1246.69 Q1369.75 1244.94 1367.56 1240.76 Q1364.15 1234.49 1364.15 1222.49 M1370.45 1221.56 Q1370.45 1233.01 1371.27 1237.57 Q1372.19 1242.5 1374.71 1244.65 Q1377.27 1246.76 1380.08 1246.76 Q1383.12 1246.76 1385.64 1244.5 Q1388.2 1242.2 1388.98 1237.27 Q1389.83 1232.42 1389.79 1221.56 Q1389.79 1211 1389.05 1206.78 Q1388.05 1201.85 1385.38 1199.89 Q1382.75 1197.88 1380.08 1197.88 Q1379.08 1197.88 1378.01 1198.18 Q1376.97 1198.48 1375.45 1199.33 Q1373.93 1200.18 1372.75 1202.29 Q1371.6 1204.41 1371.04 1207.59 Q1370.45 1211.71 1370.45 1221.56 Z" fill="#000000" fill-rule="nonzero" fill-opacity="1" /><path clip-path="url(#clip180)" d="M1406.73 1245.54 Q1405.58 1244.31 1405.58 1242.72 Q1405.58 1241.13 1406.73 1239.98 Q1407.88 1238.79 1409.62 1238.79 Q1411.28 1238.79 1412.4 1239.9 Q1413.54 1240.98 1413.54 1242.76 Q1413.54 1244.5 1412.32 1245.65 Q1411.14 1246.76 1409.62 1246.76 Q1407.88 1246.76 1406.73 1245.54 Z" fill="#000000" fill-rule="nonzero" fill-opacity="1" /><path clip-path="url(#clip180)" d="M1423.99 1234.53 Q1423.99 1232.27 1425.22 1231.42 Q1426.44 1230.53 1427.74 1230.53 Q1429.48 1230.53 1430.48 1231.64 Q1431.52 1232.72 1431.52 1234.24 Q1431.52 1235.75 1430.48 1236.87 Q1429.48 1237.94 1427.74 1237.94 Q1426.88 1237.94 1426.44 1237.79 Q1427.44 1241.28 1430.48 1243.8 Q1433.55 1246.32 1437.59 1246.32 Q1442.67 1246.32 1445.71 1241.39 Q1447.52 1238.2 1447.52 1230.97 Q1447.52 1224.6 1446.15 1221.41 Q1444.04 1216.56 1439.71 1216.56 Q1433.55 1216.56 1429.92 1221.86 Q1429.48 1222.53 1428.96 1222.56 Q1428.22 1222.56 1428.03 1222.16 Q1427.89 1221.71 1427.89 1220.56 L1427.89 1198.11 Q1427.89 1196.29 1428.63 1196.29 Q1428.92 1196.29 1429.55 1196.51 Q1434.33 1198.63 1439.63 1198.66 Q1445.08 1198.66 1449.97 1196.44 Q1450.34 1196.22 1450.56 1196.22 Q1451.3 1196.22 1451.34 1197.07 Q1451.34 1197.37 1450.71 1198.25 Q1450.12 1199.11 1448.82 1200.26 Q1447.52 1201.37 1445.86 1202.44 Q1444.19 1203.52 1441.74 1204.26 Q1439.34 1204.96 1436.67 1204.96 Q1433.48 1204.96 1430.22 1203.96 L1430.22 1218.75 Q1434.15 1214.89 1439.85 1214.89 Q1445.93 1214.89 1450.12 1219.78 Q1454.31 1224.67 1454.31 1231.49 Q1454.31 1238.64 1449.34 1243.54 Q1444.41 1248.43 1437.74 1248.43 Q1431.66 1248.43 1427.81 1244.09 Q1423.99 1239.76 1423.99 1234.53 Z" fill="#000000" fill-rule="nonzero" fill-opacity="1" /><path clip-path="url(#clip180)" d="M1461.12 1222.49 Q1461.12 1211.34 1463.94 1205.26 Q1467.87 1196.22 1477.13 1196.22 Q1479.1 1196.22 1481.13 1196.77 Q1483.21 1197.29 1485.8 1199.33 Q1488.43 1201.37 1490.03 1204.7 Q1493.06 1211.15 1493.06 1222.49 Q1493.06 1233.57 1490.25 1239.61 Q1486.14 1248.43 1477.06 1248.43 Q1473.65 1248.43 1470.16 1246.69 Q1466.72 1244.94 1464.53 1240.76 Q1461.12 1234.49 1461.12 1222.49 M1467.42 1221.56 Q1467.42 1233.01 1468.24 1237.57 Q1469.16 1242.5 1471.68 1244.65 Q1474.24 1246.76 1477.06 1246.76 Q1480.1 1246.76 1482.62 1244.5 Q1485.17 1242.2 1485.95 1237.27 Q1486.8 1232.42 1486.77 1221.56 Q1486.77 1211 1486.02 1206.78 Q1485.02 1201.85 1482.36 1199.89 Q1479.73 1197.88 1477.06 1197.88 Q1476.06 1197.88 1474.98 1198.18 Q1473.94 1198.48 1472.43 1199.33 Q1470.91 1200.18 1469.72 1202.29 Q1468.57 1204.41 1468.02 1207.59 Q1467.42 1211.71 1467.42 1221.56 Z" fill="#000000" fill-rule="nonzero" fill-opacity="1" /><path clip-path="url(#clip180)" d="M1863.77 1222.49 Q1863.77 1211.34 1866.59 1205.26 Q1870.52 1196.22 1879.78 1196.22 Q1881.75 1196.22 1883.78 1196.77 Q1885.86 1197.29 1888.45 1199.33 Q1891.08 1201.37 1892.68 1204.7 Q1895.72 1211.15 1895.72 1222.49 Q1895.72 1233.57 1892.9 1239.61 Q1888.79 1248.43 1879.71 1248.43 Q1876.3 1248.43 1872.82 1246.69 Q1869.37 1244.94 1867.18 1240.76 Q1863.77 1234.49 1863.77 1222.49 M1870.07 1221.56 Q1870.07 1233.01 1870.89 1237.57 Q1871.82 1242.5 1874.34 1244.65 Q1876.89 1246.76 1879.71 1246.76 Q1882.75 1246.76 1885.27 1244.5 Q1887.82 1242.2 1888.6 1237.27 Q1889.45 1232.42 1889.42 1221.56 Q1889.42 1211 1888.68 1206.78 Q1887.68 1201.85 1885.01 1199.89 Q1882.38 1197.88 1879.71 1197.88 Q1878.71 1197.88 1877.63 1198.18 Q1876.6 1198.48 1875.08 1199.33 Q1873.56 1200.18 1872.37 1202.29 Q1871.22 1204.41 1870.67 1207.59 Q1870.07 1211.71 1870.07 1221.56 Z" fill="#000000" fill-rule="nonzero" fill-opacity="1" /><path clip-path="url(#clip180)" d="M1906.35 1245.54 Q1905.2 1244.31 1905.2 1242.72 Q1905.2 1241.13 1906.35 1239.98 Q1907.5 1238.79 1909.24 1238.79 Q1910.91 1238.79 1912.02 1239.9 Q1913.17 1240.98 1913.17 1242.76 Q1913.17 1244.5 1911.95 1245.65 Q1910.76 1246.76 1909.24 1246.76 Q1907.5 1246.76 1906.35 1245.54 Z" fill="#000000" fill-rule="nonzero" fill-opacity="1" /><path clip-path="url(#clip180)" d="M1924.1 1211.08 L1926.58 1195.48 L1928.47 1195.48 Q1928.7 1196.4 1929.07 1196.81 Q1929.47 1197.22 1931.62 1197.55 Q1933.81 1197.88 1938.22 1197.88 L1956.63 1197.88 Q1956.63 1199.63 1955.97 1200.55 L1945.7 1214.97 Q1942.44 1219.52 1941 1227.94 Q1940.15 1233.57 1940.18 1240.39 L1940.18 1244.24 Q1940.18 1248.43 1936.66 1248.43 Q1933.18 1248.43 1933.18 1244.24 Q1933.18 1229.75 1942.52 1215.71 Q1943.52 1214.26 1947.19 1209.11 Q1950.89 1203.96 1951.04 1203.74 L1935.33 1203.74 Q1928.44 1203.74 1927.88 1204.18 Q1927.14 1204.85 1925.99 1211.08 L1924.1 1211.08 Z" fill="#000000" fill-rule="nonzero" fill-opacity="1" /><path clip-path="url(#clip180)" d="M1961.56 1234.53 Q1961.56 1232.27 1962.79 1231.42 Q1964.01 1230.53 1965.31 1230.53 Q1967.05 1230.53 1968.05 1231.64 Q1969.09 1232.72 1969.09 1234.24 Q1969.09 1235.75 1968.05 1236.87 Q1967.05 1237.94 1965.31 1237.94 Q1964.45 1237.94 1964.01 1237.79 Q1965.01 1241.28 1968.05 1243.8 Q1971.12 1246.32 1975.16 1246.32 Q1980.24 1246.32 1983.28 1241.39 Q1985.09 1238.2 1985.09 1230.97 Q1985.09 1224.6 1983.72 1221.41 Q1981.61 1216.56 1977.27 1216.56 Q1971.12 1216.56 1967.49 1221.86 Q1967.05 1222.53 1966.53 1222.56 Q1965.79 1222.56 1965.6 1222.16 Q1965.45 1221.71 1965.45 1220.56 L1965.45 1198.11 Q1965.45 1196.29 1966.19 1196.29 Q1966.49 1196.29 1967.12 1196.51 Q1971.9 1198.63 1977.2 1198.66 Q1982.65 1198.66 1987.54 1196.44 Q1987.91 1196.22 1988.13 1196.22 Q1988.87 1196.22 1988.91 1197.07 Q1988.91 1197.37 1988.28 1198.25 Q1987.69 1199.11 1986.39 1200.26 Q1985.09 1201.37 1983.43 1202.44 Q1981.76 1203.52 1979.31 1204.26 Q1976.9 1204.96 1974.24 1204.96 Q1971.05 1204.96 1967.79 1203.96 L1967.79 1218.75 Q1971.72 1214.89 1977.42 1214.89 Q1983.5 1214.89 1987.69 1219.78 Q1991.87 1224.67 1991.87 1231.49 Q1991.87 1238.64 1986.91 1243.54 Q1981.98 1248.43 1975.31 1248.43 Q1969.23 1248.43 1965.38 1244.09 Q1961.56 1239.76 1961.56 1234.53 Z" fill="#000000" fill-rule="nonzero" fill-opacity="1" /><path clip-path="url(#clip180)" d="M2364.47 1203.44 L2364.47 1201.07 Q2373.59 1201.07 2378.3 1196.22 Q2379.59 1196.22 2379.81 1196.51 Q2380.04 1196.81 2380.04 1198.18 L2380.04 1240.76 Q2380.04 1243.02 2381.15 1243.72 Q2382.26 1244.43 2387.11 1244.43 L2389.52 1244.43 L2389.52 1246.76 Q2386.85 1246.54 2377.22 1246.54 Q2367.59 1246.54 2364.96 1246.76 L2364.96 1244.43 L2367.36 1244.43 Q2372.14 1244.43 2373.29 1243.76 Q2374.44 1243.05 2374.44 1240.76 L2374.44 1201.44 Q2370.48 1203.44 2364.47 1203.44 Z" fill="#000000" fill-rule="nonzero" fill-opacity="1" /><path clip-path="url(#clip180)" d="M2403.27 1245.54 Q2402.12 1244.31 2402.12 1242.72 Q2402.12 1241.13 2403.27 1239.98 Q2404.42 1238.79 2406.16 1238.79 Q2407.83 1238.79 2408.94 1239.9 Q2410.09 1240.98 2410.09 1242.76 Q2410.09 1244.5 2408.87 1245.65 Q2407.68 1246.76 2406.16 1246.76 Q2404.42 1246.76 2403.27 1245.54 Z" fill="#000000" fill-rule="nonzero" fill-opacity="1" /><path clip-path="url(#clip180)" d="M2419.72 1222.49 Q2419.72 1211.34 2422.54 1205.26 Q2426.47 1196.22 2435.73 1196.22 Q2437.69 1196.22 2439.73 1196.77 Q2441.81 1197.29 2444.4 1199.33 Q2447.03 1201.37 2448.63 1204.7 Q2451.66 1211.15 2451.66 1222.49 Q2451.66 1233.57 2448.85 1239.61 Q2444.73 1248.43 2435.66 1248.43 Q2432.25 1248.43 2428.76 1246.69 Q2425.32 1244.94 2423.13 1240.76 Q2419.72 1234.49 2419.72 1222.49 M2426.02 1221.56 Q2426.02 1233.01 2426.84 1237.57 Q2427.76 1242.5 2430.28 1244.65 Q2432.84 1246.76 2435.66 1246.76 Q2438.69 1246.76 2441.21 1244.5 Q2443.77 1242.2 2444.55 1237.27 Q2445.4 1232.42 2445.36 1221.56 Q2445.36 1211 2444.62 1206.78 Q2443.62 1201.85 2440.96 1199.89 Q2438.32 1197.88 2435.66 1197.88 Q2434.66 1197.88 2433.58 1198.18 Q2432.54 1198.48 2431.02 1199.33 Q2429.51 1200.18 2428.32 1202.29 Q2427.17 1204.41 2426.61 1207.59 Q2426.02 1211.71 2426.02 1221.56 Z" fill="#000000" fill-rule="nonzero" fill-opacity="1" /><path clip-path="url(#clip180)" d="M2457.67 1222.49 Q2457.67 1211.34 2460.48 1205.26 Q2464.41 1196.22 2473.67 1196.22 Q2475.64 1196.22 2477.68 1196.77 Q2479.75 1197.29 2482.35 1199.33 Q2484.98 1201.37 2486.57 1204.7 Q2489.61 1211.15 2489.61 1222.49 Q2489.61 1233.57 2486.79 1239.61 Q2482.68 1248.43 2473.6 1248.43 Q2470.19 1248.43 2466.71 1246.69 Q2463.26 1244.94 2461.08 1240.76 Q2457.67 1234.49 2457.67 1222.49 M2463.97 1221.56 Q2463.97 1233.01 2464.78 1237.57 Q2465.71 1242.5 2468.23 1244.65 Q2470.78 1246.76 2473.6 1246.76 Q2476.64 1246.76 2479.16 1244.5 Q2481.72 1242.2 2482.49 1237.27 Q2483.35 1232.42 2483.31 1221.56 Q2483.31 1211 2482.57 1206.78 Q2481.57 1201.85 2478.9 1199.89 Q2476.27 1197.88 2473.6 1197.88 Q2472.6 1197.88 2471.53 1198.18 Q2470.49 1198.48 2468.97 1199.33 Q2467.45 1200.18 2466.26 1202.29 Q2465.12 1204.41 2464.56 1207.59 Q2463.97 1211.71 2463.97 1221.56 Z" fill="#000000" fill-rule="nonzero" fill-opacity="1" /><path clip-path="url(#clip180)" d="M1431.43 1347.43 Q1431.43 1348.35 1430.37 1348.44 L1428.19 1348.44 Q1425.97 1348.44 1425 1348.1 Q1424.04 1347.77 1422.93 1346.22 Q1422.25 1345.25 1420.56 1340.76 Q1418.92 1336.22 1416.5 1329.36 Q1414.14 1322.5 1412.54 1318.44 L1388.72 1346.56 Q1387.08 1348.64 1385.44 1348.64 Q1384.23 1348.64 1383.36 1347.81 Q1382.49 1346.99 1382.49 1345.74 Q1382.49 1344.82 1382.83 1344.29 Q1383.22 1343.76 1384.23 1342.69 L1411.57 1315.59 L1401.96 1288.69 Q1400.13 1283.71 1399.06 1282.45 Q1398.05 1281.2 1395.54 1280.76 Q1394.62 1280.52 1394.62 1279.75 Q1394.62 1278.69 1396.41 1278.69 Q1405.97 1278.69 1408.48 1285.69 L1428.68 1341.97 Q1429.79 1345.21 1430.95 1346.56 Q1431.43 1347.19 1431.43 1347.43 Z" fill="#000000" fill-rule="nonzero" fill-opacity="1" /><path clip-path="url(#clip180)" d="M1441.52 1336.5 L1441.52 1334.34 Q1449.84 1334.34 1454.14 1329.91 Q1455.32 1329.91 1455.52 1330.18 Q1455.72 1330.45 1455.72 1331.7 L1455.72 1370.56 Q1455.72 1372.62 1456.74 1373.26 Q1457.75 1373.91 1462.18 1373.91 L1464.38 1373.91 L1464.38 1376.04 Q1461.95 1375.83 1453.15 1375.83 Q1444.36 1375.83 1441.96 1376.04 L1441.96 1373.91 L1444.16 1373.91 Q1448.52 1373.91 1449.57 1373.3 Q1450.62 1372.65 1450.62 1370.56 L1450.62 1334.68 Q1447 1336.5 1441.52 1336.5 Z" fill="#000000" fill-rule="nonzero" fill-opacity="1" /><polyline clip-path="url(#clip180)" style="stroke:#000000; stroke-linecap:round; stroke-linejoin:round; stroke-width:6; stroke-opacity:1; fill:none" points="370.268,1153.16 370.268,70.8661 "/>
<polyline clip-path="url(#clip180)" style="stroke:#000000; stroke-linecap:round; stroke-linejoin:round; stroke-width:6; stroke-opacity:1; fill:none" points="370.268,1153.16 382.931,1153.16 "/>
<polyline clip-path="url(#clip180)" style="stroke:#000000; stroke-linecap:round; stroke-linejoin:round; stroke-width:6; stroke-opacity:1; fill:none" points="370.268,972.777 382.931,972.777 "/>
<polyline clip-path="url(#clip180)" style="stroke:#000000; stroke-linecap:round; stroke-linejoin:round; stroke-width:6; stroke-opacity:1; fill:none" points="370.268,792.395 382.931,792.395 "/>
<polyline clip-path="url(#clip180)" style="stroke:#000000; stroke-linecap:round; stroke-linejoin:round; stroke-width:6; stroke-opacity:1; fill:none" points="370.268,612.013 382.931,612.013 "/>
<polyline clip-path="url(#clip180)" style="stroke:#000000; stroke-linecap:round; stroke-linejoin:round; stroke-width:6; stroke-opacity:1; fill:none" points="370.268,431.631 382.931,431.631 "/>
<polyline clip-path="url(#clip180)" style="stroke:#000000; stroke-linecap:round; stroke-linejoin:round; stroke-width:6; stroke-opacity:1; fill:none" points="370.268,251.248 382.931,251.248 "/>
<polyline clip-path="url(#clip180)" style="stroke:#000000; stroke-linecap:round; stroke-linejoin:round; stroke-width:6; stroke-opacity:1; fill:none" points="370.268,70.8661 382.931,70.8661 "/>
<path clip-path="url(#clip180)" d="M276.916 1159.03 Q277.361 1159.48 277.361 1160.11 Q277.361 1160.74 276.916 1161.18 Q276.471 1161.63 275.841 1161.63 L228.337 1161.63 Q227.707 1161.63 227.262 1161.18 Q226.818 1160.74 226.818 1160.11 Q226.818 1159.48 227.262 1159.03 Q227.707 1158.59 228.337 1158.59 L275.841 1158.59 Q276.471 1158.59 276.916 1159.03 Z" fill="#000000" fill-rule="nonzero" fill-opacity="1" /><path clip-path="url(#clip180)" d="M284.772 1155.11 Q284.772 1143.17 290.849 1135.87 Q296.926 1128.54 304.744 1128.54 Q309.302 1128.54 311.822 1130.87 Q314.379 1133.17 314.379 1136.73 Q314.379 1138.69 313.23 1139.54 Q312.081 1140.39 310.895 1140.39 Q309.524 1140.39 308.45 1139.47 Q307.375 1138.54 307.375 1136.87 Q307.375 1133.47 311.562 1133.47 Q309.599 1130.43 304.893 1130.43 Q303.447 1130.43 301.965 1130.87 Q300.483 1131.28 298.556 1132.69 Q296.629 1134.09 295.147 1136.32 Q293.665 1138.54 292.627 1142.73 Q291.59 1146.92 291.59 1152.36 L291.59 1154.18 Q294.702 1146.66 301.076 1146.69 Q307.449 1146.69 311.859 1151.55 Q316.268 1156.4 316.268 1163.59 Q316.268 1170.96 311.674 1175.86 Q307.079 1180.75 300.631 1180.75 Q297.741 1180.75 295.11 1179.52 Q292.516 1178.34 290.071 1175.6 Q287.662 1172.85 286.217 1167.59 Q284.772 1162.33 284.772 1155.11 M291.738 1161.92 Q291.738 1169.37 293.109 1172.93 Q293.331 1173.52 293.813 1174.34 Q294.332 1175.15 295.184 1176.23 Q296.073 1177.26 297.519 1177.97 Q298.964 1178.64 300.631 1178.64 Q305.708 1178.64 308.153 1173.71 Q309.45 1170.96 309.45 1163.52 Q309.45 1155.92 308.079 1153.14 Q305.745 1148.44 301.002 1148.44 Q297.815 1148.44 295.592 1150.62 Q293.405 1152.81 292.553 1155.74 Q291.738 1158.66 291.738 1161.92 Z" fill="#000000" fill-rule="nonzero" fill-opacity="1" /><path clip-path="url(#clip180)" d="M275.841 978.651 Q276.286 979.095 276.286 979.725 Q276.286 980.355 275.841 980.8 Q275.397 981.245 274.767 981.245 L227.262 981.245 Q226.632 981.245 226.188 980.8 Q225.743 980.355 225.743 979.725 Q225.743 979.095 226.188 978.651 Q226.632 978.206 227.262 978.206 L274.767 978.206 Q275.397 978.206 275.841 978.651 Z" fill="#000000" fill-rule="nonzero" fill-opacity="1" /><path clip-path="url(#clip180)" d="M282.622 986.173 L282.622 983.838 L305.93 948.229 Q306.523 947.302 307.449 947.339 Q308.302 947.339 308.487 947.673 Q308.672 948.006 308.672 949.303 L308.672 983.838 L316.268 983.838 L316.268 986.173 L308.672 986.173 L308.672 992.769 Q308.672 994.955 309.561 995.659 Q310.488 996.363 314.416 996.363 L316.009 996.363 L316.009 998.697 Q312.896 998.475 305.708 998.475 Q298.556 998.475 295.443 998.697 L295.443 996.363 L297.037 996.363 Q300.965 996.363 301.891 995.696 Q302.817 994.992 302.817 992.769 L302.817 986.173 L282.622 986.173 M284.772 983.838 L303.262 983.838 L303.262 955.528 L284.772 983.838 Z" fill="#000000" fill-rule="nonzero" fill-opacity="1" /><path clip-path="url(#clip180)" d="M277.509 798.268 Q277.954 798.713 277.954 799.343 Q277.954 799.973 277.509 800.418 Q277.064 800.862 276.434 800.862 L228.93 800.862 Q228.3 800.862 227.855 800.418 Q227.41 799.973 227.41 799.343 Q227.41 798.713 227.855 798.268 Q228.3 797.824 228.93 797.824 L276.434 797.824 Q277.064 797.824 277.509 798.268 Z" fill="#000000" fill-rule="nonzero" fill-opacity="1" /><path clip-path="url(#clip180)" d="M285.957 818.315 Q285.957 816.944 286.069 816.537 Q286.217 816.129 286.81 815.499 L301.372 799.269 Q309.339 790.302 309.339 782.483 Q309.339 777.406 306.671 773.775 Q304.04 770.144 299.186 770.144 Q295.851 770.144 293.035 772.182 Q290.219 774.22 288.922 777.851 Q289.144 777.777 289.922 777.777 Q291.812 777.777 292.85 778.963 Q293.924 780.149 293.924 781.742 Q293.924 783.78 292.59 784.78 Q291.293 785.744 289.996 785.744 Q289.478 785.744 288.774 785.633 Q288.107 785.522 287.032 784.484 Q285.957 783.409 285.957 781.52 Q285.957 776.221 289.959 771.996 Q293.998 767.772 300.149 767.772 Q307.116 767.772 311.674 771.922 Q316.268 776.035 316.268 782.483 Q316.268 784.743 315.564 786.818 Q314.897 788.856 313.971 790.45 Q313.082 792.043 310.636 794.6 Q308.19 797.157 306.227 798.972 Q304.263 800.788 299.853 804.642 L291.812 812.461 L305.485 812.461 Q312.155 812.461 312.674 811.868 Q313.415 810.793 314.342 805.124 L316.268 805.124 L314.119 818.315 L285.957 818.315 Z" fill="#000000" fill-rule="nonzero" fill-opacity="1" /><path clip-path="url(#clip180)" d="M284.327 613.662 Q284.327 602.508 287.143 596.431 Q291.071 587.39 300.335 587.39 Q302.299 587.39 304.337 587.946 Q306.412 588.464 309.006 590.503 Q311.637 592.541 313.23 595.875 Q316.268 602.323 316.268 613.662 Q316.268 624.741 313.452 630.781 Q309.339 639.6 300.261 639.6 Q296.852 639.6 293.368 637.859 Q289.922 636.117 287.736 631.93 Q284.327 625.668 284.327 613.662 M290.626 612.736 Q290.626 624.186 291.442 628.743 Q292.368 633.672 294.888 635.821 Q297.444 637.933 300.261 637.933 Q303.299 637.933 305.819 635.673 Q308.376 633.375 309.154 628.447 Q310.006 623.593 309.969 612.736 Q309.969 602.175 309.228 597.951 Q308.227 593.022 305.56 591.058 Q302.929 589.057 300.261 589.057 Q299.26 589.057 298.186 589.354 Q297.148 589.65 295.629 590.503 Q294.11 591.355 292.924 593.467 Q291.775 595.579 291.219 598.766 Q290.626 602.879 290.626 612.736 Z" fill="#000000" fill-rule="nonzero" fill-opacity="1" /><path clip-path="url(#clip180)" d="M285.957 457.551 Q285.957 456.18 286.069 455.772 Q286.217 455.364 286.81 454.734 L301.372 438.504 Q309.339 429.537 309.339 421.718 Q309.339 416.642 306.671 413.011 Q304.04 409.379 299.186 409.379 Q295.851 409.379 293.035 411.417 Q290.219 413.455 288.922 417.087 Q289.144 417.012 289.922 417.012 Q291.812 417.012 292.85 418.198 Q293.924 419.384 293.924 420.977 Q293.924 423.015 292.59 424.016 Q291.293 424.979 289.996 424.979 Q289.478 424.979 288.774 424.868 Q288.107 424.757 287.032 423.719 Q285.957 422.645 285.957 420.755 Q285.957 415.456 289.959 411.232 Q293.998 407.008 300.149 407.008 Q307.116 407.008 311.674 411.158 Q316.268 415.271 316.268 421.718 Q316.268 423.979 315.564 426.054 Q314.897 428.092 313.971 429.685 Q313.082 431.279 310.636 433.835 Q308.19 436.392 306.227 438.208 Q304.263 440.024 299.853 443.877 L291.812 451.696 L305.485 451.696 Q312.155 451.696 312.674 451.103 Q313.415 450.029 314.342 444.359 L316.268 444.359 L314.119 457.551 L285.957 457.551 Z" fill="#000000" fill-rule="nonzero" fill-opacity="1" /><path clip-path="url(#clip180)" d="M282.622 264.644 L282.622 262.309 L305.93 226.699 Q306.523 225.773 307.449 225.81 Q308.302 225.81 308.487 226.144 Q308.672 226.477 308.672 227.774 L308.672 262.309 L316.268 262.309 L316.268 264.644 L308.672 264.644 L308.672 271.24 Q308.672 273.426 309.561 274.13 Q310.488 274.834 314.416 274.834 L316.009 274.834 L316.009 277.168 Q312.896 276.946 305.708 276.946 Q298.556 276.946 295.443 277.168 L295.443 274.834 L297.037 274.834 Q300.965 274.834 301.891 274.167 Q302.817 273.463 302.817 271.24 L302.817 264.644 L282.622 264.644 M284.772 262.309 L303.262 262.309 L303.262 233.999 L284.772 262.309 Z" fill="#000000" fill-rule="nonzero" fill-opacity="1" /><path clip-path="url(#clip180)" d="M284.772 72.8115 Q284.772 60.8798 290.849 53.58 Q296.926 46.2431 304.744 46.2431 Q309.302 46.2431 311.822 48.5775 Q314.379 50.8749 314.379 54.4322 Q314.379 56.3961 313.23 57.2484 Q312.081 58.1007 310.895 58.1007 Q309.524 58.1007 308.45 57.1743 Q307.375 56.2479 307.375 54.5805 Q307.375 51.1714 311.562 51.1714 Q309.599 48.1329 304.893 48.1329 Q303.447 48.1329 301.965 48.5775 Q300.483 48.9851 298.556 50.3932 Q296.629 51.8013 295.147 54.0246 Q293.665 56.2479 292.627 60.4351 Q291.59 64.6224 291.59 70.0695 L291.59 71.8852 Q294.702 64.363 301.076 64.4 Q307.449 64.4 311.859 69.2542 Q316.268 74.1085 316.268 81.2971 Q316.268 88.6711 311.674 93.5624 Q307.079 98.4536 300.631 98.4536 Q297.741 98.4536 295.11 97.2308 Q292.516 96.045 290.071 93.303 Q287.662 90.5609 286.217 85.2991 Q284.772 80.0373 284.772 72.8115 M291.738 79.6297 Q291.738 87.0777 293.109 90.635 Q293.331 91.2279 293.813 92.0431 Q294.332 92.8583 295.184 93.9329 Q296.073 94.9704 297.519 95.6745 Q298.964 96.3415 300.631 96.3415 Q305.708 96.3415 308.153 91.4132 Q309.45 88.6711 309.45 81.223 Q309.45 73.6267 308.079 70.8476 Q305.745 66.1416 301.002 66.1416 Q297.815 66.1416 295.592 68.3279 Q293.405 70.5141 292.553 73.4415 Q291.738 76.3688 291.738 79.6297 Z" fill="#000000" fill-rule="nonzero" fill-opacity="1" /><path clip-path="url(#clip180)" d="M112.883 590.753 Q115.588 590.753 117.134 592.444 Q118.631 594.134 118.631 596.067 Q118.631 597.903 117.569 598.869 Q116.506 599.835 115.153 599.835 Q113.317 599.835 111.723 598.482 Q110.129 597.13 109.791 595.101 Q108.535 597.081 108.535 600.028 Q108.535 601.96 109.549 603.651 Q110.564 605.294 111.868 606.308 Q113.173 607.274 115.057 608.144 Q116.892 608.965 118.003 609.303 Q119.066 609.593 120.226 609.835 L133.752 613.216 Q140.177 614.859 142.448 614.859 Q145.25 614.859 147.134 613.506 Q148.969 612.154 148.969 609.448 Q148.969 608.386 148.679 607.178 Q148.341 605.97 147.472 604.424 Q146.554 602.83 145.201 601.429 Q143.8 599.98 141.433 598.579 Q139.066 597.178 136.023 596.26 Q134.96 595.97 134.96 595.004 Q134.96 593.796 135.926 593.796 Q136.747 593.796 138.486 594.473 Q140.177 595.101 142.399 596.502 Q144.573 597.854 146.554 599.642 Q148.486 601.429 149.839 604.086 Q151.192 606.743 151.192 609.642 Q151.192 613.796 148.969 616.55 Q146.747 619.303 143.655 620.318 Q144.09 620.559 144.67 620.898 Q145.25 621.236 146.554 622.25 Q147.81 623.216 148.776 624.327 Q149.694 625.439 150.419 627.178 Q151.192 628.868 151.192 630.704 Q151.192 633.023 150.515 635.1 Q149.839 637.129 148.293 638.579 Q146.747 640.028 144.622 640.028 Q142.254 640.028 140.612 638.434 Q138.921 636.791 138.921 634.569 Q138.921 633.168 139.742 632.057 Q140.564 630.897 142.351 630.897 Q144.332 630.897 145.829 632.25 Q147.327 633.603 147.713 635.535 Q148.969 633.554 148.969 630.608 Q148.969 627.419 146.167 624.907 Q143.366 622.395 138.68 621.187 Q127.424 618.192 122.399 617.033 Q117.327 615.873 115.153 615.873 Q113.124 615.873 111.723 616.405 Q110.322 616.936 109.694 617.854 Q109.018 618.724 108.776 619.545 Q108.535 620.318 108.535 621.187 Q108.535 622.637 109.115 624.279 Q109.694 625.873 111.047 627.806 Q112.351 629.69 115.057 631.477 Q117.762 633.265 121.482 634.472 Q122.593 634.714 122.593 635.777 Q122.544 636.936 121.578 636.936 Q120.757 636.936 119.066 636.308 Q117.327 635.632 115.153 634.279 Q112.979 632.878 111.047 631.091 Q109.066 629.255 107.714 626.598 Q106.361 623.893 106.361 620.994 Q106.361 619.69 106.651 618.434 Q106.892 617.129 107.617 615.584 Q108.342 613.989 109.936 612.588 Q111.53 611.187 113.849 610.318 Q112.738 609.738 111.675 608.965 Q110.612 608.144 109.308 606.888 Q107.955 605.584 107.182 603.796 Q106.361 601.96 106.361 599.932 Q106.361 597.951 106.892 596.018 Q107.375 594.086 108.97 592.444 Q110.516 590.753 112.883 590.753 Z" fill="#000000" fill-rule="nonzero" fill-opacity="1" /><polyline clip-path="url(#clip182)" style="stroke:#808080; stroke-linecap:round; stroke-linejoin:round; stroke-width:12; stroke-opacity:1; fill:none" stroke-dasharray="48, 30" points="430.174,702.204 1715.93,96.8061 "/>
<polyline clip-path="url(#clip182)" style="stroke:#808080; stroke-linecap:round; stroke-linejoin:round; stroke-width:12; stroke-opacity:1; fill:none" stroke-dasharray="48, 30" points="430.174,702.204 1141.28,1037.03 "/>
<polyline clip-path="url(#clip182)" style="stroke:#808080; stroke-linecap:round; stroke-linejoin:round; stroke-width:12; stroke-opacity:1; fill:none" stroke-dasharray="48, 30" points="2427.04,431.631 1715.93,96.8061 "/>
<polyline clip-path="url(#clip182)" style="stroke:#808080; stroke-linecap:round; stroke-linejoin:round; stroke-width:12; stroke-opacity:1; fill:none" stroke-dasharray="48, 30" points="2427.04,431.631 1141.28,1037.03 "/>
<polyline clip-path="url(#clip182)" style="stroke:#ff7e0d; stroke-linecap:round; stroke-linejoin:round; stroke-width:12; stroke-opacity:1; fill:none" stroke-dasharray="48, 24, 6, 24, 6, 24" points="430.174,702.204 2427.04,431.631 "/>
<polyline clip-path="url(#clip182)" style="stroke:#1f77b4; stroke-linecap:round; stroke-linejoin:round; stroke-width:12; stroke-opacity:1; fill:none" points="430.174,702.204 450.345,700.885 470.515,698.752 490.686,695.818 510.856,692.099 531.026,687.623 551.197,682.42 571.367,676.531 591.537,669.999 611.708,662.876 631.878,655.219 652.048,647.087 672.219,638.547 692.389,629.668 712.56,620.522 732.73,611.183 752.9,601.728 773.071,592.234 793.241,582.779 813.411,573.44 833.582,564.294 853.752,555.415 873.923,546.875 894.093,538.743 914.263,531.086 934.434,523.963 954.604,517.431 974.774,511.542 994.945,506.339 1015.12,501.863 1035.29,498.145 1055.46,495.21 1075.63,493.078 1095.8,491.758 1115.97,491.255 1136.14,491.566 1156.31,492.678 1176.48,494.575 1196.65,497.229 1216.82,500.61 1236.99,504.677 1257.16,509.387 1277.33,514.687 1297.5,520.523 1317.67,526.832 1337.84,533.55 1358.01,540.607 1378.18,547.932 1398.35,555.448 1418.52,563.081 1438.69,570.753 1458.86,578.386 1479.03,585.903 1499.2,593.227 1519.37,600.285 1539.54,607.002 1559.72,613.312 1579.89,619.147 1600.06,624.448 1620.23,629.158 1640.4,633.225 1660.57,636.606 1680.74,639.26 1700.91,641.156 1721.08,642.269 1741.25,642.579 1761.42,642.077 1781.59,640.757 1801.76,638.625 1821.93,635.69 1842.1,631.972 1862.27,627.495 1882.44,622.293 1902.61,616.403 1922.78,609.872 1942.95,602.749 1963.12,595.091 1983.29,586.96 2003.46,578.42 2023.63,569.541 2043.8,560.395 2063.97,551.056 2084.14,541.601 2104.32,532.107 2124.49,522.652 2144.66,513.313 2164.83,504.166 2185,495.287 2205.17,486.747 2225.34,478.616 2245.51,470.958 2265.68,463.836 2285.85,457.304 2306.02,451.414 2326.19,446.212 2346.36,441.735 2366.53,438.017 2386.7,435.083 2406.87,432.95 2427.04,431.631 "/>
<circle clip-path="url(#clip182)" cx="430.174" cy="702.204" r="21.6" fill="#1f77b4" fill-rule="evenodd" fill-opacity="1" stroke="#ffffff" stroke-opacity="1" stroke-width="8.4"/>
<circle clip-path="url(#clip182)" cx="2427.04" cy="431.631" r="21.6" fill="#1f77b4" fill-rule="evenodd" fill-opacity="1" stroke="#ffffff" stroke-opacity="1" stroke-width="8.4"/>
<path clip-path="url(#clip180)" d="M2592.24 884.543 L3529.13 884.543 L3529.13 106.943 L2592.24 106.943  Z" fill="#ffffff" fill-rule="evenodd" fill-opacity="1"/>
<polyline clip-path="url(#clip180)" style="stroke:#000000; stroke-linecap:round; stroke-linejoin:round; stroke-width:6; stroke-opacity:1; fill:none" points="2592.24,884.543 3529.13,884.543 3529.13,106.943 2592.24,106.943 2592.24,884.543 "/>
<polyline clip-path="url(#clip180)" style="stroke:#808080; stroke-linecap:round; stroke-linejoin:round; stroke-width:15; stroke-opacity:1; fill:none" stroke-dasharray="60, 38" points="2627.34,301.343 2837.93,301.343 "/>
<path clip-path="url(#clip180)" d="M2873.03 223.307 L2873.03 220.343 L2886.69 219.324 L2886.69 249.384 Q2892.21 243.224 2899.71 243.224 Q2907.86 243.224 2913.84 249.477 Q2919.81 255.73 2919.81 264.67 Q2919.81 273.702 2913.56 279.955 Q2907.31 286.208 2898.64 286.208 Q2890.77 286.208 2886.23 279.26 Q2882.9 285.05 2882.8 285.143 L2880.44 285.143 L2880.44 228.587 Q2880.44 225.067 2879.19 224.187 Q2877.94 223.307 2873.03 223.307 M2886.97 274.35 Q2886.97 276.342 2888.32 278.334 Q2892.07 284.077 2898.18 284.077 Q2898.23 284.077 2898.27 284.077 Q2904.9 284.077 2909.02 278.01 Q2911.94 273.47 2911.94 264.577 Q2911.94 255.776 2909.21 251.376 Q2905.41 245.308 2899.25 245.308 Q2892.3 245.308 2888.04 251.376 Q2886.97 252.905 2886.97 254.804 L2886.97 274.35 Z" fill="#000000" fill-rule="nonzero" fill-opacity="1" /><path clip-path="url(#clip180)" d="M2934.54 280.048 Q2928.29 273.841 2928.29 264.855 Q2928.29 255.823 2934.4 249.246 Q2940.56 242.622 2949.36 242.622 Q2957.98 242.622 2964.14 249.199 Q2970.35 255.73 2970.35 264.855 Q2970.35 273.794 2964.09 280.001 Q2957.89 286.208 2949.27 286.208 Q2940.84 286.208 2934.54 280.048 M2936.16 264.068 Q2936.16 273.285 2938.57 277.454 Q2942.28 283.799 2949.36 283.799 Q2952.88 283.799 2955.8 281.9 Q2958.77 280.001 2960.39 276.805 Q2962.47 272.637 2962.47 264.068 Q2962.47 254.943 2959.97 250.913 Q2956.27 244.753 2949.27 244.753 Q2946.21 244.753 2943.2 246.374 Q2940.24 247.949 2938.43 251.098 Q2936.16 255.267 2936.16 264.068 Z" fill="#000000" fill-rule="nonzero" fill-opacity="1" /><path clip-path="url(#clip180)" d="M2976.14 247.207 L2976.14 244.243 L2990.08 243.224 L2990.08 274.721 Q2990.08 276.99 2990.26 278.334 Q2990.45 279.631 2991.19 281.159 Q2991.98 282.688 2993.74 283.382 Q2995.54 284.077 2998.42 284.077 Q3003.56 284.077 3006.71 279.862 Q3009.9 275.647 3009.9 269.394 L3009.9 252.488 Q3009.9 248.968 3008.65 248.088 Q3007.4 247.207 3002.49 247.207 L3002.49 244.243 L3016.43 243.224 L3016.43 276.898 Q3016.43 280.418 3017.64 281.344 Q3018.89 282.225 3023.84 282.225 L3023.84 285.143 L3010.18 286.208 L3010.18 277.639 Q3006.2 286.162 2997.95 286.208 Q2993.78 286.208 2990.91 285.143 Q2988.09 284.077 2986.65 282.78 Q2985.21 281.437 2984.43 278.89 Q2983.69 276.342 2983.59 274.767 Q2983.5 273.192 2983.5 270.135 L2983.5 255.915 Q2983.5 249.477 2982.57 248.365 Q2981.65 247.207 2976.14 247.207 Z" fill="#000000" fill-rule="nonzero" fill-opacity="1" /><path clip-path="url(#clip180)" d="M3028.75 285.143 L3028.75 282.225 Q3033.8 282.225 3034.96 281.622 Q3036.12 280.974 3036.12 277.917 L3036.12 252.488 Q3036.12 248.968 3034.87 248.088 Q3033.66 247.207 3028.75 247.207 L3028.75 244.243 L3042.09 243.224 L3042.09 253.183 Q3046.54 243.224 3056.13 243.224 Q3063.26 243.224 3066.09 246.744 Q3068.17 249.107 3068.59 251.747 Q3069.05 254.387 3069.05 261.242 L3069.05 279.353 Q3069.14 281.344 3070.67 281.808 Q3072.2 282.225 3076.46 282.225 L3076.46 285.143 Q3066.78 284.865 3065.81 284.865 Q3065.07 284.865 3055.11 285.143 L3055.11 282.225 Q3060.16 282.225 3061.32 281.622 Q3062.52 280.974 3062.52 277.917 L3062.52 255.823 Q3062.52 251.006 3061.04 248.18 Q3059.56 245.308 3055.48 245.308 Q3050.57 245.308 3046.63 249.431 Q3042.7 253.553 3042.7 260.501 L3042.7 277.917 Q3042.7 280.974 3043.85 281.622 Q3045.06 282.225 3050.06 282.225 L3050.06 285.143 Q3040.38 284.865 3039.45 284.865 Q3038.71 284.865 3028.75 285.143 Z" fill="#000000" fill-rule="nonzero" fill-opacity="1" /><path clip-path="url(#clip180)" d="M3081.56 264.762 Q3081.56 255.73 3087.86 249.477 Q3094.16 243.224 3102.68 243.224 Q3109.9 243.224 3114.63 249.107 L3114.63 228.587 Q3114.63 225.067 3113.38 224.187 Q3112.17 223.307 3107.26 223.307 L3107.26 220.343 L3120.93 219.324 L3120.93 276.898 Q3120.93 280.418 3122.13 281.344 Q3123.38 282.225 3128.29 282.225 L3128.29 285.143 L3114.35 286.208 L3114.35 279.909 Q3109.44 286.162 3101.66 286.208 Q3093.51 286.208 3087.53 279.955 Q3081.56 273.702 3081.56 264.762 M3089.43 264.855 Q3089.43 273.656 3092.16 278.01 Q3095.96 284.077 3102.12 284.077 Q3109.16 284.077 3113.33 277.454 Q3114.4 275.833 3114.35 273.933 L3114.35 254.48 Q3114.35 252.58 3113.33 251.006 Q3109.44 245.308 3103.1 245.308 Q3096.47 245.308 3092.35 251.376 Q3089.43 255.915 3089.43 264.855 Z" fill="#000000" fill-rule="nonzero" fill-opacity="1" /><path clip-path="url(#clip180)" d="M3134.08 285.143 L3134.08 282.225 Q3139.13 282.225 3140.29 281.622 Q3141.45 280.974 3141.45 277.917 L3141.45 252.395 Q3141.45 248.875 3140.24 248.041 Q3139.09 247.207 3134.45 247.207 L3134.45 244.243 L3147.7 243.224 L3147.7 278.01 Q3147.7 280.835 3148.72 281.53 Q3149.74 282.225 3154.37 282.225 L3154.37 285.143 Q3144.69 284.865 3144.51 284.865 Q3143.21 284.865 3134.08 285.143 M3138.07 226.688 Q3138.07 224.789 3139.5 223.261 Q3140.98 221.686 3143.07 221.686 Q3145.15 221.686 3146.64 223.122 Q3148.12 224.511 3148.12 226.735 Q3148.12 228.912 3146.64 230.347 Q3145.15 231.737 3143.07 231.737 Q3140.89 231.737 3139.46 230.209 Q3138.07 228.68 3138.07 226.688 Z" fill="#000000" fill-rule="nonzero" fill-opacity="1" /><path clip-path="url(#clip180)" d="M3160.25 285.143 L3160.25 282.225 Q3165.3 282.225 3166.46 281.622 Q3167.62 280.974 3167.62 277.917 L3167.62 252.488 Q3167.62 248.968 3166.37 248.088 Q3165.16 247.207 3160.25 247.207 L3160.25 244.243 L3173.59 243.224 L3173.59 253.183 Q3178.04 243.224 3187.63 243.224 Q3194.76 243.224 3197.59 246.744 Q3199.67 249.107 3200.09 251.747 Q3200.55 254.387 3200.55 261.242 L3200.55 279.353 Q3200.64 281.344 3202.17 281.808 Q3203.7 282.225 3207.96 282.225 L3207.96 285.143 Q3198.28 284.865 3197.31 284.865 Q3196.57 284.865 3186.61 285.143 L3186.61 282.225 Q3191.66 282.225 3192.82 281.622 Q3194.02 280.974 3194.02 277.917 L3194.02 255.823 Q3194.02 251.006 3192.54 248.18 Q3191.06 245.308 3186.98 245.308 Q3182.07 245.308 3178.13 249.431 Q3174.2 253.553 3174.2 260.501 L3174.2 277.917 Q3174.2 280.974 3175.35 281.622 Q3176.56 282.225 3181.56 282.225 L3181.56 285.143 Q3171.88 284.865 3170.95 284.865 Q3170.21 284.865 3160.25 285.143 Z" fill="#000000" fill-rule="nonzero" fill-opacity="1" /><path clip-path="url(#clip180)" d="M3212.45 292.646 Q3212.45 289.589 3214.77 286.949 Q3217.13 284.309 3221.21 283.151 Q3217.04 280.511 3217.04 274.721 Q3217.04 270.274 3219.96 266.847 Q3215.51 263.141 3215.51 257.073 Q3215.51 251.469 3219.96 247.346 Q3224.41 243.224 3230.89 243.224 Q3236.59 243.224 3240.94 246.652 Q3245.48 242.205 3250.99 242.159 Q3253.45 242.159 3254.6 243.687 Q3255.81 245.216 3255.81 246.837 Q3255.81 248.273 3254.88 248.968 Q3254 249.662 3253.08 249.662 Q3251.92 249.662 3251.08 248.921 Q3250.3 248.134 3250.3 246.93 Q3250.3 244.938 3251.83 244.336 Q3251.55 244.243 3250.9 244.243 Q3246.27 244.243 3242.33 247.949 Q3246.22 251.561 3246.22 257.166 Q3246.22 262.771 3241.77 266.893 Q3237.33 271.015 3230.89 271.015 Q3225.56 271.015 3221.49 268.051 Q3219.87 269.95 3219.87 272.544 Q3219.87 274.906 3221.3 276.759 Q3222.74 278.612 3224.91 278.89 Q3225.56 278.982 3232 278.982 Q3235.8 278.982 3237.88 279.075 Q3239.97 279.167 3242.93 279.816 Q3245.94 280.418 3248.31 281.622 Q3254.47 285.05 3254.51 292.461 Q3254.51 297.88 3248.26 301.262 Q3242.05 304.689 3233.44 304.689 Q3224.73 304.689 3218.57 301.215 Q3212.45 297.788 3212.45 292.646 M3217.41 292.646 Q3217.41 296.537 3222 299.501 Q3226.58 302.512 3233.53 302.512 Q3240.34 302.512 3244.92 299.548 Q3249.56 296.63 3249.56 292.646 Q3249.56 289.821 3247.93 288.014 Q3246.31 286.208 3242.98 285.467 Q3239.69 284.772 3237.37 284.633 Q3235.06 284.494 3230.8 284.494 L3225.19 284.494 Q3221.95 284.679 3219.68 287.042 Q3217.41 289.404 3217.41 292.646 M3222.6 257.166 Q3222.6 268.838 3230.89 268.838 Q3235.06 268.838 3237.61 265.04 Q3239.13 262.493 3239.13 257.073 Q3239.13 245.401 3230.89 245.401 Q3226.72 245.401 3224.13 249.199 Q3222.6 251.747 3222.6 257.166 Z" fill="#000000" fill-rule="nonzero" fill-opacity="1" /><path clip-path="url(#clip180)" d="M2873.03 397.813 Q2878.08 397.813 2879.24 397.165 Q2880.44 396.562 2880.44 393.552 L2880.44 349.132 Q2880.44 345.982 2879.24 345.195 Q2878.08 344.407 2873.03 344.407 L2873.03 341.443 L2886.69 340.424 L2886.69 346.677 Q2892.39 340.424 2899.99 340.424 Q2908.05 340.424 2913.93 346.677 Q2919.81 352.93 2919.81 361.87 Q2919.81 370.902 2913.56 377.155 Q2907.31 383.408 2898.64 383.408 Q2893.92 383.408 2890.72 380.999 Q2887.57 378.544 2886.97 376.738 L2886.97 377.618 L2886.97 393.552 Q2886.97 396.609 2888.18 397.211 Q2889.38 397.813 2894.38 397.813 L2894.38 400.731 Q2884.43 400.453 2883.68 400.453 Q2882.76 400.453 2873.03 400.731 L2873.03 397.813 M2886.97 371.55 Q2886.97 372.986 2887.16 373.496 Q2887.39 374.005 2888.32 375.534 Q2892.07 381.277 2898.18 381.277 Q2898.23 381.277 2898.27 381.277 Q2903.69 381.277 2907.82 375.765 Q2911.94 370.207 2911.94 361.87 Q2911.94 353.903 2908.19 348.345 Q2904.43 342.786 2899.25 342.786 Q2895.54 342.786 2892.3 344.778 Q2889.06 346.77 2886.97 350.383 L2886.97 371.55 Z" fill="#000000" fill-rule="nonzero" fill-opacity="1" /><path clip-path="url(#clip180)" d="M2926.99 373.31 Q2926.99 365.251 2936.49 360.99 Q2942.18 358.257 2953.95 357.562 L2953.95 354.088 Q2953.95 348.206 2950.85 345.102 Q2947.79 341.953 2943.9 341.953 Q2936.95 341.953 2933.62 346.307 Q2936.44 346.399 2937.46 347.835 Q2938.48 349.225 2938.48 350.661 Q2938.48 352.56 2937.27 353.81 Q2936.12 355.015 2934.13 355.015 Q2932.23 355.015 2930.98 353.857 Q2929.72 352.652 2929.72 350.568 Q2929.72 345.936 2933.89 342.879 Q2938.11 339.822 2944.08 339.822 Q2951.87 339.822 2957.05 345.056 Q2958.67 346.677 2959.46 348.761 Q2960.3 350.846 2960.39 352.235 Q2960.48 353.579 2960.48 356.265 L2960.48 375.21 Q2960.48 375.765 2960.67 376.692 Q2960.85 377.618 2961.68 378.822 Q2962.56 379.98 2964 379.98 Q2967.43 379.98 2967.38 373.913 L2967.38 368.586 L2969.79 368.586 L2969.79 373.913 Q2969.79 378.961 2967.1 380.953 Q2964.46 382.898 2962.01 382.898 Q2958.86 382.898 2956.87 380.582 Q2954.88 378.267 2954.6 375.117 Q2953.16 378.73 2949.87 381.092 Q2946.63 383.408 2942.18 383.408 Q2938.76 383.408 2935.51 382.528 Q2932.32 381.694 2929.63 379.332 Q2926.99 376.923 2926.99 373.31 M2934.31 373.218 Q2934.31 376.738 2936.81 379.008 Q2939.31 381.277 2942.83 381.277 Q2946.82 381.277 2950.38 378.22 Q2953.95 375.117 2953.95 369.049 L2953.95 359.554 Q2943.44 359.924 2938.85 364.139 Q2934.31 368.308 2934.31 373.218 Z" fill="#000000" fill-rule="nonzero" fill-opacity="1" /><path clip-path="url(#clip180)" d="M2973.08 382.343 L2973.08 379.425 Q2978.13 379.425 2979.29 378.822 Q2980.49 378.174 2980.49 375.117 L2980.49 349.688 Q2980.49 346.168 2979.24 345.288 Q2978.04 344.407 2973.08 344.407 L2973.08 341.443 L2986.28 340.424 L2986.28 350.846 Q2987.62 346.77 2990.45 343.62 Q2993.32 340.424 2997.95 340.424 Q3001.01 340.424 3002.95 342.138 Q3004.95 343.852 3004.95 346.214 Q3004.95 348.298 3003.65 349.364 Q3002.4 350.383 3000.87 350.383 Q2999.16 350.383 2997.95 349.317 Q2996.79 348.206 2996.79 346.307 Q2996.79 345.149 2997.3 344.269 Q2997.86 343.342 2998.28 343.018 Q2998.69 342.694 2998.97 342.601 Q2998.79 342.508 2997.95 342.508 Q2992.72 342.508 2989.71 347.742 Q2986.74 352.93 2986.74 360.341 L2986.74 374.932 Q2986.74 377.664 2987.85 378.544 Q2989.01 379.425 2993.97 379.425 L2995.96 379.425 L2995.96 382.343 Q2992.16 382.065 2983.92 382.065 Q2982.76 382.065 2980.95 382.111 Q2979.15 382.157 2976.78 382.25 Q2974.42 382.343 2973.08 382.343 Z" fill="#000000" fill-rule="nonzero" fill-opacity="1" /><path clip-path="url(#clip180)" d="M3011.48 373.31 Q3011.48 365.251 3020.97 360.99 Q3026.67 358.257 3038.44 357.562 L3038.44 354.088 Q3038.44 348.206 3035.33 345.102 Q3032.27 341.953 3028.38 341.953 Q3021.44 341.953 3018.1 346.307 Q3020.93 346.399 3021.95 347.835 Q3022.96 349.225 3022.96 350.661 Q3022.96 352.56 3021.76 353.81 Q3020.6 355.015 3018.61 355.015 Q3016.71 355.015 3015.46 353.857 Q3014.21 352.652 3014.21 350.568 Q3014.21 345.936 3018.38 342.879 Q3022.59 339.822 3028.57 339.822 Q3036.35 339.822 3041.54 345.056 Q3043.16 346.677 3043.95 348.761 Q3044.78 350.846 3044.87 352.235 Q3044.97 353.579 3044.97 356.265 L3044.97 375.21 Q3044.97 375.765 3045.15 376.692 Q3045.34 377.618 3046.17 378.822 Q3047.05 379.98 3048.49 379.98 Q3051.91 379.98 3051.87 373.913 L3051.87 368.586 L3054.28 368.586 L3054.28 373.913 Q3054.28 378.961 3051.59 380.953 Q3048.95 382.898 3046.49 382.898 Q3043.34 382.898 3041.35 380.582 Q3039.36 378.267 3039.08 375.117 Q3037.65 378.73 3034.36 381.092 Q3031.12 383.408 3026.67 383.408 Q3023.24 383.408 3020 382.528 Q3016.8 381.694 3014.12 379.332 Q3011.48 376.923 3011.48 373.31 M3018.8 373.218 Q3018.8 376.738 3021.3 379.008 Q3023.8 381.277 3027.32 381.277 Q3031.3 381.277 3034.87 378.22 Q3038.44 375.117 3038.44 369.049 L3038.44 359.554 Q3027.92 359.924 3023.34 364.139 Q3018.8 368.308 3018.8 373.218 Z" fill="#000000" fill-rule="nonzero" fill-opacity="1" /><path clip-path="url(#clip180)" d="M3058.07 382.343 L3058.07 379.425 Q3063.12 379.425 3064.28 378.822 Q3065.44 378.174 3065.44 375.117 L3065.44 325.787 Q3065.44 322.267 3064.19 321.387 Q3062.98 320.507 3058.07 320.507 L3058.07 317.543 L3071.69 316.524 L3071.69 375.117 Q3071.69 378.174 3072.9 378.822 Q3074.1 379.425 3079.1 379.425 L3079.1 382.343 Q3077.94 382.343 3075.54 382.25 Q3073.13 382.157 3071.37 382.111 Q3069.61 382.065 3068.59 382.065 Q3067.48 382.065 3058.07 382.343 Z" fill="#000000" fill-rule="nonzero" fill-opacity="1" /><path clip-path="url(#clip180)" d="M3084.34 382.343 L3084.34 379.425 Q3089.39 379.425 3090.54 378.822 Q3091.7 378.174 3091.7 375.117 L3091.7 325.787 Q3091.7 322.267 3090.45 321.387 Q3089.25 320.507 3084.34 320.507 L3084.34 317.543 L3097.95 316.524 L3097.95 375.117 Q3097.95 378.174 3099.16 378.822 Q3100.36 379.425 3105.37 379.425 L3105.37 382.343 Q3104.21 382.343 3101.8 382.25 Q3099.39 382.157 3097.63 382.111 Q3095.87 382.065 3094.85 382.065 Q3093.74 382.065 3084.34 382.343 Z" fill="#000000" fill-rule="nonzero" fill-opacity="1" /><path clip-path="url(#clip180)" d="M3110.09 361.453 Q3110.09 352.513 3115.83 346.168 Q3121.58 339.822 3129.82 339.822 Q3138.16 339.822 3142.47 345.241 Q3146.82 350.661 3146.82 358.442 Q3146.82 359.878 3146.45 360.156 Q3146.08 360.434 3144.46 360.434 L3117.96 360.434 Q3117.96 370.114 3120.84 374.654 Q3124.82 380.999 3131.54 380.999 Q3132.46 380.999 3133.57 380.814 Q3134.69 380.629 3136.96 379.841 Q3139.22 379.008 3141.22 376.831 Q3143.21 374.654 3144.37 371.226 Q3144.64 369.883 3145.57 369.929 Q3146.82 369.929 3146.82 371.041 Q3146.82 371.875 3145.89 373.774 Q3145.01 375.626 3143.3 377.85 Q3141.59 380.073 3138.25 381.74 Q3134.96 383.408 3130.98 383.408 Q3122.64 383.408 3116.34 377.109 Q3110.09 370.763 3110.09 361.453 M3118.06 358.442 L3140.57 358.442 Q3140.57 356.45 3140.2 354.227 Q3139.87 352.004 3138.85 348.947 Q3137.88 345.843 3135.57 343.898 Q3133.25 341.953 3129.82 341.953 Q3128.29 341.953 3126.63 342.601 Q3125 343.25 3123.01 344.824 Q3121.02 346.399 3119.63 349.966 Q3118.24 353.532 3118.06 358.442 Z" fill="#000000" fill-rule="nonzero" fill-opacity="1" /><path clip-path="url(#clip180)" d="M3152.7 382.343 L3152.7 379.425 Q3157.75 379.425 3158.91 378.822 Q3160.07 378.174 3160.07 375.117 L3160.07 325.787 Q3160.07 322.267 3158.82 321.387 Q3157.61 320.507 3152.7 320.507 L3152.7 317.543 L3166.32 316.524 L3166.32 375.117 Q3166.32 378.174 3167.53 378.822 Q3168.73 379.425 3173.73 379.425 L3173.73 382.343 Q3172.57 382.343 3170.17 382.25 Q3167.76 382.157 3166 382.111 Q3164.24 382.065 3163.22 382.065 Q3162.11 382.065 3152.7 382.343 Z" fill="#000000" fill-rule="nonzero" fill-opacity="1" /><path clip-path="url(#clip180)" d="M3184.71 377.248 Q3178.46 371.041 3178.46 362.055 Q3178.46 353.023 3184.57 346.446 Q3190.73 339.822 3199.53 339.822 Q3208.15 339.822 3214.31 346.399 Q3220.51 352.93 3220.51 362.055 Q3220.51 370.994 3214.26 377.201 Q3208.05 383.408 3199.44 383.408 Q3191.01 383.408 3184.71 377.248 M3186.33 361.268 Q3186.33 370.485 3188.74 374.654 Q3192.45 380.999 3199.53 380.999 Q3203.05 380.999 3205.97 379.1 Q3208.93 377.201 3210.56 374.005 Q3212.64 369.837 3212.64 361.268 Q3212.64 352.143 3210.14 348.113 Q3206.43 341.953 3199.44 341.953 Q3196.38 341.953 3193.37 343.574 Q3190.41 345.149 3188.6 348.298 Q3186.33 352.467 3186.33 361.268 Z" fill="#000000" fill-rule="nonzero" fill-opacity="1" /><path clip-path="url(#clip180)" d="M3225.89 389.846 Q3225.89 386.789 3228.2 384.149 Q3230.57 381.509 3234.64 380.351 Q3230.47 377.711 3230.47 371.921 Q3230.47 367.474 3233.39 364.047 Q3228.94 360.341 3228.94 354.273 Q3228.94 348.669 3233.39 344.546 Q3237.84 340.424 3244.32 340.424 Q3250.02 340.424 3254.37 343.852 Q3258.91 339.405 3264.42 339.359 Q3266.88 339.359 3268.04 340.887 Q3269.24 342.416 3269.24 344.037 Q3269.24 345.473 3268.32 346.168 Q3267.44 346.862 3266.51 346.862 Q3265.35 346.862 3264.52 346.121 Q3263.73 345.334 3263.73 344.13 Q3263.73 342.138 3265.26 341.536 Q3264.98 341.443 3264.33 341.443 Q3259.7 341.443 3255.76 345.149 Q3259.65 348.761 3259.65 354.366 Q3259.65 359.971 3255.21 364.093 Q3250.76 368.215 3244.32 368.215 Q3239 368.215 3234.92 365.251 Q3233.3 367.15 3233.3 369.744 Q3233.3 372.106 3234.73 373.959 Q3236.17 375.812 3238.35 376.09 Q3239 376.182 3245.43 376.182 Q3249.23 376.182 3251.32 376.275 Q3253.4 376.367 3256.36 377.016 Q3259.38 377.618 3261.74 378.822 Q3267.9 382.25 3267.94 389.661 Q3267.94 395.08 3261.69 398.462 Q3255.48 401.889 3246.87 401.889 Q3238.16 401.889 3232 398.415 Q3225.89 394.988 3225.89 389.846 M3230.84 389.846 Q3230.84 393.737 3235.43 396.701 Q3240.01 399.712 3246.96 399.712 Q3253.77 399.712 3258.36 396.748 Q3262.99 393.83 3262.99 389.846 Q3262.99 387.021 3261.37 385.214 Q3259.75 383.408 3256.41 382.667 Q3253.12 381.972 3250.81 381.833 Q3248.49 381.694 3244.23 381.694 L3238.62 381.694 Q3235.38 381.879 3233.11 384.242 Q3230.84 386.604 3230.84 389.846 M3236.03 354.366 Q3236.03 366.038 3244.32 366.038 Q3248.49 366.038 3251.04 362.24 Q3252.57 359.693 3252.57 354.273 Q3252.57 342.601 3244.32 342.601 Q3240.15 342.601 3237.56 346.399 Q3236.03 348.947 3236.03 354.366 Z" fill="#000000" fill-rule="nonzero" fill-opacity="1" /><path clip-path="url(#clip180)" d="M3273.32 382.343 L3273.32 379.425 Q3278.37 379.425 3279.52 378.822 Q3280.73 378.174 3280.73 375.117 L3280.73 349.688 Q3280.73 346.168 3279.48 345.288 Q3278.27 344.407 3273.32 344.407 L3273.32 341.443 L3286.52 340.424 L3286.52 350.846 Q3287.86 346.77 3290.69 343.62 Q3293.56 340.424 3298.19 340.424 Q3301.25 340.424 3303.19 342.138 Q3305.18 343.852 3305.18 346.214 Q3305.18 348.298 3303.89 349.364 Q3302.64 350.383 3301.11 350.383 Q3299.4 350.383 3298.19 349.317 Q3297.03 348.206 3297.03 346.307 Q3297.03 345.149 3297.54 344.269 Q3298.1 343.342 3298.52 343.018 Q3298.93 342.694 3299.21 342.601 Q3299.02 342.508 3298.19 342.508 Q3292.96 342.508 3289.95 347.742 Q3286.98 352.93 3286.98 360.341 L3286.98 374.932 Q3286.98 377.664 3288.09 378.544 Q3289.25 379.425 3294.21 379.425 L3296.2 379.425 L3296.2 382.343 Q3292.4 382.065 3284.16 382.065 Q3283 382.065 3281.19 382.111 Q3279.39 382.157 3277.02 382.25 Q3274.66 382.343 3273.32 382.343 Z" fill="#000000" fill-rule="nonzero" fill-opacity="1" /><path clip-path="url(#clip180)" d="M3311.72 373.31 Q3311.72 365.251 3321.21 360.99 Q3326.91 358.257 3338.67 357.562 L3338.67 354.088 Q3338.67 348.206 3335.57 345.102 Q3332.51 341.953 3328.62 341.953 Q3321.67 341.953 3318.34 346.307 Q3321.16 346.399 3322.18 347.835 Q3323.2 349.225 3323.2 350.661 Q3323.2 352.56 3322 353.81 Q3320.84 355.015 3318.85 355.015 Q3316.95 355.015 3315.7 353.857 Q3314.45 352.652 3314.45 350.568 Q3314.45 345.936 3318.62 342.879 Q3322.83 339.822 3328.81 339.822 Q3336.59 339.822 3341.78 345.056 Q3343.4 346.677 3344.19 348.761 Q3345.02 350.846 3345.11 352.235 Q3345.2 353.579 3345.2 356.265 L3345.2 375.21 Q3345.2 375.765 3345.39 376.692 Q3345.57 377.618 3346.41 378.822 Q3347.29 379.98 3348.72 379.98 Q3352.15 379.98 3352.11 373.913 L3352.11 368.586 L3354.51 368.586 L3354.51 373.913 Q3354.51 378.961 3351.83 380.953 Q3349.19 382.898 3346.73 382.898 Q3343.58 382.898 3341.59 380.582 Q3339.6 378.267 3339.32 375.117 Q3337.89 378.73 3334.6 381.092 Q3331.36 383.408 3326.91 383.408 Q3323.48 383.408 3320.24 382.528 Q3317.04 381.694 3314.36 379.332 Q3311.72 376.923 3311.72 373.31 M3319.03 373.218 Q3319.03 376.738 3321.54 379.008 Q3324.04 381.277 3327.56 381.277 Q3331.54 381.277 3335.11 378.22 Q3338.67 375.117 3338.67 369.049 L3338.67 359.554 Q3328.16 359.924 3323.57 364.139 Q3319.03 368.308 3319.03 373.218 Z" fill="#000000" fill-rule="nonzero" fill-opacity="1" /><path clip-path="url(#clip180)" d="M3358.22 382.343 L3358.22 379.425 Q3363.27 379.425 3364.43 378.822 Q3365.58 378.174 3365.58 375.117 L3365.58 349.688 Q3365.58 346.168 3364.33 345.288 Q3363.13 344.407 3358.22 344.407 L3358.22 341.443 L3371.56 340.424 L3371.56 350.383 Q3376.01 340.424 3385.59 340.424 Q3396.71 340.424 3398.24 349.688 Q3399.86 346.075 3403.24 343.25 Q3406.67 340.424 3412 340.424 Q3419.13 340.424 3421.95 343.944 Q3424.04 346.307 3424.46 348.947 Q3424.87 351.587 3424.87 358.442 L3424.87 376.553 Q3424.97 378.544 3426.49 379.008 Q3428.02 379.425 3432.28 379.425 L3432.28 382.343 Q3422.6 382.065 3421.68 382.065 Q3420.94 382.065 3410.93 382.343 L3410.93 379.425 Q3415.98 379.425 3417.14 378.822 Q3418.34 378.174 3418.34 375.117 L3418.34 353.023 Q3418.34 348.206 3416.86 345.38 Q3415.38 342.508 3411.3 342.508 Q3406.39 342.508 3402.45 346.631 Q3398.52 350.753 3398.52 357.701 L3398.52 375.117 Q3398.52 378.174 3399.68 378.822 Q3400.88 379.425 3405.93 379.425 L3405.93 382.343 Q3396.25 382.065 3395.28 382.065 Q3394.53 382.065 3384.58 382.343 L3384.58 379.425 Q3389.62 379.425 3390.78 378.822 Q3391.99 378.174 3391.99 375.117 L3391.99 353.023 Q3391.99 348.206 3390.5 345.38 Q3389.02 342.508 3384.95 342.508 Q3380.04 342.508 3376.1 346.631 Q3372.16 350.753 3372.16 357.701 L3372.16 375.117 Q3372.16 378.174 3373.32 378.822 Q3374.52 379.425 3379.53 379.425 L3379.53 382.343 Q3369.85 382.065 3368.92 382.065 Q3368.18 382.065 3358.22 382.343 Z" fill="#000000" fill-rule="nonzero" fill-opacity="1" /><polyline clip-path="url(#clip180)" style="stroke:#ff7e0d; stroke-linecap:round; stroke-linejoin:round; stroke-width:15; stroke-opacity:1; fill:none" stroke-dasharray="60, 30, 8, 30, 8, 30" points="2627.34,495.743 2837.93,495.743 "/>
<path clip-path="url(#clip180)" d="M2917.52 516.192 Q2917.52 517.027 2916.55 517.115 L2914.58 517.115 Q2912.56 517.115 2911.68 516.807 Q2910.8 516.5 2909.79 515.095 Q2909.17 514.216 2907.64 510.132 Q2906.14 506.004 2903.95 499.767 Q2901.8 493.531 2900.35 489.842 L2878.7 515.402 Q2877.2 517.29 2875.71 517.29 Q2874.61 517.29 2873.82 516.544 Q2873.03 515.797 2873.03 514.655 Q2873.03 513.821 2873.34 513.338 Q2873.69 512.855 2874.61 511.889 L2899.47 487.251 L2890.73 462.789 Q2889.06 458.266 2888.09 457.124 Q2887.17 455.982 2884.89 455.587 Q2884.05 455.367 2884.05 454.665 Q2884.05 453.698 2885.68 453.698 Q2894.37 453.698 2896.66 460.066 L2915.02 511.23 Q2916.03 514.172 2917.08 515.402 Q2917.52 515.973 2917.52 516.192 Z" fill="#000000" fill-rule="nonzero" fill-opacity="1" /><path clip-path="url(#clip180)" d="M2926.69 506.264 L2926.69 504.296 Q2934.26 504.296 2938.16 500.269 Q2939.24 500.269 2939.42 500.515 Q2939.6 500.761 2939.6 501.898 L2939.6 537.221 Q2939.6 539.096 2940.53 539.68 Q2941.45 540.264 2945.48 540.264 L2947.47 540.264 L2947.47 542.201 Q2945.26 542.016 2937.27 542.016 Q2929.28 542.016 2927.09 542.201 L2927.09 540.264 L2929.09 540.264 Q2933.06 540.264 2934.01 539.711 Q2934.96 539.127 2934.96 537.221 L2934.96 504.603 Q2931.67 506.264 2926.69 506.264 Z" fill="#000000" fill-rule="nonzero" fill-opacity="1" /><path clip-path="url(#clip180)" d="M3001.71 458.881 Q3001.71 461.296 3000.17 462.789 Q2998.68 464.282 2996.79 464.282 Q2995.43 464.282 2994.42 463.448 Q2993.45 462.614 2993.45 461.164 Q2993.45 459.671 2994.59 458.09 Q2995.73 456.509 2998.32 456.29 Q2996.61 454.665 2993.89 454.665 Q2992.53 454.665 2991.39 455.543 Q2990.29 456.377 2989.67 457.739 Q2989.01 459.144 2987.52 467.093 Q2987.04 469.684 2986.6 472.188 Q2986.16 474.691 2985.63 477.326 L2993.1 477.326 Q2994.06 477.326 2994.46 477.37 Q2994.85 477.414 2995.16 477.633 Q2995.51 477.853 2995.51 478.336 Q2995.51 479.566 2994.94 479.873 Q2994.42 480.137 2992.83 480.137 L2985.11 480.137 L2979.7 508.639 Q2979.57 509.473 2979 512.108 Q2978.47 514.699 2977.2 518.959 Q2975.93 523.263 2974.65 525.81 Q2973.95 527.26 2973.03 528.621 Q2972.15 530.026 2970.88 531.432 Q2969.6 532.837 2967.93 533.671 Q2966.26 534.55 2964.51 534.55 Q2961.52 534.55 2959.19 532.881 Q2956.87 531.212 2956.87 528.357 Q2956.87 525.942 2958.36 524.449 Q2959.9 522.956 2961.79 522.956 Q2963.15 522.956 2964.11 523.79 Q2965.12 524.625 2965.12 526.074 Q2965.12 526.689 2964.9 527.391 Q2964.68 528.094 2964.2 528.884 Q2963.72 529.719 2962.66 530.29 Q2961.61 530.861 2960.16 530.949 Q2961.87 532.574 2964.51 532.574 Q2965.34 532.574 2966.09 532.222 Q2966.84 531.915 2967.45 531.124 Q2968.11 530.334 2968.59 529.543 Q2969.08 528.797 2969.56 527.347 Q2970.04 525.942 2970.35 524.888 Q2970.66 523.834 2971.05 521.946 Q2971.49 520.057 2971.71 518.915 Q2971.93 517.817 2972.33 515.665 L2979.04 480.137 L2973.12 480.137 Q2972.06 480.137 2971.62 480.093 Q2971.23 480.049 2970.92 479.829 Q2970.61 479.566 2970.61 479.039 Q2970.61 478.204 2970.96 477.853 Q2971.36 477.458 2971.8 477.414 Q2972.24 477.326 2973.29 477.326 L2979.53 477.326 Q2981.64 466.215 2982.47 463.228 Q2983.44 460.066 2984.93 457.871 Q2986.42 455.631 2988.09 454.577 Q2989.76 453.523 2991.12 453.128 Q2992.53 452.688 2993.89 452.688 Q2996.96 452.688 2999.33 454.357 Q3001.71 455.982 3001.71 458.881 Z" fill="#000000" fill-rule="nonzero" fill-opacity="1" /><path clip-path="url(#clip180)" d="M3013.82 493.619 Q3013.82 478.424 3019.48 466.171 Q3021.9 461.033 3025.28 456.729 Q3028.66 452.425 3030.9 450.536 Q3033.14 448.648 3033.75 448.648 Q3034.63 448.648 3034.68 449.526 Q3034.68 449.965 3033.49 451.063 Q3019 465.82 3019.04 493.619 Q3019.04 521.506 3033.14 535.692 Q3034.68 537.229 3034.68 537.712 Q3034.68 538.59 3033.75 538.59 Q3033.14 538.59 3030.99 536.79 Q3028.84 534.989 3025.5 530.861 Q3022.16 526.733 3019.74 521.682 Q3013.82 509.429 3013.82 493.619 Z" fill="#000000" fill-rule="nonzero" fill-opacity="1" /><path clip-path="url(#clip180)" d="M3084.15 503.237 Q3082.96 508.902 3081.43 512.152 Q3078.97 517.115 3074.79 517.115 Q3071.63 517.115 3069.39 515.182 Q3067.15 513.25 3066.63 510.351 Q3060.87 517.115 3054.9 517.115 Q3049.63 517.115 3046.29 513.118 Q3042.95 509.078 3042.95 502.71 Q3042.95 496.298 3046.12 490.15 Q3049.32 484.001 3054.37 480.18 Q3059.42 476.36 3064.61 476.36 Q3070.09 476.36 3072.91 482.113 Q3073.13 480.532 3074.14 479.346 Q3075.15 478.16 3076.68 478.16 Q3077.87 478.16 3078.57 478.819 Q3079.27 479.434 3079.27 480.576 Q3079.27 481.147 3078.66 483.65 L3075.41 496.21 L3073.43 504.335 Q3072.69 507.321 3072.47 508.419 Q3072.29 509.517 3072.29 510.966 Q3072.29 515.095 3074.97 515.095 Q3076.29 515.095 3077.34 514.26 Q3078.4 513.426 3079.23 511.669 Q3080.06 509.912 3080.59 508.287 Q3081.12 506.619 3081.82 503.984 Q3082.04 502.93 3082.22 502.666 Q3082.44 502.359 3083.05 502.359 Q3084.15 502.359 3084.15 503.237 M3071.81 486.241 Q3071.81 485.846 3071.5 484.748 Q3071.19 483.65 3070.49 482.113 Q3069.79 480.576 3068.25 479.478 Q3066.76 478.336 3064.74 478.336 Q3062.01 478.336 3059.16 480.664 Q3056.35 482.991 3054.28 486.944 Q3052.7 490.106 3050.99 496.737 Q3049.32 503.369 3049.32 506.662 Q3049.32 508.683 3049.76 510.483 Q3050.24 512.24 3051.61 513.689 Q3052.97 515.095 3055.08 515.095 Q3060.21 515.095 3065.26 508.727 Q3066.23 507.629 3066.45 507.189 Q3066.71 506.706 3067.06 505.389 L3071.54 487.778 Q3071.81 486.461 3071.81 486.241 Z" fill="#000000" fill-rule="nonzero" fill-opacity="1" /><path clip-path="url(#clip180)" d="M3091.5 537.712 Q3091.5 537.273 3092.65 536.175 Q3107.14 521.419 3107.14 493.619 Q3107.14 465.732 3093.22 451.634 Q3091.5 450.009 3091.5 449.526 Q3091.5 448.648 3092.38 448.648 Q3093 448.648 3095.15 450.449 Q3097.34 452.249 3100.64 456.377 Q3103.98 460.506 3106.44 465.556 Q3112.36 477.809 3112.36 493.619 Q3112.36 508.814 3106.7 521.067 Q3104.28 526.206 3100.9 530.509 Q3097.52 534.813 3095.28 536.702 Q3093.04 538.59 3092.38 538.59 Q3091.5 538.59 3091.5 537.712 Z" fill="#000000" fill-rule="nonzero" fill-opacity="1" /><path clip-path="url(#clip180)" d="M3153.06 494.717 Q3151 494.717 3151 493.619 Q3151 492.521 3153.15 492.521 Q3153.41 492.521 3153.85 492.565 Q3154.34 492.609 3154.42 492.609 L3179.76 492.609 L3179.76 467.181 Q3179.76 467.093 3179.72 466.698 Q3179.68 466.259 3179.68 465.995 Q3179.68 463.843 3180.73 463.843 Q3181.83 463.843 3181.83 465.995 L3181.83 492.609 L3207.21 492.609 Q3207.3 492.609 3207.74 492.565 Q3208.18 492.521 3208.44 492.521 Q3210.51 492.521 3210.51 493.619 Q3210.55 494.717 3208.35 494.717 Q3208.09 494.717 3207.7 494.673 Q3207.3 494.629 3207.21 494.629 L3181.83 494.629 L3181.83 521.331 Q3181.83 523.395 3180.73 523.395 Q3179.68 523.395 3179.68 521.243 Q3179.68 520.979 3179.72 520.54 Q3179.76 520.145 3179.76 520.057 L3179.76 494.629 L3154.42 494.629 Q3154.34 494.629 3153.81 494.673 Q3153.33 494.717 3153.06 494.717 Z" fill="#000000" fill-rule="nonzero" fill-opacity="1" /><path clip-path="url(#clip180)" d="M3289.74 516.192 Q3289.74 517.027 3288.77 517.115 L3286.8 517.115 Q3284.78 517.115 3283.9 516.807 Q3283.02 516.5 3282.01 515.095 Q3281.39 514.216 3279.86 510.132 Q3278.36 506.004 3276.17 499.767 Q3274.02 493.531 3272.57 489.842 L3250.92 515.402 Q3249.42 517.29 3247.93 517.29 Q3246.83 517.29 3246.04 516.544 Q3245.25 515.797 3245.25 514.655 Q3245.25 513.821 3245.56 513.338 Q3245.91 512.855 3246.83 511.889 L3271.69 487.251 L3262.95 462.789 Q3261.28 458.266 3260.31 457.124 Q3259.39 455.982 3257.11 455.587 Q3256.27 455.367 3256.27 454.665 Q3256.27 453.698 3257.9 453.698 Q3266.59 453.698 3268.88 460.066 L3287.23 511.23 Q3288.24 514.172 3289.3 515.402 Q3289.74 515.973 3289.74 516.192 Z" fill="#000000" fill-rule="nonzero" fill-opacity="1" /><path clip-path="url(#clip180)" d="M3298.91 542.201 Q3298.91 541.063 3299 540.725 Q3299.13 540.387 3299.62 539.864 L3311.7 526.4 Q3318.31 518.96 3318.31 512.473 Q3318.31 508.262 3316.1 505.249 Q3313.91 502.236 3309.89 502.236 Q3307.12 502.236 3304.78 503.927 Q3302.45 505.618 3301.37 508.631 Q3301.56 508.569 3302.2 508.569 Q3303.77 508.569 3304.63 509.553 Q3305.52 510.537 3305.52 511.859 Q3305.52 513.549 3304.42 514.379 Q3303.34 515.179 3302.26 515.179 Q3301.83 515.179 3301.25 515.086 Q3300.7 514.994 3299.8 514.133 Q3298.91 513.242 3298.91 511.674 Q3298.91 507.278 3302.23 503.773 Q3305.58 500.269 3310.69 500.269 Q3316.47 500.269 3320.25 503.712 Q3324.06 507.124 3324.06 512.473 Q3324.06 514.349 3323.48 516.07 Q3322.92 517.761 3322.15 519.083 Q3321.42 520.405 3319.39 522.526 Q3317.36 524.647 3315.73 526.154 Q3314.1 527.66 3310.44 530.857 L3303.77 537.344 L3315.11 537.344 Q3320.65 537.344 3321.08 536.852 Q3321.69 535.96 3322.46 531.257 L3324.06 531.257 L3322.28 542.201 L3298.91 542.201 Z" fill="#000000" fill-rule="nonzero" fill-opacity="1" /><path clip-path="url(#clip180)" d="M3378.26 458.881 Q3378.26 461.296 3376.72 462.789 Q3375.23 464.282 3373.34 464.282 Q3371.98 464.282 3370.97 463.448 Q3370 462.614 3370 461.164 Q3370 459.671 3371.14 458.09 Q3372.28 456.509 3374.88 456.29 Q3373.16 454.665 3370.44 454.665 Q3369.08 454.665 3367.94 455.543 Q3366.84 456.377 3366.22 457.739 Q3365.56 459.144 3364.07 467.093 Q3363.59 469.684 3363.15 472.188 Q3362.71 474.691 3362.18 477.326 L3369.65 477.326 Q3370.62 477.326 3371.01 477.37 Q3371.41 477.414 3371.71 477.633 Q3372.06 477.853 3372.06 478.336 Q3372.06 479.566 3371.49 479.873 Q3370.97 480.137 3369.39 480.137 L3361.66 480.137 L3356.25 508.639 Q3356.12 509.473 3355.55 512.108 Q3355.02 514.699 3353.75 518.959 Q3352.48 523.263 3351.2 525.81 Q3350.5 527.26 3349.58 528.621 Q3348.7 530.026 3347.43 531.432 Q3346.15 532.837 3344.48 533.671 Q3342.82 534.55 3341.06 534.55 Q3338.07 534.55 3335.74 532.881 Q3333.42 531.212 3333.42 528.357 Q3333.42 525.942 3334.91 524.449 Q3336.45 522.956 3338.34 522.956 Q3339.7 522.956 3340.66 523.79 Q3341.67 524.625 3341.67 526.074 Q3341.67 526.689 3341.45 527.391 Q3341.23 528.094 3340.75 528.884 Q3340.27 529.719 3339.21 530.29 Q3338.16 530.861 3336.71 530.949 Q3338.42 532.574 3341.06 532.574 Q3341.89 532.574 3342.64 532.222 Q3343.39 531.915 3344 531.124 Q3344.66 530.334 3345.14 529.543 Q3345.63 528.797 3346.11 527.347 Q3346.59 525.942 3346.9 524.888 Q3347.21 523.834 3347.6 521.946 Q3348.04 520.057 3348.26 518.915 Q3348.48 517.817 3348.88 515.665 L3355.6 480.137 L3349.67 480.137 Q3348.61 480.137 3348.17 480.093 Q3347.78 480.049 3347.47 479.829 Q3347.16 479.566 3347.16 479.039 Q3347.16 478.204 3347.51 477.853 Q3347.91 477.458 3348.35 477.414 Q3348.79 477.326 3349.84 477.326 L3356.08 477.326 Q3358.19 466.215 3359.02 463.228 Q3359.99 460.066 3361.48 457.871 Q3362.97 455.631 3364.64 454.577 Q3366.31 453.523 3367.67 453.128 Q3369.08 452.688 3370.44 452.688 Q3373.51 452.688 3375.89 454.357 Q3378.26 455.982 3378.26 458.881 Z" fill="#000000" fill-rule="nonzero" fill-opacity="1" /><path clip-path="url(#clip180)" d="M3390.37 493.619 Q3390.37 478.424 3396.03 466.171 Q3398.45 461.033 3401.83 456.729 Q3405.21 452.425 3407.45 450.536 Q3409.69 448.648 3410.31 448.648 Q3411.18 448.648 3411.23 449.526 Q3411.23 449.965 3410.04 451.063 Q3395.55 465.82 3395.59 493.619 Q3395.59 521.506 3409.69 535.692 Q3411.23 537.229 3411.23 537.712 Q3411.23 538.59 3410.31 538.59 Q3409.69 538.59 3407.54 536.79 Q3405.39 534.989 3402.05 530.861 Q3398.71 526.733 3396.3 521.682 Q3390.37 509.429 3390.37 493.619 Z" fill="#000000" fill-rule="nonzero" fill-opacity="1" /><path clip-path="url(#clip180)" d="M3452.98 490.721 Q3452.98 497.045 3449.77 503.237 Q3446.61 509.385 3441.52 513.25 Q3436.47 517.115 3431.28 517.115 Q3426.23 517.115 3423.03 513.25 Q3419.87 509.341 3419.87 502.973 Q3419.87 500.734 3420.13 499.153 Q3420.39 497.572 3421.31 493.883 L3428.69 464.546 Q3429.97 459.056 3429.97 459.012 Q3429.97 458.485 3429.75 458.222 Q3429.57 457.914 3428.52 457.695 Q3427.46 457.475 3425.44 457.475 Q3424.61 457.475 3424.21 457.431 Q3423.86 457.387 3423.55 457.168 Q3423.29 456.904 3423.29 456.377 Q3423.29 455.631 3423.6 455.236 Q3423.95 454.796 3424.21 454.709 Q3424.48 454.621 3425 454.577 Q3425.75 454.533 3428.25 454.313 Q3430.76 454.05 3432.91 453.874 Q3435.06 453.698 3435.98 453.698 Q3436.51 453.698 3436.77 453.962 Q3437.08 454.182 3437.08 454.445 L3437.12 454.665 L3430.49 481.761 Q3435.72 476.36 3441.03 476.36 Q3446.35 476.36 3449.64 480.444 Q3452.98 484.528 3452.98 490.721 M3446.48 486.768 Q3446.48 482.596 3444.9 480.488 Q3443.36 478.336 3440.81 478.336 Q3438.66 478.336 3435.85 479.961 Q3433.04 481.586 3430.05 485.538 Q3429.48 486.285 3429.26 486.724 Q3429.09 487.163 3428.69 488.656 L3426.72 496.957 Q3425.27 502.622 3425.27 506.048 Q3425.27 510.703 3426.98 512.899 Q3428.69 515.095 3431.28 515.095 Q3434.01 515.095 3436.86 512.679 Q3439.72 510.264 3441.91 505.872 Q3443.27 502.973 3444.85 496.737 Q3446.48 490.457 3446.48 486.768 Z" fill="#000000" fill-rule="nonzero" fill-opacity="1" /><path clip-path="url(#clip180)" d="M3459.5 537.712 Q3459.5 537.273 3460.64 536.175 Q3475.13 521.419 3475.13 493.619 Q3475.13 465.732 3461.21 451.634 Q3459.5 450.009 3459.5 449.526 Q3459.5 448.648 3460.38 448.648 Q3460.99 448.648 3463.14 450.449 Q3465.34 452.249 3468.63 456.377 Q3471.97 460.506 3474.43 465.556 Q3480.36 477.809 3480.36 493.619 Q3480.36 508.814 3474.69 521.067 Q3472.28 526.206 3468.9 530.509 Q3465.51 534.813 3463.27 536.702 Q3461.03 538.59 3460.38 538.59 Q3459.5 538.59 3459.5 537.712 Z" fill="#000000" fill-rule="nonzero" fill-opacity="1" /><polyline clip-path="url(#clip180)" style="stroke:#1f77b4; stroke-linecap:round; stroke-linejoin:round; stroke-width:15; stroke-opacity:1; fill:none" points="2627.34,690.143 2837.93,690.143 "/>
<path clip-path="url(#clip180)" d="M2917.87 653.281 Q2917.87 655.696 2916.33 657.189 Q2914.84 658.682 2912.95 658.682 Q2911.59 658.682 2910.58 657.848 Q2909.61 657.014 2909.61 655.564 Q2909.61 654.071 2910.76 652.49 Q2911.9 650.909 2914.49 650.69 Q2912.78 649.065 2910.05 649.065 Q2908.69 649.065 2907.55 649.943 Q2906.45 650.777 2905.84 652.139 Q2905.18 653.544 2903.68 661.493 Q2903.2 664.084 2902.76 666.588 Q2902.32 669.091 2901.8 671.726 L2909.26 671.726 Q2910.23 671.726 2910.62 671.77 Q2911.02 671.814 2911.33 672.033 Q2911.68 672.253 2911.68 672.736 Q2911.68 673.966 2911.11 674.273 Q2910.58 674.537 2909 674.537 L2901.27 674.537 L2895.87 703.039 Q2895.74 703.873 2895.16 706.508 Q2894.64 709.099 2893.36 713.359 Q2892.09 717.663 2890.82 720.21 Q2890.11 721.66 2889.19 723.021 Q2888.31 724.426 2887.04 725.832 Q2885.77 727.237 2884.1 728.071 Q2882.43 728.95 2880.67 728.95 Q2877.69 728.95 2875.36 727.281 Q2873.03 725.612 2873.03 722.757 Q2873.03 720.342 2874.52 718.849 Q2876.06 717.356 2877.95 717.356 Q2879.31 717.356 2880.28 718.19 Q2881.29 719.025 2881.29 720.474 Q2881.29 721.089 2881.07 721.791 Q2880.85 722.494 2880.36 723.284 Q2879.88 724.119 2878.83 724.69 Q2877.77 725.261 2876.32 725.349 Q2878.04 726.974 2880.67 726.974 Q2881.51 726.974 2882.25 726.622 Q2883 726.315 2883.61 725.524 Q2884.27 724.734 2884.76 723.943 Q2885.24 723.197 2885.72 721.747 Q2886.21 720.342 2886.51 719.288 Q2886.82 718.234 2887.22 716.346 Q2887.65 714.457 2887.87 713.315 Q2888.09 712.217 2888.49 710.065 L2895.21 674.537 L2889.28 674.537 Q2888.23 674.537 2887.79 674.493 Q2887.39 674.449 2887.08 674.229 Q2886.78 673.966 2886.78 673.439 Q2886.78 672.604 2887.13 672.253 Q2887.52 671.858 2887.96 671.814 Q2888.4 671.726 2889.46 671.726 L2895.69 671.726 Q2897.8 660.615 2898.63 657.628 Q2899.6 654.466 2901.09 652.271 Q2902.59 650.031 2904.26 648.977 Q2905.92 647.923 2907.29 647.528 Q2908.69 647.088 2910.05 647.088 Q2913.13 647.088 2915.5 648.757 Q2917.87 650.382 2917.87 653.281 Z" fill="#000000" fill-rule="nonzero" fill-opacity="1" /><path clip-path="url(#clip180)" d="M2929.98 688.019 Q2929.98 672.824 2935.65 660.571 Q2938.06 655.433 2941.44 651.129 Q2944.82 646.825 2947.06 644.936 Q2949.3 643.048 2949.92 643.048 Q2950.8 643.048 2950.84 643.926 Q2950.84 644.365 2949.65 645.463 Q2935.16 660.22 2935.21 688.019 Q2935.21 715.906 2949.3 730.092 Q2950.84 731.629 2950.84 732.112 Q2950.84 732.99 2949.92 732.99 Q2949.3 732.99 2947.15 731.19 Q2945 729.389 2941.66 725.261 Q2938.32 721.133 2935.91 716.082 Q2929.98 703.829 2929.98 688.019 Z" fill="#000000" fill-rule="nonzero" fill-opacity="1" /><path clip-path="url(#clip180)" d="M3009.01 710.592 Q3009.01 711.427 3008.04 711.515 L3006.06 711.515 Q3004.04 711.515 3003.17 711.207 Q3002.29 710.9 3001.28 709.495 Q3000.66 708.616 2999.12 704.532 Q2997.63 700.404 2995.44 694.167 Q2993.28 687.931 2991.83 684.242 L2970.18 709.802 Q2968.69 711.69 2967.2 711.69 Q2966.1 711.69 2965.31 710.944 Q2964.52 710.197 2964.52 709.055 Q2964.52 708.221 2964.83 707.738 Q2965.18 707.255 2966.1 706.289 L2990.96 681.651 L2982.22 657.189 Q2980.55 652.666 2979.58 651.524 Q2978.66 650.382 2976.38 649.987 Q2975.54 649.767 2975.54 649.065 Q2975.54 648.098 2977.17 648.098 Q2985.86 648.098 2988.15 654.466 L3006.5 705.63 Q3007.51 708.572 3008.57 709.802 Q3009.01 710.373 3009.01 710.592 Z" fill="#000000" fill-rule="nonzero" fill-opacity="1" /><path clip-path="url(#clip180)" d="M3018.18 700.664 L3018.18 698.696 Q3025.74 698.696 3029.65 694.669 Q3030.72 694.669 3030.91 694.915 Q3031.09 695.161 3031.09 696.298 L3031.09 731.621 Q3031.09 733.496 3032.01 734.08 Q3032.94 734.664 3036.96 734.664 L3038.96 734.664 L3038.96 736.601 Q3036.75 736.416 3028.76 736.416 Q3020.76 736.416 3018.58 736.601 L3018.58 734.664 L3020.58 734.664 Q3024.54 734.664 3025.5 734.111 Q3026.45 733.527 3026.45 731.621 L3026.45 699.003 Q3023.16 700.664 3018.18 700.664 Z" fill="#000000" fill-rule="nonzero" fill-opacity="1" /><path clip-path="url(#clip180)" d="M3089.55 697.637 Q3088.36 703.302 3086.83 706.552 Q3084.37 711.515 3080.19 711.515 Q3077.03 711.515 3074.79 709.582 Q3072.55 707.65 3072.03 704.751 Q3066.27 711.515 3060.3 711.515 Q3055.03 711.515 3051.69 707.518 Q3048.35 703.478 3048.35 697.11 Q3048.35 690.698 3051.52 684.55 Q3054.72 678.401 3059.77 674.58 Q3064.82 670.76 3070.01 670.76 Q3075.49 670.76 3078.31 676.513 Q3078.53 674.932 3079.54 673.746 Q3080.55 672.56 3082.08 672.56 Q3083.27 672.56 3083.97 673.219 Q3084.67 673.834 3084.67 674.976 Q3084.67 675.547 3084.06 678.05 L3080.81 690.61 L3078.83 698.735 Q3078.09 701.721 3077.87 702.819 Q3077.69 703.917 3077.69 705.366 Q3077.69 709.495 3080.37 709.495 Q3081.69 709.495 3082.74 708.66 Q3083.8 707.826 3084.63 706.069 Q3085.46 704.312 3085.99 702.687 Q3086.52 701.019 3087.22 698.384 Q3087.44 697.33 3087.62 697.066 Q3087.84 696.759 3088.45 696.759 Q3089.55 696.759 3089.55 697.637 M3077.21 680.641 Q3077.21 680.246 3076.9 679.148 Q3076.59 678.05 3075.89 676.513 Q3075.19 674.976 3073.65 673.878 Q3072.16 672.736 3070.14 672.736 Q3067.41 672.736 3064.56 675.064 Q3061.75 677.391 3059.68 681.344 Q3058.1 684.506 3056.39 691.137 Q3054.72 697.769 3054.72 701.062 Q3054.72 703.083 3055.16 704.883 Q3055.64 706.64 3057.01 708.089 Q3058.37 709.495 3060.48 709.495 Q3065.61 709.495 3070.66 703.127 Q3071.63 702.029 3071.85 701.589 Q3072.11 701.106 3072.46 699.789 L3076.94 682.178 Q3077.21 680.861 3077.21 680.641 Z" fill="#000000" fill-rule="nonzero" fill-opacity="1" /><path clip-path="url(#clip180)" d="M3122.48 689.117 Q3120.42 689.117 3120.42 688.019 Q3120.42 686.921 3122.57 686.921 Q3122.84 686.921 3123.28 686.965 Q3123.76 687.009 3123.85 687.009 L3149.19 687.009 L3149.19 661.581 Q3149.19 661.493 3149.14 661.098 Q3149.1 660.659 3149.1 660.395 Q3149.1 658.243 3150.15 658.243 Q3151.25 658.243 3151.25 660.395 L3151.25 687.009 L3176.63 687.009 Q3176.72 687.009 3177.16 686.965 Q3177.6 686.921 3177.86 686.921 Q3179.93 686.921 3179.93 688.019 Q3179.97 689.117 3177.78 689.117 Q3177.51 689.117 3177.12 689.073 Q3176.72 689.029 3176.63 689.029 L3151.25 689.029 L3151.25 715.731 Q3151.25 717.795 3150.15 717.795 Q3149.1 717.795 3149.1 715.643 Q3149.1 715.379 3149.14 714.94 Q3149.19 714.545 3149.19 714.457 L3149.19 689.029 L3123.85 689.029 Q3123.76 689.029 3123.23 689.073 Q3122.75 689.117 3122.48 689.117 Z" fill="#000000" fill-rule="nonzero" fill-opacity="1" /><path clip-path="url(#clip180)" d="M3259.16 710.592 Q3259.16 711.427 3258.19 711.515 L3256.22 711.515 Q3254.2 711.515 3253.32 711.207 Q3252.44 710.9 3251.43 709.495 Q3250.82 708.616 3249.28 704.532 Q3247.79 700.404 3245.59 694.167 Q3243.44 687.931 3241.99 684.242 L3220.34 709.802 Q3218.84 711.69 3217.35 711.69 Q3216.25 711.69 3215.46 710.944 Q3214.67 710.197 3214.67 709.055 Q3214.67 708.221 3214.98 707.738 Q3215.33 707.255 3216.25 706.289 L3241.11 681.651 L3232.37 657.189 Q3230.7 652.666 3229.74 651.524 Q3228.81 650.382 3226.53 649.987 Q3225.7 649.767 3225.7 649.065 Q3225.7 648.098 3227.32 648.098 Q3236.02 648.098 3238.3 654.466 L3256.66 705.63 Q3257.67 708.572 3258.72 709.802 Q3259.16 710.373 3259.16 710.592 Z" fill="#000000" fill-rule="nonzero" fill-opacity="1" /><path clip-path="url(#clip180)" d="M3268.33 736.601 Q3268.33 735.463 3268.43 735.125 Q3268.55 734.787 3269.04 734.264 L3281.12 720.8 Q3287.73 713.36 3287.73 706.873 Q3287.73 702.662 3285.52 699.649 Q3283.34 696.636 3279.31 696.636 Q3276.54 696.636 3274.21 698.327 Q3271.87 700.018 3270.79 703.031 Q3270.98 702.969 3271.62 702.969 Q3273.19 702.969 3274.05 703.953 Q3274.94 704.937 3274.94 706.259 Q3274.94 707.949 3273.84 708.779 Q3272.76 709.579 3271.69 709.579 Q3271.25 709.579 3270.67 709.486 Q3270.12 709.394 3269.23 708.533 Q3268.33 707.642 3268.33 706.074 Q3268.33 701.678 3271.65 698.173 Q3275.01 694.669 3280.11 694.669 Q3285.89 694.669 3289.67 698.112 Q3293.48 701.524 3293.48 706.873 Q3293.48 708.749 3292.9 710.47 Q3292.34 712.161 3291.58 713.483 Q3290.84 714.805 3288.81 716.926 Q3286.78 719.047 3285.15 720.554 Q3283.52 722.06 3279.86 725.257 L3273.19 731.744 L3284.54 731.744 Q3290.07 731.744 3290.5 731.252 Q3291.11 730.36 3291.88 725.657 L3293.48 725.657 L3291.7 736.601 L3268.33 736.601 Z" fill="#000000" fill-rule="nonzero" fill-opacity="1" /><path clip-path="url(#clip180)" d="M3335.95 685.121 Q3335.95 691.445 3332.75 697.637 Q3329.58 703.785 3324.49 707.65 Q3319.44 711.515 3314.26 711.515 Q3309.21 711.515 3306 707.65 Q3302.84 703.741 3302.84 697.373 Q3302.84 695.134 3303.1 693.553 Q3303.37 691.972 3304.29 688.283 L3311.67 658.946 Q3312.94 653.456 3312.94 653.412 Q3312.94 652.885 3312.72 652.622 Q3312.54 652.314 3311.49 652.095 Q3310.44 651.875 3308.42 651.875 Q3307.58 651.875 3307.19 651.831 Q3306.84 651.787 3306.53 651.568 Q3306.26 651.304 3306.26 650.777 Q3306.26 650.031 3306.57 649.636 Q3306.92 649.196 3307.19 649.109 Q3307.45 649.021 3307.98 648.977 Q3308.72 648.933 3311.23 648.713 Q3313.73 648.45 3315.88 648.274 Q3318.03 648.098 3318.96 648.098 Q3319.48 648.098 3319.75 648.362 Q3320.05 648.582 3320.05 648.845 L3320.1 649.065 L3313.47 676.161 Q3318.69 670.76 3324.01 670.76 Q3329.32 670.76 3332.61 674.844 Q3335.95 678.928 3335.95 685.121 M3329.45 681.168 Q3329.45 676.996 3327.87 674.888 Q3326.33 672.736 3323.79 672.736 Q3321.64 672.736 3318.82 674.361 Q3316.01 675.986 3313.03 679.938 Q3312.46 680.685 3312.24 681.124 Q3312.06 681.563 3311.67 683.056 L3309.69 691.357 Q3308.24 697.022 3308.24 700.448 Q3308.24 705.103 3309.95 707.299 Q3311.67 709.495 3314.26 709.495 Q3316.98 709.495 3319.84 707.079 Q3322.69 704.664 3324.89 700.272 Q3326.25 697.373 3327.83 691.137 Q3329.45 684.857 3329.45 681.168 Z" fill="#000000" fill-rule="nonzero" fill-opacity="1" /><path clip-path="url(#clip180)" d="M3342.47 732.112 Q3342.47 731.673 3343.61 730.575 Q3358.11 715.819 3358.11 688.019 Q3358.11 660.132 3344.18 646.034 Q3342.47 644.409 3342.47 643.926 Q3342.47 643.048 3343.35 643.048 Q3343.96 643.048 3346.12 644.849 Q3348.31 646.649 3351.61 650.777 Q3354.94 654.906 3357.4 659.956 Q3363.33 672.209 3363.33 688.019 Q3363.33 703.214 3357.67 715.467 Q3355.25 720.606 3351.87 724.909 Q3348.49 729.213 3346.25 731.102 Q3344.01 732.99 3343.35 732.99 Q3342.47 732.99 3342.47 732.112 Z" fill="#000000" fill-rule="nonzero" fill-opacity="1" /></svg>
