<?xml version="1.0" encoding="utf-8"?>
<svg xmlns="http://www.w3.org/2000/svg" xmlns:xlink="http://www.w3.org/1999/xlink" width="600" height="400" viewBox="0 0 2400 1600">
<defs>
  <clipPath id="clip450">
    <rect x="0" y="0" width="2400" height="1600"/>
  </clipPath>
</defs>
<path clip-path="url(#clip450)" d="M0 1600 L2400 1600 L2400 0 L0 0  Z" fill="#ffffff" fill-rule="evenodd" fill-opacity="1"/>
<defs>
  <clipPath id="clip451">
    <rect x="480" y="0" width="1681" height="1600"/>
  </clipPath>
</defs>
<path clip-path="url(#clip450)" d="M397.485 1273.21 L2329.13 1273.21 L2329.13 70.8661 L397.485 70.8661  Z" fill="#ffffff" fill-rule="evenodd" fill-opacity="1"/>
<defs>
  <clipPath id="clip452">
    <rect x="397" y="70" width="1933" height="1203"/>
  </clipPath>
</defs>
<polyline clip-path="url(#clip452)" style="stroke:#000000; stroke-linecap:round; stroke-linejoin:round; stroke-width:3; stroke-opacity:0.1; fill:none" points="452.155,1273.21 452.155,70.8661 "/>
<polyline clip-path="url(#clip452)" style="stroke:#000000; stroke-linecap:round; stroke-linejoin:round; stroke-width:3; stroke-opacity:0.1; fill:none" points="907.732,1273.21 907.732,70.8661 "/>
<polyline clip-path="url(#clip452)" style="stroke:#000000; stroke-linecap:round; stroke-linejoin:round; stroke-width:3; stroke-opacity:0.1; fill:none" points="1363.31,1273.21 1363.31,70.8661 "/>
<polyline clip-path="url(#clip452)" style="stroke:#000000; stroke-linecap:round; stroke-linejoin:round; stroke-width:3; stroke-opacity:0.1; fill:none" points="1818.89,1273.21 1818.89,70.8661 "/>
<polyline clip-path="url(#clip452)" style="stroke:#000000; stroke-linecap:round; stroke-linejoin:round; stroke-width:3; stroke-opacity:0.1; fill:none" points="2274.46,1273.21 2274.46,70.8661 "/>
<polyline clip-path="url(#clip452)" style="stroke:#000000; stroke-linecap:round; stroke-linejoin:round; stroke-width:3; stroke-opacity:0.1; fill:none" points="397.485,1239.18 2329.13,1239.18 "/>
<polyline clip-path="url(#clip452)" style="stroke:#000000; stroke-linecap:round; stroke-linejoin:round; stroke-width:3; stroke-opacity:0.1; fill:none" points="397.485,1017.17 2329.13,1017.17 "/>
<polyline clip-path="url(#clip452)" style="stroke:#000000; stroke-linecap:round; stroke-linejoin:round; stroke-width:3; stroke-opacity:0.1; fill:none" points="397.485,795.168 2329.13,795.168 "/>
<polyline clip-path="url(#clip452)" style="stroke:#000000; stroke-linecap:round; stroke-linejoin:round; stroke-width:3; stroke-opacity:0.1; fill:none" points="397.485,573.161 2329.13,573.161 "/>
<polyline clip-path="url(#clip452)" style="stroke:#000000; stroke-linecap:round; stroke-linejoin:round; stroke-width:3; stroke-opacity:0.1; fill:none" points="397.485,351.154 2329.13,351.154 "/>
<polyline clip-path="url(#clip452)" style="stroke:#000000; stroke-linecap:round; stroke-linejoin:round; stroke-width:3; stroke-opacity:0.1; fill:none" points="397.485,129.147 2329.13,129.147 "/>
<polyline clip-path="url(#clip450)" style="stroke:#000000; stroke-linecap:round; stroke-linejoin:round; stroke-width:6; stroke-opacity:1; fill:none" points="397.485,1273.21 2329.13,1273.21 "/>
<polyline clip-path="url(#clip450)" style="stroke:#000000; stroke-linecap:round; stroke-linejoin:round; stroke-width:6; stroke-opacity:1; fill:none" points="452.155,1273.21 452.155,1254.31 "/>
<polyline clip-path="url(#clip450)" style="stroke:#000000; stroke-linecap:round; stroke-linejoin:round; stroke-width:6; stroke-opacity:1; fill:none" points="907.732,1273.21 907.732,1254.31 "/>
<polyline clip-path="url(#clip450)" style="stroke:#000000; stroke-linecap:round; stroke-linejoin:round; stroke-width:6; stroke-opacity:1; fill:none" points="1363.31,1273.21 1363.31,1254.31 "/>
<polyline clip-path="url(#clip450)" style="stroke:#000000; stroke-linecap:round; stroke-linejoin:round; stroke-width:6; stroke-opacity:1; fill:none" points="1818.89,1273.21 1818.89,1254.31 "/>
<polyline clip-path="url(#clip450)" style="stroke:#000000; stroke-linecap:round; stroke-linejoin:round; stroke-width:6; stroke-opacity:1; fill:none" points="2274.46,1273.21 2274.46,1254.31 "/>
<path clip-path="url(#clip450)" d="M387.697 1332.94 Q387.697 1321.79 390.514 1315.71 Q394.441 1306.67 403.705 1306.67 Q405.669 1306.67 407.707 1307.22 Q409.782 1307.74 412.376 1309.78 Q415.007 1311.82 416.6 1315.15 Q419.639 1321.6 419.639 1332.94 Q419.639 1344.02 416.823 1350.06 Q412.71 1358.88 403.631 1358.88 Q400.222 1358.88 396.739 1357.14 Q393.293 1355.39 391.107 1351.21 Q387.697 1344.94 387.697 1332.94 M393.997 1332.01 Q393.997 1343.46 394.812 1348.02 Q395.738 1352.95 398.258 1355.1 Q400.815 1357.21 403.631 1357.21 Q406.67 1357.21 409.189 1354.95 Q411.746 1352.65 412.524 1347.72 Q413.377 1342.87 413.34 1332.01 Q413.34 1321.45 412.598 1317.23 Q411.598 1312.3 408.93 1310.34 Q406.299 1308.33 403.631 1308.33 Q402.631 1308.33 401.556 1308.63 Q400.519 1308.93 398.999 1309.78 Q397.48 1310.63 396.294 1312.74 Q395.146 1314.86 394.59 1318.04 Q393.997 1322.16 393.997 1332.01 Z" fill="#000000" fill-rule="nonzero" fill-opacity="1" /><path clip-path="url(#clip450)" d="M430.274 1355.99 Q429.125 1354.76 429.125 1353.17 Q429.125 1351.58 430.274 1350.43 Q431.422 1349.24 433.164 1349.24 Q434.831 1349.24 435.943 1350.35 Q437.092 1351.43 437.092 1353.21 Q437.092 1354.95 435.869 1356.1 Q434.683 1357.21 433.164 1357.21 Q431.422 1357.21 430.274 1355.99 Z" fill="#000000" fill-rule="nonzero" fill-opacity="1" /><path clip-path="url(#clip450)" d="M446.726 1332.94 Q446.726 1321.79 449.542 1315.71 Q453.47 1306.67 462.734 1306.67 Q464.698 1306.67 466.736 1307.22 Q468.811 1307.74 471.405 1309.78 Q474.036 1311.82 475.629 1315.15 Q478.668 1321.6 478.668 1332.94 Q478.668 1344.02 475.851 1350.06 Q471.738 1358.88 462.66 1358.88 Q459.251 1358.88 455.768 1357.14 Q452.321 1355.39 450.135 1351.21 Q446.726 1344.94 446.726 1332.94 M453.026 1332.01 Q453.026 1343.46 453.841 1348.02 Q454.767 1352.95 457.287 1355.1 Q459.844 1357.21 462.66 1357.21 Q465.698 1357.21 468.218 1354.95 Q470.775 1352.65 471.553 1347.72 Q472.405 1342.87 472.368 1332.01 Q472.368 1321.45 471.627 1317.23 Q470.627 1312.3 467.959 1310.34 Q465.328 1308.33 462.66 1308.33 Q461.659 1308.33 460.585 1308.63 Q459.547 1308.93 458.028 1309.78 Q456.509 1310.63 455.323 1312.74 Q454.174 1314.86 453.618 1318.04 Q453.026 1322.16 453.026 1332.01 Z" fill="#000000" fill-rule="nonzero" fill-opacity="1" /><path clip-path="url(#clip450)" d="M484.671 1332.94 Q484.671 1321.79 487.487 1315.71 Q491.415 1306.67 500.678 1306.67 Q502.642 1306.67 504.68 1307.22 Q506.755 1307.74 509.349 1309.78 Q511.98 1311.82 513.573 1315.15 Q516.612 1321.6 516.612 1332.94 Q516.612 1344.02 513.796 1350.06 Q509.683 1358.88 500.604 1358.88 Q497.195 1358.88 493.712 1357.14 Q490.266 1355.39 488.08 1351.21 Q484.671 1344.94 484.671 1332.94 M490.97 1332.01 Q490.97 1343.46 491.785 1348.02 Q492.711 1352.95 495.231 1355.1 Q497.788 1357.21 500.604 1357.21 Q503.643 1357.21 506.162 1354.95 Q508.719 1352.65 509.497 1347.72 Q510.35 1342.87 510.313 1332.01 Q510.313 1321.45 509.571 1317.23 Q508.571 1312.3 505.903 1310.34 Q503.272 1308.33 500.604 1308.33 Q499.604 1308.33 498.529 1308.63 Q497.492 1308.93 495.972 1309.78 Q494.453 1310.63 493.267 1312.74 Q492.119 1314.86 491.563 1318.04 Q490.97 1322.16 490.97 1332.01 Z" fill="#000000" fill-rule="nonzero" fill-opacity="1" /><path clip-path="url(#clip450)" d="M843.683 1332.94 Q843.683 1321.79 846.499 1315.71 Q850.427 1306.67 859.69 1306.67 Q861.654 1306.67 863.692 1307.22 Q865.767 1307.74 868.361 1309.78 Q870.992 1311.82 872.585 1315.15 Q875.624 1321.6 875.624 1332.94 Q875.624 1344.02 872.808 1350.06 Q868.695 1358.88 859.616 1358.88 Q856.207 1358.88 852.724 1357.14 Q849.278 1355.39 847.092 1351.21 Q843.683 1344.94 843.683 1332.94 M849.982 1332.01 Q849.982 1343.46 850.797 1348.02 Q851.723 1352.95 854.243 1355.1 Q856.8 1357.21 859.616 1357.21 Q862.655 1357.21 865.174 1354.95 Q867.731 1352.65 868.509 1347.72 Q869.362 1342.87 869.325 1332.01 Q869.325 1321.45 868.584 1317.23 Q867.583 1312.3 864.915 1310.34 Q862.284 1308.33 859.616 1308.33 Q858.616 1308.33 857.541 1308.63 Q856.504 1308.93 854.984 1309.78 Q853.465 1310.63 852.279 1312.74 Q851.131 1314.86 850.575 1318.04 Q849.982 1322.16 849.982 1332.01 Z" fill="#000000" fill-rule="nonzero" fill-opacity="1" /><path clip-path="url(#clip450)" d="M886.259 1355.99 Q885.11 1354.76 885.11 1353.17 Q885.11 1351.58 886.259 1350.43 Q887.407 1349.24 889.149 1349.24 Q890.817 1349.24 891.928 1350.35 Q893.077 1351.43 893.077 1353.21 Q893.077 1354.95 891.854 1356.1 Q890.668 1357.21 889.149 1357.21 Q887.407 1357.21 886.259 1355.99 Z" fill="#000000" fill-rule="nonzero" fill-opacity="1" /><path clip-path="url(#clip450)" d="M903.526 1357.21 Q903.526 1355.84 903.638 1355.43 Q903.786 1355.02 904.379 1354.39 L918.941 1338.16 Q926.908 1329.2 926.908 1321.38 Q926.908 1316.3 924.24 1312.67 Q921.609 1309.04 916.755 1309.04 Q913.42 1309.04 910.604 1311.08 Q907.788 1313.11 906.491 1316.75 Q906.713 1316.67 907.491 1316.67 Q909.381 1316.67 910.419 1317.86 Q911.493 1319.04 911.493 1320.64 Q911.493 1322.67 910.159 1323.67 Q908.862 1324.64 907.565 1324.64 Q907.047 1324.64 906.343 1324.53 Q905.676 1324.42 904.601 1323.38 Q903.526 1322.3 903.526 1320.41 Q903.526 1315.12 907.528 1310.89 Q911.567 1306.67 917.719 1306.67 Q924.685 1306.67 929.243 1310.82 Q933.837 1314.93 933.837 1321.38 Q933.837 1323.64 933.133 1325.71 Q932.466 1327.75 931.54 1329.34 Q930.651 1330.94 928.205 1333.49 Q925.759 1336.05 923.796 1337.87 Q921.832 1339.68 917.422 1343.54 L909.381 1351.36 L923.054 1351.36 Q929.724 1351.36 930.243 1350.76 Q930.984 1349.69 931.911 1344.02 L933.837 1344.02 L931.688 1357.21 L903.526 1357.21 Z" fill="#000000" fill-rule="nonzero" fill-opacity="1" /><path clip-path="url(#clip450)" d="M941.471 1344.98 Q941.471 1342.72 942.694 1341.87 Q943.916 1340.98 945.213 1340.98 Q946.955 1340.98 947.955 1342.09 Q948.993 1343.17 948.993 1344.69 Q948.993 1346.2 947.955 1347.32 Q946.955 1348.39 945.213 1348.39 Q944.361 1348.39 943.916 1348.24 Q944.917 1351.73 947.955 1354.25 Q951.031 1356.77 955.07 1356.77 Q960.147 1356.77 963.185 1351.84 Q965.001 1348.65 965.001 1341.42 Q965.001 1335.05 963.63 1331.86 Q961.518 1327.01 957.182 1327.01 Q951.031 1327.01 947.4 1332.31 Q946.955 1332.98 946.436 1333.01 Q945.695 1333.01 945.51 1332.61 Q945.362 1332.16 945.362 1331.01 L945.362 1308.56 Q945.362 1306.74 946.103 1306.74 Q946.399 1306.74 947.029 1306.96 Q951.809 1309.08 957.108 1309.11 Q962.555 1309.11 967.446 1306.89 Q967.817 1306.67 968.039 1306.67 Q968.78 1306.67 968.817 1307.52 Q968.817 1307.82 968.187 1308.7 Q967.595 1309.56 966.298 1310.71 Q965.001 1311.82 963.333 1312.89 Q961.666 1313.97 959.22 1314.71 Q956.812 1315.41 954.144 1315.41 Q950.957 1315.41 947.696 1314.41 L947.696 1329.2 Q951.624 1325.34 957.33 1325.34 Q963.407 1325.34 967.595 1330.23 Q971.782 1335.12 971.782 1341.94 Q971.782 1349.09 966.816 1353.99 Q961.888 1358.88 955.218 1358.88 Q949.141 1358.88 945.287 1354.54 Q941.471 1350.21 941.471 1344.98 Z" fill="#000000" fill-rule="nonzero" fill-opacity="1" /><path clip-path="url(#clip450)" d="M1298.85 1332.94 Q1298.85 1321.79 1301.67 1315.71 Q1305.6 1306.67 1314.86 1306.67 Q1316.82 1306.67 1318.86 1307.22 Q1320.94 1307.74 1323.53 1309.78 Q1326.16 1311.82 1327.76 1315.15 Q1330.79 1321.6 1330.79 1332.94 Q1330.79 1344.02 1327.98 1350.06 Q1323.86 1358.88 1314.79 1358.88 Q1311.38 1358.88 1307.89 1357.14 Q1304.45 1355.39 1302.26 1351.21 Q1298.85 1344.94 1298.85 1332.94 M1305.15 1332.01 Q1305.15 1343.46 1305.97 1348.02 Q1306.89 1352.95 1309.41 1355.1 Q1311.97 1357.21 1314.79 1357.21 Q1317.82 1357.21 1320.34 1354.95 Q1322.9 1352.65 1323.68 1347.72 Q1324.53 1342.87 1324.49 1332.01 Q1324.49 1321.45 1323.75 1317.23 Q1322.75 1312.3 1320.08 1310.34 Q1317.45 1308.33 1314.79 1308.33 Q1313.79 1308.33 1312.71 1308.63 Q1311.67 1308.93 1310.15 1309.78 Q1308.63 1310.63 1307.45 1312.74 Q1306.3 1314.86 1305.74 1318.04 Q1305.15 1322.16 1305.15 1332.01 Z" fill="#000000" fill-rule="nonzero" fill-opacity="1" /><path clip-path="url(#clip450)" d="M1341.43 1355.99 Q1340.28 1354.76 1340.28 1353.17 Q1340.28 1351.58 1341.43 1350.43 Q1342.58 1349.24 1344.32 1349.24 Q1345.99 1349.24 1347.1 1350.35 Q1348.25 1351.43 1348.25 1353.21 Q1348.25 1354.95 1347.02 1356.1 Q1345.84 1357.21 1344.32 1357.21 Q1342.58 1357.21 1341.43 1355.99 Z" fill="#000000" fill-rule="nonzero" fill-opacity="1" /><path clip-path="url(#clip450)" d="M1358.7 1344.98 Q1358.7 1342.72 1359.92 1341.87 Q1361.14 1340.98 1362.44 1340.98 Q1364.18 1340.98 1365.18 1342.09 Q1366.22 1343.17 1366.22 1344.69 Q1366.22 1346.2 1365.18 1347.32 Q1364.18 1348.39 1362.44 1348.39 Q1361.59 1348.39 1361.14 1348.24 Q1362.14 1351.73 1365.18 1354.25 Q1368.26 1356.77 1372.3 1356.77 Q1377.37 1356.77 1380.41 1351.84 Q1382.23 1348.65 1382.23 1341.42 Q1382.23 1335.05 1380.86 1331.86 Q1378.74 1327.01 1374.41 1327.01 Q1368.26 1327.01 1364.63 1332.31 Q1364.18 1332.98 1363.66 1333.01 Q1362.92 1333.01 1362.74 1332.61 Q1362.59 1332.16 1362.59 1331.01 L1362.59 1308.56 Q1362.59 1306.74 1363.33 1306.74 Q1363.62 1306.74 1364.25 1306.96 Q1369.03 1309.08 1374.33 1309.11 Q1379.78 1309.11 1384.67 1306.89 Q1385.04 1306.67 1385.26 1306.67 Q1386.01 1306.67 1386.04 1307.52 Q1386.04 1307.82 1385.41 1308.7 Q1384.82 1309.56 1383.52 1310.71 Q1382.23 1311.82 1380.56 1312.89 Q1378.89 1313.97 1376.45 1314.71 Q1374.04 1315.41 1371.37 1315.41 Q1368.18 1315.41 1364.92 1314.41 L1364.92 1329.2 Q1368.85 1325.34 1374.56 1325.34 Q1380.63 1325.34 1384.82 1330.23 Q1389.01 1335.12 1389.01 1341.94 Q1389.01 1349.09 1384.04 1353.99 Q1379.11 1358.88 1372.44 1358.88 Q1366.37 1358.88 1362.51 1354.54 Q1358.7 1350.21 1358.7 1344.98 Z" fill="#000000" fill-rule="nonzero" fill-opacity="1" /><path clip-path="url(#clip450)" d="M1395.83 1332.94 Q1395.83 1321.79 1398.64 1315.71 Q1402.57 1306.67 1411.83 1306.67 Q1413.8 1306.67 1415.84 1307.22 Q1417.91 1307.74 1420.5 1309.78 Q1423.13 1311.82 1424.73 1315.15 Q1427.77 1321.6 1427.77 1332.94 Q1427.77 1344.02 1424.95 1350.06 Q1420.84 1358.88 1411.76 1358.88 Q1408.35 1358.88 1404.87 1357.14 Q1401.42 1355.39 1399.23 1351.21 Q1395.83 1344.94 1395.83 1332.94 M1402.12 1332.01 Q1402.12 1343.46 1402.94 1348.02 Q1403.87 1352.95 1406.39 1355.1 Q1408.94 1357.21 1411.76 1357.21 Q1414.8 1357.21 1417.32 1354.95 Q1419.87 1352.65 1420.65 1347.72 Q1421.5 1342.87 1421.47 1332.01 Q1421.47 1321.45 1420.73 1317.23 Q1419.73 1312.3 1417.06 1310.34 Q1414.43 1308.33 1411.76 1308.33 Q1410.76 1308.33 1409.68 1308.63 Q1408.65 1308.93 1407.13 1309.78 Q1405.61 1310.63 1404.42 1312.74 Q1403.27 1314.86 1402.72 1318.04 Q1402.12 1322.16 1402.12 1332.01 Z" fill="#000000" fill-rule="nonzero" fill-opacity="1" /><path clip-path="url(#clip450)" d="M1754.84 1332.94 Q1754.84 1321.79 1757.65 1315.71 Q1761.58 1306.67 1770.85 1306.67 Q1772.81 1306.67 1774.85 1307.22 Q1776.92 1307.74 1779.52 1309.78 Q1782.15 1311.82 1783.74 1315.15 Q1786.78 1321.6 1786.78 1332.94 Q1786.78 1344.02 1783.96 1350.06 Q1779.85 1358.88 1770.77 1358.88 Q1767.36 1358.88 1763.88 1357.14 Q1760.43 1355.39 1758.25 1351.21 Q1754.84 1344.94 1754.84 1332.94 M1761.14 1332.01 Q1761.14 1343.46 1761.95 1348.02 Q1762.88 1352.95 1765.4 1355.1 Q1767.95 1357.21 1770.77 1357.21 Q1773.81 1357.21 1776.33 1354.95 Q1778.89 1352.65 1779.66 1347.72 Q1780.52 1342.87 1780.48 1332.01 Q1780.48 1321.45 1779.74 1317.23 Q1778.74 1312.3 1776.07 1310.34 Q1773.44 1308.33 1770.77 1308.33 Q1769.77 1308.33 1768.7 1308.63 Q1767.66 1308.93 1766.14 1309.78 Q1764.62 1310.63 1763.43 1312.74 Q1762.29 1314.86 1761.73 1318.04 Q1761.14 1322.16 1761.14 1332.01 Z" fill="#000000" fill-rule="nonzero" fill-opacity="1" /><path clip-path="url(#clip450)" d="M1797.41 1355.99 Q1796.26 1354.76 1796.26 1353.17 Q1796.26 1351.58 1797.41 1350.43 Q1798.56 1349.24 1800.3 1349.24 Q1801.97 1349.24 1803.08 1350.35 Q1804.23 1351.43 1804.23 1353.21 Q1804.23 1354.95 1803.01 1356.1 Q1801.82 1357.21 1800.3 1357.21 Q1798.56 1357.21 1797.41 1355.99 Z" fill="#000000" fill-rule="nonzero" fill-opacity="1" /><path clip-path="url(#clip450)" d="M1815.16 1321.53 L1817.65 1305.93 L1819.54 1305.93 Q1819.76 1306.85 1820.13 1307.26 Q1820.54 1307.67 1822.69 1308 Q1824.87 1308.33 1829.28 1308.33 L1847.7 1308.33 Q1847.7 1310.08 1847.03 1311 L1836.77 1325.42 Q1833.51 1329.97 1832.06 1338.39 Q1831.21 1344.02 1831.24 1350.84 L1831.24 1354.69 Q1831.24 1358.88 1827.72 1358.88 Q1824.24 1358.88 1824.24 1354.69 Q1824.24 1340.2 1833.58 1326.16 Q1834.58 1324.71 1838.25 1319.56 Q1841.95 1314.41 1842.1 1314.19 L1826.39 1314.19 Q1819.5 1314.19 1818.94 1314.63 Q1818.2 1315.3 1817.05 1321.53 L1815.16 1321.53 Z" fill="#000000" fill-rule="nonzero" fill-opacity="1" /><path clip-path="url(#clip450)" d="M1852.63 1344.98 Q1852.63 1342.72 1853.85 1341.87 Q1855.07 1340.98 1856.37 1340.98 Q1858.11 1340.98 1859.11 1342.09 Q1860.15 1343.17 1860.15 1344.69 Q1860.15 1346.2 1859.11 1347.32 Q1858.11 1348.39 1856.37 1348.39 Q1855.52 1348.39 1855.07 1348.24 Q1856.07 1351.73 1859.11 1354.25 Q1862.19 1356.77 1866.22 1356.77 Q1871.3 1356.77 1874.34 1351.84 Q1876.16 1348.65 1876.16 1341.42 Q1876.16 1335.05 1874.78 1331.86 Q1872.67 1327.01 1868.34 1327.01 Q1862.19 1327.01 1858.55 1332.31 Q1858.11 1332.98 1857.59 1333.01 Q1856.85 1333.01 1856.66 1332.61 Q1856.52 1332.16 1856.52 1331.01 L1856.52 1308.56 Q1856.52 1306.74 1857.26 1306.74 Q1857.55 1306.74 1858.18 1306.96 Q1862.96 1309.08 1868.26 1309.11 Q1873.71 1309.11 1878.6 1306.89 Q1878.97 1306.67 1879.19 1306.67 Q1879.94 1306.67 1879.97 1307.52 Q1879.97 1307.82 1879.34 1308.7 Q1878.75 1309.56 1877.45 1310.71 Q1876.16 1311.82 1874.49 1312.89 Q1872.82 1313.97 1870.38 1314.71 Q1867.97 1315.41 1865.3 1315.41 Q1862.11 1315.41 1858.85 1314.41 L1858.85 1329.2 Q1862.78 1325.34 1868.49 1325.34 Q1874.56 1325.34 1878.75 1330.23 Q1882.94 1335.12 1882.94 1341.94 Q1882.94 1349.09 1877.97 1353.99 Q1873.04 1358.88 1866.37 1358.88 Q1860.3 1358.88 1856.44 1354.54 Q1852.63 1350.21 1852.63 1344.98 Z" fill="#000000" fill-rule="nonzero" fill-opacity="1" /><path clip-path="url(#clip450)" d="M2211.9 1313.89 L2211.9 1311.52 Q2221.01 1311.52 2225.72 1306.67 Q2227.02 1306.67 2227.24 1306.96 Q2227.46 1307.26 2227.46 1308.63 L2227.46 1351.21 Q2227.46 1353.47 2228.57 1354.17 Q2229.68 1354.88 2234.54 1354.88 L2236.95 1354.88 L2236.95 1357.21 Q2234.28 1356.99 2224.64 1356.99 Q2215.01 1356.99 2212.38 1357.21 L2212.38 1354.88 L2214.79 1354.88 Q2219.57 1354.88 2220.72 1354.21 Q2221.86 1353.5 2221.86 1351.21 L2221.86 1311.89 Q2217.9 1313.89 2211.9 1313.89 Z" fill="#000000" fill-rule="nonzero" fill-opacity="1" /><path clip-path="url(#clip450)" d="M2250.69 1355.99 Q2249.55 1354.76 2249.55 1353.17 Q2249.55 1351.58 2250.69 1350.43 Q2251.84 1349.24 2253.58 1349.24 Q2255.25 1349.24 2256.36 1350.35 Q2257.51 1351.43 2257.51 1353.21 Q2257.51 1354.95 2256.29 1356.1 Q2255.1 1357.21 2253.58 1357.21 Q2251.84 1357.21 2250.69 1355.99 Z" fill="#000000" fill-rule="nonzero" fill-opacity="1" /><path clip-path="url(#clip450)" d="M2267.15 1332.94 Q2267.15 1321.79 2269.96 1315.71 Q2273.89 1306.67 2283.15 1306.67 Q2285.12 1306.67 2287.16 1307.22 Q2289.23 1307.74 2291.82 1309.78 Q2294.46 1311.82 2296.05 1315.15 Q2299.09 1321.6 2299.09 1332.94 Q2299.09 1344.02 2296.27 1350.06 Q2292.16 1358.88 2283.08 1358.88 Q2279.67 1358.88 2276.19 1357.14 Q2272.74 1355.39 2270.56 1351.21 Q2267.15 1344.94 2267.15 1332.94 M2273.45 1332.01 Q2273.45 1343.46 2274.26 1348.02 Q2275.19 1352.95 2277.71 1355.1 Q2280.26 1357.21 2283.08 1357.21 Q2286.12 1357.21 2288.64 1354.95 Q2291.19 1352.65 2291.97 1347.72 Q2292.83 1342.87 2292.79 1332.01 Q2292.79 1321.45 2292.05 1317.23 Q2291.05 1312.3 2288.38 1310.34 Q2285.75 1308.33 2283.08 1308.33 Q2282.08 1308.33 2281 1308.63 Q2279.97 1308.93 2278.45 1309.78 Q2276.93 1310.63 2275.74 1312.74 Q2274.59 1314.86 2274.04 1318.04 Q2273.45 1322.16 2273.45 1332.01 Z" fill="#000000" fill-rule="nonzero" fill-opacity="1" /><path clip-path="url(#clip450)" d="M2305.09 1332.94 Q2305.09 1321.79 2307.91 1315.71 Q2311.83 1306.67 2321.1 1306.67 Q2323.06 1306.67 2325.1 1307.22 Q2327.18 1307.74 2329.77 1309.78 Q2332.4 1311.82 2333.99 1315.15 Q2337.03 1321.6 2337.03 1332.94 Q2337.03 1344.02 2334.22 1350.06 Q2330.1 1358.88 2321.02 1358.88 Q2317.62 1358.88 2314.13 1357.14 Q2310.69 1355.39 2308.5 1351.21 Q2305.09 1344.94 2305.09 1332.94 M2311.39 1332.01 Q2311.39 1343.46 2312.21 1348.02 Q2313.13 1352.95 2315.65 1355.1 Q2318.21 1357.21 2321.02 1357.21 Q2324.06 1357.21 2326.58 1354.95 Q2329.14 1352.65 2329.92 1347.72 Q2330.77 1342.87 2330.73 1332.01 Q2330.73 1321.45 2329.99 1317.23 Q2328.99 1312.3 2326.32 1310.34 Q2323.69 1308.33 2321.02 1308.33 Q2320.02 1308.33 2318.95 1308.63 Q2317.91 1308.93 2316.39 1309.78 Q2314.87 1310.63 2313.69 1312.74 Q2312.54 1314.86 2311.98 1318.04 Q2311.39 1322.16 2311.39 1332.01 Z" fill="#000000" fill-rule="nonzero" fill-opacity="1" /><path clip-path="url(#clip450)" d="M1376.02 1418.31 Q1376.02 1419.66 1375.39 1420 Q1374.76 1420.29 1373.02 1420.29 L1363.75 1420.29 L1356.4 1449.47 Q1355.82 1452.03 1355.82 1454.2 Q1355.82 1456.62 1356.55 1457.68 Q1357.32 1458.74 1358.92 1458.74 Q1362.06 1458.74 1365.44 1455.89 Q1368.87 1453.04 1371.77 1446.09 Q1372.15 1445.17 1372.35 1444.98 Q1372.59 1444.73 1373.22 1444.73 Q1374.42 1444.73 1374.42 1445.7 Q1374.42 1446.04 1373.75 1447.58 Q1373.12 1449.13 1371.72 1451.4 Q1370.37 1453.67 1368.58 1455.8 Q1366.84 1457.92 1364.18 1459.47 Q1361.52 1460.97 1358.67 1460.97 Q1354.67 1460.97 1352.1 1458.41 Q1349.59 1455.85 1349.59 1451.84 Q1349.59 1450.53 1350.61 1446.38 Q1351.62 1442.17 1357.13 1420.29 L1348.38 1420.29 Q1347.18 1420.29 1346.69 1420.24 Q1346.26 1420.19 1345.92 1419.95 Q1345.63 1419.66 1345.63 1419.08 Q1345.63 1418.16 1346.02 1417.78 Q1346.4 1417.34 1346.89 1417.29 Q1347.42 1417.2 1348.63 1417.2 L1357.9 1417.2 L1361.77 1401.5 Q1362.15 1399.95 1363.12 1399.08 Q1364.13 1398.16 1364.71 1398.07 Q1365.29 1397.92 1365.73 1397.92 Q1367.03 1397.92 1367.81 1398.65 Q1368.58 1399.32 1368.58 1400.58 Q1368.58 1401.26 1364.52 1417.2 L1373.22 1417.2 Q1374.33 1417.2 1374.76 1417.25 Q1375.24 1417.29 1375.63 1417.54 Q1376.02 1417.78 1376.02 1418.31 Z" fill="#000000" fill-rule="nonzero" fill-opacity="1" /><polyline clip-path="url(#clip450)" style="stroke:#000000; stroke-linecap:round; stroke-linejoin:round; stroke-width:6; stroke-opacity:1; fill:none" points="397.485,1273.21 397.485,70.8661 "/>
<polyline clip-path="url(#clip450)" style="stroke:#000000; stroke-linecap:round; stroke-linejoin:round; stroke-width:6; stroke-opacity:1; fill:none" points="397.485,1239.18 416.383,1239.18 "/>
<polyline clip-path="url(#clip450)" style="stroke:#000000; stroke-linecap:round; stroke-linejoin:round; stroke-width:6; stroke-opacity:1; fill:none" points="397.485,1017.17 416.383,1017.17 "/>
<polyline clip-path="url(#clip450)" style="stroke:#000000; stroke-linecap:round; stroke-linejoin:round; stroke-width:6; stroke-opacity:1; fill:none" points="397.485,795.168 416.383,795.168 "/>
<polyline clip-path="url(#clip450)" style="stroke:#000000; stroke-linecap:round; stroke-linejoin:round; stroke-width:6; stroke-opacity:1; fill:none" points="397.485,573.161 416.383,573.161 "/>
<polyline clip-path="url(#clip450)" style="stroke:#000000; stroke-linecap:round; stroke-linejoin:round; stroke-width:6; stroke-opacity:1; fill:none" points="397.485,351.154 416.383,351.154 "/>
<polyline clip-path="url(#clip450)" style="stroke:#000000; stroke-linecap:round; stroke-linejoin:round; stroke-width:6; stroke-opacity:1; fill:none" points="397.485,129.147 416.383,129.147 "/>
<path clip-path="url(#clip450)" d="M270.515 1240.83 Q270.515 1229.68 273.331 1223.6 Q277.259 1214.56 286.523 1214.56 Q288.487 1214.56 290.525 1215.11 Q292.6 1215.63 295.194 1217.67 Q297.825 1219.71 299.418 1223.04 Q302.457 1229.49 302.457 1240.83 Q302.457 1251.91 299.641 1257.95 Q295.527 1266.77 286.449 1266.77 Q283.04 1266.77 279.557 1265.03 Q276.111 1263.29 273.924 1259.1 Q270.515 1252.84 270.515 1240.83 M276.815 1239.9 Q276.815 1251.35 277.63 1255.91 Q278.556 1260.84 281.076 1262.99 Q283.633 1265.1 286.449 1265.1 Q289.487 1265.1 292.007 1262.84 Q294.564 1260.54 295.342 1255.62 Q296.194 1250.76 296.157 1239.9 Q296.157 1229.34 295.416 1225.12 Q294.416 1220.19 291.748 1218.23 Q289.117 1216.23 286.449 1216.23 Q285.448 1216.23 284.374 1216.52 Q283.336 1216.82 281.817 1217.67 Q280.298 1218.52 279.112 1220.64 Q277.963 1222.75 277.408 1225.93 Q276.815 1230.05 276.815 1239.9 Z" fill="#000000" fill-rule="nonzero" fill-opacity="1" /><path clip-path="url(#clip450)" d="M313.092 1263.88 Q311.943 1262.66 311.943 1261.06 Q311.943 1259.47 313.092 1258.32 Q314.24 1257.13 315.982 1257.13 Q317.649 1257.13 318.761 1258.25 Q319.91 1259.32 319.91 1261.1 Q319.91 1262.84 318.687 1263.99 Q317.501 1265.1 315.982 1265.1 Q314.24 1265.1 313.092 1263.88 Z" fill="#000000" fill-rule="nonzero" fill-opacity="1" /><path clip-path="url(#clip450)" d="M329.544 1240.83 Q329.544 1229.68 332.36 1223.6 Q336.288 1214.56 345.552 1214.56 Q347.516 1214.56 349.554 1215.11 Q351.629 1215.63 354.223 1217.67 Q356.854 1219.71 358.447 1223.04 Q361.485 1229.49 361.485 1240.83 Q361.485 1251.91 358.669 1257.95 Q354.556 1266.77 345.478 1266.77 Q342.069 1266.77 338.585 1265.03 Q335.139 1263.29 332.953 1259.1 Q329.544 1252.84 329.544 1240.83 M335.843 1239.9 Q335.843 1251.35 336.659 1255.91 Q337.585 1260.84 340.105 1262.99 Q342.661 1265.1 345.478 1265.1 Q348.516 1265.1 351.036 1262.84 Q353.593 1260.54 354.371 1255.62 Q355.223 1250.76 355.186 1239.9 Q355.186 1229.34 354.445 1225.12 Q353.444 1220.19 350.777 1218.23 Q348.146 1216.23 345.478 1216.23 Q344.477 1216.23 343.403 1216.52 Q342.365 1216.82 340.846 1217.67 Q339.327 1218.52 338.141 1220.64 Q336.992 1222.75 336.436 1225.93 Q335.843 1230.05 335.843 1239.9 Z" fill="#000000" fill-rule="nonzero" fill-opacity="1" /><path clip-path="url(#clip450)" d="M271.331 1018.82 Q271.331 1007.67 274.147 1001.59 Q278.075 992.551 287.338 992.551 Q289.302 992.551 291.34 993.107 Q293.415 993.626 296.009 995.664 Q298.64 997.702 300.233 1001.04 Q303.272 1007.48 303.272 1018.82 Q303.272 1029.9 300.456 1035.94 Q296.343 1044.76 287.264 1044.76 Q283.855 1044.76 280.372 1043.02 Q276.926 1041.28 274.74 1037.09 Q271.331 1030.83 271.331 1018.82 M277.63 1017.9 Q277.63 1029.35 278.445 1033.9 Q279.371 1038.83 281.891 1040.98 Q284.448 1043.09 287.264 1043.09 Q290.303 1043.09 292.822 1040.83 Q295.379 1038.54 296.157 1033.61 Q297.01 1028.75 296.973 1017.9 Q296.973 1007.34 296.231 1003.11 Q295.231 998.184 292.563 996.22 Q289.932 994.219 287.264 994.219 Q286.264 994.219 285.189 994.515 Q284.152 994.812 282.632 995.664 Q281.113 996.516 279.927 998.628 Q278.779 1000.74 278.223 1003.93 Q277.63 1008.04 277.63 1017.9 Z" fill="#000000" fill-rule="nonzero" fill-opacity="1" /><path clip-path="url(#clip450)" d="M313.907 1041.87 Q312.758 1040.65 312.758 1039.06 Q312.758 1037.46 313.907 1036.31 Q315.055 1035.13 316.797 1035.13 Q318.465 1035.13 319.576 1036.24 Q320.725 1037.31 320.725 1039.09 Q320.725 1040.83 319.502 1041.98 Q318.316 1043.09 316.797 1043.09 Q315.055 1043.09 313.907 1041.87 Z" fill="#000000" fill-rule="nonzero" fill-opacity="1" /><path clip-path="url(#clip450)" d="M331.174 1030.87 Q331.174 1028.61 332.397 1027.75 Q333.62 1026.86 334.917 1026.86 Q336.659 1026.86 337.659 1027.98 Q338.697 1029.05 338.697 1030.57 Q338.697 1032.09 337.659 1033.2 Q336.659 1034.28 334.917 1034.28 Q334.065 1034.28 333.62 1034.13 Q334.621 1037.61 337.659 1040.13 Q340.735 1042.65 344.774 1042.65 Q349.85 1042.65 352.889 1037.72 Q354.704 1034.53 354.704 1027.31 Q354.704 1020.94 353.333 1017.75 Q351.221 1012.89 346.886 1012.89 Q340.735 1012.89 337.103 1018.19 Q336.659 1018.86 336.14 1018.9 Q335.399 1018.9 335.213 1018.49 Q335.065 1018.05 335.065 1016.9 L335.065 994.441 Q335.065 992.625 335.806 992.625 Q336.103 992.625 336.733 992.848 Q341.513 994.96 346.812 994.997 Q352.259 994.997 357.15 992.774 Q357.521 992.551 357.743 992.551 Q358.484 992.551 358.521 993.404 Q358.521 993.7 357.891 994.589 Q357.298 995.442 356.001 996.59 Q354.704 997.702 353.037 998.777 Q351.369 999.851 348.924 1000.59 Q346.515 1001.3 343.847 1001.3 Q340.66 1001.3 337.4 1000.3 L337.4 1015.08 Q341.327 1011.23 347.034 1011.23 Q353.111 1011.23 357.298 1016.12 Q361.485 1021.01 361.485 1027.83 Q361.485 1034.98 356.52 1039.87 Q351.592 1044.76 344.922 1044.76 Q338.845 1044.76 334.991 1040.43 Q331.174 1036.09 331.174 1030.87 Z" fill="#000000" fill-rule="nonzero" fill-opacity="1" /><path clip-path="url(#clip450)" d="M274.295 777.77 L274.295 775.399 Q283.41 775.399 288.116 770.544 Q289.413 770.544 289.636 770.841 Q289.858 771.137 289.858 772.508 L289.858 815.085 Q289.858 817.345 290.97 818.049 Q292.081 818.753 296.936 818.753 L299.344 818.753 L299.344 821.088 Q296.676 820.865 287.042 820.865 Q277.408 820.865 274.777 821.088 L274.777 818.753 L277.185 818.753 Q281.965 818.753 283.114 818.086 Q284.263 817.382 284.263 815.085 L284.263 775.769 Q280.298 777.77 274.295 777.77 Z" fill="#000000" fill-rule="nonzero" fill-opacity="1" /><path clip-path="url(#clip450)" d="M313.092 819.865 Q311.943 818.642 311.943 817.049 Q311.943 815.455 313.092 814.306 Q314.24 813.121 315.982 813.121 Q317.649 813.121 318.761 814.232 Q319.91 815.307 319.91 817.086 Q319.91 818.827 318.687 819.976 Q317.501 821.088 315.982 821.088 Q314.24 821.088 313.092 819.865 Z" fill="#000000" fill-rule="nonzero" fill-opacity="1" /><path clip-path="url(#clip450)" d="M329.544 796.816 Q329.544 785.663 332.36 779.586 Q336.288 770.544 345.552 770.544 Q347.516 770.544 349.554 771.1 Q351.629 771.619 354.223 773.657 Q356.854 775.695 358.447 779.03 Q361.485 785.478 361.485 796.816 Q361.485 807.896 358.669 813.936 Q354.556 822.755 345.478 822.755 Q342.069 822.755 338.585 821.013 Q335.139 819.272 332.953 815.085 Q329.544 808.822 329.544 796.816 M335.843 795.89 Q335.843 807.34 336.659 811.898 Q337.585 816.826 340.105 818.975 Q342.661 821.088 345.478 821.088 Q348.516 821.088 351.036 818.827 Q353.593 816.53 354.371 811.601 Q355.223 806.747 355.186 795.89 Q355.186 785.329 354.445 781.105 Q353.444 776.177 350.777 774.213 Q348.146 772.212 345.478 772.212 Q344.477 772.212 343.403 772.508 Q342.365 772.805 340.846 773.657 Q339.327 774.509 338.141 776.621 Q336.992 778.734 336.436 781.92 Q335.843 786.033 335.843 795.89 Z" fill="#000000" fill-rule="nonzero" fill-opacity="1" /><path clip-path="url(#clip450)" d="M275.11 555.763 L275.11 553.392 Q284.226 553.392 288.932 548.538 Q290.229 548.538 290.451 548.834 Q290.673 549.131 290.673 550.502 L290.673 593.078 Q290.673 595.338 291.785 596.042 Q292.897 596.746 297.751 596.746 L300.159 596.746 L300.159 599.081 Q297.491 598.858 287.857 598.858 Q278.223 598.858 275.592 599.081 L275.592 596.746 L278 596.746 Q282.781 596.746 283.929 596.079 Q285.078 595.375 285.078 593.078 L285.078 553.762 Q281.113 555.763 275.11 555.763 Z" fill="#000000" fill-rule="nonzero" fill-opacity="1" /><path clip-path="url(#clip450)" d="M313.907 597.858 Q312.758 596.635 312.758 595.042 Q312.758 593.448 313.907 592.3 Q315.055 591.114 316.797 591.114 Q318.465 591.114 319.576 592.226 Q320.725 593.3 320.725 595.079 Q320.725 596.82 319.502 597.969 Q318.316 599.081 316.797 599.081 Q315.055 599.081 313.907 597.858 Z" fill="#000000" fill-rule="nonzero" fill-opacity="1" /><path clip-path="url(#clip450)" d="M331.174 586.853 Q331.174 584.592 332.397 583.74 Q333.62 582.851 334.917 582.851 Q336.659 582.851 337.659 583.962 Q338.697 585.037 338.697 586.556 Q338.697 588.075 337.659 589.187 Q336.659 590.262 334.917 590.262 Q334.065 590.262 333.62 590.113 Q334.621 593.597 337.659 596.116 Q340.735 598.636 344.774 598.636 Q349.85 598.636 352.889 593.708 Q354.704 590.521 354.704 583.295 Q354.704 576.922 353.333 573.735 Q351.221 568.881 346.886 568.881 Q340.735 568.881 337.103 574.18 Q336.659 574.847 336.14 574.884 Q335.399 574.884 335.213 574.476 Q335.065 574.032 335.065 572.883 L335.065 550.427 Q335.065 548.612 335.806 548.612 Q336.103 548.612 336.733 548.834 Q341.513 550.946 346.812 550.983 Q352.259 550.983 357.15 548.76 Q357.521 548.538 357.743 548.538 Q358.484 548.538 358.521 549.39 Q358.521 549.686 357.891 550.576 Q357.298 551.428 356.001 552.577 Q354.704 553.688 353.037 554.763 Q351.369 555.837 348.924 556.579 Q346.515 557.283 343.847 557.283 Q340.66 557.283 337.4 556.282 L337.4 571.067 Q341.327 567.213 347.034 567.213 Q353.111 567.213 357.298 572.105 Q361.485 576.996 361.485 583.814 Q361.485 590.966 356.52 595.857 Q351.592 600.748 344.922 600.748 Q338.845 600.748 334.991 596.413 Q331.174 592.077 331.174 586.853 Z" fill="#000000" fill-rule="nonzero" fill-opacity="1" /><path clip-path="url(#clip450)" d="M271.331 377.074 Q271.331 375.703 271.442 375.295 Q271.59 374.888 272.183 374.258 L286.745 358.028 Q294.712 349.06 294.712 341.242 Q294.712 336.165 292.044 332.534 Q289.413 328.902 284.559 328.902 Q281.224 328.902 278.408 330.94 Q275.592 332.978 274.295 336.61 Q274.517 336.536 275.295 336.536 Q277.185 336.536 278.223 337.721 Q279.297 338.907 279.297 340.501 Q279.297 342.539 277.963 343.539 Q276.666 344.503 275.37 344.503 Q274.851 344.503 274.147 344.391 Q273.48 344.28 272.405 343.243 Q271.331 342.168 271.331 340.278 Q271.331 334.979 275.332 330.755 Q279.371 326.531 285.523 326.531 Q292.489 326.531 297.047 330.681 Q301.642 334.794 301.642 341.242 Q301.642 343.502 300.937 345.577 Q300.27 347.615 299.344 349.209 Q298.455 350.802 296.009 353.359 Q293.564 355.915 291.6 357.731 Q289.636 359.547 285.226 363.401 L277.185 371.219 L290.859 371.219 Q297.528 371.219 298.047 370.626 Q298.788 369.552 299.715 363.882 L301.642 363.882 L299.492 377.074 L271.331 377.074 Z" fill="#000000" fill-rule="nonzero" fill-opacity="1" /><path clip-path="url(#clip450)" d="M313.092 375.851 Q311.943 374.628 311.943 373.035 Q311.943 371.442 313.092 370.293 Q314.24 369.107 315.982 369.107 Q317.649 369.107 318.761 370.219 Q319.91 371.293 319.91 373.072 Q319.91 374.814 318.687 375.962 Q317.501 377.074 315.982 377.074 Q314.24 377.074 313.092 375.851 Z" fill="#000000" fill-rule="nonzero" fill-opacity="1" /><path clip-path="url(#clip450)" d="M329.544 352.803 Q329.544 341.649 332.36 335.572 Q336.288 326.531 345.552 326.531 Q347.516 326.531 349.554 327.087 Q351.629 327.605 354.223 329.643 Q356.854 331.681 358.447 335.016 Q361.485 341.464 361.485 352.803 Q361.485 363.882 358.669 369.922 Q354.556 378.741 345.478 378.741 Q342.069 378.741 338.585 377 Q335.139 375.258 332.953 371.071 Q329.544 364.809 329.544 352.803 M335.843 351.876 Q335.843 363.326 336.659 367.884 Q337.585 372.813 340.105 374.962 Q342.661 377.074 345.478 377.074 Q348.516 377.074 351.036 374.814 Q353.593 372.516 354.371 367.588 Q355.223 362.734 355.186 351.876 Q355.186 341.316 354.445 337.092 Q353.444 332.163 350.777 330.199 Q348.146 328.198 345.478 328.198 Q344.477 328.198 343.403 328.495 Q342.365 328.791 340.846 329.643 Q339.327 330.496 338.141 332.608 Q336.992 334.72 336.436 337.907 Q335.843 342.02 335.843 351.876 Z" fill="#000000" fill-rule="nonzero" fill-opacity="1" /><path clip-path="url(#clip450)" d="M272.146 155.067 Q272.146 153.696 272.257 153.288 Q272.405 152.881 272.998 152.251 L287.561 136.021 Q295.527 127.053 295.527 119.235 Q295.527 114.158 292.859 110.527 Q290.229 106.896 285.374 106.896 Q282.039 106.896 279.223 108.934 Q276.407 110.972 275.11 114.603 Q275.332 114.529 276.111 114.529 Q278 114.529 279.038 115.715 Q280.113 116.9 280.113 118.494 Q280.113 120.532 278.779 121.532 Q277.482 122.496 276.185 122.496 Q275.666 122.496 274.962 122.385 Q274.295 122.273 273.22 121.236 Q272.146 120.161 272.146 118.271 Q272.146 112.973 276.148 108.748 Q280.187 104.524 286.338 104.524 Q293.304 104.524 297.862 108.674 Q302.457 112.787 302.457 119.235 Q302.457 121.495 301.753 123.57 Q301.086 125.608 300.159 127.202 Q299.27 128.795 296.824 131.352 Q294.379 133.909 292.415 135.724 Q290.451 137.54 286.041 141.394 L278 149.212 L291.674 149.212 Q298.344 149.212 298.862 148.619 Q299.604 147.545 300.53 141.875 L302.457 141.875 L300.308 155.067 L272.146 155.067 Z" fill="#000000" fill-rule="nonzero" fill-opacity="1" /><path clip-path="url(#clip450)" d="M313.907 153.844 Q312.758 152.621 312.758 151.028 Q312.758 149.435 313.907 148.286 Q315.055 147.1 316.797 147.1 Q318.465 147.1 319.576 148.212 Q320.725 149.286 320.725 151.065 Q320.725 152.807 319.502 153.955 Q318.316 155.067 316.797 155.067 Q315.055 155.067 313.907 153.844 Z" fill="#000000" fill-rule="nonzero" fill-opacity="1" /><path clip-path="url(#clip450)" d="M331.174 142.839 Q331.174 140.579 332.397 139.726 Q333.62 138.837 334.917 138.837 Q336.659 138.837 337.659 139.949 Q338.697 141.023 338.697 142.542 Q338.697 144.062 337.659 145.173 Q336.659 146.248 334.917 146.248 Q334.065 146.248 333.62 146.1 Q334.621 149.583 337.659 152.103 Q340.735 154.622 344.774 154.622 Q349.85 154.622 352.889 149.694 Q354.704 146.507 354.704 139.282 Q354.704 132.908 353.333 129.721 Q351.221 124.867 346.886 124.867 Q340.735 124.867 337.103 130.166 Q336.659 130.833 336.14 130.87 Q335.399 130.87 335.213 130.463 Q335.065 130.018 335.065 128.869 L335.065 106.414 Q335.065 104.598 335.806 104.598 Q336.103 104.598 336.733 104.82 Q341.513 106.933 346.812 106.97 Q352.259 106.97 357.15 104.746 Q357.521 104.524 357.743 104.524 Q358.484 104.524 358.521 105.376 Q358.521 105.673 357.891 106.562 Q357.298 107.414 356.001 108.563 Q354.704 109.675 353.037 110.749 Q351.369 111.824 348.924 112.565 Q346.515 113.269 343.847 113.269 Q340.66 113.269 337.4 112.269 L337.4 127.053 Q341.327 123.2 347.034 123.2 Q353.111 123.2 357.298 128.091 Q361.485 132.982 361.485 139.8 Q361.485 146.952 356.52 151.843 Q351.592 156.735 344.922 156.735 Q338.845 156.735 334.991 152.399 Q331.174 148.064 331.174 142.839 Z" fill="#000000" fill-rule="nonzero" fill-opacity="1" /><path clip-path="url(#clip450)" d="M175.651 650.776 Q178.356 650.776 179.902 652.466 Q181.4 654.157 181.4 656.09 Q181.4 657.925 180.337 658.891 Q179.274 659.858 177.922 659.858 Q176.086 659.858 174.492 658.505 Q172.897 657.152 172.559 655.123 Q171.303 657.104 171.303 660.051 Q171.303 661.983 172.318 663.674 Q173.332 665.317 174.637 666.331 Q175.941 667.297 177.825 668.167 Q179.661 668.988 180.772 669.326 Q181.835 669.616 182.994 669.858 L196.52 673.239 Q202.946 674.882 205.216 674.882 Q208.018 674.882 209.902 673.529 Q211.738 672.176 211.738 669.471 Q211.738 668.408 211.448 667.201 Q211.11 665.993 210.24 664.447 Q209.322 662.853 207.97 661.452 Q206.569 660.003 204.202 658.602 Q201.834 657.201 198.791 656.283 Q197.728 655.993 197.728 655.027 Q197.728 653.819 198.694 653.819 Q199.516 653.819 201.255 654.495 Q202.946 655.123 205.168 656.524 Q207.342 657.877 209.322 659.664 Q211.255 661.452 212.607 664.109 Q213.96 666.766 213.96 669.664 Q213.96 673.819 211.738 676.572 Q209.516 679.326 206.424 680.341 Q206.859 680.582 207.438 680.92 Q208.018 681.258 209.322 682.273 Q210.578 683.239 211.545 684.35 Q212.462 685.461 213.187 687.2 Q213.96 688.891 213.96 690.727 Q213.96 693.046 213.284 695.123 Q212.607 697.152 211.061 698.601 Q209.516 700.051 207.39 700.051 Q205.023 700.051 203.38 698.456 Q201.69 696.814 201.69 694.592 Q201.69 693.191 202.511 692.08 Q203.332 690.92 205.119 690.92 Q207.1 690.92 208.598 692.273 Q210.095 693.626 210.482 695.558 Q211.738 693.577 211.738 690.63 Q211.738 687.442 208.936 684.93 Q206.134 682.418 201.448 681.21 Q190.192 678.215 185.168 677.056 Q180.095 675.896 177.922 675.896 Q175.893 675.896 174.492 676.428 Q173.091 676.959 172.463 677.877 Q171.786 678.746 171.545 679.568 Q171.303 680.341 171.303 681.21 Q171.303 682.659 171.883 684.302 Q172.463 685.896 173.815 687.828 Q175.12 689.712 177.825 691.5 Q180.53 693.287 184.25 694.495 Q185.361 694.737 185.361 695.799 Q185.313 696.959 184.347 696.959 Q183.525 696.959 181.835 696.331 Q180.095 695.654 177.922 694.302 Q175.748 692.901 173.815 691.113 Q171.835 689.278 170.482 686.621 Q169.129 683.915 169.129 681.017 Q169.129 679.713 169.419 678.457 Q169.661 677.152 170.385 675.606 Q171.11 674.012 172.704 672.611 Q174.298 671.21 176.617 670.341 Q175.506 669.761 174.443 668.988 Q173.381 668.167 172.076 666.911 Q170.724 665.606 169.951 663.819 Q169.129 661.983 169.129 659.954 Q169.129 657.974 169.661 656.041 Q170.144 654.109 171.738 652.466 Q173.284 650.776 175.651 650.776 Z" fill="#000000" fill-rule="nonzero" fill-opacity="1" /><polyline clip-path="url(#clip452)" style="stroke:#009af9; stroke-linecap:round; stroke-linejoin:round; stroke-width:12; stroke-opacity:1; fill:none" points="452.155,1239.18 489.345,1143.66 526.535,1072.42 563.725,1022.4 600.915,990.663 638.105,974.437 675.295,971.106 712.485,978.21 749.675,993.442 786.865,1014.65 824.055,1039.85 861.245,1067.18 898.435,1094.98 935.625,1121.7 972.815,1145.98 1010,1166.59 1047.19,1182.47 1084.38,1192.72 1121.57,1196.58 1158.76,1193.45 1195.95,1182.89 1233.14,1164.62 1270.33,1138.49 1307.52,1104.54 1344.71,1062.94 1381.9,1014.03 1419.09,958.296 1456.28,896.38 1493.47,829.083 1530.66,757.362 1567.85,682.325 1605.04,605.238 1642.23,527.523 1679.42,450.755 1716.61,376.665 1753.8,307.141 1790.99,244.223 1828.18,190.11 1865.37,147.153 1902.56,117.86 1939.75,104.895 1976.94,111.075 2014.13,139.374 2051.32,192.92 2088.51,274.999 2125.7,389.049 2162.89,538.664 2200.08,727.595 2237.27,959.748 2274.46,1239.18 "/>
<polyline clip-path="url(#clip452)" style="stroke:#e26f46; stroke-linecap:round; stroke-linejoin:round; stroke-width:12; stroke-opacity:1; fill:none" stroke-dasharray="48, 30" points="452.155,1170.48 907.732,745.378 1363.31,505.258 1818.89,1222.37 2274.46,755.715 "/>
<circle clip-path="url(#clip452)" cx="452.155" cy="1170.48" r="21.6" fill="#e26f46" fill-rule="evenodd" fill-opacity="1" stroke="#000000" stroke-opacity="1" stroke-width="4.8"/>
<circle clip-path="url(#clip452)" cx="907.732" cy="745.378" r="21.6" fill="#e26f46" fill-rule="evenodd" fill-opacity="1" stroke="#000000" stroke-opacity="1" stroke-width="4.8"/>
<circle clip-path="url(#clip452)" cx="1363.31" cy="505.258" r="21.6" fill="#e26f46" fill-rule="evenodd" fill-opacity="1" stroke="#000000" stroke-opacity="1" stroke-width="4.8"/>
<circle clip-path="url(#clip452)" cx="1818.89" cy="1222.37" r="21.6" fill="#e26f46" fill-rule="evenodd" fill-opacity="1" stroke="#000000" stroke-opacity="1" stroke-width="4.8"/>
<circle clip-path="url(#clip452)" cx="2274.46" cy="755.715" r="21.6" fill="#e26f46" fill-rule="evenodd" fill-opacity="1" stroke="#000000" stroke-opacity="1" stroke-width="4.8"/>
<path clip-path="url(#clip450)" d="M461.874 344.224 L972.44 344.224 L972.44 110.944 L461.874 110.944  Z" fill="#ffffff" fill-rule="evenodd" fill-opacity="1"/>
<polyline clip-path="url(#clip450)" style="stroke:#000000; stroke-linecap:round; stroke-linejoin:round; stroke-width:6; stroke-opacity:1; fill:none" points="461.874,344.224 972.44,344.224 972.44,110.944 461.874,110.944 461.874,344.224 "/>
<polyline clip-path="url(#clip450)" style="stroke:#009af9; stroke-linecap:round; stroke-linejoin:round; stroke-width:12; stroke-opacity:1; fill:none" points="483.336,188.704 612.113,188.704 "/>
<path clip-path="url(#clip450)" d="M669.412 179.472 Q669.412 181.439 668.182 182.563 Q666.953 183.653 665.547 183.653 Q664.212 183.653 663.51 182.88 Q662.807 182.107 662.807 181.123 Q662.807 179.788 663.791 178.628 Q664.774 177.469 666.25 177.223 Q664.81 176.31 662.666 176.31 Q661.261 176.31 660.031 177.047 Q658.837 177.785 658.099 178.734 Q657.396 179.682 656.764 181.053 Q656.167 182.388 655.921 183.196 Q655.71 183.969 655.534 184.812 L653.075 194.649 Q651.88 199.322 651.88 200.973 Q651.88 203.011 652.864 204.381 Q653.848 205.717 655.815 205.717 Q656.588 205.717 657.467 205.506 Q658.345 205.26 659.469 204.627 Q660.629 203.96 661.648 202.976 Q662.702 201.957 663.72 200.236 Q664.739 198.514 665.407 196.301 Q665.618 195.528 666.32 195.528 Q667.199 195.528 667.199 196.23 Q667.199 196.828 666.707 198.092 Q666.25 199.322 665.231 200.938 Q664.247 202.519 662.948 203.96 Q661.648 205.365 659.715 206.349 Q657.783 207.333 655.675 207.333 Q652.653 207.333 650.651 205.717 Q648.648 204.1 647.91 201.852 Q647.735 202.168 647.489 202.59 Q647.243 203.011 646.505 203.96 Q645.802 204.873 644.994 205.576 Q644.186 206.244 642.921 206.771 Q641.692 207.333 640.357 207.333 Q638.67 207.333 637.159 206.841 Q635.684 206.349 634.63 205.225 Q633.576 204.1 633.576 202.554 Q633.576 200.833 634.735 199.638 Q635.93 198.409 637.546 198.409 Q638.565 198.409 639.373 199.006 Q640.216 199.603 640.216 200.903 Q640.216 202.344 639.232 203.433 Q638.249 204.522 636.843 204.803 Q638.284 205.717 640.427 205.717 Q642.746 205.717 644.573 203.679 Q646.4 201.641 647.278 198.233 Q649.456 190.047 650.299 186.393 Q651.143 182.704 651.143 181.123 Q651.143 179.647 650.756 178.628 Q650.37 177.61 649.702 177.153 Q649.07 176.661 648.472 176.485 Q647.91 176.31 647.278 176.31 Q646.224 176.31 645.029 176.731 Q643.87 177.153 642.465 178.137 Q641.094 179.085 639.794 181.053 Q638.494 183.02 637.616 185.725 Q637.44 186.534 636.668 186.534 Q635.824 186.498 635.824 185.796 Q635.824 185.198 636.281 183.969 Q636.773 182.704 637.757 181.123 Q638.776 179.542 640.076 178.137 Q641.411 176.696 643.343 175.712 Q645.31 174.729 647.418 174.729 Q648.367 174.729 649.281 174.939 Q650.229 175.115 651.353 175.642 Q652.513 176.169 653.532 177.328 Q654.551 178.488 655.183 180.174 Q655.605 179.366 656.167 178.593 Q656.764 177.82 657.677 176.872 Q658.626 175.888 659.926 175.326 Q661.261 174.729 662.737 174.729 Q664.177 174.729 665.583 175.115 Q666.988 175.466 668.182 176.626 Q669.412 177.75 669.412 179.472 Z" fill="#000000" fill-rule="nonzero" fill-opacity="1" /><path clip-path="url(#clip450)" d="M694.285 195.598 Q694.356 194.72 695.726 194.72 L739.819 194.72 Q741.892 194.72 741.927 195.528 Q741.927 196.406 739.959 196.371 L696.218 196.371 Q694.285 196.406 694.285 195.598 M694.285 181.545 Q694.285 180.666 695.796 180.701 L739.748 180.701 Q741.892 180.701 741.927 181.545 Q741.927 182.353 740.1 182.353 L695.726 182.353 Q694.285 182.353 694.285 181.545 Z" fill="#000000" fill-rule="nonzero" fill-opacity="1" /><path clip-path="url(#clip450)" d="M805.551 160.745 Q805.551 162.678 804.322 163.872 Q803.127 165.067 801.616 165.067 Q800.527 165.067 799.719 164.399 Q798.946 163.732 798.946 162.572 Q798.946 161.378 799.86 160.113 Q800.773 158.848 802.846 158.673 Q801.476 157.373 799.297 157.373 Q798.208 157.373 797.295 158.075 Q796.416 158.743 795.925 159.832 Q795.398 160.956 794.203 167.315 Q793.817 169.388 793.465 171.391 Q793.114 173.394 792.692 175.502 L798.665 175.502 Q799.438 175.502 799.754 175.537 Q800.07 175.572 800.316 175.747 Q800.597 175.923 800.597 176.31 Q800.597 177.293 800.141 177.539 Q799.719 177.75 798.454 177.75 L792.271 177.75 L787.949 200.552 Q787.844 201.219 787.387 203.327 Q786.965 205.4 785.947 208.808 Q784.928 212.251 783.909 214.289 Q783.347 215.449 782.609 216.538 Q781.906 217.662 780.887 218.786 Q779.868 219.911 778.533 220.578 Q777.198 221.281 775.793 221.281 Q773.404 221.281 771.542 219.946 Q769.68 218.611 769.68 216.327 Q769.68 214.395 770.874 213.2 Q772.104 212.005 773.615 212.005 Q774.704 212.005 775.477 212.673 Q776.285 213.341 776.285 214.5 Q776.285 214.992 776.109 215.554 Q775.934 216.116 775.547 216.748 Q775.161 217.416 774.317 217.873 Q773.474 218.329 772.315 218.4 Q773.685 219.7 775.793 219.7 Q776.461 219.7 777.058 219.419 Q777.655 219.173 778.147 218.54 Q778.674 217.908 779.06 217.275 Q779.447 216.678 779.833 215.519 Q780.22 214.395 780.466 213.551 Q780.712 212.708 781.028 211.197 Q781.379 209.687 781.555 208.773 Q781.731 207.895 782.047 206.173 L787.422 177.75 L782.679 177.75 Q781.836 177.75 781.485 177.715 Q781.168 177.68 780.922 177.504 Q780.677 177.293 780.677 176.872 Q780.677 176.204 780.958 175.923 Q781.274 175.607 781.625 175.572 Q781.977 175.502 782.82 175.502 L787.809 175.502 Q789.495 166.613 790.163 164.224 Q790.936 161.694 792.13 159.937 Q793.325 158.146 794.66 157.302 Q795.995 156.459 797.084 156.143 Q798.208 155.792 799.297 155.792 Q801.757 155.792 803.654 157.127 Q805.551 158.427 805.551 160.745 Z" fill="#000000" fill-rule="nonzero" fill-opacity="1" /><path clip-path="url(#clip450)" d="M815.238 188.536 Q815.238 176.38 819.77 166.578 Q821.702 162.467 824.408 159.024 Q827.113 155.581 828.905 154.07 Q830.697 152.559 831.188 152.559 Q831.891 152.559 831.926 153.262 Q831.926 153.613 830.978 154.492 Q819.384 166.297 819.419 188.536 Q819.419 210.846 830.697 222.194 Q831.926 223.424 831.926 223.81 Q831.926 224.513 831.188 224.513 Q830.697 224.513 828.975 223.073 Q827.253 221.632 824.583 218.329 Q821.913 215.027 819.981 210.987 Q815.238 201.184 815.238 188.536 Z" fill="#000000" fill-rule="nonzero" fill-opacity="1" /><path clip-path="url(#clip450)" d="M859.494 176.31 Q859.494 177.293 859.037 177.539 Q858.581 177.75 857.316 177.75 L850.57 177.75 L845.23 198.971 Q844.808 200.833 844.808 202.414 Q844.808 204.171 845.335 204.944 Q845.897 205.717 847.057 205.717 Q849.341 205.717 851.8 203.644 Q854.294 201.571 856.402 196.511 Q856.684 195.844 856.824 195.703 Q857 195.528 857.456 195.528 Q858.335 195.528 858.335 196.23 Q858.335 196.476 857.843 197.601 Q857.386 198.725 856.367 200.376 Q855.384 202.027 854.084 203.573 Q852.819 205.119 850.886 206.244 Q848.954 207.333 846.881 207.333 Q843.965 207.333 842.103 205.471 Q840.276 203.608 840.276 200.692 Q840.276 199.744 841.014 196.722 Q841.752 193.666 845.757 177.75 L839.398 177.75 Q838.519 177.75 838.168 177.715 Q837.852 177.68 837.606 177.504 Q837.395 177.293 837.395 176.872 Q837.395 176.204 837.676 175.923 Q837.957 175.607 838.309 175.572 Q838.695 175.502 839.573 175.502 L846.319 175.502 L849.13 164.083 Q849.411 162.959 850.114 162.326 Q850.851 161.659 851.273 161.589 Q851.695 161.483 852.011 161.483 Q852.959 161.483 853.521 162.01 Q854.084 162.502 854.084 163.416 Q854.084 163.907 851.132 175.502 L857.456 175.502 Q858.265 175.502 858.581 175.537 Q858.932 175.572 859.213 175.747 Q859.494 175.923 859.494 176.31 Z" fill="#000000" fill-rule="nonzero" fill-opacity="1" /><path clip-path="url(#clip450)" d="M865.127 223.81 Q865.127 223.459 866.04 222.581 Q877.634 210.776 877.634 188.536 Q877.634 166.226 866.497 154.948 Q865.127 153.648 865.127 153.262 Q865.127 152.559 865.829 152.559 Q866.321 152.559 868.043 154 Q869.799 155.44 872.434 158.743 Q875.105 162.045 877.072 166.086 Q881.815 175.888 881.815 188.536 Q881.815 200.692 877.283 210.495 Q875.35 214.605 872.645 218.048 Q869.94 221.492 868.148 223.002 Q866.356 224.513 865.829 224.513 Q865.127 224.513 865.127 223.81 Z" fill="#000000" fill-rule="nonzero" fill-opacity="1" /><polyline clip-path="url(#clip450)" style="stroke:#e26f46; stroke-linecap:round; stroke-linejoin:round; stroke-width:12; stroke-opacity:1; fill:none" stroke-dasharray="48, 30" points="483.336,266.464 612.113,266.464 "/>
<circle clip-path="url(#clip450)" cx="547.725" cy="266.464" r="11.9238" fill="#e26f46" fill-rule="evenodd" fill-opacity="1" stroke="#000000" stroke-opacity="1" stroke-width="4.55111"/>
<path clip-path="url(#clip450)" d="M633.576 246.56 L674.324 246.56 L674.324 242.72 L633.576 242.72  Z" fill="#000000" fill-rule="evenodd" fill-opacity="1"/>
<path clip-path="url(#clip450)" d="M669.412 261.992 Q669.412 263.959 668.182 265.084 Q666.953 266.173 665.547 266.173 Q664.212 266.173 663.51 265.4 Q662.807 264.627 662.807 263.643 Q662.807 262.308 663.791 261.149 Q664.774 259.989 666.25 259.743 Q664.81 258.83 662.666 258.83 Q661.261 258.83 660.031 259.568 Q658.837 260.305 658.099 261.254 Q657.396 262.203 656.764 263.573 Q656.167 264.908 655.921 265.716 Q655.71 266.489 655.534 267.332 L653.075 277.17 Q651.88 281.842 651.88 283.494 Q651.88 285.531 652.864 286.902 Q653.848 288.237 655.815 288.237 Q656.588 288.237 657.467 288.026 Q658.345 287.78 659.469 287.148 Q660.629 286.48 661.648 285.496 Q662.702 284.477 663.72 282.756 Q664.739 281.034 665.407 278.821 Q665.618 278.048 666.32 278.048 Q667.199 278.048 667.199 278.751 Q667.199 279.348 666.707 280.613 Q666.25 281.842 665.231 283.459 Q664.247 285.04 662.948 286.48 Q661.648 287.885 659.715 288.869 Q657.783 289.853 655.675 289.853 Q652.653 289.853 650.651 288.237 Q648.648 286.621 647.91 284.372 Q647.735 284.688 647.489 285.11 Q647.243 285.531 646.505 286.48 Q645.802 287.394 644.994 288.096 Q644.186 288.764 642.921 289.291 Q641.692 289.853 640.357 289.853 Q638.67 289.853 637.159 289.361 Q635.684 288.869 634.63 287.745 Q633.576 286.621 633.576 285.075 Q633.576 283.353 634.735 282.159 Q635.93 280.929 637.546 280.929 Q638.565 280.929 639.373 281.526 Q640.216 282.123 640.216 283.423 Q640.216 284.864 639.232 285.953 Q638.249 287.042 636.843 287.323 Q638.284 288.237 640.427 288.237 Q642.746 288.237 644.573 286.199 Q646.4 284.161 647.278 280.753 Q649.456 272.567 650.299 268.913 Q651.143 265.224 651.143 263.643 Q651.143 262.168 650.756 261.149 Q650.37 260.13 649.702 259.673 Q649.07 259.181 648.472 259.006 Q647.91 258.83 647.278 258.83 Q646.224 258.83 645.029 259.251 Q643.87 259.673 642.465 260.657 Q641.094 261.605 639.794 263.573 Q638.494 265.54 637.616 268.246 Q637.44 269.054 636.668 269.054 Q635.824 269.019 635.824 268.316 Q635.824 267.719 636.281 266.489 Q636.773 265.224 637.757 263.643 Q638.776 262.062 640.076 260.657 Q641.411 259.216 643.343 258.233 Q645.31 257.249 647.418 257.249 Q648.367 257.249 649.281 257.46 Q650.229 257.635 651.353 258.162 Q652.513 258.689 653.532 259.849 Q654.551 261.008 655.183 262.695 Q655.605 261.886 656.167 261.114 Q656.764 260.341 657.677 259.392 Q658.626 258.408 659.926 257.846 Q661.261 257.249 662.737 257.249 Q664.177 257.249 665.583 257.635 Q666.988 257.987 668.182 259.146 Q669.412 260.27 669.412 261.992 Z" fill="#000000" fill-rule="nonzero" fill-opacity="1" /><path clip-path="url(#clip450)" d="M701.67 289.411 L701.67 287.077 Q705.709 287.077 706.636 286.595 Q707.599 286.076 707.599 283.631 L707.599 263.287 Q707.599 260.471 706.599 259.767 Q705.635 259.063 701.67 259.063 L701.67 256.692 L712.231 255.876 L712.231 264.214 Q713.306 260.953 715.566 258.433 Q717.864 255.876 721.569 255.876 Q724.015 255.876 725.571 257.247 Q727.164 258.618 727.164 260.508 Q727.164 262.176 726.127 263.028 Q725.126 263.843 723.903 263.843 Q722.532 263.843 721.569 262.991 Q720.643 262.102 720.643 260.582 Q720.643 259.656 721.05 258.952 Q721.495 258.211 721.828 257.951 Q722.162 257.692 722.384 257.618 Q722.236 257.544 721.569 257.544 Q717.382 257.544 714.973 261.731 Q712.602 265.881 712.602 271.81 L712.602 283.482 Q712.602 285.669 713.491 286.373 Q714.417 287.077 718.382 287.077 L719.976 287.077 L719.976 289.411 Q716.937 289.189 710.341 289.189 Q709.415 289.189 707.97 289.226 Q706.525 289.263 704.635 289.337 Q702.745 289.411 701.67 289.411 Z" fill="#000000" fill-rule="nonzero" fill-opacity="1" /><path clip-path="url(#clip450)" d="M732.389 282.185 Q732.389 275.738 739.985 272.329 Q744.543 270.143 753.955 269.587 L753.955 266.808 Q753.955 262.102 751.472 259.619 Q749.027 257.099 745.914 257.099 Q740.356 257.099 737.688 260.582 Q739.948 260.657 740.764 261.805 Q741.579 262.917 741.579 264.066 Q741.579 265.585 740.615 266.585 Q739.689 267.549 738.096 267.549 Q736.576 267.549 735.576 266.622 Q734.575 265.659 734.575 263.991 Q734.575 260.286 737.91 257.84 Q741.282 255.395 746.062 255.395 Q752.288 255.395 756.438 259.582 Q757.735 260.879 758.365 262.546 Q759.032 264.214 759.106 265.325 Q759.18 266.4 759.18 268.549 L759.18 283.705 Q759.18 284.149 759.328 284.89 Q759.476 285.632 760.143 286.595 Q760.847 287.521 761.996 287.521 Q764.738 287.521 764.701 282.667 L764.701 278.406 L766.628 278.406 L766.628 282.667 Q766.628 286.706 764.479 288.3 Q762.367 289.856 760.403 289.856 Q757.883 289.856 756.29 288.003 Q754.696 286.15 754.474 283.631 Q753.325 286.521 750.694 288.411 Q748.1 290.263 744.543 290.263 Q741.801 290.263 739.207 289.559 Q736.65 288.892 734.501 287.003 Q732.389 285.076 732.389 282.185 M738.244 282.111 Q738.244 284.928 740.245 286.743 Q742.246 288.559 745.062 288.559 Q748.249 288.559 751.102 286.113 Q753.955 283.631 753.955 278.776 L753.955 271.18 Q745.544 271.477 741.875 274.849 Q738.244 278.184 738.244 282.111 Z" fill="#000000" fill-rule="nonzero" fill-opacity="1" /><path clip-path="url(#clip450)" d="M769.592 289.411 L769.592 287.077 Q773.631 287.077 774.558 286.595 Q775.484 286.076 775.484 283.631 L775.484 263.287 Q775.484 260.471 774.484 259.767 Q773.52 259.063 769.592 259.063 L769.592 256.692 L780.264 255.876 L780.264 263.843 Q783.821 255.876 791.492 255.876 Q797.198 255.876 799.459 258.693 Q801.126 260.582 801.46 262.695 Q801.83 264.807 801.83 270.291 L801.83 284.779 Q801.904 286.373 803.127 286.743 Q804.35 287.077 807.759 287.077 L807.759 289.411 Q800.015 289.189 799.236 289.189 Q798.644 289.189 790.677 289.411 L790.677 287.077 Q794.716 287.077 795.642 286.595 Q796.605 286.076 796.605 283.631 L796.605 265.955 Q796.605 262.102 795.42 259.841 Q794.234 257.544 790.973 257.544 Q787.045 257.544 783.896 260.842 Q780.746 264.14 780.746 269.698 L780.746 283.631 Q780.746 286.076 781.672 286.595 Q782.636 287.077 786.638 287.077 L786.638 289.411 Q778.893 289.189 778.152 289.189 Q777.559 289.189 769.592 289.411 Z" fill="#000000" fill-rule="nonzero" fill-opacity="1" /><path clip-path="url(#clip450)" d="M811.835 273.107 Q811.835 265.881 816.875 260.879 Q821.914 255.876 828.732 255.876 Q834.513 255.876 838.292 260.582 L838.292 244.167 Q838.292 241.351 837.292 240.647 Q836.328 239.943 832.401 239.943 L832.401 237.571 L843.332 236.756 L843.332 282.815 Q843.332 285.632 844.295 286.373 Q845.296 287.077 849.224 287.077 L849.224 289.411 L838.07 290.263 L838.07 285.224 Q834.142 290.226 827.917 290.263 Q821.395 290.263 816.615 285.261 Q811.835 280.259 811.835 273.107 M818.134 273.181 Q818.134 280.222 820.321 283.705 Q823.359 288.559 828.288 288.559 Q833.92 288.559 837.255 283.26 Q838.107 281.963 838.07 280.444 L838.07 264.881 Q838.07 263.362 837.255 262.102 Q834.142 257.544 829.066 257.544 Q823.767 257.544 820.469 262.398 Q818.134 266.029 818.134 273.181 Z" fill="#000000" fill-rule="nonzero" fill-opacity="1" /><path clip-path="url(#clip450)" d="M858.45 285.335 Q853.448 280.37 853.448 273.181 Q853.448 265.955 858.339 260.694 Q863.267 255.395 870.308 255.395 Q877.2 255.395 882.129 260.657 Q887.094 265.881 887.094 273.181 Q887.094 280.333 882.091 285.298 Q877.126 290.263 870.234 290.263 Q863.49 290.263 858.45 285.335 M859.747 272.551 Q859.747 279.925 861.674 283.26 Q864.639 288.337 870.308 288.337 Q873.124 288.337 875.459 286.817 Q877.83 285.298 879.127 282.741 Q880.795 279.406 880.795 272.551 Q880.795 265.251 878.794 262.028 Q875.829 257.099 870.234 257.099 Q867.788 257.099 865.38 258.396 Q863.008 259.656 861.563 262.176 Q859.747 265.511 859.747 272.551 Z" fill="#000000" fill-rule="nonzero" fill-opacity="1" /><path clip-path="url(#clip450)" d="M891.726 289.411 L891.726 287.077 Q895.765 287.077 896.691 286.595 Q897.618 286.076 897.618 283.631 L897.618 263.287 Q897.618 260.471 896.617 259.767 Q895.654 259.063 891.726 259.063 L891.726 256.692 L902.398 255.876 L902.398 263.843 Q905.955 255.876 913.625 255.876 Q922.518 255.876 923.741 263.287 Q925.038 260.397 927.743 258.137 Q930.485 255.876 934.747 255.876 Q940.453 255.876 942.713 258.693 Q944.381 260.582 944.714 262.695 Q945.048 264.807 945.048 270.291 L945.048 284.779 Q945.122 286.373 946.345 286.743 Q947.568 287.077 950.977 287.077 L950.977 289.411 Q943.232 289.189 942.491 289.189 Q941.898 289.189 933.894 289.411 L933.894 287.077 Q937.933 287.077 938.86 286.595 Q939.823 286.076 939.823 283.631 L939.823 265.955 Q939.823 262.102 938.637 259.841 Q937.452 257.544 934.191 257.544 Q930.263 257.544 927.113 260.842 Q923.964 264.14 923.964 269.698 L923.964 283.631 Q923.964 286.076 924.89 286.595 Q925.853 287.077 929.892 287.077 L929.892 289.411 Q922.148 289.189 921.37 289.189 Q920.777 289.189 912.81 289.411 L912.81 287.077 Q916.849 287.077 917.775 286.595 Q918.739 286.076 918.739 283.631 L918.739 265.955 Q918.739 262.102 917.553 259.841 Q916.367 257.544 913.107 257.544 Q909.179 257.544 906.029 260.842 Q902.879 264.14 902.879 269.698 L902.879 283.631 Q902.879 286.076 903.806 286.595 Q904.769 287.077 908.771 287.077 L908.771 289.411 Q901.027 289.189 900.285 289.189 Q899.693 289.189 891.726 289.411 Z" fill="#000000" fill-rule="nonzero" fill-opacity="1" /></svg>
