<?xml version="1.0" encoding="utf-8"?>
<svg xmlns="http://www.w3.org/2000/svg" xmlns:xlink="http://www.w3.org/1999/xlink" width="450" height="250" viewBox="0 0 1800 1000">
<defs>
  <clipPath id="clip990">
    <rect x="0" y="0" width="1800" height="1000"/>
  </clipPath>
</defs>
<path clip-path="url(#clip990)" d="M0 1000 L1800 1000 L1800 0 L0 0  Z" fill="#ffffff" fill-rule="evenodd" fill-opacity="1"/>
<defs>
  <clipPath id="clip991">
    <rect x="237" y="47" width="1516" height="797"/>
  </clipPath>
</defs>
<path clip-path="url(#clip990)" d="M237.922 842.86 L1752.76 842.86 L1752.76 47.2441 L237.922 47.2441  Z" fill="#ffffff" fill-rule="evenodd" fill-opacity="1"/>
<polyline clip-path="url(#clip991)" style="stroke:#000000; stroke-linecap:round; stroke-linejoin:round; stroke-width:2; stroke-opacity:0.1; fill:none" points="237.922,842.86 237.922,47.2441 "/>
<polyline clip-path="url(#clip991)" style="stroke:#000000; stroke-linecap:round; stroke-linejoin:round; stroke-width:2; stroke-opacity:0.1; fill:none" points="616.631,842.86 616.631,47.2441 "/>
<polyline clip-path="url(#clip991)" style="stroke:#000000; stroke-linecap:round; stroke-linejoin:round; stroke-width:2; stroke-opacity:0.1; fill:none" points="995.339,842.86 995.339,47.2441 "/>
<polyline clip-path="url(#clip991)" style="stroke:#000000; stroke-linecap:round; stroke-linejoin:round; stroke-width:2; stroke-opacity:0.1; fill:none" points="1374.05,842.86 1374.05,47.2441 "/>
<polyline clip-path="url(#clip991)" style="stroke:#000000; stroke-linecap:round; stroke-linejoin:round; stroke-width:2; stroke-opacity:0.1; fill:none" points="1752.76,842.86 1752.76,47.2441 "/>
<polyline clip-path="url(#clip991)" style="stroke:#000000; stroke-linecap:round; stroke-linejoin:round; stroke-width:2; stroke-opacity:0.1; fill:none" points="237.922,750.64 1752.76,750.64 "/>
<polyline clip-path="url(#clip991)" style="stroke:#000000; stroke-linecap:round; stroke-linejoin:round; stroke-width:2; stroke-opacity:0.1; fill:none" points="237.922,566.201 1752.76,566.201 "/>
<polyline clip-path="url(#clip991)" style="stroke:#000000; stroke-linecap:round; stroke-linejoin:round; stroke-width:2; stroke-opacity:0.1; fill:none" points="237.922,381.761 1752.76,381.761 "/>
<polyline clip-path="url(#clip991)" style="stroke:#000000; stroke-linecap:round; stroke-linejoin:round; stroke-width:2; stroke-opacity:0.1; fill:none" points="237.922,197.322 1752.76,197.322 "/>
<polyline clip-path="url(#clip990)" style="stroke:#000000; stroke-linecap:round; stroke-linejoin:round; stroke-width:4; stroke-opacity:1; fill:none" points="237.922,842.86 1752.76,842.86 "/>
<polyline clip-path="url(#clip990)" style="stroke:#000000; stroke-linecap:round; stroke-linejoin:round; stroke-width:4; stroke-opacity:1; fill:none" points="237.922,842.86 237.922,823.962 "/>
<polyline clip-path="url(#clip990)" style="stroke:#000000; stroke-linecap:round; stroke-linejoin:round; stroke-width:4; stroke-opacity:1; fill:none" points="616.631,842.86 616.631,823.962 "/>
<polyline clip-path="url(#clip990)" style="stroke:#000000; stroke-linecap:round; stroke-linejoin:round; stroke-width:4; stroke-opacity:1; fill:none" points="995.339,842.86 995.339,823.962 "/>
<polyline clip-path="url(#clip990)" style="stroke:#000000; stroke-linecap:round; stroke-linejoin:round; stroke-width:4; stroke-opacity:1; fill:none" points="1374.05,842.86 1374.05,823.962 "/>
<polyline clip-path="url(#clip990)" style="stroke:#000000; stroke-linecap:round; stroke-linejoin:round; stroke-width:4; stroke-opacity:1; fill:none" points="1752.76,842.86 1752.76,823.962 "/>
<path clip-path="url(#clip990)" d="M237.922 868.979 Q234.311 868.979 232.483 872.543 Q230.677 876.085 230.677 883.215 Q230.677 890.321 232.483 893.886 Q234.311 897.427 237.922 897.427 Q241.557 897.427 243.362 893.886 Q245.191 890.321 245.191 883.215 Q245.191 876.085 243.362 872.543 Q241.557 868.979 237.922 868.979 M237.922 865.275 Q243.733 865.275 246.788 869.881 Q249.867 874.465 249.867 883.215 Q249.867 891.941 246.788 896.548 Q243.733 901.131 237.922 901.131 Q232.112 901.131 229.034 896.548 Q225.978 891.941 225.978 883.215 Q225.978 874.465 229.034 869.881 Q232.112 865.275 237.922 865.275 Z" fill="#000000" fill-rule="nonzero" fill-opacity="1" /><path clip-path="url(#clip990)" d="M606.909 865.9 L625.265 865.9 L625.265 869.835 L611.191 869.835 L611.191 878.307 Q612.209 877.96 613.228 877.798 Q614.247 877.613 615.265 877.613 Q621.052 877.613 624.432 880.784 Q627.811 883.955 627.811 889.372 Q627.811 894.951 624.339 898.052 Q620.867 901.131 614.547 901.131 Q612.372 901.131 610.103 900.761 Q607.858 900.39 605.45 899.65 L605.45 894.951 Q607.534 896.085 609.756 896.64 Q611.978 897.196 614.455 897.196 Q618.459 897.196 620.797 895.09 Q623.135 892.983 623.135 889.372 Q623.135 885.761 620.797 883.654 Q618.459 881.548 614.455 881.548 Q612.58 881.548 610.705 881.965 Q608.853 882.381 606.909 883.261 L606.909 865.9 Z" fill="#000000" fill-rule="nonzero" fill-opacity="1" /><path clip-path="url(#clip990)" d="M970.027 896.525 L977.666 896.525 L977.666 870.159 L969.355 871.826 L969.355 867.567 L977.619 865.9 L982.295 865.9 L982.295 896.525 L989.934 896.525 L989.934 900.46 L970.027 900.46 L970.027 896.525 Z" fill="#000000" fill-rule="nonzero" fill-opacity="1" /><path clip-path="url(#clip990)" d="M1009.38 868.979 Q1005.77 868.979 1003.94 872.543 Q1002.13 876.085 1002.13 883.215 Q1002.13 890.321 1003.94 893.886 Q1005.77 897.427 1009.38 897.427 Q1013.01 897.427 1014.82 893.886 Q1016.65 890.321 1016.65 883.215 Q1016.65 876.085 1014.82 872.543 Q1013.01 868.979 1009.38 868.979 M1009.38 865.275 Q1015.19 865.275 1018.24 869.881 Q1021.32 874.465 1021.32 883.215 Q1021.32 891.941 1018.24 896.548 Q1015.19 901.131 1009.38 901.131 Q1003.57 901.131 1000.49 896.548 Q997.434 891.941 997.434 883.215 Q997.434 874.465 1000.49 869.881 Q1003.57 865.275 1009.38 865.275 Z" fill="#000000" fill-rule="nonzero" fill-opacity="1" /><path clip-path="url(#clip990)" d="M1349.23 896.525 L1356.87 896.525 L1356.87 870.159 L1348.56 871.826 L1348.56 867.567 L1356.83 865.9 L1361.5 865.9 L1361.5 896.525 L1369.14 896.525 L1369.14 900.46 L1349.23 900.46 L1349.23 896.525 Z" fill="#000000" fill-rule="nonzero" fill-opacity="1" /><path clip-path="url(#clip990)" d="M1378.63 865.9 L1396.99 865.9 L1396.99 869.835 L1382.91 869.835 L1382.91 878.307 Q1383.93 877.96 1384.95 877.798 Q1385.97 877.613 1386.99 877.613 Q1392.77 877.613 1396.15 880.784 Q1399.53 883.955 1399.53 889.372 Q1399.53 894.951 1396.06 898.052 Q1392.59 901.131 1386.27 901.131 Q1384.09 901.131 1381.83 900.761 Q1379.58 900.39 1377.17 899.65 L1377.17 894.951 Q1379.26 896.085 1381.48 896.64 Q1383.7 897.196 1386.18 897.196 Q1390.18 897.196 1392.52 895.09 Q1394.86 892.983 1394.86 889.372 Q1394.86 885.761 1392.52 883.654 Q1390.18 881.548 1386.18 881.548 Q1384.3 881.548 1382.43 881.965 Q1380.58 882.381 1378.63 883.261 L1378.63 865.9 Z" fill="#000000" fill-rule="nonzero" fill-opacity="1" /><path clip-path="url(#clip990)" d="M1731.53 896.525 L1747.85 896.525 L1747.85 900.46 L1725.9 900.46 L1725.9 896.525 Q1728.57 893.77 1733.15 889.14 Q1737.76 884.488 1738.94 883.145 Q1741.18 880.622 1742.06 878.886 Q1742.96 877.127 1742.96 875.437 Q1742.96 872.682 1741.02 870.946 Q1739.1 869.21 1736 869.21 Q1733.8 869.21 1731.34 869.974 Q1728.91 870.738 1726.14 872.289 L1726.14 867.567 Q1728.96 866.432 1731.41 865.854 Q1733.87 865.275 1735.9 865.275 Q1741.27 865.275 1744.47 867.96 Q1747.66 870.645 1747.66 875.136 Q1747.66 877.266 1746.85 879.187 Q1746.07 881.085 1743.96 883.678 Q1743.38 884.349 1740.28 887.566 Q1737.18 890.761 1731.53 896.525 Z" fill="#000000" fill-rule="nonzero" fill-opacity="1" /><path clip-path="url(#clip990)" d="M1767.66 868.979 Q1764.05 868.979 1762.22 872.543 Q1760.42 876.085 1760.42 883.215 Q1760.42 890.321 1762.22 893.886 Q1764.05 897.427 1767.66 897.427 Q1771.3 897.427 1773.1 893.886 Q1774.93 890.321 1774.93 883.215 Q1774.93 876.085 1773.1 872.543 Q1771.3 868.979 1767.66 868.979 M1767.66 865.275 Q1773.47 865.275 1776.53 869.881 Q1779.61 874.465 1779.61 883.215 Q1779.61 891.941 1776.53 896.548 Q1773.47 901.131 1767.66 901.131 Q1761.85 901.131 1758.77 896.548 Q1755.72 891.941 1755.72 883.215 Q1755.72 874.465 1758.77 869.881 Q1761.85 865.275 1767.66 865.275 Z" fill="#000000" fill-rule="nonzero" fill-opacity="1" /><path clip-path="url(#clip990)" d="M851.044 932.954 L851.044 943.076 L863.107 943.076 L863.107 947.627 L851.044 947.627 L851.044 966.979 Q851.044 971.34 852.222 972.581 Q853.432 973.822 857.092 973.822 L863.107 973.822 L863.107 978.724 L857.092 978.724 Q850.312 978.724 847.734 976.209 Q845.156 973.663 845.156 966.979 L845.156 947.627 L840.859 947.627 L840.859 943.076 L845.156 943.076 L845.156 932.954 L851.044 932.954 Z" fill="#000000" fill-rule="nonzero" fill-opacity="1" /><path clip-path="url(#clip990)" d="M870.81 943.076 L876.666 943.076 L876.666 978.724 L870.81 978.724 L870.81 943.076 M870.81 929.199 L876.666 929.199 L876.666 936.615 L870.81 936.615 L870.81 929.199 Z" fill="#000000" fill-rule="nonzero" fill-opacity="1" /><path clip-path="url(#clip990)" d="M916.675 949.919 Q918.871 945.972 921.927 944.094 Q924.982 942.217 929.12 942.217 Q934.69 942.217 937.714 946.131 Q940.737 950.015 940.737 957.208 L940.737 978.724 L934.849 978.724 L934.849 957.399 Q934.849 952.274 933.035 949.792 Q931.221 947.309 927.497 947.309 Q922.945 947.309 920.303 950.333 Q917.662 953.357 917.662 958.576 L917.662 978.724 L911.773 978.724 L911.773 957.399 Q911.773 952.243 909.959 949.792 Q908.145 947.309 904.357 947.309 Q899.869 947.309 897.228 950.365 Q894.586 953.388 894.586 958.576 L894.586 978.724 L888.698 978.724 L888.698 943.076 L894.586 943.076 L894.586 948.614 Q896.591 945.336 899.392 943.776 Q902.193 942.217 906.044 942.217 Q909.927 942.217 912.633 944.19 Q915.37 946.163 916.675 949.919 Z" fill="#000000" fill-rule="nonzero" fill-opacity="1" /><path clip-path="url(#clip990)" d="M982.91 959.436 L982.91 962.3 L955.983 962.3 Q956.365 968.348 959.612 971.531 Q962.89 974.682 968.715 974.682 Q972.088 974.682 975.239 973.854 Q978.422 973.027 981.541 971.371 L981.541 976.91 Q978.39 978.246 975.08 978.947 Q971.77 979.647 968.364 979.647 Q959.834 979.647 954.837 974.682 Q949.872 969.716 949.872 961.25 Q949.872 952.497 954.583 947.373 Q959.325 942.217 967.346 942.217 Q974.539 942.217 978.709 946.863 Q982.91 951.479 982.91 959.436 M977.054 957.717 Q976.99 952.911 974.348 950.046 Q971.738 947.182 967.41 947.182 Q962.508 947.182 959.548 949.951 Q956.62 952.72 956.174 957.749 L977.054 957.717 Z" fill="#000000" fill-rule="nonzero" fill-opacity="1" /><path clip-path="url(#clip990)" d="M1027.31 929.262 Q1023.05 936.583 1020.98 943.744 Q1018.91 950.906 1018.91 958.258 Q1018.91 965.61 1020.98 972.836 Q1023.08 980.029 1027.31 987.318 L1022.22 987.318 Q1017.44 979.838 1015.06 972.613 Q1012.7 965.388 1012.7 958.258 Q1012.7 951.16 1015.06 943.967 Q1017.41 936.774 1022.22 929.262 L1027.31 929.262 Z" fill="#000000" fill-rule="nonzero" fill-opacity="1" /><path clip-path="url(#clip990)" d="M1066.43 949.919 Q1068.62 945.972 1071.68 944.094 Q1074.74 942.217 1078.87 942.217 Q1084.44 942.217 1087.47 946.131 Q1090.49 950.015 1090.49 957.208 L1090.49 978.724 L1084.6 978.724 L1084.6 957.399 Q1084.6 952.274 1082.79 949.792 Q1080.97 947.309 1077.25 947.309 Q1072.7 947.309 1070.06 950.333 Q1067.41 953.357 1067.41 958.576 L1067.41 978.724 L1061.53 978.724 L1061.53 957.399 Q1061.53 952.243 1059.71 949.792 Q1057.9 947.309 1054.11 947.309 Q1049.62 947.309 1046.98 950.365 Q1044.34 953.388 1044.34 958.576 L1044.34 978.724 L1038.45 978.724 L1038.45 943.076 L1044.34 943.076 L1044.34 948.614 Q1046.34 945.336 1049.15 943.776 Q1051.95 942.217 1055.8 942.217 Q1059.68 942.217 1062.39 944.19 Q1065.12 946.163 1066.43 949.919 Z" fill="#000000" fill-rule="nonzero" fill-opacity="1" /><path clip-path="url(#clip990)" d="M1124.9 944.126 L1124.9 949.664 Q1122.41 948.391 1119.74 947.755 Q1117.07 947.118 1114.2 947.118 Q1109.84 947.118 1107.65 948.455 Q1105.48 949.792 1105.48 952.465 Q1105.48 954.502 1107.04 955.68 Q1108.6 956.826 1113.31 957.876 L1115.32 958.322 Q1121.56 959.659 1124.17 962.109 Q1126.81 964.528 1126.81 968.889 Q1126.81 973.854 1122.86 976.75 Q1118.95 979.647 1112.07 979.647 Q1109.21 979.647 1106.09 979.074 Q1103 978.533 1099.56 977.419 L1099.56 971.371 Q1102.81 973.058 1105.96 973.918 Q1109.11 974.745 1112.2 974.745 Q1116.34 974.745 1118.56 973.345 Q1120.79 971.913 1120.79 969.334 Q1120.79 966.947 1119.17 965.674 Q1117.58 964.401 1112.13 963.223 L1110.1 962.746 Q1104.65 961.6 1102.24 959.245 Q1099.82 956.858 1099.82 952.72 Q1099.82 947.691 1103.38 944.954 Q1106.95 942.217 1113.5 942.217 Q1116.75 942.217 1119.61 942.694 Q1122.48 943.171 1124.9 944.126 Z" fill="#000000" fill-rule="nonzero" fill-opacity="1" /><path clip-path="url(#clip990)" d="M1135.21 929.262 L1140.3 929.262 Q1145.08 936.774 1147.43 943.967 Q1149.82 951.16 1149.82 958.258 Q1149.82 965.388 1147.43 972.613 Q1145.08 979.838 1140.3 987.318 L1135.21 987.318 Q1139.44 980.029 1141.51 972.836 Q1143.61 965.61 1143.61 958.258 Q1143.61 950.906 1141.51 943.744 Q1139.44 936.583 1135.21 929.262 Z" fill="#000000" fill-rule="nonzero" fill-opacity="1" /><polyline clip-path="url(#clip990)" style="stroke:#000000; stroke-linecap:round; stroke-linejoin:round; stroke-width:4; stroke-opacity:1; fill:none" points="237.922,842.86 237.922,47.2441 "/>
<polyline clip-path="url(#clip990)" style="stroke:#000000; stroke-linecap:round; stroke-linejoin:round; stroke-width:4; stroke-opacity:1; fill:none" points="237.922,750.64 256.82,750.64 "/>
<polyline clip-path="url(#clip990)" style="stroke:#000000; stroke-linecap:round; stroke-linejoin:round; stroke-width:4; stroke-opacity:1; fill:none" points="237.922,566.201 256.82,566.201 "/>
<polyline clip-path="url(#clip990)" style="stroke:#000000; stroke-linecap:round; stroke-linejoin:round; stroke-width:4; stroke-opacity:1; fill:none" points="237.922,381.761 256.82,381.761 "/>
<polyline clip-path="url(#clip990)" style="stroke:#000000; stroke-linecap:round; stroke-linejoin:round; stroke-width:4; stroke-opacity:1; fill:none" points="237.922,197.322 256.82,197.322 "/>
<path clip-path="url(#clip990)" d="M110.011 770.433 L117.65 770.433 L117.65 744.067 L109.34 745.734 L109.34 741.474 L117.604 739.808 L122.28 739.808 L122.28 770.433 L129.919 770.433 L129.919 774.368 L110.011 774.368 L110.011 770.433 Z" fill="#000000" fill-rule="nonzero" fill-opacity="1" /><path clip-path="url(#clip990)" d="M149.363 742.886 Q145.752 742.886 143.923 746.451 Q142.118 749.993 142.118 757.122 Q142.118 764.229 143.923 767.794 Q145.752 771.335 149.363 771.335 Q152.997 771.335 154.803 767.794 Q156.632 764.229 156.632 757.122 Q156.632 749.993 154.803 746.451 Q152.997 742.886 149.363 742.886 M149.363 739.183 Q155.173 739.183 158.229 743.789 Q161.307 748.373 161.307 757.122 Q161.307 765.849 158.229 770.456 Q155.173 775.039 149.363 775.039 Q143.553 775.039 140.474 770.456 Q137.419 765.849 137.419 757.122 Q137.419 748.373 140.474 743.789 Q143.553 739.183 149.363 739.183 Z" fill="#000000" fill-rule="nonzero" fill-opacity="1" /><path clip-path="url(#clip990)" d="M161.307 733.284 L185.419 733.284 L185.419 736.481 L161.307 736.481 L161.307 733.284 Z" fill="#000000" fill-rule="nonzero" fill-opacity="1" /><path clip-path="url(#clip990)" d="M205.13 731.817 Q207.857 732.4 209.38 734.243 Q210.922 736.086 210.922 738.795 Q210.922 742.951 208.064 745.227 Q205.205 747.503 199.939 747.503 Q198.171 747.503 196.29 747.145 Q194.428 746.807 192.434 746.111 L192.434 742.443 Q194.014 743.365 195.895 743.835 Q197.776 744.305 199.826 744.305 Q203.399 744.305 205.261 742.895 Q207.142 741.484 207.142 738.795 Q207.142 736.312 205.393 734.92 Q203.663 733.51 200.559 733.51 L197.287 733.51 L197.287 730.388 L200.71 730.388 Q203.512 730.388 204.998 729.278 Q206.484 728.15 206.484 726.043 Q206.484 723.88 204.941 722.733 Q203.418 721.567 200.559 721.567 Q198.998 721.567 197.212 721.905 Q195.425 722.244 193.281 722.959 L193.281 719.573 Q195.444 718.971 197.324 718.67 Q199.224 718.37 200.898 718.37 Q205.224 718.37 207.744 720.344 Q210.264 722.3 210.264 725.648 Q210.264 727.98 208.929 729.598 Q207.593 731.196 205.13 731.817 Z" fill="#000000" fill-rule="nonzero" fill-opacity="1" /><path clip-path="url(#clip990)" d="M110.783 585.993 L118.421 585.993 L118.421 559.628 L110.111 561.294 L110.111 557.035 L118.375 555.368 L123.051 555.368 L123.051 585.993 L130.69 585.993 L130.69 589.928 L110.783 589.928 L110.783 585.993 Z" fill="#000000" fill-rule="nonzero" fill-opacity="1" /><path clip-path="url(#clip990)" d="M150.134 558.447 Q146.523 558.447 144.694 562.012 Q142.889 565.553 142.889 572.683 Q142.889 579.79 144.694 583.354 Q146.523 586.896 150.134 586.896 Q153.768 586.896 155.574 583.354 Q157.403 579.79 157.403 572.683 Q157.403 565.553 155.574 562.012 Q153.768 558.447 150.134 558.447 M150.134 554.743 Q155.944 554.743 159 559.35 Q162.079 563.933 162.079 572.683 Q162.079 581.41 159 586.016 Q155.944 590.6 150.134 590.6 Q144.324 590.6 141.245 586.016 Q138.19 581.41 138.19 572.683 Q138.19 563.933 141.245 559.35 Q144.324 554.743 150.134 554.743 Z" fill="#000000" fill-rule="nonzero" fill-opacity="1" /><path clip-path="url(#clip990)" d="M162.079 548.845 L186.19 548.845 L186.19 552.042 L162.079 552.042 L162.079 548.845 Z" fill="#000000" fill-rule="nonzero" fill-opacity="1" /><path clip-path="url(#clip990)" d="M197.663 559.321 L210.922 559.321 L210.922 562.518 L193.093 562.518 L193.093 559.321 Q195.255 557.083 198.979 553.321 Q202.722 549.541 203.681 548.45 Q205.506 546.4 206.22 544.989 Q206.954 543.56 206.954 542.187 Q206.954 539.949 205.374 538.538 Q203.813 537.127 201.293 537.127 Q199.506 537.127 197.512 537.748 Q195.538 538.369 193.281 539.629 L193.281 535.792 Q195.575 534.871 197.569 534.4 Q199.562 533.93 201.218 533.93 Q205.581 533.93 208.176 536.112 Q210.772 538.294 210.772 541.942 Q210.772 543.673 210.114 545.234 Q209.474 546.776 207.763 548.882 Q207.292 549.428 204.772 552.042 Q202.252 554.638 197.663 559.321 Z" fill="#000000" fill-rule="nonzero" fill-opacity="1" /><path clip-path="url(#clip990)" d="M110.482 401.554 L118.12 401.554 L118.12 375.188 L109.81 376.855 L109.81 372.596 L118.074 370.929 L122.75 370.929 L122.75 401.554 L130.389 401.554 L130.389 405.489 L110.482 405.489 L110.482 401.554 Z" fill="#000000" fill-rule="nonzero" fill-opacity="1" /><path clip-path="url(#clip990)" d="M149.833 374.008 Q146.222 374.008 144.393 377.572 Q142.588 381.114 142.588 388.244 Q142.588 395.35 144.393 398.915 Q146.222 402.457 149.833 402.457 Q153.468 402.457 155.273 398.915 Q157.102 395.35 157.102 388.244 Q157.102 381.114 155.273 377.572 Q153.468 374.008 149.833 374.008 M149.833 370.304 Q155.643 370.304 158.699 374.91 Q161.778 379.494 161.778 388.244 Q161.778 396.971 158.699 401.577 Q155.643 406.16 149.833 406.16 Q144.023 406.16 140.944 401.577 Q137.889 396.971 137.889 388.244 Q137.889 379.494 140.944 374.91 Q144.023 370.304 149.833 370.304 Z" fill="#000000" fill-rule="nonzero" fill-opacity="1" /><path clip-path="url(#clip990)" d="M161.778 364.405 L185.889 364.405 L185.889 367.603 L161.778 367.603 L161.778 364.405 Z" fill="#000000" fill-rule="nonzero" fill-opacity="1" /><path clip-path="url(#clip990)" d="M194.748 374.881 L200.954 374.881 L200.954 353.459 L194.202 354.813 L194.202 351.353 L200.917 349.999 L204.716 349.999 L204.716 374.881 L210.922 374.881 L210.922 378.079 L194.748 378.079 L194.748 374.881 Z" fill="#000000" fill-rule="nonzero" fill-opacity="1" /><path clip-path="url(#clip990)" d="M140.217 217.114 L147.856 217.114 L147.856 190.749 L139.545 192.415 L139.545 188.156 L147.809 186.49 L152.485 186.49 L152.485 217.114 L160.124 217.114 L160.124 221.05 L140.217 221.05 L140.217 217.114 Z" fill="#000000" fill-rule="nonzero" fill-opacity="1" /><path clip-path="url(#clip990)" d="M179.568 189.568 Q175.957 189.568 174.129 193.133 Q172.323 196.675 172.323 203.804 Q172.323 210.911 174.129 214.476 Q175.957 218.017 179.568 218.017 Q183.203 218.017 185.008 214.476 Q186.837 210.911 186.837 203.804 Q186.837 196.675 185.008 193.133 Q183.203 189.568 179.568 189.568 M179.568 185.865 Q185.379 185.865 188.434 190.471 Q191.513 195.054 191.513 203.804 Q191.513 212.531 188.434 217.138 Q185.379 221.721 179.568 221.721 Q173.758 221.721 170.68 217.138 Q167.624 212.531 167.624 203.804 Q167.624 195.054 170.68 190.471 Q173.758 185.865 179.568 185.865 Z" fill="#000000" fill-rule="nonzero" fill-opacity="1" /><path clip-path="url(#clip990)" d="M201.218 168.061 Q198.284 168.061 196.798 170.957 Q195.331 173.835 195.331 179.627 Q195.331 185.401 196.798 188.298 Q198.284 191.175 201.218 191.175 Q204.17 191.175 205.637 188.298 Q207.123 185.401 207.123 179.627 Q207.123 173.835 205.637 170.957 Q204.17 168.061 201.218 168.061 M201.218 165.051 Q205.938 165.051 208.421 168.794 Q210.922 172.518 210.922 179.627 Q210.922 186.718 208.421 190.461 Q205.938 194.185 201.218 194.185 Q196.497 194.185 193.995 190.461 Q191.513 186.718 191.513 179.627 Q191.513 172.518 193.995 168.794 Q196.497 165.051 201.218 165.051 Z" fill="#000000" fill-rule="nonzero" fill-opacity="1" /><path clip-path="url(#clip990)" d="M18.559 503.346 L18.559 497.489 L68.0842 497.489 L68.0842 503.346 L18.559 503.346 Z" fill="#000000" fill-rule="nonzero" fill-opacity="1" /><path clip-path="url(#clip990)" d="M36.5421 471.422 Q36.5421 476.133 40.2342 478.87 Q43.8945 481.607 50.292 481.607 Q56.6895 481.607 60.3817 478.902 Q64.0419 476.164 64.0419 471.422 Q64.0419 466.743 60.3498 464.006 Q56.6577 461.269 50.292 461.269 Q43.9581 461.269 40.266 464.006 Q36.5421 466.743 36.5421 471.422 M31.5768 471.422 Q31.5768 463.783 36.5421 459.423 Q41.5073 455.062 50.292 455.062 Q59.0449 455.062 64.0419 459.423 Q69.0072 463.783 69.0072 471.422 Q69.0072 479.093 64.0419 483.453 Q59.0449 487.782 50.292 487.782 Q41.5073 487.782 36.5421 483.453 Q31.5768 479.093 31.5768 471.422 Z" fill="#000000" fill-rule="nonzero" fill-opacity="1" /><path clip-path="url(#clip990)" d="M33.4865 422.629 L39.0247 422.629 Q37.7516 425.111 37.115 427.785 Q36.4784 430.459 36.4784 433.323 Q36.4784 437.684 37.8152 439.88 Q39.152 442.044 41.8256 442.044 Q43.8626 442.044 45.0403 440.485 Q46.1861 438.925 47.2365 434.214 L47.6821 432.209 Q49.0189 425.971 51.4697 423.361 Q53.8886 420.719 58.2491 420.719 Q63.2144 420.719 66.1108 424.666 Q69.0072 428.581 69.0072 435.456 Q69.0072 438.32 68.4343 441.439 Q67.8932 444.527 66.7792 447.964 L60.7318 447.964 Q62.4187 444.718 63.278 441.567 Q64.1056 438.416 64.1056 435.328 Q64.1056 431.191 62.7051 428.963 Q61.2729 426.735 58.6947 426.735 Q56.3076 426.735 55.0345 428.358 Q53.7613 429.949 52.5837 435.392 L52.1062 437.429 Q50.9604 442.872 48.6051 445.291 Q46.218 447.71 42.0802 447.71 Q37.0513 447.71 34.3141 444.145 Q31.5768 440.58 31.5768 434.023 Q31.5768 430.777 32.0543 427.912 Q32.5317 425.048 33.4865 422.629 Z" fill="#000000" fill-rule="nonzero" fill-opacity="1" /><path clip-path="url(#clip990)" d="M33.4865 388.668 L39.0247 388.668 Q37.7516 391.15 37.115 393.824 Q36.4784 396.498 36.4784 399.362 Q36.4784 403.723 37.8152 405.919 Q39.152 408.083 41.8256 408.083 Q43.8626 408.083 45.0403 406.524 Q46.1861 404.964 47.2365 400.253 L47.6821 398.248 Q49.0189 392.01 51.4697 389.4 Q53.8886 386.758 58.2491 386.758 Q63.2144 386.758 66.1108 390.705 Q69.0072 394.62 69.0072 401.495 Q69.0072 404.359 68.4343 407.478 Q67.8932 410.566 66.7792 414.003 L60.7318 414.003 Q62.4187 410.757 63.278 407.606 Q64.1056 404.455 64.1056 401.367 Q64.1056 397.23 62.7051 395.002 Q61.2729 392.774 58.6947 392.774 Q56.3076 392.774 55.0345 394.397 Q53.7613 395.988 52.5837 401.431 L52.1062 403.468 Q50.9604 408.911 48.6051 411.33 Q46.218 413.749 42.0802 413.749 Q37.0513 413.749 34.3141 410.184 Q31.5768 406.619 31.5768 400.062 Q31.5768 396.816 32.0543 393.951 Q32.5317 391.087 33.4865 388.668 Z" fill="#000000" fill-rule="nonzero" fill-opacity="1" /><polyline clip-path="url(#clip991)" style="stroke:#009af9; stroke-linecap:round; stroke-linejoin:round; stroke-width:8; stroke-opacity:1; fill:none" stroke-dasharray="32, 20" points="237.922,71.0609 240.121,219.977 242.32,267.881 244.518,291.972 246.717,306.511 248.915,316.248 251.114,323.278 253.313,328.672 255.511,333.025 257.71,336.685 259.908,339.865 262.107,342.703 264.306,345.289 266.504,347.686 268.703,349.936 270.901,352.071 273.1,354.114 275.298,356.084 277.497,357.994 279.696,359.854 281.894,361.672 284.093,363.455 286.291,365.209 288.49,366.937 290.689,368.644 292.887,370.332 295.086,372.003 297.284,373.661 299.483,375.306 301.682,376.94 303.88,378.564 306.079,380.179 308.277,381.787 310.476,383.388 312.675,384.982 314.873,386.571 317.072,388.154 319.27,389.732 321.469,391.307 323.668,392.877 325.866,394.443 328.065,396.006 330.263,397.566 332.462,399.123 334.661,400.677 336.859,402.229 339.058,403.778 341.256,405.325 343.455,406.869 345.654,408.412 347.852,409.953 350.051,411.492 352.249,413.029 354.448,414.564 356.647,416.098 358.845,417.63 361.044,419.161 363.242,420.69 365.441,422.219 367.639,423.745 369.838,425.271 372.037,426.795 374.235,428.318 376.434,429.84 378.632,431.361 380.831,432.881 383.03,434.4 385.228,435.918 387.427,437.434 389.625,438.95 391.824,440.465 394.023,441.979 396.221,443.492 398.42,445.004 400.618,446.515 402.817,448.025 405.016,449.534 407.214,451.043 409.413,452.551 411.611,454.058 413.81,455.564 416.009,457.069 418.207,458.573 420.406,460.077 422.604,461.58 424.803,463.082 427.002,464.583 429.2,466.084 431.399,467.583 433.597,469.082 435.796,470.581 437.995,472.078 440.193,473.575 442.392,475.07 444.59,476.566 446.789,478.06 448.987,479.553 451.186,481.046 453.385,482.538 455.583,484.03 457.782,485.52 459.98,487.01 462.179,488.499 464.378,489.987 466.576,491.474 468.775,492.961 470.973,494.446 473.172,495.931 475.371,497.415 477.569,498.899 479.768,500.381 481.966,501.863 484.165,503.343 486.364,504.823 488.562,506.303 490.761,507.781 492.959,509.258 495.158,510.735 497.357,512.21 499.555,513.685 501.754,515.159 503.952,516.632 506.151,518.104 508.35,519.575 510.548,521.045 512.747,522.514 514.945,523.982 517.144,525.449 519.343,526.916 521.541,528.381 523.74,529.845 525.938,531.308 528.137,532.771 530.336,534.232 532.534,535.692 534.733,537.151 536.931,538.609 539.13,540.065 541.328,541.521 543.527,542.976 545.726,544.429 547.924,545.881 550.123,547.333 552.321,548.782 554.52,550.231 556.719,551.679 558.917,553.125 561.116,554.57 563.314,556.014 565.513,557.456 567.712,558.897 569.91,560.337 572.109,561.775 574.307,563.212 576.506,564.648 578.705,566.082 580.903,567.515 583.102,568.947 585.3,570.377 587.499,571.805 589.698,573.232 591.896,574.658 594.095,576.082 596.293,577.504 598.492,578.925 600.691,580.344 602.889,581.762 605.088,583.178 607.286,584.592 609.485,586.005 611.684,587.415 613.882,588.825 616.081,590.232 618.279,591.637 620.478,593.041 622.677,594.443 624.875,595.843 627.074,597.241 629.272,598.637 631.471,600.032 633.669,601.424 635.868,602.814 638.067,604.202 640.265,605.588 642.464,606.973 644.662,608.355 646.861,609.734 649.06,611.112 651.258,612.487 653.457,613.861 655.655,615.232 657.854,616.6 660.053,617.967 662.251,619.331 664.45,620.692 666.648,622.052 668.847,623.408 671.046,624.763 673.244,626.114 675.443,627.463 677.641,628.81 679.84,630.154 682.039,631.495 684.237,632.834 686.436,634.17 688.634,635.503 690.833,636.834 693.032,638.161 695.23,639.486 697.429,640.808 699.627,642.127 701.826,643.443 704.025,644.756 706.223,646.066 708.422,647.373 710.62,648.676 712.819,649.977 715.017,651.274 717.216,652.569 719.415,653.859 721.613,655.147 723.812,656.431 726.01,657.712 728.209,658.99 730.408,660.264 732.606,661.534 734.805,662.801 737.003,664.064 739.202,665.324 741.401,666.58 743.599,667.832 745.798,669.081 747.996,670.326 750.195,671.567 752.394,672.804 754.592,674.037 756.791,675.266 758.989,676.492 761.188,677.713 763.387,678.93 765.585,680.143 767.784,681.352 769.982,682.557 772.181,683.757 774.38,684.953 776.578,686.145 778.777,687.332 780.975,688.515 783.174,689.694 785.373,690.868 787.571,692.038 789.77,693.203 791.968,694.363 794.167,695.519 796.366,696.67 798.564,697.816 800.763,698.958 802.961,700.094 805.16,701.226 807.358,702.353 809.557,703.475 811.756,704.592 813.954,705.704 816.153,706.811 818.351,707.913 820.55,709.009 822.749,710.101 824.947,711.187 827.146,712.268 829.344,713.344 831.543,714.414 833.742,715.48 835.94,716.539 838.139,717.594 840.337,718.642 842.536,719.686 844.735,720.723 846.933,721.756 849.132,722.782 851.33,723.803 853.529,724.819 855.728,725.828 857.926,726.832 860.125,727.83 862.323,728.823 864.522,729.809 866.721,730.79 868.919,731.765 871.118,732.734 873.316,733.697 875.515,734.654 877.714,735.606 879.912,736.551 882.111,737.49 884.309,738.423 886.508,739.35 888.707,740.271 890.905,741.186 893.104,742.095 895.302,742.998 897.501,743.894 899.699,744.785 901.898,745.669 904.097,746.547 906.295,747.419 908.494,748.285 910.692,749.144 912.891,749.997 915.09,750.844 917.288,751.685 919.487,752.519 921.685,753.347 923.884,754.169 926.083,754.984 928.281,755.794 930.48,756.597 932.678,757.393 934.877,758.184 937.076,758.968 939.274,759.746 941.473,760.517 943.671,761.282 945.87,762.041 948.069,762.794 950.267,763.54 952.466,764.28 954.664,765.014 956.863,765.741 959.062,766.463 961.26,767.178 963.459,767.887 965.657,768.589 967.856,769.285 970.055,769.976 972.253,770.66 974.452,771.338 976.65,772.009 978.849,772.675 981.047,773.334 983.246,773.988 985.445,774.635 987.643,775.276 989.842,775.911 992.04,776.541 994.239,777.164 996.438,777.781 998.636,778.392 1000.83,778.998 1003.03,779.597 1005.23,780.191 1007.43,780.779 1009.63,781.361 1011.83,781.937 1014.03,782.507 1016.23,783.072 1018.42,783.631 1020.62,784.184 1022.82,784.732 1025.02,785.274 1027.22,785.811 1029.42,786.342 1031.62,786.867 1033.81,787.387 1036.01,787.902 1038.21,788.411 1040.41,788.915 1042.61,789.413 1044.81,789.907 1047.01,790.395 1049.2,790.877 1051.4,791.355 1053.6,791.827 1055.8,792.295 1058,792.757 1060.2,793.214 1062.4,793.666 1064.59,794.114 1066.79,794.556 1068.99,794.994 1071.19,795.426 1073.39,795.854 1075.59,796.278 1077.79,796.696 1079.98,797.11 1082.18,797.519 1084.38,797.924 1086.58,798.324 1088.78,798.719 1090.98,799.11 1093.18,799.497 1095.37,799.879 1097.57,800.257 1099.77,800.631 1101.97,801 1104.17,801.365 1106.37,801.726 1108.57,802.083 1110.76,802.436 1112.96,802.785 1115.16,803.129 1117.36,803.47 1119.56,803.807 1121.76,804.14 1123.96,804.469 1126.15,804.794 1128.35,805.116 1130.55,805.434 1132.75,805.748 1134.95,806.059 1137.15,806.366 1139.35,806.669 1141.54,806.969 1143.74,807.265 1145.94,807.558 1148.14,807.848 1150.34,808.134 1152.54,808.417 1154.74,808.696 1156.94,808.973 1159.13,809.246 1161.33,809.516 1163.53,809.783 1165.73,810.046 1167.93,810.307 1170.13,810.565 1172.33,810.819 1174.52,811.071 1176.72,811.32 1178.92,811.566 1181.12,811.809 1183.32,812.049 1185.52,812.287 1187.72,812.522 1189.91,812.754 1192.11,812.983 1194.31,813.21 1196.51,813.434 1198.71,813.656 1200.91,813.875 1203.11,814.092 1205.3,814.306 1207.5,814.518 1209.7,814.727 1211.9,814.934 1214.1,815.139 1216.3,815.341 1218.5,815.541 1220.69,815.739 1222.89,815.934 1225.09,816.128 1227.29,816.319 1229.49,816.508 1231.69,816.695 1233.89,816.88 1236.08,817.063 1238.28,817.244 1240.48,817.423 1242.68,817.6 1244.88,817.775 1247.08,817.948 1249.28,818.119 1251.47,818.288 1253.67,818.456 1255.87,818.621 1258.07,818.785 1260.27,818.947 1262.47,819.108 1264.67,819.267 1266.86,819.424 1269.06,819.579 1271.26,819.733 1273.46,819.885 1275.66,820.035 1277.86,820.184 1280.06,820.332 1282.26,820.478 1284.45,820.622 1286.65,820.765 1288.85,820.906 1291.05,821.046 1293.25,821.185 1295.45,821.322 1297.65,821.458 1299.84,821.592 1302.04,821.725 1304.24,821.857 1306.44,821.988 1308.64,822.117 1310.84,822.245 1313.04,822.371 1315.23,822.497 1317.43,822.621 1319.63,822.744 1321.83,822.866 1324.03,822.986 1326.23,823.106 1328.43,823.224 1330.62,823.342 1332.82,823.458 1335.02,823.573 1337.22,823.687 1339.42,823.8 1341.62,823.912 1343.82,824.023 1346.01,824.133 1348.21,824.242 1350.41,824.349 1352.61,824.456 1354.81,824.562 1357.01,824.668 1359.21,824.772 1361.4,824.875 1363.6,824.977 1365.8,825.079 1368,825.179 1370.2,825.279 1372.4,825.378 1374.6,825.476 1376.79,825.573 1378.99,825.67 1381.19,825.765 1383.39,825.86 1385.59,825.954 1387.79,826.047 1389.99,826.14 1392.18,826.232 1394.38,826.323 1396.58,826.413 1398.78,826.503 1400.98,826.591 1403.18,826.68 1405.38,826.767 1407.57,826.854 1409.77,826.94 1411.97,827.026 1414.17,827.11 1416.37,827.195 1418.57,827.278 1420.77,827.361 1422.97,827.444 1425.16,827.525 1427.36,827.606 1429.56,827.687 1431.76,827.767 1433.96,827.846 1436.16,827.925 1438.36,828.004 1440.55,828.081 1442.75,828.159 1444.95,828.235 1447.15,828.311 1449.35,828.387 1451.55,828.462 1453.75,828.537 1455.94,828.611 1458.14,828.684 1460.34,828.758 1462.54,828.83 1464.74,828.902 1466.94,828.974 1469.14,829.045 1471.33,829.116 1473.53,829.187 1475.73,829.256 1477.93,829.326 1480.13,829.395 1482.33,829.464 1484.53,829.532 1486.72,829.6 1488.92,829.667 1491.12,829.734 1493.32,829.801 1495.52,829.867 1497.72,829.933 1499.92,829.998 1502.11,830.063 1504.31,830.128 1506.51,830.192 1508.71,830.256 1510.91,830.32 1513.11,830.383 1515.31,830.446 1517.5,830.508 1519.7,830.571 1521.9,830.632 1524.1,830.694 1526.3,830.755 1528.5,830.816 1530.7,830.877 1532.89,830.937 1535.09,830.997 1537.29,831.056 1539.49,831.116 1541.69,831.175 1543.89,831.234 1546.09,831.292 1548.29,831.35 1550.48,831.408 1552.68,831.466 1554.88,831.523 1557.08,831.58 1559.28,831.637 1561.48,831.693 1563.68,831.749 1565.87,831.805 1568.07,831.861 1570.27,831.916 1572.47,831.972 1574.67,832.026 1576.87,832.081 1579.07,832.136 1581.26,832.19 1583.46,832.244 1585.66,832.297 1587.86,832.351 1590.06,832.404 1592.26,832.457 1594.46,832.51 1596.65,832.562 1598.85,832.615 1601.05,832.667 1603.25,832.719 1605.45,832.771 1607.65,832.822 1609.85,832.873 1612.04,832.924 1614.24,832.975 1616.44,833.026 1618.64,833.076 1620.84,833.126 1623.04,833.177 1625.24,833.226 1627.43,833.276 1629.63,833.326 1631.83,833.375 1634.03,833.424 1636.23,833.473 1638.43,833.522 1640.63,833.57 1642.82,833.618 1645.02,833.667 1647.22,833.715 1649.42,833.762 1651.62,833.81 1653.82,833.858 1656.02,833.905 1658.21,833.952 1660.41,833.999 1662.61,834.046 1664.81,834.093 1667.01,834.139 1669.21,834.185 1671.41,834.232 1673.6,834.278 1675.8,834.323 1678,834.369 1680.2,834.415 1682.4,834.46 1684.6,834.505 1686.8,834.55 1689,834.595 1691.19,834.64 1693.39,834.685 1695.59,834.729 1697.79,834.774 1699.99,834.818 1702.19,834.862 1704.39,834.906 1706.58,834.95 1708.78,834.994 1710.98,835.037 1713.18,835.081 1715.38,835.124 1717.58,835.167 1719.78,835.21 1721.97,835.253 1724.17,835.296 1726.37,835.339 1728.57,835.381 1730.77,835.423 1732.97,835.466 1735.17,835.508 1737.36,835.55 1739.56,835.592 1741.76,835.634 1743.96,835.675 1746.16,835.717 1748.36,835.758 1750.56,835.8 1752.75,835.841 1754.95,835.882 1757.15,835.923 1759.35,835.964 1761.55,836.005 1763.75,836.045 1765.95,836.086 1768.14,836.126 1770.34,836.166 1772.54,836.207 1774.74,836.247 1776.94,836.287 1779.14,836.327 1781.34,836.366 1783.53,836.406 1785.73,836.446 1787.93,836.485 1790.13,836.524 1792.33,836.564 1794.53,836.603 1796.73,836.642 1798.92,836.681 1801.12,836.72 1803.32,836.759 1805.52,836.797 1807.72,836.836 1809.92,836.874 1812.12,836.913 1814.32,836.951 1816.51,836.989 1818.71,837.027 1820.91,837.065 1823.11,837.103 1825.31,837.141 1827.51,837.179 1829.71,837.216 1831.9,837.254 1834.1,837.292 1836.3,837.329 1838.5,837.366 1840.7,837.403 1842.9,837.441 1845.1,837.478 1847.29,837.514 1849.49,837.551 1851.69,837.588 1853.89,837.625 1856.09,837.661 1858.29,837.698 1860.49,837.734 1862.68,837.771 1864.88,837.807 1867.08,837.843 1869.28,837.879 1871.48,837.915 1873.68,837.951 1875.88,837.987 1878.07,838.023 1880.27,838.059 1882.47,838.094 1884.67,838.13 1886.87,838.165 1889.07,838.201 1891.27,838.236 1893.46,838.271 1895.66,838.306 1897.86,838.342 1900.06,838.377 1902.26,838.412 1904.46,838.446 1906.66,838.481 1908.85,838.516 1911.05,838.551 1913.25,838.585 1915.45,838.62 1917.65,838.654 1919.85,838.688 1922.05,838.723 1924.24,838.757 1926.44,838.791 1928.64,838.825 1930.84,838.859 1933.04,838.893 1935.24,838.927 1937.44,838.961 1939.63,838.994 1941.83,839.028 1944.03,839.062 1946.23,839.095 1948.43,839.129 1950.63,839.162 1952.83,839.195 1955.03,839.229 1957.22,839.262 1959.42,839.295 1961.62,839.328 1963.82,839.361 1966.02,839.394 1968.22,839.427 1970.42,839.459 1972.61,839.492 1974.81,839.525 1977.01,839.557 1979.21,839.59 1981.41,839.622 1983.61,839.655 1985.81,839.687 1988,839.719 1990.2,839.752 1992.4,839.784 1994.6,839.816 1996.8,839.848 1999,839.88 2001.2,839.912 2003.39,839.944 2005.59,839.976 2007.79,840.007 2009.99,840.039 2012.19,840.071 2014.39,840.102 2016.59,840.134 2018.78,840.165 2020.98,840.196 2023.18,840.228 2025.38,840.259 2027.58,840.29 2029.78,840.321 2031.98,840.352 2034.17,840.383 2036.37,840.414 2038.57,840.445 2040.77,840.476 2042.97,840.507 2045.17,840.538 2047.37,840.568 2049.56,840.599 2051.76,840.63 2053.96,840.66 2056.16,840.691 2058.36,840.721 2060.56,840.751 2062.76,840.782 2064.95,840.812 2067.15,840.842 2069.35,840.872 2071.55,840.902 2073.75,840.932 2075.95,840.962 2078.15,840.992 2080.35,841.022 2082.54,841.052 2084.74,841.082 2086.94,841.111 2089.14,841.141 2091.34,841.171 2093.54,841.2 2095.74,841.23 2097.93,841.259 2100.13,841.289 2102.33,841.318 2104.53,841.347 2106.73,841.376 2108.93,841.406 2111.13,841.435 2113.32,841.464 2115.52,841.493 2117.72,841.522 2119.92,841.551 2122.12,841.58 2124.32,841.609 2126.52,841.637 2128.71,841.666 2130.91,841.695 2133.11,841.723 2135.31,841.752 2137.51,841.781 2139.71,841.809 2141.91,841.837 2144.1,841.866 2146.3,841.894 2148.5,841.922 2150.7,841.951 2152.9,841.979 2155.1,842.007 2157.3,842.035 2159.49,842.063 2161.69,842.091 2163.89,842.119 2166.09,842.147 2168.29,842.175 2170.49,842.203 2172.69,842.231 2174.88,842.258 2177.08,842.286 2179.28,842.314 2181.48,842.341 2183.68,842.369 2185.88,842.396 2188.08,842.424 2190.27,842.451 2192.47,842.479 2194.67,842.506 2196.87,842.533 2199.07,842.56 2201.27,842.588 2203.47,842.615 2205.66,842.642 2207.86,842.669 2210.06,842.696 2212.26,842.723 2214.46,842.75 2216.66,842.777 2218.86,842.804 2221.06,842.83 2223.25,842.857 2225.45,842.884 2227.65,842.911 2229.85,842.937 2232.05,842.964 2234.25,842.99 2236.45,843.017 2238.64,843.043 2240.84,843.07 2243.04,843.096 2245.24,843.122 2247.44,843.149 2249.64,843.175 2251.84,843.201 2254.03,843.227 2256.23,843.253 2258.43,843.279 2260.63,843.305 2262.83,843.331 2265.03,843.357 2267.23,843.383 2269.42,843.409 2271.62,843.435 2273.82,843.461 2276.02,843.486 2278.22,843.512 2280.42,843.538 2282.62,843.563 2284.81,843.589 2287.01,843.615 2289.21,843.64 2291.41,843.666 2293.61,843.691 2295.81,843.716 2298.01,843.742 2300.2,843.767 2302.4,843.792 2304.6,843.817 2306.8,843.843 2309,843.868 2311.2,843.893 2313.4,843.918 2315.59,843.943 2317.79,843.968 2319.99,843.993 2322.19,844.018 2324.39,844.043 2326.59,844.068 2328.79,844.092 2330.98,844.117 2333.18,844.142 2335.38,844.167 2337.58,844.191 2339.78,844.216 2341.98,844.24 2344.18,844.265 2346.38,844.289 2348.57,844.314 2350.77,844.338 2352.97,844.363 2355.17,844.387 2357.37,844.411 2359.57,844.436 2361.77,844.46 2363.96,844.484 2366.16,844.508 2368.36,844.532 2370.56,844.556 2372.76,844.58 2374.96,844.604 2377.16,844.628 2379.35,844.652 2381.55,844.676 2383.75,844.7 2385.95,844.724 2388.15,844.748 2390.35,844.772 2392.55,844.795 2394.74,844.819 2396.94,844.843 2399.14,844.866 2401.34,844.89 2403.54,844.913 2405.74,844.937 2407.94,844.96 2410.13,844.984 2412.33,845.007 2414.53,845.031 2416.73,845.054 2418.93,845.077 2421.13,845.1 2423.33,845.124 2425.52,845.147 2427.72,845.17 2429.92,845.193 2432.12,845.216 2434.32,845.239 2436.52,845.262 2438.72,845.285 2440.91,845.308 2443.11,845.331 2445.31,845.354 2447.51,845.377 2449.71,845.4 2451.91,845.423 2454.11,845.445 2456.3,845.468 2458.5,845.491 2460.7,845.514 2462.9,845.536 2465.1,845.559 2467.3,845.581 2469.5,845.604 2471.69,845.626 2473.89,845.649 2476.09,845.671 2478.29,845.694 2480.49,845.716 2482.69,845.738 2484.89,845.761 2487.09,845.783 2489.28,845.805 2491.48,845.827 2493.68,845.85 2495.88,845.872 2498.08,845.894 2500.28,845.916 2502.48,845.938 2504.67,845.96 2506.87,845.982 2509.07,846.004 2511.27,846.026 2513.47,846.048 2515.67,846.07 2517.87,846.091 2520.06,846.113 2522.26,846.135 2524.46,846.157 2526.66,846.178 2528.86,846.2 2531.06,846.222 2533.26,846.243 2535.45,846.265 2537.65,846.286 2539.85,846.308 2542.05,846.33 2544.25,846.351 2546.45,846.372 2548.65,846.394 2550.84,846.415 2553.04,846.436 2555.24,846.458 2557.44,846.479 2559.64,846.5 2561.84,846.522 2564.04,846.543 2566.23,846.564 2568.43,846.585 2570.63,846.606 2572.83,846.627 2575.03,846.648 2577.23,846.669 2579.43,846.69 2581.62,846.711 2583.82,846.732 2586.02,846.753 2588.22,846.774 2590.42,846.795 2592.62,846.815 2594.82,846.836 2597.01,846.857 2599.21,846.878 2601.41,846.898 2603.61,846.919 2605.81,846.94 2608.01,846.96 2610.21,846.981 2612.41,847.001 2614.6,847.022 2616.8,847.042 2619,847.063 2621.2,847.083 2623.4,847.104 2625.6,847.124 2627.8,847.144 2629.99,847.165 2632.19,847.185 2634.39,847.205 2636.59,847.225 2638.79,847.246 2640.99,847.266 2643.19,847.286 2645.38,847.306 2647.58,847.326 2649.78,847.346 2651.98,847.366 2654.18,847.386 2656.38,847.406 2658.58,847.426 2660.77,847.446 2662.97,847.466 2665.17,847.486 2667.37,847.506 2669.57,847.526 2671.77,847.545 2673.97,847.565 2676.16,847.585 2678.36,847.605 2680.56,847.624 2682.76,847.644 2684.96,847.664 2687.16,847.683 2689.36,847.703 2691.55,847.722 2693.75,847.742 2695.95,847.761 2698.15,847.781 2700.35,847.8 2702.55,847.82 2704.75,847.839 2706.94,847.859 2709.14,847.878 2711.34,847.897 2713.54,847.917 2715.74,847.936 2717.94,847.955 2720.14,847.974 2722.33,847.993 2724.53,848.013 2726.73,848.032 2728.93,848.051 2731.13,848.07 2733.33,848.089 2735.53,848.108 2737.72,848.127 2739.92,848.146 2742.12,848.165 2744.32,848.184 2746.52,848.203 2748.72,848.222 2750.92,848.241 2753.12,848.259 2755.31,848.278 2757.51,848.297 2759.71,848.316 2761.91,848.334 2764.11,848.353 2766.31,848.372 2768.51,848.391 2770.7,848.409 2772.9,848.428 2775.1,848.446 2777.3,848.465 2779.5,848.483 2781.7,848.502 2783.9,848.52 2786.09,848.539 2788.29,848.557 2790.49,848.576 2792.69,848.594 2794.89,848.613 2797.09,848.631 2799.29,848.649 2801.48,848.667 2803.68,848.686 2805.88,848.704 2808.08,848.722 2810.28,848.74 2812.48,848.759 2814.68,848.777 2816.87,848.795 2819.07,848.813 2821.27,848.831 2823.47,848.849 2825.67,848.867 2827.87,848.885 2830.07,848.903 2832.26,848.921 2834.46,848.939 2836.66,848.957 2838.86,848.975 2841.06,848.993 2843.26,849.01 2845.46,849.028 2847.65,849.046 2849.85,849.064 2852.05,849.082 2854.25,849.099 2856.45,849.117 2858.65,849.135 2860.85,849.152 2863.04,849.17 2865.24,849.188 2867.44,849.205 2869.64,849.223 2871.84,849.24 2874.04,849.258 2876.24,849.275 2878.44,849.293 2880.63,849.31 2882.83,849.328 2885.03,849.345 2887.23,849.363 2889.43,849.38 2891.63,849.397 2893.83,849.415 2896.02,849.432 2898.22,849.449 2900.42,849.466 2902.62,849.484 2904.82,849.501 2907.02,849.518 2909.22,849.535 2911.41,849.552 2913.61,849.569 2915.81,849.587 2918.01,849.604 2920.21,849.621 2922.41,849.638 2924.61,849.655 2926.8,849.672 2929,849.689 2931.2,849.706 2933.4,849.723 2935.6,849.74 2937.8,849.756 2940,849.773 2942.19,849.79 2944.39,849.807 2946.59,849.824 2948.79,849.84 2950.99,849.857 2953.19,849.874 2955.39,849.891 2957.58,849.907 2959.78,849.924 2961.98,849.941 2964.18,849.957 2966.38,849.974 2968.58,849.991 2970.78,850.007 2972.97,850.024 2975.17,850.04 2977.37,850.057 2979.57,850.073 2981.77,850.09 2983.97,850.106 2986.17,850.123 2988.36,850.139 2990.56,850.155 2992.76,850.172 2994.96,850.188 2997.16,850.204 2999.36,850.221 3001.56,850.237 3003.75,850.253 3005.95,850.269 3008.15,850.286 3010.35,850.302 3012.55,850.318 3014.75,850.334 3016.95,850.35 3019.15,850.366 3021.34,850.382 3023.54,850.399 3025.74,850.415 3027.94,850.431 3030.14,850.447 3032.34,850.463 3034.54,850.479 3036.73,850.495 3038.93,850.511 3041.13,850.526 3043.33,850.542 3045.53,850.558 3047.73,850.574 3049.93,850.59 3052.12,850.606 3054.32,850.622 3056.52,850.637 3058.72,850.653 3060.92,850.669 3063.12,850.685 3065.32,850.7 3067.51,850.716 3069.71,850.732 3071.91,850.747 3074.11,850.763 3076.31,850.779 3078.51,850.794 3080.71,850.81 3082.9,850.825 3085.1,850.841 3087.3,850.856 3089.5,850.872 3091.7,850.887 3093.9,850.903 3096.1,850.918 3098.29,850.934 3100.49,850.949 3102.69,850.964 3104.89,850.98 3107.09,850.995 3109.29,851.01 3111.49,851.026 3113.68,851.041 3115.88,851.056 3118.08,851.071 3120.28,851.087 3122.48,851.102 3124.68,851.117 3126.88,851.132 3129.07,851.147 3131.27,851.163 3133.47,851.178 3135.67,851.193 3137.87,851.208 3140.07,851.223 3142.27,851.238 3144.47,851.253 3146.66,851.268 3148.86,851.283 3151.06,851.298 3153.26,851.313 3155.46,851.328 3157.66,851.343 3159.86,851.358 3162.05,851.373 3164.25,851.388 3166.45,851.402 3168.65,851.417 3170.85,851.432 3173.05,851.447 3175.25,851.462 3177.44,851.476 3179.64,851.491 3181.84,851.506 3184.04,851.521 3186.24,851.535 3188.44,851.55 3190.64,851.565 3192.83,851.579 3195.03,851.594 3197.23,851.608 3199.43,851.623 3201.63,851.638 3203.83,851.652 3206.03,851.667 3208.22,851.681 3210.42,851.696 3212.62,851.71 3214.82,851.725 3217.02,851.739 3219.22,851.753 3221.42,851.768 3223.61,851.782 3225.81,851.797 3228.01,851.811 3230.21,851.825 3232.41,851.84 3234.61,851.854 3236.81,851.868 3239,851.883 3241.2,851.897 3243.4,851.911 3245.6,851.925 3247.8,851.94 3250,851.954 3252.2,851.968 3254.39,851.982 3256.59,851.996 3258.79,852.01 3260.99,852.024 3263.19,852.039 3265.39,852.053 3267.59,852.067 3269.78,852.081 3271.98,852.095 3274.18,852.109 3276.38,852.123 3278.58,852.137 3280.78,852.151 3282.98,852.165 3285.18,852.179 3287.37,852.192 3289.57,852.206 3291.77,852.22 3293.97,852.234 3296.17,852.248 3298.37,852.262 3300.57,852.276 3302.76,852.289 3304.96,852.303 3307.16,852.317 3309.36,852.331 3311.56,852.344 3313.76,852.358 3315.96,852.372 3318.15,852.386 3320.35,852.399 3322.55,852.413 3324.75,852.426 3326.95,852.44 3329.15,852.454 3331.35,852.467 3333.54,852.481 3335.74,852.494 3337.94,852.508 3340.14,852.522 3342.34,852.535 3344.54,852.549 3346.74,852.562 3348.93,852.575 3351.13,852.589 3353.33,852.602 3355.53,852.616 3357.73,852.629 3359.93,852.643 3362.13,852.656 3364.32,852.669 3366.52,852.683 3368.72,852.696 3370.92,852.709 3373.12,852.723 3375.32,852.736 3377.52,852.749 3379.71,852.762 3381.91,852.776 3384.11,852.789 3386.31,852.802 3388.51,852.815 3390.71,852.828 3392.91,852.842 3395.1,852.855 3397.3,852.868 3399.5,852.881 3401.7,852.894 3403.9,852.907 3406.1,852.92 3408.3,852.933 3410.5,852.946 3412.69,852.959 3414.89,852.972 3417.09,852.985 3419.29,852.998 3421.49,853.011 3423.69,853.024 3425.89,853.037 3428.08,853.05 3430.28,853.063 3432.48,853.076 3434.68,853.089 3436.88,853.102 3439.08,853.114 3441.28,853.127 3443.47,853.14 3445.67,853.153 3447.87,853.166 3450.07,853.178 3452.27,853.191 3454.47,853.204 3456.67,853.217 3458.86,853.229 3461.06,853.242 3463.26,853.255 3465.46,853.268 3467.66,853.28 3469.86,853.293 3472.06,853.305 3474.25,853.318 3476.45,853.331 3478.65,853.343 3480.85,853.356 3483.05,853.368 3485.25,853.381 3487.45,853.393 3489.64,853.406 3491.84,853.419 3494.04,853.431 3496.24,853.443 3498.44,853.456 3500.64,853.468 3502.84,853.481 3505.03,853.493 3507.23,853.506 3509.43,853.518 3511.63,853.53 3513.83,853.543 3516.03,853.555 3518.23,853.567 3520.42,853.58 3522.62,853.592 3524.82,853.604 3527.02,853.617 3529.22,853.629 3531.42,853.641 3533.62,853.653 3535.81,853.666 3538.01,853.678 3540.21,853.69 3542.41,853.702 3544.61,853.714 3546.81,853.727 3549.01,853.739 3551.21,853.751 3553.4,853.763 3555.6,853.775 3557.8,853.787 3560,853.799 3562.2,853.811 3564.4,853.823 3566.6,853.836 3568.79,853.848 3570.99,853.86 3573.19,853.872 3575.39,853.884 3577.59,853.896 3579.79,853.907 3581.99,853.919 3584.18,853.931 3586.38,853.943 3588.58,853.955 3590.78,853.967 3592.98,853.979 3595.18,853.991 3597.38,854.003 3599.57,854.015 3601.77,854.026 3603.97,854.038 3606.17,854.05 3608.37,854.062 3610.57,854.074 3612.77,854.085 3614.96,854.097 3617.16,854.109 3619.36,854.121 3621.56,854.132 3623.76,854.144 3625.96,854.156 3628.16,854.167 3630.35,854.179 3632.55,854.191 3634.75,854.202 3636.95,854.214 3639.15,854.226 3641.35,854.237 3643.55,854.249 3645.74,854.26 3647.94,854.272 3650.14,854.283 3652.34,854.295 3654.54,854.306 3656.74,854.318 3658.94,854.329 3661.13,854.341 3663.33,854.352 3665.53,854.364 3667.73,854.375 3669.93,854.387 3672.13,854.398 3674.33,854.41 3676.53,854.421 3678.72,854.432 3680.92,854.444 3683.12,854.455 3685.32,854.466 3687.52,854.478 3689.72,854.489 3691.92,854.5 3694.11,854.512 3696.31,854.523 3698.51,854.534 3700.71,854.546 3702.91,854.557 3705.11,854.568 3707.31,854.579 3709.5,854.591 3711.7,854.602 3713.9,854.613 3716.1,854.624 3718.3,854.635 3720.5,854.646 3722.7,854.658 3724.89,854.669 3727.09,854.68 3729.29,854.691 3731.49,854.702 3733.69,854.713 3735.89,854.724 3738.09,854.735 3740.28,854.746 3742.48,854.757 3744.68,854.768 3746.88,854.779 3749.08,854.79 3751.28,854.801 3753.48,854.812 3755.67,854.823 3757.87,854.834 3760.07,854.845 3762.27,854.856 3764.47,854.867 3766.67,854.878 3768.87,854.889 3771.06,854.9 3773.26,854.911 3775.46,854.922 3777.66,854.932 3779.86,854.943 3782.06,854.954 3784.26,854.965 3786.45,854.976 3788.65,854.986 3790.85,854.997 3793.05,855.008 3795.25,855.019 3797.45,855.03 3799.65,855.04 3801.84,855.051 3804.04,855.062 3806.24,855.072 3808.44,855.083 3810.64,855.094 3812.84,855.104 3815.04,855.115 3817.24,855.126 3819.43,855.136 3821.63,855.147 3823.83,855.158 3826.03,855.168 3828.23,855.179 3830.43,855.189 3832.63,855.2 3834.82,855.211 3837.02,855.221 3839.22,855.232 3841.42,855.242 3843.62,855.253 3845.82,855.263 3848.02,855.274 3850.21,855.284 3852.41,855.295 3854.61,855.305 3856.81,855.316 3859.01,855.326 3861.21,855.336 3863.41,855.347 3865.6,855.357 3867.8,855.368 3870,855.378 3872.2,855.388 3874.4,855.399 3876.6,855.409 3878.8,855.419 3880.99,855.43 3883.19,855.44 3885.39,855.45 3887.59,855.461 3889.79,855.471 3891.99,855.481 3894.19,855.491 3896.38,855.502 3898.58,855.512 3900.78,855.522 3902.98,855.532 3905.18,855.543 3907.38,855.553 3909.58,855.563 3911.77,855.573 3913.97,855.583 3916.17,855.594 3918.37,855.604 3920.57,855.614 3922.77,855.624 3924.97,855.634 3927.16,855.644 3929.36,855.654 3931.56,855.664 3933.76,855.674 3935.96,855.684 3938.16,855.695 3940.36,855.705 3942.56,855.715 3944.75,855.725 3946.95,855.735 3949.15,855.745 3951.35,855.755 3953.55,855.765 3955.75,855.775 3957.95,855.785 3960.14,855.795 3962.34,855.804 3964.54,855.814 3966.74,855.824 3968.94,855.834 3971.14,855.844 3973.34,855.854 3975.53,855.864 3977.73,855.874 3979.93,855.884 3982.13,855.893 3984.33,855.903 3986.53,855.913 3988.73,855.923 3990.92,855.933 3993.12,855.943 3995.32,855.952 3997.52,855.962 3999.72,855.972 4001.92,855.982 4004.12,855.991 4006.31,856.001 4008.51,856.011 4010.71,856.021 4012.91,856.03 4015.11,856.04 4017.31,856.05 4019.51,856.059 4021.7,856.069 4023.9,856.079 4026.1,856.088 4028.3,856.098 4030.5,856.108 4032.7,856.117 4034.9,856.127 4037.09,856.136 4039.29,856.146 4041.49,856.156 4043.69,856.165 4045.89,856.175 4048.09,856.184 4050.29,856.194 4052.48,856.203 4054.68,856.213 4056.88,856.222 4059.08,856.232 4061.28,856.241 4063.48,856.251 4065.68,856.26 4067.87,856.27 4070.07,856.279 4072.27,856.289 4074.47,856.298 4076.67,856.308 4078.87,856.317 4081.07,856.326 4083.27,856.336 4085.46,856.345 4087.66,856.355 4089.86,856.364 4092.06,856.373 4094.26,856.383 4096.46,856.392 4098.66,856.401 4100.85,856.411 4103.05,856.42 4105.25,856.429 4107.45,856.439 4109.65,856.448 4111.85,856.457 4114.05,856.467 4116.24,856.476 4118.44,856.485 4120.64,856.494 4122.84,856.504 4125.04,856.513 4127.24,856.522 4129.44,856.531 4131.63,856.54 4133.83,856.55 4136.03,856.559 4138.23,856.568 4140.43,856.577 4142.63,856.586 4144.83,856.595 4147.02,856.604 4149.22,856.614 4151.42,856.623 4153.62,856.632 4155.82,856.641 4158.02,856.65 4160.22,856.659 4162.41,856.668 4164.61,856.677 4166.81,856.686 4169.01,856.695 4171.21,856.704 4173.41,856.713 4175.61,856.722 4177.8,856.731 4180,856.74 4182.2,856.749 4184.4,856.758 4186.6,856.767 4188.8,856.776 4191,856.785 4193.19,856.794 4195.39,856.803 4197.59,856.812 4199.79,856.821 4201.99,856.83 4204.19,856.839 4206.39,856.848 4208.59,856.857 4210.78,856.865 4212.98,856.874 4215.18,856.883 4217.38,856.892 4219.58,856.901 4221.78,856.91 4223.98,856.918 4226.17,856.927 4228.37,856.936 4230.57,856.945 4232.77,856.954 4234.97,856.962 4237.17,856.971 4239.37,856.98 4241.56,856.989 4243.76,856.998 4245.96,857.006 4248.16,857.015 4250.36,857.024 4252.56,857.032 4254.76,857.041 4256.95,857.05 4259.15,857.058 4261.35,857.067 4263.55,857.076 4265.75,857.084 4267.95,857.093 4270.15,857.102 4272.34,857.11 4274.54,857.119 4276.74,857.128 4278.94,857.136 4281.14,857.145 4283.34,857.153 4285.54,857.162 4287.73,857.171 4289.93,857.179 4292.13,857.188 4294.33,857.196 4296.53,857.205 4298.73,857.213 4300.93,857.222 4303.12,857.23 4305.32,857.239 4307.52,857.247 4309.72,857.256 4311.92,857.264 4314.12,857.273 4316.32,857.281 4318.51,857.29 4320.71,857.298 4322.91,857.307 4325.11,857.315 4327.31,857.324 4329.51,857.332 4331.71,857.34 4333.9,857.349 4336.1,857.357 4338.3,857.366 4340.5,857.374 4342.7,857.382 4344.9,857.391 4347.1,857.399 4349.3,857.407 4351.49,857.416 4353.69,857.424 4355.89,857.432 4358.09,857.441 4360.29,857.449 4362.49,857.457 4364.69,857.466 4366.88,857.474 4369.08,857.482 4371.28,857.49 4373.48,857.499 4375.68,857.507 4377.88,857.515 4380.08,857.523 4382.27,857.532 4384.47,857.54 4386.67,857.548 4388.87,857.556 4391.07,857.565 4393.27,857.573 4395.47,857.581 4397.66,857.589 4399.86,857.597 4402.06,857.605 4404.26,857.614 4406.46,857.622 4408.66,857.63 4410.86,857.638 4413.05,857.646 4415.25,857.654 4417.45,857.662 4419.65,857.67 4421.85,857.678 4424.05,857.687 4426.25,857.695 4428.44,857.703 4430.64,857.711 4432.84,857.719 4435.04,857.727 4437.24,857.735 4439.44,857.743 4441.64,857.751 4443.83,857.759 4446.03,857.767 4448.23,857.775 4450.43,857.783 4452.63,857.791 4454.83,857.799 4457.03,857.807 4459.22,857.815 4461.42,857.823 4463.62,857.831 4465.82,857.839 4468.02,857.847 4470.22,857.855 4472.42,857.862 4474.62,857.87 4476.81,857.878 4479.01,857.886 4481.21,857.894 4483.41,857.902 4485.61,857.91 4487.81,857.918 4490.01,857.925 4492.2,857.933 4494.4,857.941 4496.6,857.949 4498.8,857.957 4501,857.965 4503.2,857.972 4505.4,857.98 4507.59,857.988 4509.79,857.996 4511.99,858.004 4514.19,858.011 4516.39,858.019 4518.59,858.027 4520.79,858.035 4522.98,858.042 4525.18,858.05 4527.38,858.058 4529.58,858.066 4531.78,858.073 4533.98,858.081 4536.18,858.089 4538.37,858.096 4540.57,858.104 4542.77,858.112 4544.97,858.119 4547.17,858.127 4549.37,858.135 4551.57,858.142 4553.76,858.15 4555.96,858.158 4558.16,858.165 4560.36,858.173 4562.56,858.181 4564.76,858.188 4566.96,858.196 4569.15,858.203 4571.35,858.211 4573.55,858.219 4575.75,858.226 4577.95,858.234 4580.15,858.241 4582.35,858.249 4584.54,858.256 4586.74,858.264 4588.94,858.271 4591.14,858.279 4593.34,858.287 4595.54,858.294 4597.74,858.302 4599.93,858.309 4602.13,858.317 4604.33,858.324 4606.53,858.331 4608.73,858.339 4610.93,858.346 4613.13,858.354 4615.33,858.361 4617.52,858.369 4619.72,858.376 4621.92,858.384 4624.12,858.391 4626.32,858.398 4628.52,858.406 4630.72,858.413 4632.91,858.421 4635.11,858.428 4637.31,858.435 4639.51,858.443 4641.71,858.45 4643.91,858.458 4646.11,858.465 4648.3,858.472 4650.5,858.48 4652.7,858.487 4654.9,858.494 4657.1,858.502 4659.3,858.509 4661.5,858.516 4663.69,858.523 4665.89,858.531 4668.09,858.538 4670.29,858.545 4672.49,858.553 4674.69,858.56 4676.89,858.567 4679.08,858.574 4681.28,858.582 4683.48,858.589 4685.68,858.596 4687.88,858.603 4690.08,858.611 4692.28,858.618 4694.47,858.625 4696.67,858.632 4698.87,858.639 4701.07,858.647 4703.27,858.654 4705.47,858.661 4707.67,858.668 4709.86,858.675 4712.06,858.682 4714.26,858.69 4716.46,858.697 4718.66,858.704 4720.86,858.711 4723.06,858.718 4725.25,858.725 4727.45,858.732 4729.65,858.739 4731.85,858.747 4734.05,858.754 4736.25,858.761 4738.45,858.768 4740.65,858.775 4742.84,858.782 4745.04,858.789 4747.24,858.796 4749.44,858.803 4751.64,858.81 4753.84,858.817 4756.04,858.824 4758.23,858.831 4760.43,858.838 4762.63,858.845 4764.83,858.852 4767.03,858.859 4769.23,858.866 4771.43,858.873 4773.62,858.88 4775.82,858.887 4778.02,858.894 4780.22,858.901 4782.42,858.908 4784.62,858.915 4786.82,858.922 4789.01,858.929 4791.21,858.936 4793.41,858.943 4795.61,858.95 4797.81,858.957 4800.01,858.963 4802.21,858.97 4804.4,858.977 4806.6,858.984 4808.8,858.991 4811,858.998 4813.2,859.005 4815.4,859.012 4817.6,859.018 4819.79,859.025 4821.99,859.032 4824.19,859.039 4826.39,859.046 4828.59,859.053 4830.79,859.059 4832.99,859.066 4835.18,859.073 4837.38,859.08 4839.58,859.087 4841.78,859.093 4843.98,859.1 4846.18,859.107 4848.38,859.114 4850.57,859.12 4852.77,859.127 4854.97,859.134 4857.17,859.141 4859.37,859.147 4861.57,859.154 4863.77,859.161 4865.96,859.168 4868.16,859.174 4870.36,859.181 4872.56,859.188 4874.76,859.194 4876.96,859.201 4879.16,859.208 4881.36,859.215 4883.55,859.221 4885.75,859.228 4887.95,859.235 4890.15,859.241 4892.35,859.248 4894.55,859.254 4896.75,859.261 4898.94,859.268 4901.14,859.274 4903.34,859.281 4905.54,859.288 4907.74,859.294 4909.94,859.301 4912.14,859.307 4914.33,859.314 4916.53,859.321 4918.73,859.327 4920.93,859.334 4923.13,859.34 4925.33,859.347 4927.53,859.353 4929.72,859.36 4931.92,859.367 4934.12,859.373 4936.32,859.38 4938.52,859.386 4940.72,859.393 4942.92,859.399 4945.11,859.406 4947.31,859.412 4949.51,859.419 4951.71,859.425 4953.91,859.432 4956.11,859.438 4958.31,859.445 4960.5,859.451 4962.7,859.458 4964.9,859.464 4967.1,859.47 4969.3,859.477 4971.5,859.483 4973.7,859.49 4975.89,859.496 4978.09,859.503 4980.29,859.509 4982.49,859.515 4984.69,859.522 4986.89,859.528 4989.09,859.535 4991.28,859.541 4993.48,859.547 4995.68,859.554 4997.88,859.56 5000.08,859.567 5002.28,859.573 5004.48,859.579 5006.68,859.586 5008.87,859.592 5011.07,859.598 5013.27,859.605 5015.47,859.611 5017.67,859.617 5019.87,859.624 5022.07,859.63 5024.26,859.636 5026.46,859.643 5028.66,859.649 5030.86,859.655 5033.06,859.661 5035.26,859.668 5037.46,859.674 5039.65,859.68 5041.85,859.687 5044.05,859.693 5046.25,859.699 5048.45,859.705 5050.65,859.712 5052.85,859.718 5055.04,859.724 5057.24,859.73 5059.44,859.736 5061.64,859.743 5063.84,859.749 5066.04,859.755 5068.24,859.761 5070.43,859.767 5072.63,859.774 5074.83,859.78 5077.03,859.786 5079.23,859.792 5081.43,859.798 5083.63,859.805 5085.82,859.811 5088.02,859.817 5090.22,859.823 5092.42,859.829 5094.62,859.835 5096.82,859.841 5099.02,859.848 5101.21,859.854 5103.41,859.86 5105.61,859.866 5107.81,859.872 5110.01,859.878 5112.21,859.884 5114.41,859.89 5116.6,859.896 5118.8,859.902 5121,859.909 5123.2,859.915 5125.4,859.921 5127.6,859.927 5129.8,859.933 5131.99,859.939 5134.19,859.945 5136.39,859.951 5138.59,859.957 5140.79,859.963 5142.99,859.969 5145.19,859.975 5147.39,859.981 5149.58,859.987 5151.78,859.993 5153.98,859.999 5156.18,860.005 5158.38,860.011 5160.58,860.017 5162.78,860.023 5164.97,860.029 5167.17,860.035 5169.37,860.041 5171.57,860.047 5173.77,860.053 5175.97,860.059 5178.17,860.065 5180.36,860.071 5182.56,860.076 5184.76,860.082 5186.96,860.088 5189.16,860.094 5191.36,860.1 5193.56,860.106 5195.75,860.112 5197.95,860.118 5200.15,860.124 5202.35,860.13 5204.55,860.136 5206.75,860.141 5208.95,860.147 5211.14,860.153 5213.34,860.159 5215.54,860.165 5217.74,860.171 5219.94,860.177 5222.14,860.182 5224.34,860.188 5226.53,860.194 5228.73,860.2 5230.93,860.206 5233.13,860.211 5235.33,860.217 5237.53,860.223 5239.73,860.229 5241.92,860.235 5244.12,860.24 5246.32,860.246 5248.52,860.252 5250.72,860.258 5252.92,860.264 5255.12,860.269 5257.31,860.275 5259.51,860.281 5261.71,860.287 5263.91,860.292 5266.11,860.298 5268.31,860.304 5270.51,860.31 5272.71,860.315 5274.9,860.321 5277.1,860.327 5279.3,860.332 5281.5,860.338 5283.7,860.344 5285.9,860.35 5288.1,860.355 5290.29,860.361 5292.49,860.367 5294.69,860.372 5296.89,860.378 5299.09,860.384 5301.29,860.389 5303.49,860.395 5305.68,860.401 5307.88,860.406 5310.08,860.412 5312.28,860.418 5314.48,860.423 5316.68,860.429 5318.88,860.435 5321.07,860.44 5323.27,860.446 5325.47,860.451 5327.67,860.457 5329.87,860.463 5332.07,860.468 5334.27,860.474 5336.46,860.479 5338.66,860.485 5340.86,860.491 5343.06,860.496 5345.26,860.502 5347.46,860.507 5349.66,860.513 5351.85,860.518 5354.05,860.524 5356.25,860.529 5358.45,860.535 5360.65,860.541 5362.85,860.546 5365.05,860.552 5367.24,860.557 5369.44,860.563 5371.64,860.568 5373.84,860.574 5376.04,860.579 5378.24,860.585 5380.44,860.59 5382.63,860.596 5384.83,860.601 5387.03,860.607 5389.23,860.612 5391.43,860.618 5393.63,860.623 5395.83,860.629 5398.02,860.634 5400.22,860.64 5402.42,860.645 5404.62,860.65 5406.82,860.656 5409.02,860.661 5411.22,860.667 5413.42,860.672 5415.61,860.678 5417.81,860.683 5420.01,860.688 5422.21,860.694 5424.41,860.699 5426.61,860.705 5428.81,860.71 5431,860.715 5433.2,860.721 5435.4,860.726 5437.6,860.732 5439.8,860.737 5442,860.742 5444.2,860.748 5446.39,860.753 5448.59,860.758 5450.79,860.764 5452.99,860.769 5455.19,860.775 5457.39,860.78 5459.59,860.785 5461.78,860.791 5463.98,860.796 5466.18,860.801 5468.38,860.807 5470.58,860.812 5472.78,860.817 5474.98,860.822 5477.17,860.828 5479.37,860.833 5481.57,860.838 5483.77,860.844 5485.97,860.849 5488.17,860.854 5490.37,860.859 5492.56,860.865 5494.76,860.87 5496.96,860.875 5499.16,860.881 5501.36,860.886 5503.56,860.891 5505.76,860.896 5507.95,860.902 5510.15,860.907 5512.35,860.912 5514.55,860.917 5516.75,860.922 5518.95,860.928 5521.15,860.933 5523.34,860.938 5525.54,860.943 5527.74,860.949 5529.94,860.954 5532.14,860.959 5534.34,860.964 5536.54,860.969 5538.74,860.974 5540.93,860.98 5543.13,860.985 5545.33,860.99 5547.53,860.995 5549.73,861 5551.93,861.006 5554.13,861.011 5556.32,861.016 5558.52,861.021 5560.72,861.026 5562.92,861.031 5565.12,861.036 5567.32,861.041 5569.52,861.047 5571.71,861.052 5573.91,861.057 5576.11,861.062 5578.31,861.067 5580.51,861.072 5582.71,861.077 5584.91,861.082 5587.1,861.087 5589.3,861.093 5591.5,861.098 5593.7,861.103 5595.9,861.108 5598.1,861.113 5600.3,861.118 5602.49,861.123 5604.69,861.128 5606.89,861.133 5609.09,861.138 5611.29,861.143 5613.49,861.148 5615.69,861.153 5617.88,861.158 5620.08,861.163 5622.28,861.168 5624.48,861.173 5626.68,861.178 5628.88,861.183 5631.08,861.188 5633.27,861.193 5635.47,861.198 5637.67,861.203 5639.87,861.208 5642.07,861.213 5644.27,861.218 5646.47,861.223 5648.66,861.228 5650.86,861.233 5653.06,861.238 5655.26,861.243 5657.46,861.248 5659.66,861.253 5661.86,861.258 5664.05,861.263 5666.25,861.268 5668.45,861.273 5670.65,861.278 5672.85,861.283 5675.05,861.288 5677.25,861.293 5679.45,861.298 5681.64,861.303 5683.84,861.308 5686.04,861.312 5688.24,861.317 5690.44,861.322 5692.64,861.327 5694.84,861.332 5697.03,861.337 5699.23,861.342 5701.43,861.347 5703.63,861.352 5705.83,861.356 5708.03,861.361 5710.23,861.366 5712.42,861.371 5714.62,861.376 5716.82,861.381 5719.02,861.386 5721.22,861.39 5723.42,861.395 5725.62,861.4 5727.81,861.405 5730.01,861.41 5732.21,861.415 5734.41,861.419 5736.61,861.424 5738.81,861.429 5741.01,861.434 5743.2,861.439 5745.4,861.444 5747.6,861.448 5749.8,861.453 5752,861.458 5754.2,861.463 5756.4,861.468 5758.59,861.472 5760.79,861.477 5762.99,861.482 5765.19,861.487 5767.39,861.491 5769.59,861.496 5771.79,861.501 5773.98,861.506 5776.18,861.51 5778.38,861.515 5780.58,861.52 5782.78,861.525 5784.98,861.529 5787.18,861.534 5789.37,861.539 5791.57,861.544 5793.77,861.548 5795.97,861.553 5798.17,861.558 5800.37,861.562 5802.57,861.567 5804.77,861.572 5806.96,861.577 5809.16,861.581 5811.36,861.586 5813.56,861.591 5815.76,861.595 5817.96,861.6 5820.16,861.605 5822.35,861.609 5824.55,861.614 5826.75,861.619 5828.95,861.623 5831.15,861.628 5833.35,861.633 5835.55,861.637 5837.74,861.642 5839.94,861.647 5842.14,861.651 5844.34,861.656 5846.54,861.661 5848.74,861.665 5850.94,861.67 5853.13,861.674 5855.33,861.679 5857.53,861.684 5859.73,861.688 5861.93,861.693 5864.13,861.698 5866.33,861.702 5868.52,861.707 5870.72,861.711 5872.92,861.716 5875.12,861.721 5877.32,861.725 5879.52,861.73 5881.72,861.734 5883.91,861.739 5886.11,861.743 5888.31,861.748 5890.51,861.753 5892.71,861.757 5894.91,861.762 5897.11,861.766 5899.3,861.771 5901.5,861.775 5903.7,861.78 5905.9,861.784 5908.1,861.789 5910.3,861.793 5912.5,861.798 5914.69,861.803 5916.89,861.807 5919.09,861.812 5921.29,861.816 5923.49,861.821 5925.69,861.825 5927.89,861.83 5930.08,861.834 5932.28,861.839 5934.48,861.843 5936.68,861.848 5938.88,861.852 5941.08,861.857 5943.28,861.861 5945.48,861.866 5947.67,861.87 5949.87,861.874 5952.07,861.879 5954.27,861.883 5956.47,861.888 5958.67,861.892 5960.87,861.897 5963.06,861.901 5965.26,861.906 5967.46,861.91 5969.66,861.915 5971.86,861.919 5974.06,861.923 5976.26,861.928 5978.45,861.932 5980.65,861.937 5982.85,861.941 5985.05,861.945 5987.25,861.95 5989.45,861.954 5991.65,861.959 5993.84,861.963 5996.04,861.968 5998.24,861.972 6000.44,861.976 6002.64,861.981 6004.84,861.985 6007.04,861.989 6009.23,861.994 6011.43,861.998 6013.63,862.003 6015.83,862.007 6018.03,862.011 6020.23,862.016 6022.43,862.02 6024.62,862.024 6026.82,862.029 6029.02,862.033 6031.22,862.037 6033.42,862.042 6035.62,862.046 6037.82,862.05 6040.01,862.055 6042.21,862.059 6044.41,862.063 6046.61,862.068 6048.81,862.072 6051.01,862.076 6053.21,862.081 6055.4,862.085 6057.6,862.089 6059.8,862.094 6062,862.098 6064.2,862.102 6066.4,862.106 6068.6,862.111 6070.8,862.115 6072.99,862.119 6075.19,862.124 6077.39,862.128 6079.59,862.132 6081.79,862.136 6083.99,862.141 6086.19,862.145 6088.38,862.149 6090.58,862.153 6092.78,862.158 6094.98,862.162 6097.18,862.166 6099.38,862.17 6101.58,862.175 6103.77,862.179 6105.97,862.183 6108.17,862.187 6110.37,862.192 6112.57,862.196 6114.77,862.2 6116.97,862.204 6119.16,862.208 6121.36,862.213 6123.56,862.217 6125.76,862.221 6127.96,862.225 6130.16,862.229 6132.36,862.234 6134.55,862.238 6136.75,862.242 6138.95,862.246 6141.15,862.25 6143.35,862.255 6145.55,862.259 6147.75,862.263 6149.94,862.267 6152.14,862.271 6154.34,862.275 6156.54,862.28 6158.74,862.284 6160.94,862.288 6163.14,862.292 6165.33,862.296 6167.53,862.3 6169.73,862.304 6171.93,862.309 6174.13,862.313 6176.33,862.317 6178.53,862.321 6180.72,862.325 6182.92,862.329 6185.12,862.333 6187.32,862.337 6189.52,862.342 6191.72,862.346 6193.92,862.35 6196.11,862.354 6198.31,862.358 6200.51,862.362 6202.71,862.366 6204.91,862.37 6207.11,862.374 6209.31,862.378 6211.51,862.383 6213.7,862.387 6215.9,862.391 6218.1,862.395 6220.3,862.399 6222.5,862.403 6224.7,862.407 6226.9,862.411 6229.09,862.415 6231.29,862.419 6233.49,862.423 6235.69,862.427 6237.89,862.431 6240.09,862.435 6242.29,862.439 6244.48,862.443 6246.68,862.447 6248.88,862.451 6251.08,862.455 6253.28,862.459 6255.48,862.463 6257.68,862.467 6259.87,862.472 6262.07,862.476 6264.27,862.48 6266.47,862.484 6268.67,862.488 6270.87,862.492 6273.07,862.496 6275.26,862.5 6277.46,862.504 6279.66,862.507 6281.86,862.511 6284.06,862.515 6286.26,862.519 6288.46,862.523 6290.65,862.527 6292.85,862.531 6295.05,862.535 6297.25,862.539 6299.45,862.543 6301.65,862.547 6303.85,862.551 6306.04,862.555 6308.24,862.559 6310.44,862.563 6312.64,862.567 6314.84,862.571 6317.04,862.575 6319.24,862.579 6321.43,862.583 6323.63,862.587 6325.83,862.591 6328.03,862.594 6330.23,862.598 6332.43,862.602 6334.63,862.606 6336.83,862.61 6339.02,862.614 6341.22,862.618 6343.42,862.622 6345.62,862.626 6347.82,862.63 6350.02,862.634 6352.22,862.637 6354.41,862.641 6356.61,862.645 6358.81,862.649 6361.01,862.653 6363.21,862.657 6365.41,862.661 6367.61,862.665 6369.8,862.668 6372,862.672 6374.2,862.676 6376.4,862.68 6378.6,862.684 6380.8,862.688 6383,862.692 6385.19,862.695 6387.39,862.699 6389.59,862.703 6391.79,862.707 6393.99,862.711 6396.19,862.715 6398.39,862.718 6400.58,862.722 6402.78,862.726 6404.98,862.73 6407.18,862.734 6409.38,862.738 6411.58,862.741 6413.78,862.745 6415.97,862.749 6418.17,862.753 6420.37,862.757 6422.57,862.76 6424.77,862.764 6426.97,862.768 6429.17,862.772 6431.36,862.776 6433.56,862.779 6435.76,862.783 6437.96,862.787 6440.16,862.791 6442.36,862.794 6444.56,862.798 6446.75,862.802 6448.95,862.806 6451.15,862.81 6453.35,862.813 6455.55,862.817 6457.75,862.821 6459.95,862.825 6462.14,862.828 6464.34,862.832 6466.54,862.836 6468.74,862.84 6470.94,862.843 6473.14,862.847 6475.34,862.851 6477.54,862.854 6479.73,862.858 6481.93,862.862 6484.13,862.866 6486.33,862.869 6488.53,862.873 6490.73,862.877 6492.93,862.88 6495.12,862.884 6497.32,862.888 6499.52,862.892 6501.72,862.895 6503.92,862.899 6506.12,862.903 6508.32,862.906 6510.51,862.91 6512.71,862.914 6514.91,862.917 6517.11,862.921 6519.31,862.925 6521.51,862.928 6523.71,862.932 6525.9,862.936 6528.1,862.939 6530.3,862.943 6532.5,862.947 6534.7,862.95 6536.9,862.954 6539.1,862.958 6541.29,862.961 6543.49,862.965 6545.69,862.969 6547.89,862.972 6550.09,862.976 6552.29,862.98 6554.49,862.983 6556.68,862.987 6558.88,862.991 6561.08,862.994 6563.28,862.998 6565.48,863.001 6567.68,863.005 6569.88,863.009 6572.07,863.012 6574.27,863.016 6576.47,863.019 6578.67,863.023 6580.87,863.027 6583.07,863.03 6585.27,863.034 6587.46,863.038 6589.66,863.041 6591.86,863.045 6594.06,863.048 6596.26,863.052 6598.46,863.055 6600.66,863.059 6602.86,863.063 6605.05,863.066 6607.25,863.07 6609.45,863.073 6611.65,863.077 6613.85,863.08 6616.05,863.084 6618.25,863.088 6620.44,863.091 6622.64,863.095 6624.84,863.098 6627.04,863.102 6629.24,863.105 6631.44,863.109 6633.64,863.112 6635.83,863.116 6638.03,863.119 6640.23,863.123 6642.43,863.127 6644.63,863.13 6646.83,863.134 6649.03,863.137 6651.22,863.141 6653.42,863.144 6655.62,863.148 6657.82,863.151 6660.02,863.155 6662.22,863.158 6664.42,863.162 6666.61,863.165 6668.81,863.169 6671.01,863.172 6673.21,863.176 6675.41,863.179 6677.61,863.183 6679.81,863.186 6682,863.19 6684.2,863.193 6686.4,863.197 6688.6,863.2 6690.8,863.204 6693,863.207 6695.2,863.211 6697.39,863.214 6699.59,863.218 6701.79,863.221 6703.99,863.224 6706.19,863.228 6708.39,863.231 6710.59,863.235 6712.78,863.238 6714.98,863.242 6717.18,863.245 6719.38,863.249 6721.58,863.252 6723.78,863.255 6725.98,863.259 6728.17,863.262 6730.37,863.266 6732.57,863.269 6734.77,863.273 6736.97,863.276 6739.17,863.279 6741.37,863.283 6743.57,863.286 6745.76,863.29 6747.96,863.293 6750.16,863.297 6752.36,863.3 6754.56,863.303 6756.76,863.307 6758.96,863.31 6761.15,863.314 6763.35,863.317 6765.55,863.32 6767.75,863.324 6769.95,863.327 6772.15,863.331 6774.35,863.334 6776.54,863.337 6778.74,863.341 6780.94,863.344 6783.14,863.347 6785.34,863.351 6787.54,863.354 6789.74,863.358 6791.93,863.361 6794.13,863.364 6796.33,863.368 6798.53,863.371 6800.73,863.374 6802.93,863.378 6805.13,863.381 6807.32,863.384 6809.52,863.388 6811.72,863.391 6813.92,863.394 6816.12,863.398 6818.32,863.401 6820.52,863.404 6822.71,863.408 6824.91,863.411 6827.11,863.414 6829.31,863.418 6831.51,863.421 6833.71,863.424 6835.91,863.428 6838.1,863.431 6840.3,863.434 6842.5,863.438 6844.7,863.441 6846.9,863.444 6849.1,863.447 6851.3,863.451 6853.49,863.454 6855.69,863.457 6857.89,863.461 6860.09,863.464 6862.29,863.467 6864.49,863.471 6866.69,863.474 6868.89,863.477 6871.08,863.48 6873.28,863.484 6875.48,863.487 6877.68,863.49 6879.88,863.493 6882.08,863.497 6884.28,863.5 6886.47,863.503 6888.67,863.507 6890.87,863.51 6893.07,863.513 6895.27,863.516 6897.47,863.52 6899.67,863.523 6901.86,863.526 6904.06,863.529 6906.26,863.533 6908.46,863.536 6910.66,863.539 6912.86,863.542 6915.06,863.545 6917.25,863.549 6919.45,863.552 6921.65,863.555 6923.85,863.558 6926.05,863.562 6928.25,863.565 6930.45,863.568 6932.64,863.571 6934.84,863.574 6937.04,863.578 6939.24,863.581 6941.44,863.584 6943.64,863.587 6945.84,863.591 6948.03,863.594 6950.23,863.597 6952.43,863.6 6954.63,863.603 6956.83,863.606 6959.03,863.61 6961.23,863.613 6963.42,863.616 6965.62,863.619 6967.82,863.622 6970.02,863.626 6972.22,863.629 6974.42,863.632 6976.62,863.635 6978.81,863.638 6981.01,863.641 6983.21,863.645 6985.41,863.648 6987.61,863.651 6989.81,863.654 6992.01,863.657 6994.2,863.66 6996.4,863.664 6998.6,863.667 7000.8,863.67 7003,863.673 7005.2,863.676 7007.4,863.679 7009.6,863.682 7011.79,863.686 7013.99,863.689 7016.19,863.692 7018.39,863.695 7020.59,863.698 7022.79,863.701 7024.99,863.704 7027.18,863.707 7029.38,863.711 7031.58,863.714 7033.78,863.717 7035.98,863.72 7038.18,863.723 7040.38,863.726 7042.57,863.729 7044.77,863.732 7046.97,863.735 7049.17,863.738 7051.37,863.742 7053.57,863.745 7055.77,863.748 7057.96,863.751 7060.16,863.754 7062.36,863.757 7064.56,863.76 7066.76,863.763 7068.96,863.766 7071.16,863.769 7073.35,863.772 7075.55,863.776 7077.75,863.779 7079.95,863.782 7082.15,863.785 7084.35,863.788 7086.55,863.791 7088.74,863.794 7090.94,863.797 7093.14,863.8 7095.34,863.803 7097.54,863.806 7099.74,863.809 7101.94,863.812 7104.13,863.815 7106.33,863.818 7108.53,863.821 7110.73,863.824 7112.93,863.827 7115.13,863.83 7117.33,863.833 7119.52,863.837 7121.72,863.84 7123.92,863.843 7126.12,863.846 7128.32,863.849 7130.52,863.852 7132.72,863.855 7134.92,863.858 7137.11,863.861 7139.31,863.864 7141.51,863.867 7143.71,863.87 7145.91,863.873 7148.11,863.876 7150.31,863.879 7152.5,863.882 7154.7,863.885 7156.9,863.888 7159.1,863.891 7161.3,863.894 7163.5,863.897 7165.7,863.9 7167.89,863.903 7170.09,863.906 7172.29,863.909 7174.49,863.912 7176.69,863.915 7178.89,863.918 7181.09,863.921 7183.28,863.923 7185.48,863.926 7187.68,863.929 7189.88,863.932 7192.08,863.935 7194.28,863.938 7196.48,863.941 7198.67,863.944 7200.87,863.947 7203.07,863.95 7205.27,863.953 7207.47,863.956 7209.67,863.959 7211.87,863.962 7214.06,863.965 7216.26,863.968 7218.46,863.971 7220.66,863.974 7222.86,863.977 7225.06,863.98 7227.26,863.982 7229.45,863.985 7231.65,863.988 7233.85,863.991 7236.05,863.994 7238.25,863.997 7240.45,864 7242.65,864.003 7244.84,864.006 7247.04,864.009 7249.24,864.012 7251.44,864.015 7253.64,864.017 7255.84,864.02 7258.04,864.023 7260.23,864.026 7262.43,864.029 7264.63,864.032 7266.83,864.035 7269.03,864.038 7271.23,864.041 7273.43,864.044 7275.63,864.046 7277.82,864.049 7280.02,864.052 7282.22,864.055 7284.42,864.058 7286.62,864.061 7288.82,864.064 7291.02,864.067 7293.21,864.069 7295.41,864.072 7297.61,864.075 7299.81,864.078 7302.01,864.081 7304.21,864.084 7306.41,864.087 7308.6,864.089 7310.8,864.092 7313,864.095 7315.2,864.098 7317.4,864.101 7319.6,864.104 7321.8,864.107 7323.99,864.109 7326.19,864.112 7328.39,864.115 7330.59,864.118 7332.79,864.121 7334.99,864.124 7337.19,864.126 7339.38,864.129 7341.58,864.132 7343.78,864.135 7345.98,864.138 7348.18,864.141 7350.38,864.143 7352.58,864.146 7354.77,864.149 7356.97,864.152 7359.17,864.155 7361.37,864.157 7363.57,864.16 7365.77,864.163 7367.97,864.166 7370.16,864.169 7372.36,864.171 7374.56,864.174 7376.76,864.177 7378.96,864.18 7381.16,864.183 7383.36,864.185 7385.55,864.188 7387.75,864.191 7389.95,864.194 7392.15,864.197 7394.35,864.199 7396.55,864.202 7398.75,864.205 7400.95,864.208 7403.14,864.211 7405.34,864.213 7407.54,864.216 7409.74,864.219 7411.94,864.222 7414.14,864.224 7416.34,864.227 7418.53,864.23 7420.73,864.233 7422.93,864.235 7425.13,864.238 7427.33,864.241 7429.53,864.244 7431.73,864.246 7433.92,864.249 7436.12,864.252 7438.32,864.255 7440.52,864.257 7442.72,864.26 7444.92,864.263 7447.12,864.266 7449.31,864.268 7451.51,864.271 7453.71,864.274 7455.91,864.277 7458.11,864.279 7460.31,864.282 7462.51,864.285 7464.7,864.287 7466.9,864.29 7469.1,864.293 7471.3,864.296 7473.5,864.298 7475.7,864.301 7477.9,864.304 7480.09,864.306 7482.29,864.309 7484.49,864.312 7486.69,864.315 7488.89,864.317 7491.09,864.32 7493.29,864.323 7495.48,864.325 7497.68,864.328 7499.88,864.331 7502.08,864.333 7504.28,864.336 7506.48,864.339 7508.68,864.342 7510.87,864.344 7513.07,864.347 7515.27,864.35 7517.47,864.352 7519.67,864.355 7521.87,864.358 7524.07,864.36 7526.26,864.363 7528.46,864.366 7530.66,864.368 7532.86,864.371 7535.06,864.374 7537.26,864.376 7539.46,864.379 7541.66,864.382 7543.85,864.384 7546.05,864.387 7548.25,864.39 7550.45,864.392 7552.65,864.395 7554.85,864.398 7557.05,864.4 7559.24,864.403 7561.44,864.405 7563.64,864.408 7565.84,864.411 7568.04,864.413 7570.24,864.416 7572.44,864.419 7574.63,864.421 7576.83,864.424 7579.03,864.427 7581.23,864.429 7583.43,864.432 7585.63,864.434 7587.83,864.437 7590.02,864.44 7592.22,864.442 7594.42,864.445 7596.62,864.448 7598.82,864.45 7601.02,864.453 7603.22,864.455 7605.41,864.458 7607.61,864.461 7609.81,864.463 7612.01,864.466 7614.21,864.468 7616.41,864.471 7618.61,864.474 7620.8,864.476 7623,864.479 7625.2,864.481 7627.4,864.484 7629.6,864.487 7631.8,864.489 7634,864.492 7636.19,864.494 7638.39,864.497 7640.59,864.5 7642.79,864.502 7644.99,864.505 7647.19,864.507 7649.39,864.51 7651.58,864.512 7653.78,864.515 7655.98,864.518 7658.18,864.52 7660.38,864.523 7662.58,864.525 7664.78,864.528 7666.98,864.53 7669.17,864.533 7671.37,864.535 7673.57,864.538 7675.77,864.541 7677.97,864.543 7680.17,864.546 7682.37,864.548 7684.56,864.551 7686.76,864.553 7688.96,864.556 7691.16,864.558 7693.36,864.561 7695.56,864.564 7697.76,864.566 7699.95,864.569 7702.15,864.571 7704.35,864.574 7706.55,864.576 7708.75,864.579 7710.95,864.581 7713.15,864.584 7715.34,864.586 7717.54,864.589 7719.74,864.591 7721.94,864.594 7724.14,864.596 7726.34,864.599 7728.54,864.601 7730.73,864.604 7732.93,864.606 7735.13,864.609 7737.33,864.611 7739.53,864.614 7741.73,864.616 7743.93,864.619 7746.12,864.621 7748.32,864.624 7750.52,864.626 7752.72,864.629 7754.92,864.631 7757.12,864.634 7759.32,864.636 7761.51,864.639 7763.71,864.641 7765.91,864.644 7768.11,864.646 7770.31,864.649 7772.51,864.651 7774.71,864.654 7776.9,864.656 7779.1,864.659 7781.3,864.661 7783.5,864.664 7785.7,864.666 7787.9,864.669 7790.1,864.671 7792.29,864.674 7794.49,864.676 7796.69,864.679 7798.89,864.681 7801.09,864.684 7803.29,864.686 7805.49,864.688 7807.69,864.691 7809.88,864.693 7812.08,864.696 7814.28,864.698 7816.48,864.701 7818.68,864.703 7820.88,864.706 7823.08,864.708 7825.27,864.71 7827.47,864.713 7829.67,864.715 7831.87,864.718 7834.07,864.72 7836.27,864.723 7838.47,864.725 7840.66,864.728 7842.86,864.73 7845.06,864.732 7847.26,864.735 7849.46,864.737 7851.66,864.74 7853.86,864.742 7856.05,864.745 7858.25,864.747 7860.45,864.749 7862.65,864.752 7864.85,864.754 7867.05,864.757 7869.25,864.759 7871.44,864.761 7873.64,864.764 7875.84,864.766 7878.04,864.769 7880.24,864.771 7882.44,864.773 7884.64,864.776 7886.83,864.778 7889.03,864.781 7891.23,864.783 7893.43,864.785 7895.63,864.788 7897.83,864.79 7900.03,864.793 7902.22,864.795 7904.42,864.797 7906.62,864.8 7908.82,864.802 7911.02,864.805 7913.22,864.807 7915.42,864.809 7917.61,864.812 7919.81,864.814 7922.01,864.816 7924.21,864.819 7926.41,864.821 7928.61,864.824 7930.81,864.826 7933.01,864.828 7935.2,864.831 7937.4,864.833 7939.6,864.835 7941.8,864.838 7944,864.84 7946.2,864.842 7948.4,864.845 7950.59,864.847 7952.79,864.85 7954.99,864.852 7957.19,864.854 7959.39,864.857 7961.59,864.859 7963.79,864.861 7965.98,864.864 7968.18,864.866 7970.38,864.868 7972.58,864.871 7974.78,864.873 7976.98,864.875 7979.18,864.878 7981.37,864.88 7983.57,864.882 7985.77,864.885 7987.97,864.887 7990.17,864.889 7992.37,864.892 7994.57,864.894 7996.76,864.896 7998.96,864.899 8001.16,864.901 8003.36,864.903 8005.56,864.906 8007.76,864.908 8009.96,864.91 8012.15,864.913 8014.35,864.915 8016.55,864.917 8018.75,864.919 8020.95,864.922 8023.15,864.924 8025.35,864.926 8027.54,864.929 8029.74,864.931 8031.94,864.933 8034.14,864.936 8036.34,864.938 8038.54,864.94 8040.74,864.942 8042.93,864.945 8045.13,864.947 8047.33,864.949 8049.53,864.952 8051.73,864.954 "/>
<polyline clip-path="url(#clip991)" style="stroke:#e26f46; stroke-linecap:round; stroke-linejoin:round; stroke-width:8; stroke-opacity:1; fill:none" points="237.922,190.238 245.943,202.749 248.234,298.747 254.044,381.332 256.334,396.593 261.704,544.423 263.995,537.24 269.146,816.011 271.436,809.655 276.458,858.321 278.749,857.426 283.854,860.461 286.145,860.277 291.636,861.605 293.927,861.564 299.728,862.086 302.019,862.076 309.328,862.235 311.619,862.233 315.359,862.28 319.099,862.31 322.839,862.339 326.579,862.366 330.319,862.392 334.059,862.417 337.799,862.441 341.539,862.465 345.279,862.488 349.02,862.511 352.76,862.533 356.5,862.555 360.24,862.576 363.98,862.597 367.72,862.617 371.46,862.637 375.2,862.657 378.94,862.677 382.68,862.696 386.42,862.715 390.16,862.734 393.9,862.753 397.64,862.771 401.38,862.789 405.12,862.807 408.86,862.824 412.6,862.842 416.34,862.859 420.081,862.876 423.821,862.893 427.561,862.909 431.301,862.926 435.041,862.942 438.781,862.958 442.521,862.974 446.261,862.99 450.001,863.006 453.741,863.021 457.481,863.037 461.221,863.052 464.961,863.067 468.701,863.082 472.441,863.097 476.181,863.111 479.921,863.126 483.661,863.14 487.401,863.155 491.142,863.169 494.882,863.183 498.622,863.197 502.362,863.211 506.102,863.224 509.842,863.238 513.582,863.252 517.322,863.265 521.062,863.278 524.802,863.292 528.542,863.305 532.282,863.318 536.022,863.331 539.762,863.344 543.502,863.356 547.242,863.369 550.982,863.382 554.722,863.394 558.462,863.407 562.203,863.419 565.943,863.431 569.683,863.443 573.423,863.455 577.163,863.467 580.903,863.479 584.643,863.491 588.383,863.503 592.123,863.515 595.863,863.526 599.603,863.538 603.343,863.55 607.083,863.561 610.823,863.572 614.563,863.584 618.303,863.595 622.043,863.606 625.783,863.617 629.523,863.628 633.264,863.639 637.004,863.65 640.744,863.661 644.484,863.672 648.224,863.683 651.964,863.693 655.704,863.704 659.444,863.714 663.184,863.725 666.924,863.735 670.664,863.746 674.404,863.756 678.144,863.766 681.884,863.777 685.624,863.787 689.364,863.797 693.104,863.807 696.844,863.817 700.584,863.827 704.324,863.837 708.065,863.847 711.805,863.857 715.545,863.866 719.285,863.876 723.025,863.886 726.765,863.896 730.505,863.905 734.245,863.915 737.985,863.924 741.725,863.934 745.465,863.943 749.205,863.953 752.945,863.962 756.685,863.971 760.425,863.98 764.165,863.99 767.905,863.999 771.645,864.008 775.385,864.017 779.126,864.026 782.866,864.035 786.606,864.044 790.346,864.053 794.086,864.062 797.826,864.071 801.566,864.08 805.306,864.088 809.046,864.097 812.786,864.106 816.526,864.115 820.266,864.123 824.006,864.132 827.746,864.14 831.486,864.149 835.226,864.158 838.966,864.166 842.706,864.174 846.446,864.183 850.187,864.191 853.927,864.2 857.667,864.208 861.407,864.216 865.147,864.224 868.887,864.233 872.627,864.241 876.367,864.249 880.107,864.257 883.847,864.265 887.587,864.273 891.327,864.281 895.067,864.289 898.807,864.297 902.547,864.305 906.287,864.313 910.027,864.321 913.767,864.329 917.507,864.337 921.248,864.345 924.988,864.352 928.728,864.36 932.468,864.368 936.208,864.376 939.948,864.383 943.688,864.391 947.428,864.398 951.168,864.406 954.908,864.414 958.648,864.421 962.388,864.429 966.128,864.436 969.868,864.444 973.608,864.451 977.348,864.458 981.088,864.466 984.828,864.473 988.568,864.481 992.309,864.488 996.049,864.495 999.789,864.502 1003.53,864.51 1007.27,864.517 1011.01,864.524 1014.75,864.531 1018.49,864.538 1022.23,864.546 1025.97,864.553 1029.71,864.56 1033.45,864.567 1037.19,864.574 1040.93,864.581 1044.67,864.588 1048.41,864.595 1052.15,864.602 1055.89,864.609 1059.63,864.616 1063.37,864.623 1067.11,864.63 1070.85,864.636 1074.59,864.643 1078.33,864.65 1082.07,864.657 1085.81,864.664 1089.55,864.67 1093.29,864.677 1097.03,864.684 1100.77,864.69 1104.51,864.697 1108.25,864.704 1111.99,864.71 1115.73,864.717 1119.47,864.724 1123.21,864.73 1126.95,864.737 1130.69,864.743 1134.43,864.75 1138.17,864.756 1141.91,864.763 1145.65,864.769 1149.39,864.776 1153.13,864.782 1156.87,864.789 1160.61,864.795 1164.35,864.801 1168.09,864.808 1171.83,864.814 1175.57,864.82 1179.31,864.827 1183.05,864.833 1186.79,864.839 1190.53,864.846 1194.27,864.852 1198.01,864.858 1201.75,864.864 1205.49,864.87 1209.23,864.877 1212.97,864.883 1216.71,864.889 1220.45,864.895 1224.19,864.901 1227.93,864.907 1231.67,864.913 1235.41,864.919 1239.15,864.925 1242.89,864.931 1246.63,864.937 1250.37,864.943 1254.11,864.949 1257.85,864.955 "/>
<path clip-path="url(#clip990)" d="M1415.52 229.285 L1702.26 229.285 L1702.26 73.7646 L1415.52 73.7646  Z" fill="#ffffff" fill-rule="evenodd" fill-opacity="1"/>
<polyline clip-path="url(#clip990)" style="stroke:#000000; stroke-linecap:round; stroke-linejoin:round; stroke-width:4; stroke-opacity:1; fill:none" points="1415.52,229.285 1702.26,229.285 1702.26,73.7646 1415.52,73.7646 1415.52,229.285 "/>
<polyline clip-path="url(#clip990)" style="stroke:#009af9; stroke-linecap:round; stroke-linejoin:round; stroke-width:8; stroke-opacity:1; fill:none" stroke-dasharray="32, 20" points="1432.36,125.605 1533.34,125.605 "/>
<path clip-path="url(#clip990)" d="M1568.6 117.723 L1568.6 121.75 Q1566.8 120.825 1564.85 120.362 Q1562.91 119.899 1560.82 119.899 Q1557.65 119.899 1556.06 120.871 Q1554.48 121.843 1554.48 123.787 Q1554.48 125.269 1555.62 126.125 Q1556.75 126.959 1560.18 127.723 L1561.63 128.047 Q1566.17 129.019 1568.07 130.801 Q1569.99 132.561 1569.99 135.732 Q1569.99 139.343 1567.12 141.449 Q1564.27 143.556 1559.27 143.556 Q1557.19 143.556 1554.92 143.139 Q1552.68 142.746 1550.18 141.936 L1550.18 137.537 Q1552.54 138.764 1554.83 139.389 Q1557.12 139.991 1559.37 139.991 Q1562.38 139.991 1564 138.973 Q1565.62 137.931 1565.62 136.056 Q1565.62 134.32 1564.44 133.394 Q1563.28 132.468 1559.32 131.612 L1557.84 131.264 Q1553.88 130.431 1552.12 128.718 Q1550.36 126.982 1550.36 123.973 Q1550.36 120.315 1552.95 118.325 Q1555.55 116.334 1560.31 116.334 Q1562.68 116.334 1564.76 116.681 Q1566.84 117.028 1568.6 117.723 Z" fill="#000000" fill-rule="nonzero" fill-opacity="1" /><path clip-path="url(#clip990)" d="M1576.77 116.959 L1581.03 116.959 L1581.03 142.885 L1576.77 142.885 L1576.77 116.959 M1576.77 106.866 L1581.03 106.866 L1581.03 112.26 L1576.77 112.26 L1576.77 106.866 Z" fill="#000000" fill-rule="nonzero" fill-opacity="1" /><path clip-path="url(#clip990)" d="M1611.5 127.237 L1611.5 142.885 L1607.24 142.885 L1607.24 127.375 Q1607.24 123.695 1605.8 121.866 Q1604.37 120.038 1601.5 120.038 Q1598.05 120.038 1596.06 122.237 Q1594.06 124.436 1594.06 128.232 L1594.06 142.885 L1589.78 142.885 L1589.78 116.959 L1594.06 116.959 L1594.06 120.987 Q1595.59 118.649 1597.65 117.491 Q1599.74 116.334 1602.44 116.334 Q1606.91 116.334 1609.2 119.112 Q1611.5 121.866 1611.5 127.237 Z" fill="#000000" fill-rule="nonzero" fill-opacity="1" /><path clip-path="url(#clip990)" d="M1637.05 129.621 Q1637.05 124.991 1635.13 122.445 Q1633.23 119.899 1629.78 119.899 Q1626.36 119.899 1624.43 122.445 Q1622.54 124.991 1622.54 129.621 Q1622.54 134.227 1624.43 136.774 Q1626.36 139.32 1629.78 139.32 Q1633.23 139.32 1635.13 136.774 Q1637.05 134.227 1637.05 129.621 M1641.31 139.667 Q1641.31 146.287 1638.37 149.505 Q1635.43 152.746 1629.37 152.746 Q1627.12 152.746 1625.13 152.398 Q1623.14 152.074 1621.26 151.38 L1621.26 147.236 Q1623.14 148.255 1624.97 148.741 Q1626.8 149.227 1628.69 149.227 Q1632.88 149.227 1634.97 147.028 Q1637.05 144.852 1637.05 140.431 L1637.05 138.324 Q1635.73 140.616 1633.67 141.75 Q1631.61 142.885 1628.74 142.885 Q1623.97 142.885 1621.06 139.25 Q1618.14 135.616 1618.14 129.621 Q1618.14 123.602 1621.06 119.968 Q1623.97 116.334 1628.74 116.334 Q1631.61 116.334 1633.67 117.468 Q1635.73 118.602 1637.05 120.894 L1637.05 116.959 L1641.31 116.959 L1641.31 139.667 Z" fill="#000000" fill-rule="nonzero" fill-opacity="1" /><path clip-path="url(#clip990)" d="M1650.08 106.866 L1654.34 106.866 L1654.34 142.885 L1650.08 142.885 L1650.08 106.866 Z" fill="#000000" fill-rule="nonzero" fill-opacity="1" /><path clip-path="url(#clip990)" d="M1685.43 128.857 L1685.43 130.94 L1665.85 130.94 Q1666.12 135.338 1668.49 137.653 Q1670.87 139.945 1675.11 139.945 Q1677.56 139.945 1679.85 139.343 Q1682.17 138.741 1684.43 137.537 L1684.43 141.565 Q1682.14 142.537 1679.74 143.047 Q1677.33 143.556 1674.85 143.556 Q1668.65 143.556 1665.01 139.945 Q1661.4 136.334 1661.4 130.176 Q1661.4 123.811 1664.83 120.084 Q1668.28 116.334 1674.11 116.334 Q1679.34 116.334 1682.37 119.713 Q1685.43 123.07 1685.43 128.857 M1681.17 127.607 Q1681.12 124.112 1679.2 122.028 Q1677.31 119.945 1674.16 119.945 Q1670.59 119.945 1668.44 121.959 Q1666.31 123.973 1665.99 127.63 L1681.17 127.607 Z" fill="#000000" fill-rule="nonzero" fill-opacity="1" /><polyline clip-path="url(#clip990)" style="stroke:#e26f46; stroke-linecap:round; stroke-linejoin:round; stroke-width:8; stroke-opacity:1; fill:none" points="1432.36,177.445 1533.34,177.445 "/>
<path clip-path="url(#clip990)" d="M1570.52 173.776 Q1572.12 170.905 1574.34 169.54 Q1576.56 168.174 1579.57 168.174 Q1583.62 168.174 1585.82 171.021 Q1588.02 173.845 1588.02 179.077 L1588.02 194.725 L1583.74 194.725 L1583.74 179.215 Q1583.74 175.489 1582.42 173.683 Q1581.1 171.878 1578.39 171.878 Q1575.08 171.878 1573.16 174.077 Q1571.24 176.276 1571.24 180.072 L1571.24 194.725 L1566.96 194.725 L1566.96 179.215 Q1566.96 175.465 1565.64 173.683 Q1564.32 171.878 1561.56 171.878 Q1558.3 171.878 1556.38 174.1 Q1554.46 176.299 1554.46 180.072 L1554.46 194.725 L1550.18 194.725 L1550.18 168.799 L1554.46 168.799 L1554.46 172.827 Q1555.92 170.442 1557.95 169.308 Q1559.99 168.174 1562.79 168.174 Q1565.62 168.174 1567.58 169.609 Q1569.57 171.044 1570.52 173.776 Z" fill="#000000" fill-rule="nonzero" fill-opacity="1" /><path clip-path="url(#clip990)" d="M1596.08 184.493 L1596.08 168.799 L1600.34 168.799 L1600.34 184.331 Q1600.34 188.012 1601.77 189.864 Q1603.21 191.692 1606.08 191.692 Q1609.53 191.692 1611.52 189.493 Q1613.53 187.294 1613.53 183.498 L1613.53 168.799 L1617.79 168.799 L1617.79 194.725 L1613.53 194.725 L1613.53 190.743 Q1611.98 193.104 1609.92 194.262 Q1607.88 195.396 1605.18 195.396 Q1600.71 195.396 1598.39 192.618 Q1596.08 189.84 1596.08 184.493 M1606.8 168.174 L1606.8 168.174 Z" fill="#000000" fill-rule="nonzero" fill-opacity="1" /><path clip-path="url(#clip990)" d="M1626.56 158.706 L1630.82 158.706 L1630.82 194.725 L1626.56 194.725 L1626.56 158.706 Z" fill="#000000" fill-rule="nonzero" fill-opacity="1" /><path clip-path="url(#clip990)" d="M1643.95 161.438 L1643.95 168.799 L1652.72 168.799 L1652.72 172.109 L1643.95 172.109 L1643.95 186.183 Q1643.95 189.354 1644.81 190.257 Q1645.68 191.16 1648.35 191.16 L1652.72 191.16 L1652.72 194.725 L1648.35 194.725 Q1643.42 194.725 1641.54 192.896 Q1639.67 191.044 1639.67 186.183 L1639.67 172.109 L1636.54 172.109 L1636.54 168.799 L1639.67 168.799 L1639.67 161.438 L1643.95 161.438 Z" fill="#000000" fill-rule="nonzero" fill-opacity="1" /><path clip-path="url(#clip990)" d="M1658.32 168.799 L1662.58 168.799 L1662.58 194.725 L1658.32 194.725 L1658.32 168.799 M1658.32 158.706 L1662.58 158.706 L1662.58 164.1 L1658.32 164.1 L1658.32 158.706 Z" fill="#000000" fill-rule="nonzero" fill-opacity="1" /></svg>
