<svg xmlns="http://www.w3.org/2000/svg" xmlns:xlink="http://www.w3.org/1999/xlink" width="450" height="250" viewBox="0 0 1800 1000">
<defs>
  <clipPath id="clip020">
    <rect x="0" y="0" width="1800" height="1000"></rect>
  </clipPath>
</defs>
<path clip-path="url(#clip020)" d="M0 1000 L1800 1000 L1800 0 L0 0  Z" fill="#ffffff" fill-rule="evenodd" fill-opacity="1"></path>
<defs>
  <clipPath id="clip021">
    <rect x="360" y="0" width="1261" height="1000"></rect>
  </clipPath>
</defs>
<path clip-path="url(#clip020)" d="M237.452 832.624 L1752.76 832.624 L1752.76 47.2441 L237.452 47.2441  Z" fill="#ffffff" fill-rule="evenodd" fill-opacity="1"></path>
<defs>
  <clipPath id="clip022">
    <rect x="237" y="47" width="1516" height="786"></rect>
  </clipPath>
</defs>
<polyline clip-path="url(#clip022)" style="stroke:#000000; stroke-linecap:round; stroke-linejoin:round; stroke-width:2; stroke-opacity:0.1; fill:none" points="252.829,832.624 252.829,47.2441 "></polyline>
<polyline clip-path="url(#clip022)" style="stroke:#000000; stroke-linecap:round; stroke-linejoin:round; stroke-width:2; stroke-opacity:0.1; fill:none" points="414.717,832.624 414.717,47.2441 "></polyline>
<polyline clip-path="url(#clip022)" style="stroke:#000000; stroke-linecap:round; stroke-linejoin:round; stroke-width:2; stroke-opacity:0.1; fill:none" points="576.604,832.624 576.604,47.2441 "></polyline>
<polyline clip-path="url(#clip022)" style="stroke:#000000; stroke-linecap:round; stroke-linejoin:round; stroke-width:2; stroke-opacity:0.1; fill:none" points="738.491,832.624 738.491,47.2441 "></polyline>
<polyline clip-path="url(#clip022)" style="stroke:#000000; stroke-linecap:round; stroke-linejoin:round; stroke-width:2; stroke-opacity:0.1; fill:none" points="900.378,832.624 900.378,47.2441 "></polyline>
<polyline clip-path="url(#clip022)" style="stroke:#000000; stroke-linecap:round; stroke-linejoin:round; stroke-width:2; stroke-opacity:0.1; fill:none" points="1062.26,832.624 1062.26,47.2441 "></polyline>
<polyline clip-path="url(#clip022)" style="stroke:#000000; stroke-linecap:round; stroke-linejoin:round; stroke-width:2; stroke-opacity:0.1; fill:none" points="1224.15,832.624 1224.15,47.2441 "></polyline>
<polyline clip-path="url(#clip022)" style="stroke:#000000; stroke-linecap:round; stroke-linejoin:round; stroke-width:2; stroke-opacity:0.1; fill:none" points="1386.04,832.624 1386.04,47.2441 "></polyline>
<polyline clip-path="url(#clip022)" style="stroke:#000000; stroke-linecap:round; stroke-linejoin:round; stroke-width:2; stroke-opacity:0.1; fill:none" points="1547.93,832.624 1547.93,47.2441 "></polyline>
<polyline clip-path="url(#clip022)" style="stroke:#000000; stroke-linecap:round; stroke-linejoin:round; stroke-width:2; stroke-opacity:0.1; fill:none" points="1709.81,832.624 1709.81,47.2441 "></polyline>
<polyline clip-path="url(#clip022)" style="stroke:#000000; stroke-linecap:round; stroke-linejoin:round; stroke-width:2; stroke-opacity:0.1; fill:none" points="237.452,744.653 1752.76,744.653 "></polyline>
<polyline clip-path="url(#clip022)" style="stroke:#000000; stroke-linecap:round; stroke-linejoin:round; stroke-width:2; stroke-opacity:0.1; fill:none" points="237.452,600.458 1752.76,600.458 "></polyline>
<polyline clip-path="url(#clip022)" style="stroke:#000000; stroke-linecap:round; stroke-linejoin:round; stroke-width:2; stroke-opacity:0.1; fill:none" points="237.452,456.262 1752.76,456.262 "></polyline>
<polyline clip-path="url(#clip022)" style="stroke:#000000; stroke-linecap:round; stroke-linejoin:round; stroke-width:2; stroke-opacity:0.1; fill:none" points="237.452,312.067 1752.76,312.067 "></polyline>
<polyline clip-path="url(#clip022)" style="stroke:#000000; stroke-linecap:round; stroke-linejoin:round; stroke-width:2; stroke-opacity:0.1; fill:none" points="237.452,167.872 1752.76,167.872 "></polyline>
<polyline clip-path="url(#clip020)" style="stroke:#000000; stroke-linecap:round; stroke-linejoin:round; stroke-width:4; stroke-opacity:1; fill:none" points="237.452,832.624 1752.76,832.624 "></polyline>
<polyline clip-path="url(#clip020)" style="stroke:#000000; stroke-linecap:round; stroke-linejoin:round; stroke-width:4; stroke-opacity:1; fill:none" points="252.829,832.624 252.829,813.726 "></polyline>
<polyline clip-path="url(#clip020)" style="stroke:#000000; stroke-linecap:round; stroke-linejoin:round; stroke-width:4; stroke-opacity:1; fill:none" points="414.717,832.624 414.717,813.726 "></polyline>
<polyline clip-path="url(#clip020)" style="stroke:#000000; stroke-linecap:round; stroke-linejoin:round; stroke-width:4; stroke-opacity:1; fill:none" points="576.604,832.624 576.604,813.726 "></polyline>
<polyline clip-path="url(#clip020)" style="stroke:#000000; stroke-linecap:round; stroke-linejoin:round; stroke-width:4; stroke-opacity:1; fill:none" points="738.491,832.624 738.491,813.726 "></polyline>
<polyline clip-path="url(#clip020)" style="stroke:#000000; stroke-linecap:round; stroke-linejoin:round; stroke-width:4; stroke-opacity:1; fill:none" points="900.378,832.624 900.378,813.726 "></polyline>
<polyline clip-path="url(#clip020)" style="stroke:#000000; stroke-linecap:round; stroke-linejoin:round; stroke-width:4; stroke-opacity:1; fill:none" points="1062.26,832.624 1062.26,813.726 "></polyline>
<polyline clip-path="url(#clip020)" style="stroke:#000000; stroke-linecap:round; stroke-linejoin:round; stroke-width:4; stroke-opacity:1; fill:none" points="1224.15,832.624 1224.15,813.726 "></polyline>
<polyline clip-path="url(#clip020)" style="stroke:#000000; stroke-linecap:round; stroke-linejoin:round; stroke-width:4; stroke-opacity:1; fill:none" points="1386.04,832.624 1386.04,813.726 "></polyline>
<polyline clip-path="url(#clip020)" style="stroke:#000000; stroke-linecap:round; stroke-linejoin:round; stroke-width:4; stroke-opacity:1; fill:none" points="1547.93,832.624 1547.93,813.726 "></polyline>
<polyline clip-path="url(#clip020)" style="stroke:#000000; stroke-linecap:round; stroke-linejoin:round; stroke-width:4; stroke-opacity:1; fill:none" points="1709.81,832.624 1709.81,813.726 "></polyline>
<path clip-path="url(#clip020)" d="M238.238 901.949 L254.558 901.949 L254.558 905.884 L232.613 905.884 L232.613 901.949 Q235.275 899.194 239.859 894.564 Q244.465 889.912 245.646 888.569 Q247.891 886.046 248.771 884.31 Q249.673 882.551 249.673 880.861 Q249.673 878.106 247.729 876.37 Q245.808 874.634 242.706 874.634 Q240.507 874.634 238.053 875.398 Q235.623 876.162 232.845 877.713 L232.845 872.991 Q235.669 871.856 238.123 871.278 Q240.576 870.699 242.613 870.699 Q247.984 870.699 251.178 873.384 Q254.372 876.069 254.372 880.56 Q254.372 882.69 253.562 884.611 Q252.775 886.509 250.669 889.102 Q250.09 889.773 246.988 892.99 Q243.886 896.185 238.238 901.949 Z" fill="#000000" fill-rule="nonzero" fill-opacity="1"></path><path clip-path="url(#clip020)" d="M267.253 863.333 Q269.98 863.916 271.503 865.759 Q273.046 867.603 273.046 870.311 Q273.046 874.467 270.187 876.743 Q267.328 879.019 262.062 879.019 Q260.294 879.019 258.413 878.662 Q256.551 878.323 254.558 877.627 L254.558 873.96 Q256.137 874.881 258.018 875.351 Q259.899 875.822 261.949 875.822 Q265.523 875.822 267.385 874.411 Q269.265 873 269.265 870.311 Q269.265 867.828 267.516 866.436 Q265.786 865.026 262.683 865.026 L259.41 865.026 L259.41 861.904 L262.833 861.904 Q265.635 861.904 267.121 860.794 Q268.607 859.666 268.607 857.559 Q268.607 855.396 267.065 854.249 Q265.541 853.083 262.683 853.083 Q261.122 853.083 259.335 853.421 Q257.548 853.76 255.404 854.475 L255.404 851.089 Q257.567 850.487 259.448 850.187 Q261.347 849.886 263.021 849.886 Q267.347 849.886 269.867 851.86 Q272.387 853.816 272.387 857.164 Q272.387 859.496 271.052 861.114 Q269.717 862.713 267.253 863.333 Z" fill="#000000" fill-rule="nonzero" fill-opacity="1"></path><path clip-path="url(#clip020)" d="M399.138 901.949 L415.457 901.949 L415.457 905.884 L393.513 905.884 L393.513 901.949 Q396.175 899.194 400.758 894.564 Q405.365 889.912 406.545 888.569 Q408.791 886.046 409.67 884.31 Q410.573 882.551 410.573 880.861 Q410.573 878.106 408.629 876.37 Q406.707 874.634 403.605 874.634 Q401.406 874.634 398.953 875.398 Q396.522 876.162 393.744 877.713 L393.744 872.991 Q396.568 871.856 399.022 871.278 Q401.476 870.699 403.513 870.699 Q408.883 870.699 412.078 873.384 Q415.272 876.069 415.272 880.56 Q415.272 882.69 414.462 884.611 Q413.675 886.509 411.568 889.102 Q410.99 889.773 407.888 892.99 Q404.786 896.185 399.138 901.949 Z" fill="#000000" fill-rule="nonzero" fill-opacity="1"></path><path clip-path="url(#clip020)" d="M428.134 853.704 L418.542 868.693 L428.134 868.693 L428.134 853.704 M427.137 850.393 L431.914 850.393 L431.914 868.693 L435.92 868.693 L435.92 871.853 L431.914 871.853 L431.914 878.473 L428.134 878.473 L428.134 871.853 L415.457 871.853 L415.457 868.186 L427.137 850.393 Z" fill="#000000" fill-rule="nonzero" fill-opacity="1"></path><path clip-path="url(#clip020)" d="M562.172 901.949 L578.492 901.949 L578.492 905.884 L556.547 905.884 L556.547 901.949 Q559.209 899.194 563.793 894.564 Q568.399 889.912 569.58 888.569 Q571.825 886.046 572.705 884.31 Q573.607 882.551 573.607 880.861 Q573.607 878.106 571.663 876.37 Q569.742 874.634 566.64 874.634 Q564.441 874.634 561.987 875.398 Q559.557 876.162 556.779 877.713 L556.779 872.991 Q559.603 871.856 562.056 871.278 Q564.51 870.699 566.547 870.699 Q571.918 870.699 575.112 873.384 Q578.306 876.069 578.306 880.56 Q578.306 882.69 577.496 884.611 Q576.709 886.509 574.603 889.102 Q574.024 889.773 570.922 892.99 Q567.82 896.185 562.172 901.949 Z" fill="#000000" fill-rule="nonzero" fill-opacity="1"></path><path clip-path="url(#clip020)" d="M579.676 850.393 L594.591 850.393 L594.591 853.591 L583.156 853.591 L583.156 860.474 Q583.983 860.192 584.811 860.061 Q585.639 859.91 586.466 859.91 Q591.168 859.91 593.914 862.487 Q596.66 865.064 596.66 869.465 Q596.66 873.997 593.839 876.517 Q591.018 879.019 585.883 879.019 Q584.115 879.019 582.272 878.718 Q580.448 878.417 578.492 877.815 L578.492 873.997 Q580.184 874.919 581.99 875.37 Q583.795 875.822 585.808 875.822 Q589.062 875.822 590.961 874.11 Q592.861 872.399 592.861 869.465 Q592.861 866.531 590.961 864.819 Q589.062 863.107 585.808 863.107 Q584.284 863.107 582.761 863.446 Q581.256 863.785 579.676 864.499 L579.676 850.393 Z" fill="#000000" fill-rule="nonzero" fill-opacity="1"></path><path clip-path="url(#clip020)" d="M723.448 901.949 L739.767 901.949 L739.767 905.884 L717.823 905.884 L717.823 901.949 Q720.485 899.194 725.068 894.564 Q729.675 889.912 730.855 888.569 Q733.101 886.046 733.98 884.31 Q734.883 882.551 734.883 880.861 Q734.883 878.106 732.939 876.37 Q731.017 874.634 727.916 874.634 Q725.717 874.634 723.263 875.398 Q720.832 876.162 718.055 877.713 L718.055 872.991 Q720.879 871.856 723.332 871.278 Q725.786 870.699 727.823 870.699 Q733.193 870.699 736.388 873.384 Q739.582 876.069 739.582 880.56 Q739.582 882.69 738.772 884.611 Q737.985 886.509 735.879 889.102 Q735.3 889.773 732.198 892.99 Q729.096 896.185 723.448 901.949 Z" fill="#000000" fill-rule="nonzero" fill-opacity="1"></path><path clip-path="url(#clip020)" d="M749.792 862.919 Q747.234 862.919 745.729 864.669 Q744.244 866.418 744.244 869.465 Q744.244 872.493 745.729 874.261 Q747.234 876.01 749.792 876.01 Q752.35 876.01 753.836 874.261 Q755.34 872.493 755.34 869.465 Q755.34 866.418 753.836 864.669 Q752.35 862.919 749.792 862.919 M757.334 851.014 L757.334 854.475 Q755.904 853.798 754.437 853.44 Q752.989 853.083 751.56 853.083 Q747.798 853.083 745.805 855.622 Q743.83 858.161 743.548 863.296 Q744.657 861.659 746.331 860.794 Q748.005 859.91 750.018 859.91 Q754.249 859.91 756.694 862.487 Q759.158 865.045 759.158 869.465 Q759.158 873.79 756.6 876.405 Q754.042 879.019 749.792 879.019 Q744.921 879.019 742.344 875.295 Q739.767 871.552 739.767 864.462 Q739.767 857.804 742.927 853.854 Q746.087 849.886 751.409 849.886 Q752.839 849.886 754.287 850.168 Q755.754 850.45 757.334 851.014 Z" fill="#000000" fill-rule="nonzero" fill-opacity="1"></path><path clip-path="url(#clip020)" d="M886.003 901.949 L902.322 901.949 L902.322 905.884 L880.378 905.884 L880.378 901.949 Q883.04 899.194 887.623 894.564 Q892.23 889.912 893.41 888.569 Q895.655 886.046 896.535 884.31 Q897.438 882.551 897.438 880.861 Q897.438 878.106 895.493 876.37 Q893.572 874.634 890.47 874.634 Q888.271 874.634 885.818 875.398 Q883.387 876.162 880.609 877.713 L880.609 872.991 Q883.433 871.856 885.887 871.278 Q888.341 870.699 890.378 870.699 Q895.748 870.699 898.943 873.384 Q902.137 876.069 902.137 880.56 Q902.137 882.69 901.327 884.611 Q900.54 886.509 898.433 889.102 Q897.855 889.773 894.753 892.99 Q891.651 896.185 886.003 901.949 Z" fill="#000000" fill-rule="nonzero" fill-opacity="1"></path><path clip-path="url(#clip020)" d="M902.322 850.393 L920.378 850.393 L920.378 852.011 L910.184 878.473 L906.215 878.473 L915.807 853.591 L902.322 853.591 L902.322 850.393 Z" fill="#000000" fill-rule="nonzero" fill-opacity="1"></path><path clip-path="url(#clip020)" d="M1047.29 901.949 L1063.61 901.949 L1063.61 905.884 L1041.66 905.884 L1041.66 901.949 Q1044.33 899.194 1048.91 894.564 Q1053.51 889.912 1054.7 888.569 Q1056.94 886.046 1057.82 884.31 Q1058.72 882.551 1058.72 880.861 Q1058.72 878.106 1056.78 876.37 Q1054.86 874.634 1051.76 874.634 Q1049.56 874.634 1047.1 875.398 Q1044.67 876.162 1041.89 877.713 L1041.89 872.991 Q1044.72 871.856 1047.17 871.278 Q1049.63 870.699 1051.66 870.699 Q1057.03 870.699 1060.23 873.384 Q1063.42 876.069 1063.42 880.56 Q1063.42 882.69 1062.61 884.611 Q1061.82 886.509 1059.72 889.102 Q1059.14 889.773 1056.04 892.99 Q1052.94 896.185 1047.29 901.949 Z" fill="#000000" fill-rule="nonzero" fill-opacity="1"></path><path clip-path="url(#clip020)" d="M1073.24 865.139 Q1070.53 865.139 1068.97 866.587 Q1067.43 868.035 1067.43 870.574 Q1067.43 873.113 1068.97 874.561 Q1070.53 876.01 1073.24 876.01 Q1075.95 876.01 1077.51 874.561 Q1079.07 873.094 1079.07 870.574 Q1079.07 868.035 1077.51 866.587 Q1075.96 865.139 1073.24 865.139 M1069.44 863.521 Q1066.99 862.919 1065.62 861.246 Q1064.27 859.572 1064.27 857.164 Q1064.27 853.798 1066.65 851.842 Q1069.06 849.886 1073.24 849.886 Q1077.43 849.886 1079.82 851.842 Q1082.21 853.798 1082.21 857.164 Q1082.21 859.572 1080.84 861.246 Q1079.48 862.919 1077.05 863.521 Q1079.8 864.161 1081.32 866.023 Q1082.87 867.885 1082.87 870.574 Q1082.87 874.655 1080.37 876.837 Q1077.88 879.019 1073.24 879.019 Q1068.59 879.019 1066.09 876.837 Q1063.61 874.655 1063.61 870.574 Q1063.61 867.885 1065.15 866.023 Q1066.69 864.161 1069.44 863.521 M1068.05 857.522 Q1068.05 859.703 1069.4 860.926 Q1070.77 862.148 1073.24 862.148 Q1075.68 862.148 1077.05 860.926 Q1078.45 859.703 1078.45 857.522 Q1078.45 855.34 1077.05 854.117 Q1075.68 852.895 1073.24 852.895 Q1070.77 852.895 1069.4 854.117 Q1068.05 855.34 1068.05 857.522 Z" fill="#000000" fill-rule="nonzero" fill-opacity="1"></path><path clip-path="url(#clip020)" d="M1209.12 901.949 L1225.44 901.949 L1225.44 905.884 L1203.49 905.884 L1203.49 901.949 Q1206.16 899.194 1210.74 894.564 Q1215.35 889.912 1216.53 888.569 Q1218.77 886.046 1219.65 884.31 Q1220.55 882.551 1220.55 880.861 Q1220.55 878.106 1218.61 876.37 Q1216.69 874.634 1213.59 874.634 Q1211.39 874.634 1208.93 875.398 Q1206.5 876.162 1203.73 877.713 L1203.73 872.991 Q1206.55 871.856 1209 871.278 Q1211.46 870.699 1213.49 870.699 Q1218.86 870.699 1222.06 873.384 Q1225.25 876.069 1225.25 880.56 Q1225.25 882.69 1224.44 884.611 Q1223.66 886.509 1221.55 889.102 Q1220.97 889.773 1217.87 892.99 Q1214.77 896.185 1209.12 901.949 Z" fill="#000000" fill-rule="nonzero" fill-opacity="1"></path><path clip-path="url(#clip020)" d="M1227.24 877.89 L1227.24 874.43 Q1228.67 875.107 1230.14 875.464 Q1231.61 875.822 1233.02 875.822 Q1236.78 875.822 1238.75 873.301 Q1240.75 870.762 1241.03 865.609 Q1239.94 867.226 1238.26 868.092 Q1236.59 868.957 1234.56 868.957 Q1230.35 868.957 1227.88 866.418 Q1225.44 863.86 1225.44 859.44 Q1225.44 855.114 1228 852.5 Q1230.55 849.886 1234.8 849.886 Q1239.68 849.886 1242.23 853.628 Q1244.81 857.352 1244.81 864.462 Q1244.81 871.101 1241.65 875.069 Q1238.51 879.019 1233.19 879.019 Q1231.76 879.019 1230.29 878.737 Q1228.82 878.455 1227.24 877.89 M1234.8 865.985 Q1237.36 865.985 1238.85 864.236 Q1240.35 862.487 1240.35 859.44 Q1240.35 856.412 1238.85 854.663 Q1237.36 852.895 1234.8 852.895 Q1232.25 852.895 1230.74 854.663 Q1229.26 856.412 1229.26 859.44 Q1229.26 862.487 1230.74 864.236 Q1232.25 865.985 1234.8 865.985 Z" fill="#000000" fill-rule="nonzero" fill-opacity="1"></path><path clip-path="url(#clip020)" d="M1359.58 901.949 L1375.9 901.949 L1375.9 905.884 L1353.95 905.884 L1353.95 901.949 Q1356.62 899.194 1361.2 894.564 Q1365.81 889.912 1366.99 888.569 Q1369.23 886.046 1370.11 884.31 Q1371.02 882.551 1371.02 880.861 Q1371.02 878.106 1369.07 876.37 Q1367.15 874.634 1364.05 874.634 Q1361.85 874.634 1359.39 875.398 Q1356.96 876.162 1354.19 877.713 L1354.19 872.991 Q1357.01 871.856 1359.46 871.278 Q1361.92 870.699 1363.95 870.699 Q1369.33 870.699 1372.52 873.384 Q1375.71 876.069 1375.71 880.56 Q1375.71 882.69 1374.9 884.611 Q1374.12 886.509 1372.01 889.102 Q1371.43 889.773 1368.33 892.99 Q1365.23 896.185 1359.58 901.949 Z" fill="#000000" fill-rule="nonzero" fill-opacity="1"></path><path clip-path="url(#clip020)" d="M1376.44 875.276 L1382.65 875.276 L1382.65 853.854 L1375.9 855.208 L1375.9 851.748 L1382.61 850.393 L1386.41 850.393 L1386.41 875.276 L1392.62 875.276 L1392.62 878.473 L1376.44 878.473 L1376.44 875.276 Z" fill="#000000" fill-rule="nonzero" fill-opacity="1"></path><path clip-path="url(#clip020)" d="M1408.42 852.895 Q1405.48 852.895 1404 855.791 Q1402.53 858.669 1402.53 864.462 Q1402.53 870.236 1404 873.132 Q1405.48 876.01 1408.42 876.01 Q1411.37 876.01 1412.84 873.132 Q1414.32 870.236 1414.32 864.462 Q1414.32 858.669 1412.84 855.791 Q1411.37 852.895 1408.42 852.895 M1408.42 849.886 Q1413.14 849.886 1415.62 853.628 Q1418.12 857.352 1418.12 864.462 Q1418.12 871.552 1415.62 875.295 Q1413.14 879.019 1408.42 879.019 Q1403.7 879.019 1401.2 875.295 Q1398.71 871.552 1398.71 864.462 Q1398.71 857.352 1401.2 853.628 Q1403.7 849.886 1408.42 849.886 Z" fill="#000000" fill-rule="nonzero" fill-opacity="1"></path><path clip-path="url(#clip020)" d="M1521.97 901.949 L1538.28 901.949 L1538.28 905.884 L1516.34 905.884 L1516.34 901.949 Q1519 899.194 1523.59 894.564 Q1528.19 889.912 1529.37 888.569 Q1531.62 886.046 1532.5 884.31 Q1533.4 882.551 1533.4 880.861 Q1533.4 878.106 1531.46 876.37 Q1529.53 874.634 1526.43 874.634 Q1524.23 874.634 1521.78 875.398 Q1519.35 876.162 1516.57 877.713 L1516.57 872.991 Q1519.4 871.856 1521.85 871.278 Q1524.3 870.699 1526.34 870.699 Q1531.71 870.699 1534.91 873.384 Q1538.1 876.069 1538.1 880.56 Q1538.1 882.69 1537.29 884.611 Q1536.5 886.509 1534.4 889.102 Q1533.82 889.773 1530.72 892.99 Q1527.61 896.185 1521.97 901.949 Z" fill="#000000" fill-rule="nonzero" fill-opacity="1"></path><path clip-path="url(#clip020)" d="M1538.83 875.276 L1545.04 875.276 L1545.04 853.854 L1538.28 855.208 L1538.28 851.748 L1545 850.393 L1548.8 850.393 L1548.8 875.276 L1555 875.276 L1555 878.473 L1538.83 878.473 L1538.83 875.276 Z" fill="#000000" fill-rule="nonzero" fill-opacity="1"></path><path clip-path="url(#clip020)" d="M1563.34 875.276 L1569.54 875.276 L1569.54 853.854 L1562.79 855.208 L1562.79 851.748 L1569.51 850.393 L1573.3 850.393 L1573.3 875.276 L1579.51 875.276 L1579.51 878.473 L1563.34 878.473 L1563.34 875.276 Z" fill="#000000" fill-rule="nonzero" fill-opacity="1"></path><path clip-path="url(#clip020)" d="M1684 901.949 L1700.32 901.949 L1700.32 905.884 L1678.38 905.884 L1678.38 901.949 Q1681.04 899.194 1685.62 894.564 Q1690.23 889.912 1691.41 888.569 Q1693.66 886.046 1694.54 884.31 Q1695.44 882.551 1695.44 880.861 Q1695.44 878.106 1693.49 876.37 Q1691.57 874.634 1688.47 874.634 Q1686.27 874.634 1683.82 875.398 Q1681.39 876.162 1678.61 877.713 L1678.61 872.991 Q1681.43 871.856 1683.89 871.278 Q1686.34 870.699 1688.38 870.699 Q1693.75 870.699 1696.94 873.384 Q1700.14 876.069 1700.14 880.56 Q1700.14 882.69 1699.33 884.611 Q1698.54 886.509 1696.43 889.102 Q1695.85 889.773 1692.75 892.99 Q1689.65 896.185 1684 901.949 Z" fill="#000000" fill-rule="nonzero" fill-opacity="1"></path><path clip-path="url(#clip020)" d="M1700.87 875.276 L1707.07 875.276 L1707.07 853.854 L1700.32 855.208 L1700.32 851.748 L1707.04 850.393 L1710.84 850.393 L1710.84 875.276 L1717.04 875.276 L1717.04 878.473 L1700.87 878.473 L1700.87 875.276 Z" fill="#000000" fill-rule="nonzero" fill-opacity="1"></path><path clip-path="url(#clip020)" d="M1727.99 875.276 L1741.25 875.276 L1741.25 878.473 L1723.42 878.473 L1723.42 875.276 Q1725.58 873.038 1729.31 869.276 Q1733.05 865.496 1734.01 864.405 Q1735.83 862.355 1736.55 860.945 Q1737.28 859.515 1737.28 858.142 Q1737.28 855.904 1735.7 854.494 Q1734.14 853.083 1731.62 853.083 Q1729.83 853.083 1727.84 853.704 Q1725.86 854.324 1723.61 855.584 L1723.61 851.748 Q1725.9 850.826 1727.89 850.356 Q1729.89 849.886 1731.54 849.886 Q1735.91 849.886 1738.5 852.067 Q1741.1 854.249 1741.1 857.898 Q1741.1 859.628 1740.44 861.189 Q1739.8 862.731 1738.09 864.838 Q1737.62 865.383 1735.1 867.998 Q1732.58 870.593 1727.99 875.276 Z" fill="#000000" fill-rule="nonzero" fill-opacity="1"></path><path clip-path="url(#clip020)" d="M483.11 981.565 L483.11 1000.47 L477.222 1000.47 L477.222 951.265 L483.11 951.265 L483.11 956.676 Q484.956 953.493 487.757 951.965 Q490.59 950.405 494.505 950.405 Q500.998 950.405 505.04 955.562 Q509.114 960.718 509.114 969.12 Q509.114 977.523 505.04 982.679 Q500.998 987.836 494.505 987.836 Q490.59 987.836 487.757 986.308 Q484.956 984.748 483.11 981.565 M503.035 969.12 Q503.035 962.659 500.361 958.999 Q497.72 955.307 493.073 955.307 Q488.426 955.307 485.752 958.999 Q483.11 962.659 483.11 969.12 Q483.11 975.582 485.752 979.274 Q488.426 982.934 493.073 982.934 Q497.72 982.934 500.361 979.274 Q503.035 975.582 503.035 969.12 Z" fill="#000000" fill-rule="nonzero" fill-opacity="1"></path><path clip-path="url(#clip020)" d="M539.479 956.739 Q538.492 956.166 537.314 955.912 Q536.168 955.625 534.768 955.625 Q529.803 955.625 527.129 958.872 Q524.487 962.086 524.487 968.134 L524.487 986.913 L518.599 986.913 L518.599 951.265 L524.487 951.265 L524.487 956.803 Q526.333 953.556 529.293 951.997 Q532.254 950.405 536.487 950.405 Q537.091 950.405 537.824 950.501 Q538.556 950.564 539.447 950.724 L539.479 956.739 Z" fill="#000000" fill-rule="nonzero" fill-opacity="1"></path><path clip-path="url(#clip020)" d="M558.003 955.371 Q553.292 955.371 550.555 959.063 Q547.818 962.723 547.818 969.12 Q547.818 975.518 550.523 979.21 Q553.26 982.87 558.003 982.87 Q562.682 982.87 565.419 979.178 Q568.156 975.486 568.156 969.12 Q568.156 962.787 565.419 959.095 Q562.682 955.371 558.003 955.371 M558.003 950.405 Q565.642 950.405 570.002 955.371 Q574.363 960.336 574.363 969.12 Q574.363 977.873 570.002 982.87 Q565.642 987.836 558.003 987.836 Q550.332 987.836 545.972 982.87 Q541.643 977.873 541.643 969.12 Q541.643 960.336 545.972 955.371 Q550.332 950.405 558.003 950.405 Z" fill="#000000" fill-rule="nonzero" fill-opacity="1"></path><path clip-path="url(#clip020)" d="M609.661 969.12 Q609.661 962.659 606.987 958.999 Q604.345 955.307 599.698 955.307 Q595.051 955.307 592.378 958.999 Q589.736 962.659 589.736 969.12 Q589.736 975.582 592.378 979.274 Q595.051 982.934 599.698 982.934 Q604.345 982.934 606.987 979.274 Q609.661 975.582 609.661 969.12 M589.736 956.676 Q591.582 953.493 594.383 951.965 Q597.216 950.405 601.13 950.405 Q607.623 950.405 611.666 955.562 Q615.74 960.718 615.74 969.12 Q615.74 977.523 611.666 982.679 Q607.623 987.836 601.13 987.836 Q597.216 987.836 594.383 986.308 Q591.582 984.748 589.736 981.565 L589.736 986.913 L583.848 986.913 L583.848 937.387 L589.736 937.387 L589.736 956.676 Z" fill="#000000" fill-rule="nonzero" fill-opacity="1"></path><path clip-path="url(#clip020)" d="M625.447 937.387 L631.304 937.387 L631.304 986.913 L625.447 986.913 L625.447 937.387 Z" fill="#000000" fill-rule="nonzero" fill-opacity="1"></path><path clip-path="url(#clip020)" d="M674.05 967.625 L674.05 970.489 L647.123 970.489 Q647.505 976.537 650.751 979.719 Q654.029 982.87 659.854 982.87 Q663.228 982.87 666.379 982.043 Q669.562 981.215 672.681 979.56 L672.681 985.098 Q669.53 986.435 666.22 987.135 Q662.91 987.836 659.504 987.836 Q650.974 987.836 645.977 982.87 Q641.012 977.905 641.012 969.439 Q641.012 960.686 645.722 955.562 Q650.465 950.405 658.485 950.405 Q665.679 950.405 669.848 955.052 Q674.05 959.667 674.05 967.625 M668.193 965.906 Q668.13 961.1 665.488 958.235 Q662.878 955.371 658.549 955.371 Q653.648 955.371 650.687 958.14 Q647.759 960.909 647.314 965.938 L668.193 965.906 Z" fill="#000000" fill-rule="nonzero" fill-opacity="1"></path><path clip-path="url(#clip020)" d="M711.416 958.108 Q713.612 954.161 716.668 952.283 Q719.724 950.405 723.861 950.405 Q729.431 950.405 732.455 954.32 Q735.479 958.203 735.479 965.397 L735.479 986.913 L729.59 986.913 L729.59 965.588 Q729.59 960.463 727.776 957.981 Q725.962 955.498 722.238 955.498 Q717.687 955.498 715.045 958.522 Q712.403 961.545 712.403 966.765 L712.403 986.913 L706.515 986.913 L706.515 965.588 Q706.515 960.431 704.701 957.981 Q702.886 955.498 699.099 955.498 Q694.611 955.498 691.969 958.553 Q689.327 961.577 689.327 966.765 L689.327 986.913 L683.439 986.913 L683.439 951.265 L689.327 951.265 L689.327 956.803 Q691.333 953.525 694.133 951.965 Q696.934 950.405 700.786 950.405 Q704.669 950.405 707.374 952.379 Q710.111 954.352 711.416 958.108 Z" fill="#000000" fill-rule="nonzero" fill-opacity="1"></path><path clip-path="url(#clip020)" d="M790.606 952.315 L790.606 957.853 Q788.123 956.58 785.449 955.943 Q782.776 955.307 779.911 955.307 Q775.551 955.307 773.355 956.644 Q771.19 957.981 771.19 960.654 Q771.19 962.691 772.75 963.869 Q774.31 965.015 779.02 966.065 L781.025 966.511 Q787.264 967.847 789.874 970.298 Q792.515 972.717 792.515 977.078 Q792.515 982.043 788.569 984.939 Q784.654 987.836 777.779 987.836 Q774.914 987.836 771.795 987.263 Q768.708 986.722 765.27 985.608 L765.27 979.56 Q768.517 981.247 771.668 982.107 Q774.819 982.934 777.906 982.934 Q782.044 982.934 784.272 981.534 Q786.5 980.101 786.5 977.523 Q786.5 975.136 784.877 973.863 Q783.285 972.59 777.842 971.412 L775.805 970.935 Q770.363 969.789 767.944 967.434 Q765.525 965.046 765.525 960.909 Q765.525 955.88 769.09 953.143 Q772.654 950.405 779.211 950.405 Q782.458 950.405 785.322 950.883 Q788.187 951.36 790.606 952.315 Z" fill="#000000" fill-rule="nonzero" fill-opacity="1"></path><path clip-path="url(#clip020)" d="M801.841 951.265 L807.698 951.265 L807.698 986.913 L801.841 986.913 L801.841 951.265 M801.841 937.387 L807.698 937.387 L807.698 944.803 L801.841 944.803 L801.841 937.387 Z" fill="#000000" fill-rule="nonzero" fill-opacity="1"></path><path clip-path="url(#clip020)" d="M817.405 951.265 L845.223 951.265 L845.223 956.612 L823.198 982.234 L845.223 982.234 L845.223 986.913 L816.61 986.913 L816.61 981.565 L838.635 955.943 L817.405 955.943 L817.405 951.265 Z" fill="#000000" fill-rule="nonzero" fill-opacity="1"></path><path clip-path="url(#clip020)" d="M884.659 967.625 L884.659 970.489 L857.732 970.489 Q858.114 976.537 861.361 979.719 Q864.639 982.87 870.464 982.87 Q873.837 982.87 876.988 982.043 Q880.171 981.215 883.29 979.56 L883.29 985.098 Q880.139 986.435 876.829 987.135 Q873.519 987.836 870.113 987.836 Q861.583 987.836 856.586 982.87 Q851.621 977.905 851.621 969.439 Q851.621 960.686 856.332 955.562 Q861.074 950.405 869.095 950.405 Q876.288 950.405 880.458 955.052 Q884.659 959.667 884.659 967.625 M878.803 965.906 Q878.739 961.1 876.097 958.235 Q873.487 955.371 869.159 955.371 Q864.257 955.371 861.297 958.14 Q858.369 960.909 857.923 965.938 L878.803 965.906 Z" fill="#000000" fill-rule="nonzero" fill-opacity="1"></path><path clip-path="url(#clip020)" d="M929.06 937.451 Q924.795 944.772 922.726 951.933 Q920.657 959.095 920.657 966.447 Q920.657 973.799 922.726 981.024 Q924.827 988.218 929.06 995.506 L923.967 995.506 Q919.193 988.027 916.806 980.802 Q914.451 973.576 914.451 966.447 Q914.451 959.349 916.806 952.156 Q919.161 944.963 923.967 937.451 L929.06 937.451 Z" fill="#000000" fill-rule="nonzero" fill-opacity="1"></path><path clip-path="url(#clip020)" d="M970.055 965.397 L970.055 986.913 L964.199 986.913 L964.199 965.588 Q964.199 960.527 962.225 958.012 Q960.252 955.498 956.305 955.498 Q951.563 955.498 948.825 958.522 Q946.088 961.545 946.088 966.765 L946.088 986.913 L940.2 986.913 L940.2 951.265 L946.088 951.265 L946.088 956.803 Q948.189 953.588 951.022 951.997 Q953.886 950.405 957.61 950.405 Q963.753 950.405 966.904 954.225 Q970.055 958.012 970.055 965.397 Z" fill="#000000" fill-rule="nonzero" fill-opacity="1"></path><path clip-path="url(#clip020)" d="M981.131 972.844 L981.131 951.265 L986.988 951.265 L986.988 972.622 Q986.988 977.682 988.961 980.229 Q990.935 982.743 994.881 982.743 Q999.624 982.743 1002.36 979.719 Q1005.13 976.696 1005.13 971.476 L1005.13 951.265 L1010.99 951.265 L1010.99 986.913 L1005.13 986.913 L1005.13 981.438 Q1003 984.685 1000.16 986.276 Q997.364 987.836 993.64 987.836 Q987.497 987.836 984.314 984.016 Q981.131 980.197 981.131 972.844 M995.868 950.405 L995.868 950.405 Z" fill="#000000" fill-rule="nonzero" fill-opacity="1"></path><path clip-path="url(#clip020)" d="M1050.8 958.108 Q1053 954.161 1056.06 952.283 Q1059.11 950.405 1063.25 950.405 Q1068.82 950.405 1071.84 954.32 Q1074.87 958.203 1074.87 965.397 L1074.87 986.913 L1068.98 986.913 L1068.98 965.588 Q1068.98 960.463 1067.16 957.981 Q1065.35 955.498 1061.63 955.498 Q1057.07 955.498 1054.43 958.522 Q1051.79 961.545 1051.79 966.765 L1051.79 986.913 L1045.9 986.913 L1045.9 965.588 Q1045.9 960.431 1044.09 957.981 Q1042.27 955.498 1038.49 955.498 Q1034 955.498 1031.36 958.553 Q1028.71 961.577 1028.71 966.765 L1028.71 986.913 L1022.83 986.913 L1022.83 951.265 L1028.71 951.265 L1028.71 956.803 Q1030.72 953.525 1033.52 951.965 Q1036.32 950.405 1040.17 950.405 Q1044.06 950.405 1046.76 952.379 Q1049.5 954.352 1050.8 958.108 Z" fill="#000000" fill-rule="nonzero" fill-opacity="1"></path><path clip-path="url(#clip020)" d="M1112.14 969.12 Q1112.14 962.659 1109.46 958.999 Q1106.82 955.307 1102.18 955.307 Q1097.53 955.307 1094.85 958.999 Q1092.21 962.659 1092.21 969.12 Q1092.21 975.582 1094.85 979.274 Q1097.53 982.934 1102.18 982.934 Q1106.82 982.934 1109.46 979.274 Q1112.14 975.582 1112.14 969.12 M1092.21 956.676 Q1094.06 953.493 1096.86 951.965 Q1099.69 950.405 1103.61 950.405 Q1110.1 950.405 1114.14 955.562 Q1118.22 960.718 1118.22 969.12 Q1118.22 977.523 1114.14 982.679 Q1110.1 987.836 1103.61 987.836 Q1099.69 987.836 1096.86 986.308 Q1094.06 984.748 1092.21 981.565 L1092.21 986.913 L1086.32 986.913 L1086.32 937.387 L1092.21 937.387 L1092.21 956.676 Z" fill="#000000" fill-rule="nonzero" fill-opacity="1"></path><path clip-path="url(#clip020)" d="M1158.42 967.625 L1158.42 970.489 L1131.49 970.489 Q1131.87 976.537 1135.12 979.719 Q1138.4 982.87 1144.22 982.87 Q1147.59 982.87 1150.75 982.043 Q1153.93 981.215 1157.05 979.56 L1157.05 985.098 Q1153.9 986.435 1150.59 987.135 Q1147.28 987.836 1143.87 987.836 Q1135.34 987.836 1130.34 982.87 Q1125.38 977.905 1125.38 969.439 Q1125.38 960.686 1130.09 955.562 Q1134.83 950.405 1142.85 950.405 Q1150.05 950.405 1154.21 955.052 Q1158.42 959.667 1158.42 967.625 M1152.56 965.906 Q1152.5 961.1 1149.85 958.235 Q1147.24 955.371 1142.92 955.371 Q1138.01 955.371 1135.05 958.14 Q1132.13 960.909 1131.68 965.938 L1152.56 965.906 Z" fill="#000000" fill-rule="nonzero" fill-opacity="1"></path><path clip-path="url(#clip020)" d="M1188.69 956.739 Q1187.7 956.166 1186.52 955.912 Q1185.38 955.625 1183.97 955.625 Q1179.01 955.625 1176.34 958.872 Q1173.69 962.086 1173.69 968.134 L1173.69 986.913 L1167.81 986.913 L1167.81 951.265 L1173.69 951.265 L1173.69 956.803 Q1175.54 953.556 1178.5 951.997 Q1181.46 950.405 1185.69 950.405 Q1186.3 950.405 1187.03 950.501 Q1187.76 950.564 1188.65 950.724 L1188.69 956.739 Z" fill="#000000" fill-rule="nonzero" fill-opacity="1"></path><path clip-path="url(#clip020)" d="M1229.36 955.371 Q1224.65 955.371 1221.91 959.063 Q1219.18 962.723 1219.18 969.12 Q1219.18 975.518 1221.88 979.21 Q1224.62 982.87 1229.36 982.87 Q1234.04 982.87 1236.78 979.178 Q1239.52 975.486 1239.52 969.12 Q1239.52 962.787 1236.78 959.095 Q1234.04 955.371 1229.36 955.371 M1229.36 950.405 Q1237 950.405 1241.36 955.371 Q1245.72 960.336 1245.72 969.12 Q1245.72 977.873 1241.36 982.87 Q1237 987.836 1229.36 987.836 Q1221.69 987.836 1217.33 982.87 Q1213 977.873 1213 969.12 Q1213 960.336 1217.33 955.371 Q1221.69 950.405 1229.36 950.405 Z" fill="#000000" fill-rule="nonzero" fill-opacity="1"></path><path clip-path="url(#clip020)" d="M1273.48 937.387 L1273.48 942.257 L1267.87 942.257 Q1264.72 942.257 1263.48 943.53 Q1262.27 944.803 1262.27 948.114 L1262.27 951.265 L1271.92 951.265 L1271.92 955.816 L1262.27 955.816 L1262.27 986.913 L1256.38 986.913 L1256.38 955.816 L1250.78 955.816 L1250.78 951.265 L1256.38 951.265 L1256.38 948.782 Q1256.38 942.83 1259.15 940.125 Q1261.92 937.387 1267.94 937.387 L1273.48 937.387 Z" fill="#000000" fill-rule="nonzero" fill-opacity="1"></path><path clip-path="url(#clip020)" d="M1304.76 981.565 L1304.76 1000.47 L1298.88 1000.47 L1298.88 951.265 L1304.76 951.265 L1304.76 956.676 Q1306.61 953.493 1309.41 951.965 Q1312.24 950.405 1316.16 950.405 Q1322.65 950.405 1326.69 955.562 Q1330.77 960.718 1330.77 969.12 Q1330.77 977.523 1326.69 982.679 Q1322.65 987.836 1316.16 987.836 Q1312.24 987.836 1309.41 986.308 Q1306.61 984.748 1304.76 981.565 M1324.69 969.12 Q1324.69 962.659 1322.01 958.999 Q1319.37 955.307 1314.73 955.307 Q1310.08 955.307 1307.41 958.999 Q1304.76 962.659 1304.76 969.12 Q1304.76 975.582 1307.41 979.274 Q1310.08 982.934 1314.73 982.934 Q1319.37 982.934 1322.01 979.274 Q1324.69 975.582 1324.69 969.12 Z" fill="#000000" fill-rule="nonzero" fill-opacity="1"></path><path clip-path="url(#clip020)" d="M1354.29 955.371 Q1349.58 955.371 1346.84 959.063 Q1344.1 962.723 1344.1 969.12 Q1344.1 975.518 1346.81 979.21 Q1349.55 982.87 1354.29 982.87 Q1358.97 982.87 1361.71 979.178 Q1364.44 975.486 1364.44 969.12 Q1364.44 962.787 1361.71 959.095 Q1358.97 955.371 1354.29 955.371 M1354.29 950.405 Q1361.93 950.405 1366.29 955.371 Q1370.65 960.336 1370.65 969.12 Q1370.65 977.873 1366.29 982.87 Q1361.93 987.836 1354.29 987.836 Q1346.62 987.836 1342.26 982.87 Q1337.93 977.873 1337.93 969.12 Q1337.93 960.336 1342.26 955.371 Q1346.62 950.405 1354.29 950.405 Z" fill="#000000" fill-rule="nonzero" fill-opacity="1"></path><path clip-path="url(#clip020)" d="M1380.36 951.265 L1386.21 951.265 L1386.21 986.913 L1380.36 986.913 L1380.36 951.265 M1380.36 937.387 L1386.21 937.387 L1386.21 944.803 L1380.36 944.803 L1380.36 937.387 Z" fill="#000000" fill-rule="nonzero" fill-opacity="1"></path><path clip-path="url(#clip020)" d="M1428.1 965.397 L1428.1 986.913 L1422.24 986.913 L1422.24 965.588 Q1422.24 960.527 1420.27 958.012 Q1418.3 955.498 1414.35 955.498 Q1409.61 955.498 1406.87 958.522 Q1404.13 961.545 1404.13 966.765 L1404.13 986.913 L1398.24 986.913 L1398.24 951.265 L1404.13 951.265 L1404.13 956.803 Q1406.23 953.588 1409.07 951.997 Q1411.93 950.405 1415.65 950.405 Q1421.8 950.405 1424.95 954.225 Q1428.1 958.012 1428.1 965.397 Z" fill="#000000" fill-rule="nonzero" fill-opacity="1"></path><path clip-path="url(#clip020)" d="M1445.57 941.143 L1445.57 951.265 L1457.64 951.265 L1457.64 955.816 L1445.57 955.816 L1445.57 975.168 Q1445.57 979.528 1446.75 980.77 Q1447.96 982.011 1451.62 982.011 L1457.64 982.011 L1457.64 986.913 L1451.62 986.913 Q1444.84 986.913 1442.26 984.398 Q1439.68 981.852 1439.68 975.168 L1439.68 955.816 L1435.39 955.816 L1435.39 951.265 L1439.68 951.265 L1439.68 941.143 L1445.57 941.143 Z" fill="#000000" fill-rule="nonzero" fill-opacity="1"></path><path clip-path="url(#clip020)" d="M1488.06 952.315 L1488.06 957.853 Q1485.58 956.58 1482.91 955.943 Q1480.23 955.307 1477.37 955.307 Q1473.01 955.307 1470.81 956.644 Q1468.65 957.981 1468.65 960.654 Q1468.65 962.691 1470.21 963.869 Q1471.77 965.015 1476.48 966.065 L1478.48 966.511 Q1484.72 967.847 1487.33 970.298 Q1489.97 972.717 1489.97 977.078 Q1489.97 982.043 1486.03 984.939 Q1482.11 987.836 1475.24 987.836 Q1472.37 987.836 1469.25 987.263 Q1466.17 986.722 1462.73 985.608 L1462.73 979.56 Q1465.98 981.247 1469.13 982.107 Q1472.28 982.934 1475.36 982.934 Q1479.5 982.934 1481.73 981.534 Q1483.96 980.101 1483.96 977.523 Q1483.96 975.136 1482.34 973.863 Q1480.74 972.59 1475.3 971.412 L1473.26 970.935 Q1467.82 969.789 1465.4 967.434 Q1462.98 965.046 1462.98 960.909 Q1462.98 955.88 1466.55 953.143 Q1470.11 950.405 1476.67 950.405 Q1479.92 950.405 1482.78 950.883 Q1485.65 951.36 1488.06 952.315 Z" fill="#000000" fill-rule="nonzero" fill-opacity="1"></path><path clip-path="url(#clip020)" d="M1498.38 937.451 L1503.47 937.451 Q1508.24 944.963 1510.6 952.156 Q1512.99 959.349 1512.99 966.447 Q1512.99 973.576 1510.6 980.802 Q1508.24 988.027 1503.47 995.506 L1498.38 995.506 Q1502.61 988.218 1504.68 981.024 Q1506.78 973.799 1506.78 966.447 Q1506.78 959.095 1504.68 951.933 Q1502.61 944.772 1498.38 937.451 Z" fill="#000000" fill-rule="nonzero" fill-opacity="1"></path><polyline clip-path="url(#clip020)" style="stroke:#000000; stroke-linecap:round; stroke-linejoin:round; stroke-width:4; stroke-opacity:1; fill:none" points="237.452,832.624 237.452,47.2441 "></polyline>
<polyline clip-path="url(#clip020)" style="stroke:#000000; stroke-linecap:round; stroke-linejoin:round; stroke-width:4; stroke-opacity:1; fill:none" points="237.452,744.653 256.35,744.653 "></polyline>
<polyline clip-path="url(#clip020)" style="stroke:#000000; stroke-linecap:round; stroke-linejoin:round; stroke-width:4; stroke-opacity:1; fill:none" points="237.452,600.458 256.35,600.458 "></polyline>
<polyline clip-path="url(#clip020)" style="stroke:#000000; stroke-linecap:round; stroke-linejoin:round; stroke-width:4; stroke-opacity:1; fill:none" points="237.452,456.262 256.35,456.262 "></polyline>
<polyline clip-path="url(#clip020)" style="stroke:#000000; stroke-linecap:round; stroke-linejoin:round; stroke-width:4; stroke-opacity:1; fill:none" points="237.452,312.067 256.35,312.067 "></polyline>
<polyline clip-path="url(#clip020)" style="stroke:#000000; stroke-linecap:round; stroke-linejoin:round; stroke-width:4; stroke-opacity:1; fill:none" points="237.452,167.872 256.35,167.872 "></polyline>
<path clip-path="url(#clip020)" d="M110.312 764.445 L117.951 764.445 L117.951 738.08 L109.641 739.746 L109.641 735.487 L117.905 733.82 L122.581 733.82 L122.581 764.445 L130.22 764.445 L130.22 768.38 L110.312 768.38 L110.312 764.445 Z" fill="#000000" fill-rule="nonzero" fill-opacity="1"></path><path clip-path="url(#clip020)" d="M149.664 736.899 Q146.053 736.899 144.224 740.464 Q142.419 744.006 142.419 751.135 Q142.419 758.242 144.224 761.806 Q146.053 765.348 149.664 765.348 Q153.298 765.348 155.104 761.806 Q156.932 758.242 156.932 751.135 Q156.932 744.006 155.104 740.464 Q153.298 736.899 149.664 736.899 M149.664 733.195 Q155.474 733.195 158.53 737.802 Q161.608 742.385 161.608 751.135 Q161.608 759.862 158.53 764.468 Q155.474 769.052 149.664 769.052 Q143.854 769.052 140.775 764.468 Q137.72 759.862 137.72 751.135 Q137.72 742.385 140.775 737.802 Q143.854 733.195 149.664 733.195 Z" fill="#000000" fill-rule="nonzero" fill-opacity="1"></path><path clip-path="url(#clip020)" d="M161.608 727.297 L185.72 727.297 L185.72 730.494 L161.608 730.494 L161.608 727.297 Z" fill="#000000" fill-rule="nonzero" fill-opacity="1"></path><path clip-path="url(#clip020)" d="M197.193 737.773 L210.452 737.773 L210.452 740.97 L192.622 740.97 L192.622 737.773 Q194.785 735.535 198.509 731.773 Q202.252 727.993 203.211 726.902 Q205.036 724.852 205.75 723.441 Q206.484 722.012 206.484 720.639 Q206.484 718.401 204.904 716.99 Q203.343 715.58 200.823 715.58 Q199.036 715.58 197.042 716.2 Q195.067 716.821 192.81 718.081 L192.81 714.244 Q195.105 713.323 197.099 712.852 Q199.092 712.382 200.747 712.382 Q205.111 712.382 207.706 714.564 Q210.302 716.746 210.302 720.394 Q210.302 722.125 209.643 723.686 Q209.004 725.228 207.292 727.334 Q206.822 727.88 204.302 730.494 Q201.782 733.09 197.193 737.773 Z" fill="#000000" fill-rule="nonzero" fill-opacity="1"></path><path clip-path="url(#clip020)" d="M110.011 620.25 L117.65 620.25 L117.65 593.884 L109.34 595.551 L109.34 591.292 L117.604 589.625 L122.28 589.625 L122.28 620.25 L129.919 620.25 L129.919 624.185 L110.011 624.185 L110.011 620.25 Z" fill="#000000" fill-rule="nonzero" fill-opacity="1"></path><path clip-path="url(#clip020)" d="M149.363 592.704 Q145.752 592.704 143.923 596.269 Q142.118 599.81 142.118 606.94 Q142.118 614.046 143.923 617.611 Q145.752 621.153 149.363 621.153 Q152.997 621.153 154.803 617.611 Q156.632 614.046 156.632 606.94 Q156.632 599.81 154.803 596.269 Q152.997 592.704 149.363 592.704 M149.363 589 Q155.173 589 158.229 593.607 Q161.307 598.19 161.307 606.94 Q161.307 615.667 158.229 620.273 Q155.173 624.856 149.363 624.856 Q143.553 624.856 140.474 620.273 Q137.419 615.667 137.419 606.94 Q137.419 598.19 140.474 593.607 Q143.553 589 149.363 589 Z" fill="#000000" fill-rule="nonzero" fill-opacity="1"></path><path clip-path="url(#clip020)" d="M161.307 583.102 L185.419 583.102 L185.419 586.299 L161.307 586.299 L161.307 583.102 Z" fill="#000000" fill-rule="nonzero" fill-opacity="1"></path><path clip-path="url(#clip020)" d="M194.277 593.577 L200.484 593.577 L200.484 572.155 L193.732 573.51 L193.732 570.049 L200.446 568.695 L204.246 568.695 L204.246 593.577 L210.452 593.577 L210.452 596.775 L194.277 596.775 L194.277 593.577 Z" fill="#000000" fill-rule="nonzero" fill-opacity="1"></path><path clip-path="url(#clip020)" d="M139.747 476.055 L147.385 476.055 L147.385 449.689 L139.075 451.356 L139.075 447.097 L147.339 445.43 L152.015 445.43 L152.015 476.055 L159.654 476.055 L159.654 479.99 L139.747 479.99 L139.747 476.055 Z" fill="#000000" fill-rule="nonzero" fill-opacity="1"></path><path clip-path="url(#clip020)" d="M179.098 448.509 Q175.487 448.509 173.658 452.073 Q171.853 455.615 171.853 462.745 Q171.853 469.851 173.658 473.416 Q175.487 476.958 179.098 476.958 Q182.732 476.958 184.538 473.416 Q186.367 469.851 186.367 462.745 Q186.367 455.615 184.538 452.073 Q182.732 448.509 179.098 448.509 M179.098 444.805 Q184.908 444.805 187.964 449.411 Q191.043 453.995 191.043 462.745 Q191.043 471.471 187.964 476.078 Q184.908 480.661 179.098 480.661 Q173.288 480.661 170.209 476.078 Q167.154 471.471 167.154 462.745 Q167.154 453.995 170.209 449.411 Q173.288 444.805 179.098 444.805 Z" fill="#000000" fill-rule="nonzero" fill-opacity="1"></path><path clip-path="url(#clip020)" d="M200.747 427.001 Q197.813 427.001 196.328 429.897 Q194.861 432.775 194.861 438.568 Q194.861 444.342 196.328 447.238 Q197.813 450.116 200.747 450.116 Q203.7 450.116 205.167 447.238 Q206.653 444.342 206.653 438.568 Q206.653 432.775 205.167 429.897 Q203.7 427.001 200.747 427.001 M200.747 423.992 Q205.468 423.992 207.951 427.734 Q210.452 431.458 210.452 438.568 Q210.452 445.658 207.951 449.401 Q205.468 453.125 200.747 453.125 Q196.027 453.125 193.525 449.401 Q191.043 445.658 191.043 438.568 Q191.043 431.458 193.525 427.734 Q196.027 423.992 200.747 423.992 Z" fill="#000000" fill-rule="nonzero" fill-opacity="1"></path><path clip-path="url(#clip020)" d="M142.436 331.859 L150.075 331.859 L150.075 305.494 L141.765 307.161 L141.765 302.901 L150.029 301.235 L154.704 301.235 L154.704 331.859 L162.343 331.859 L162.343 335.795 L142.436 335.795 L142.436 331.859 Z" fill="#000000" fill-rule="nonzero" fill-opacity="1"></path><path clip-path="url(#clip020)" d="M181.788 304.313 Q178.177 304.313 176.348 307.878 Q174.542 311.42 174.542 318.549 Q174.542 325.656 176.348 329.221 Q178.177 332.762 181.788 332.762 Q185.422 332.762 187.227 329.221 Q189.056 325.656 189.056 318.549 Q189.056 311.42 187.227 307.878 Q185.422 304.313 181.788 304.313 M181.788 300.61 Q187.598 300.61 190.653 305.216 Q193.732 309.799 193.732 318.549 Q193.732 327.276 190.653 331.883 Q187.598 336.466 181.788 336.466 Q175.978 336.466 172.899 331.883 Q169.843 327.276 169.843 318.549 Q169.843 309.799 172.899 305.216 Q175.978 300.61 181.788 300.61 Z" fill="#000000" fill-rule="nonzero" fill-opacity="1"></path><path clip-path="url(#clip020)" d="M194.277 305.187 L200.484 305.187 L200.484 283.765 L193.732 285.119 L193.732 281.658 L200.446 280.304 L204.246 280.304 L204.246 305.187 L210.452 305.187 L210.452 308.384 L194.277 308.384 L194.277 305.187 Z" fill="#000000" fill-rule="nonzero" fill-opacity="1"></path><path clip-path="url(#clip020)" d="M141.326 187.664 L148.965 187.664 L148.965 161.299 L140.655 162.965 L140.655 158.706 L148.919 157.039 L153.595 157.039 L153.595 187.664 L161.234 187.664 L161.234 191.599 L141.326 191.599 L141.326 187.664 Z" fill="#000000" fill-rule="nonzero" fill-opacity="1"></path><path clip-path="url(#clip020)" d="M180.678 160.118 Q177.067 160.118 175.238 163.683 Q173.433 167.225 173.433 174.354 Q173.433 181.461 175.238 185.025 Q177.067 188.567 180.678 188.567 Q184.312 188.567 186.118 185.025 Q187.947 181.461 187.947 174.354 Q187.947 167.225 186.118 163.683 Q184.312 160.118 180.678 160.118 M180.678 156.414 Q186.488 156.414 189.544 161.021 Q192.622 165.604 192.622 174.354 Q192.622 183.081 189.544 187.687 Q186.488 192.271 180.678 192.271 Q174.868 192.271 171.789 187.687 Q168.734 183.081 168.734 174.354 Q168.734 165.604 171.789 161.021 Q174.868 156.414 180.678 156.414 Z" fill="#000000" fill-rule="nonzero" fill-opacity="1"></path><path clip-path="url(#clip020)" d="M197.193 160.992 L210.452 160.992 L210.452 164.189 L192.622 164.189 L192.622 160.992 Q194.785 158.754 198.509 154.992 Q202.252 151.212 203.211 150.121 Q205.036 148.071 205.75 146.66 Q206.484 145.231 206.484 143.858 Q206.484 141.62 204.904 140.209 Q203.343 138.798 200.823 138.798 Q199.036 138.798 197.042 139.419 Q195.067 140.04 192.81 141.3 L192.81 137.463 Q195.105 136.542 197.099 136.071 Q199.092 135.601 200.747 135.601 Q205.111 135.601 207.706 137.783 Q210.302 139.965 210.302 143.613 Q210.302 145.344 209.643 146.905 Q209.004 148.447 207.292 150.553 Q206.822 151.099 204.302 153.713 Q201.782 156.309 197.193 160.992 Z" fill="#000000" fill-rule="nonzero" fill-opacity="1"></path><path clip-path="url(#clip020)" d="M39.2793 696.886 Q35.3326 694.69 33.4547 691.634 Q31.5768 688.578 31.5768 684.441 Q31.5768 678.871 35.4917 675.847 Q39.3748 672.823 46.5681 672.823 L68.0842 672.823 L68.0842 678.712 L46.759 678.712 Q41.6346 678.712 39.152 680.526 Q36.6694 682.34 36.6694 686.064 Q36.6694 690.615 39.6931 693.257 Q42.7168 695.899 47.9367 695.899 L68.0842 695.899 L68.0842 701.787 L46.759 701.787 Q41.6028 701.787 39.152 703.602 Q36.6694 705.416 36.6694 709.203 Q36.6694 713.691 39.7249 716.333 Q42.7486 718.975 47.9367 718.975 L68.0842 718.975 L68.0842 724.863 L32.4362 724.863 L32.4362 718.975 L37.9744 718.975 Q34.696 716.97 33.1364 714.169 Q31.5768 711.368 31.5768 707.516 Q31.5768 703.633 33.5502 700.928 Q35.5236 698.191 39.2793 696.886 Z" fill="#000000" fill-rule="nonzero" fill-opacity="1"></path><path clip-path="url(#clip020)" d="M48.7961 630.651 L51.6606 630.651 L51.6606 657.577 Q57.7081 657.196 60.8909 653.949 Q64.0419 650.671 64.0419 644.846 Q64.0419 641.472 63.2144 638.321 Q62.3869 635.138 60.7318 632.019 L66.2699 632.019 Q67.6067 635.17 68.307 638.48 Q69.0072 641.791 69.0072 645.196 Q69.0072 653.726 64.0419 658.723 Q59.0767 663.689 50.6103 663.689 Q41.8574 663.689 36.7331 658.978 Q31.5768 654.235 31.5768 646.215 Q31.5768 639.021 36.2238 634.852 Q40.8389 630.651 48.7961 630.651 M47.0773 636.507 Q42.2712 636.571 39.4066 639.212 Q36.5421 641.822 36.5421 646.151 Q36.5421 651.053 39.3112 654.013 Q42.0802 656.941 47.1092 657.387 L47.0773 636.507 Z" fill="#000000" fill-rule="nonzero" fill-opacity="1"></path><path clip-path="url(#clip020)" d="M37.8471 597.581 L18.559 597.581 L18.559 591.724 L68.0842 591.724 L68.0842 597.581 L62.737 597.581 Q65.9198 599.427 67.4794 602.259 Q69.0072 605.06 69.0072 609.007 Q69.0072 615.468 63.851 619.542 Q58.6947 623.585 50.292 623.585 Q41.8893 623.585 36.7331 619.542 Q31.5768 615.468 31.5768 609.007 Q31.5768 605.06 33.1364 602.259 Q34.6642 599.427 37.8471 597.581 M50.292 617.537 Q56.7532 617.537 60.4453 614.895 Q64.1056 612.222 64.1056 607.575 Q64.1056 602.928 60.4453 600.254 Q56.7532 597.581 50.292 597.581 Q43.8308 597.581 40.1705 600.254 Q36.4784 602.928 36.4784 607.575 Q36.4784 612.222 40.1705 614.895 Q43.8308 617.537 50.292 617.537 Z" fill="#000000" fill-rule="nonzero" fill-opacity="1"></path><path clip-path="url(#clip020)" d="M32.4362 579.661 L32.4362 573.805 L68.0842 573.805 L68.0842 579.661 L32.4362 579.661 M18.559 579.661 L18.559 573.805 L25.975 573.805 L25.975 579.661 L18.559 579.661 Z" fill="#000000" fill-rule="nonzero" fill-opacity="1"></path><path clip-path="url(#clip020)" d="M50.1647 545.35 Q50.1647 552.448 51.7879 555.185 Q53.4112 557.922 57.3261 557.922 Q60.4453 557.922 62.2914 555.885 Q64.1056 553.816 64.1056 550.283 Q64.1056 545.414 60.6681 542.486 Q57.1988 539.525 51.4697 539.525 L50.1647 539.525 L50.1647 545.35 M47.7457 533.669 L68.0842 533.669 L68.0842 539.525 L62.6733 539.525 Q65.9198 541.531 67.4794 544.523 Q69.0072 547.514 69.0072 551.843 Q69.0072 557.318 65.9516 560.564 Q62.8643 563.779 57.7081 563.779 Q51.6925 563.779 48.6369 559.768 Q45.5814 555.726 45.5814 547.737 L45.5814 539.525 L45.0085 539.525 Q40.9662 539.525 38.7701 542.199 Q36.5421 544.841 36.5421 549.647 Q36.5421 552.702 37.2741 555.599 Q38.0062 558.495 39.4703 561.169 L34.0595 561.169 Q32.8181 557.954 32.2134 554.93 Q31.5768 551.907 31.5768 549.042 Q31.5768 541.308 35.5872 537.488 Q39.5976 533.669 47.7457 533.669 Z" fill="#000000" fill-rule="nonzero" fill-opacity="1"></path><path clip-path="url(#clip020)" d="M46.5681 491.974 L68.0842 491.974 L68.0842 497.83 L46.759 497.83 Q41.6983 497.83 39.1838 499.803 Q36.6694 501.777 36.6694 505.724 Q36.6694 510.466 39.6931 513.203 Q42.7168 515.941 47.9367 515.941 L68.0842 515.941 L68.0842 521.829 L32.4362 521.829 L32.4362 515.941 L37.9744 515.941 Q34.7597 513.84 33.1683 511.007 Q31.5768 508.143 31.5768 504.419 Q31.5768 498.276 35.3963 495.125 Q39.1838 491.974 46.5681 491.974 Z" fill="#000000" fill-rule="nonzero" fill-opacity="1"></path><path clip-path="url(#clip020)" d="M22.3147 453.779 L32.4362 453.779 L32.4362 441.716 L36.9877 441.716 L36.9877 453.779 L56.3394 453.779 Q60.6999 453.779 61.9413 452.602 Q63.1826 451.392 63.1826 447.732 L63.1826 441.716 L68.0842 441.716 L68.0842 447.732 Q68.0842 454.511 65.5697 457.09 Q63.0234 459.668 56.3394 459.668 L36.9877 459.668 L36.9877 463.965 L32.4362 463.965 L32.4362 459.668 L22.3147 459.668 L22.3147 453.779 Z" fill="#000000" fill-rule="nonzero" fill-opacity="1"></path><path clip-path="url(#clip020)" d="M32.4362 434.014 L32.4362 428.157 L68.0842 428.157 L68.0842 434.014 L32.4362 434.014 M18.559 434.014 L18.559 428.157 L25.975 428.157 L25.975 434.014 L18.559 434.014 Z" fill="#000000" fill-rule="nonzero" fill-opacity="1"></path><path clip-path="url(#clip020)" d="M39.2793 388.149 Q35.3326 385.953 33.4547 382.897 Q31.5768 379.842 31.5768 375.704 Q31.5768 370.134 35.4917 367.11 Q39.3748 364.087 46.5681 364.087 L68.0842 364.087 L68.0842 369.975 L46.759 369.975 Q41.6346 369.975 39.152 371.789 Q36.6694 373.603 36.6694 377.327 Q36.6694 381.879 39.6931 384.52 Q42.7168 387.162 47.9367 387.162 L68.0842 387.162 L68.0842 393.051 L46.759 393.051 Q41.6028 393.051 39.152 394.865 Q36.6694 396.679 36.6694 400.467 Q36.6694 404.954 39.7249 407.596 Q42.7486 410.238 47.9367 410.238 L68.0842 410.238 L68.0842 416.126 L32.4362 416.126 L32.4362 410.238 L37.9744 410.238 Q34.696 408.233 33.1364 405.432 Q31.5768 402.631 31.5768 398.78 Q31.5768 394.897 33.5502 392.191 Q35.5236 389.454 39.2793 388.149 Z" fill="#000000" fill-rule="nonzero" fill-opacity="1"></path><path clip-path="url(#clip020)" d="M48.7961 321.914 L51.6606 321.914 L51.6606 348.841 Q57.7081 348.459 60.8909 345.212 Q64.0419 341.934 64.0419 336.109 Q64.0419 332.735 63.2144 329.584 Q62.3869 326.402 60.7318 323.282 L66.2699 323.282 Q67.6067 326.433 68.307 329.744 Q69.0072 333.054 69.0072 336.459 Q69.0072 344.989 64.0419 349.987 Q59.0767 354.952 50.6103 354.952 Q41.8574 354.952 36.7331 350.241 Q31.5768 345.499 31.5768 337.478 Q31.5768 330.285 36.2238 326.115 Q40.8389 321.914 48.7961 321.914 M47.0773 327.77 Q42.2712 327.834 39.4066 330.476 Q36.5421 333.086 36.5421 337.414 Q36.5421 342.316 39.3112 345.276 Q42.0802 348.204 47.1092 348.65 L47.0773 327.77 Z" fill="#000000" fill-rule="nonzero" fill-opacity="1"></path><path clip-path="url(#clip020)" d="M18.6226 277.513 Q25.9432 281.778 33.1046 283.847 Q40.266 285.916 47.6184 285.916 Q54.9708 285.916 62.1959 283.847 Q69.3891 281.746 76.6779 277.513 L76.6779 282.606 Q69.1982 287.38 61.9731 289.767 Q54.748 292.122 47.6184 292.122 Q40.5206 292.122 33.3274 289.767 Q26.1342 287.412 18.6226 282.606 L18.6226 277.513 Z" fill="#000000" fill-rule="nonzero" fill-opacity="1"></path><path clip-path="url(#clip020)" d="M39.2793 238.396 Q35.3326 236.2 33.4547 233.144 Q31.5768 230.088 31.5768 225.951 Q31.5768 220.381 35.4917 217.357 Q39.3748 214.333 46.5681 214.333 L68.0842 214.333 L68.0842 220.222 L46.759 220.222 Q41.6346 220.222 39.152 222.036 Q36.6694 223.85 36.6694 227.574 Q36.6694 232.125 39.6931 234.767 Q42.7168 237.409 47.9367 237.409 L68.0842 237.409 L68.0842 243.297 L46.759 243.297 Q41.6028 243.297 39.152 245.112 Q36.6694 246.926 36.6694 250.713 Q36.6694 255.201 39.7249 257.843 Q42.7486 260.485 47.9367 260.485 L68.0842 260.485 L68.0842 266.373 L32.4362 266.373 L32.4362 260.485 L37.9744 260.485 Q34.696 258.48 33.1364 255.679 Q31.5768 252.878 31.5768 249.026 Q31.5768 245.143 33.5502 242.438 Q35.5236 239.701 39.2793 238.396 Z" fill="#000000" fill-rule="nonzero" fill-opacity="1"></path><path clip-path="url(#clip020)" d="M33.4865 179.927 L39.0247 179.927 Q37.7516 182.409 37.115 185.083 Q36.4784 187.757 36.4784 190.621 Q36.4784 194.982 37.8152 197.178 Q39.152 199.342 41.8256 199.342 Q43.8626 199.342 45.0403 197.782 Q46.1861 196.223 47.2365 191.512 L47.6821 189.507 Q49.0189 183.269 51.4697 180.659 Q53.8886 178.017 58.2491 178.017 Q63.2144 178.017 66.1108 181.964 Q69.0072 185.879 69.0072 192.754 Q69.0072 195.618 68.4343 198.737 Q67.8932 201.825 66.7792 205.262 L60.7318 205.262 Q62.4187 202.016 63.278 198.865 Q64.1056 195.714 64.1056 192.626 Q64.1056 188.489 62.7051 186.261 Q61.2729 184.033 58.6947 184.033 Q56.3076 184.033 55.0345 185.656 Q53.7613 187.247 52.5837 192.69 L52.1062 194.727 Q50.9604 200.17 48.6051 202.589 Q46.218 205.008 42.0802 205.008 Q37.0513 205.008 34.3141 201.443 Q31.5768 197.878 31.5768 191.321 Q31.5768 188.075 32.0543 185.21 Q32.5317 182.346 33.4865 179.927 Z" fill="#000000" fill-rule="nonzero" fill-opacity="1"></path><path clip-path="url(#clip020)" d="M18.6226 169.614 L18.6226 164.522 Q26.1342 159.747 33.3274 157.392 Q40.5206 155.005 47.6184 155.005 Q54.748 155.005 61.9731 157.392 Q69.1982 159.747 76.6779 164.522 L76.6779 169.614 Q69.3891 165.381 62.1959 163.312 Q54.9708 161.212 47.6184 161.212 Q40.266 161.212 33.1046 163.312 Q25.9432 165.381 18.6226 169.614 Z" fill="#000000" fill-rule="nonzero" fill-opacity="1"></path><path clip-path="url(#clip022)" d="M280.338 808.632 L428.876 810.396 L583.79 788.123 L742.112 739.4 L902.195 682.464 L1063.18 576.295 L1224.61 464.179 L1386.27 343.287 L1548.04 217.273 L1709.87 80.5996 L1709.87 69.4718 L1548.04 206.951 L1386.27 324.813 L1224.61 449.138 L1063.18 554.004 L902.195 635.539 L742.112 720.484 L583.79 726.278 L428.876 784.352 L280.338 778.442  Z" fill="#009af9" fill-rule="evenodd" fill-opacity="0.2"></path>
<polyline clip-path="url(#clip022)" style="stroke:#009af9; stroke-linecap:round; stroke-linejoin:round; stroke-width:4; stroke-opacity:1; fill:none" points="280.338,804.427 428.876,806.916 583.79,763.509 742.112,729.439 902.195,669.225 1063.18,568.118 1224.61,458.93 1386.27,332.848 1548.04,212.592 1709.87,76.9217 "></polyline>
<circle clip-path="url(#clip022)" cx="280.338" cy="804.427" r="14.4" fill="#009af9" fill-rule="evenodd" fill-opacity="1" stroke="#000000" stroke-opacity="1" stroke-width="2"></circle>
<circle clip-path="url(#clip022)" cx="428.876" cy="806.916" r="14.4" fill="#009af9" fill-rule="evenodd" fill-opacity="1" stroke="#000000" stroke-opacity="1" stroke-width="2"></circle>
<circle clip-path="url(#clip022)" cx="583.79" cy="763.509" r="14.4" fill="#009af9" fill-rule="evenodd" fill-opacity="1" stroke="#000000" stroke-opacity="1" stroke-width="2"></circle>
<circle clip-path="url(#clip022)" cx="742.112" cy="729.439" r="14.4" fill="#009af9" fill-rule="evenodd" fill-opacity="1" stroke="#000000" stroke-opacity="1" stroke-width="2"></circle>
<circle clip-path="url(#clip022)" cx="902.195" cy="669.225" r="14.4" fill="#009af9" fill-rule="evenodd" fill-opacity="1" stroke="#000000" stroke-opacity="1" stroke-width="2"></circle>
<circle clip-path="url(#clip022)" cx="1063.18" cy="568.118" r="14.4" fill="#009af9" fill-rule="evenodd" fill-opacity="1" stroke="#000000" stroke-opacity="1" stroke-width="2"></circle>
<circle clip-path="url(#clip022)" cx="1224.61" cy="458.93" r="14.4" fill="#009af9" fill-rule="evenodd" fill-opacity="1" stroke="#000000" stroke-opacity="1" stroke-width="2"></circle>
<circle clip-path="url(#clip022)" cx="1386.27" cy="332.848" r="14.4" fill="#009af9" fill-rule="evenodd" fill-opacity="1" stroke="#000000" stroke-opacity="1" stroke-width="2"></circle>
<circle clip-path="url(#clip022)" cx="1548.04" cy="212.592" r="14.4" fill="#009af9" fill-rule="evenodd" fill-opacity="1" stroke="#000000" stroke-opacity="1" stroke-width="2"></circle>
<circle clip-path="url(#clip022)" cx="1709.87" cy="76.9217" r="14.4" fill="#009af9" fill-rule="evenodd" fill-opacity="1" stroke="#000000" stroke-opacity="1" stroke-width="2"></circle>
<path clip-path="url(#clip022)" d="M280.338 749.231 L428.876 733.759 L583.79 720.102 L742.112 704.788 L902.195 687.523 L1063.18 662.89 L1224.61 639.051 L1386.27 611.079 L1548.04 577.501 L1709.87 541.671 L1709.87 510.207 L1548.04 562.804 L1386.27 602.608 L1224.61 619.128 L1063.18 637.976 L902.195 649.161 L742.112 662.967 L583.79 694.359 L428.876 679.496 L280.338 741.538  Z" fill="#e26f46" fill-rule="evenodd" fill-opacity="0.2"></path>
<polyline clip-path="url(#clip022)" style="stroke:#e26f46; stroke-linecap:round; stroke-linejoin:round; stroke-width:4; stroke-opacity:1; fill:none" points="280.338,747.865 428.876,727.504 583.79,717.208 742.112,701.875 902.195,680.849 1063.18,658.389 1224.61,637.669 1386.27,608.57 1548.04,575.59 1709.87,525.255 "></polyline>
<circle clip-path="url(#clip022)" cx="280.338" cy="747.865" r="14.4" fill="#e26f46" fill-rule="evenodd" fill-opacity="1" stroke="#000000" stroke-opacity="1" stroke-width="2"></circle>
<circle clip-path="url(#clip022)" cx="428.876" cy="727.504" r="14.4" fill="#e26f46" fill-rule="evenodd" fill-opacity="1" stroke="#000000" stroke-opacity="1" stroke-width="2"></circle>
<circle clip-path="url(#clip022)" cx="583.79" cy="717.208" r="14.4" fill="#e26f46" fill-rule="evenodd" fill-opacity="1" stroke="#000000" stroke-opacity="1" stroke-width="2"></circle>
<circle clip-path="url(#clip022)" cx="742.112" cy="701.875" r="14.4" fill="#e26f46" fill-rule="evenodd" fill-opacity="1" stroke="#000000" stroke-opacity="1" stroke-width="2"></circle>
<circle clip-path="url(#clip022)" cx="902.195" cy="680.849" r="14.4" fill="#e26f46" fill-rule="evenodd" fill-opacity="1" stroke="#000000" stroke-opacity="1" stroke-width="2"></circle>
<circle clip-path="url(#clip022)" cx="1063.18" cy="658.389" r="14.4" fill="#e26f46" fill-rule="evenodd" fill-opacity="1" stroke="#000000" stroke-opacity="1" stroke-width="2"></circle>
<circle clip-path="url(#clip022)" cx="1224.61" cy="637.669" r="14.4" fill="#e26f46" fill-rule="evenodd" fill-opacity="1" stroke="#000000" stroke-opacity="1" stroke-width="2"></circle>
<circle clip-path="url(#clip022)" cx="1386.27" cy="608.57" r="14.4" fill="#e26f46" fill-rule="evenodd" fill-opacity="1" stroke="#000000" stroke-opacity="1" stroke-width="2"></circle>
<circle clip-path="url(#clip022)" cx="1548.04" cy="575.59" r="14.4" fill="#e26f46" fill-rule="evenodd" fill-opacity="1" stroke="#000000" stroke-opacity="1" stroke-width="2"></circle>
<circle clip-path="url(#clip022)" cx="1709.87" cy="525.255" r="14.4" fill="#e26f46" fill-rule="evenodd" fill-opacity="1" stroke="#000000" stroke-opacity="1" stroke-width="2"></circle>
<path clip-path="url(#clip020)" d="M287.962 228.943 L711.968 228.943 L711.968 73.4234 L287.962 73.4234  Z" fill="#ffffff" fill-rule="evenodd" fill-opacity="1"></path>
<polyline clip-path="url(#clip020)" style="stroke:#000000; stroke-linecap:round; stroke-linejoin:round; stroke-width:4; stroke-opacity:1; fill:none" points="287.962,228.943 711.968,228.943 711.968,73.4234 287.962,73.4234 287.962,228.943 "></polyline>
<polyline clip-path="url(#clip020)" style="stroke:#009af9; stroke-linecap:round; stroke-linejoin:round; stroke-width:4; stroke-opacity:1; fill:none" points="304.799,125.263 405.819,125.263 "></polyline>
<circle clip-path="url(#clip020)" cx="355.309" cy="125.263" r="14.0306" fill="#009af9" fill-rule="evenodd" fill-opacity="1" stroke="#000000" stroke-opacity="1" stroke-width="2.84444"></circle>
<path clip-path="url(#clip020)" d="M441.082 117.382 L441.082 121.409 Q439.276 120.483 437.332 120.02 Q435.387 119.557 433.304 119.557 Q430.133 119.557 428.536 120.53 Q426.961 121.502 426.961 123.446 Q426.961 124.928 428.096 125.784 Q429.23 126.618 432.656 127.381 L434.114 127.706 Q438.651 128.678 440.549 130.46 Q442.471 132.219 442.471 135.391 Q442.471 139.002 439.6 141.108 Q436.753 143.215 431.753 143.215 Q429.67 143.215 427.401 142.798 Q425.156 142.405 422.656 141.594 L422.656 137.196 Q425.017 138.423 427.309 139.048 Q429.6 139.65 431.846 139.65 Q434.855 139.65 436.475 138.631 Q438.096 137.59 438.096 135.715 Q438.096 133.979 436.915 133.053 Q435.758 132.127 431.799 131.27 L430.318 130.923 Q426.36 130.09 424.6 128.377 Q422.841 126.641 422.841 123.631 Q422.841 119.974 425.434 117.983 Q428.026 115.993 432.795 115.993 Q435.156 115.993 437.239 116.34 Q439.323 116.687 441.082 117.382 Z" fill="#000000" fill-rule="nonzero" fill-opacity="1"></path><path clip-path="url(#clip020)" d="M449.253 116.618 L453.512 116.618 L453.512 142.543 L449.253 142.543 L449.253 116.618 M449.253 106.525 L453.512 106.525 L453.512 111.919 L449.253 111.919 L449.253 106.525 Z" fill="#000000" fill-rule="nonzero" fill-opacity="1"></path><path clip-path="url(#clip020)" d="M483.975 126.895 L483.975 142.543 L479.716 142.543 L479.716 127.034 Q479.716 123.354 478.281 121.525 Q476.845 119.696 473.975 119.696 Q470.526 119.696 468.535 121.895 Q466.545 124.094 466.545 127.891 L466.545 142.543 L462.262 142.543 L462.262 116.618 L466.545 116.618 L466.545 120.645 Q468.072 118.307 470.133 117.15 Q472.216 115.993 474.924 115.993 Q479.392 115.993 481.683 118.77 Q483.975 121.525 483.975 126.895 Z" fill="#000000" fill-rule="nonzero" fill-opacity="1"></path><path clip-path="url(#clip020)" d="M509.53 129.28 Q509.53 124.65 507.609 122.104 Q505.711 119.557 502.262 119.557 Q498.836 119.557 496.915 122.104 Q495.017 124.65 495.017 129.28 Q495.017 133.886 496.915 136.432 Q498.836 138.979 502.262 138.979 Q505.711 138.979 507.609 136.432 Q509.53 133.886 509.53 129.28 M513.79 139.326 Q513.79 145.946 510.85 149.164 Q507.91 152.404 501.845 152.404 Q499.6 152.404 497.609 152.057 Q495.619 151.733 493.744 151.039 L493.744 146.895 Q495.619 147.914 497.447 148.4 Q499.276 148.886 501.174 148.886 Q505.364 148.886 507.447 146.687 Q509.53 144.511 509.53 140.09 L509.53 137.983 Q508.211 140.275 506.151 141.409 Q504.091 142.543 501.22 142.543 Q496.452 142.543 493.535 138.909 Q490.619 135.275 490.619 129.28 Q490.619 123.261 493.535 119.627 Q496.452 115.993 501.22 115.993 Q504.091 115.993 506.151 117.127 Q508.211 118.261 509.53 120.553 L509.53 116.618 L513.79 116.618 L513.79 139.326 Z" fill="#000000" fill-rule="nonzero" fill-opacity="1"></path><path clip-path="url(#clip020)" d="M522.563 106.525 L526.822 106.525 L526.822 142.543 L522.563 142.543 L522.563 106.525 Z" fill="#000000" fill-rule="nonzero" fill-opacity="1"></path><path clip-path="url(#clip020)" d="M557.91 128.516 L557.91 130.599 L538.327 130.599 Q538.604 134.997 540.966 137.312 Q543.35 139.604 547.586 139.604 Q550.04 139.604 552.331 139.002 Q554.646 138.4 556.915 137.196 L556.915 141.224 Q554.623 142.196 552.215 142.705 Q549.808 143.215 547.331 143.215 Q541.128 143.215 537.493 139.604 Q533.882 135.993 533.882 129.835 Q533.882 123.469 537.308 119.743 Q540.757 115.993 546.59 115.993 Q551.822 115.993 554.854 119.372 Q557.91 122.729 557.91 128.516 M553.651 127.266 Q553.604 123.77 551.683 121.687 Q549.785 119.604 546.637 119.604 Q543.072 119.604 540.919 121.618 Q538.79 123.631 538.466 127.289 L553.651 127.266 Z" fill="#000000" fill-rule="nonzero" fill-opacity="1"></path><path clip-path="url(#clip020)" d="M596.498 117.382 L596.498 121.409 Q594.692 120.483 592.748 120.02 Q590.803 119.557 588.72 119.557 Q585.549 119.557 583.951 120.53 Q582.377 121.502 582.377 123.446 Q582.377 124.928 583.512 125.784 Q584.646 126.618 588.072 127.381 L589.53 127.706 Q594.067 128.678 595.965 130.46 Q597.887 132.219 597.887 135.391 Q597.887 139.002 595.016 141.108 Q592.169 143.215 587.169 143.215 Q585.086 143.215 582.817 142.798 Q580.572 142.405 578.072 141.594 L578.072 137.196 Q580.433 138.423 582.725 139.048 Q585.016 139.65 587.262 139.65 Q590.271 139.65 591.891 138.631 Q593.512 137.59 593.512 135.715 Q593.512 133.979 592.331 133.053 Q591.174 132.127 587.215 131.27 L585.734 130.923 Q581.775 130.09 580.016 128.377 Q578.257 126.641 578.257 123.631 Q578.257 119.974 580.85 117.983 Q583.442 115.993 588.211 115.993 Q590.572 115.993 592.655 116.34 Q594.738 116.687 596.498 117.382 Z" fill="#000000" fill-rule="nonzero" fill-opacity="1"></path><path clip-path="url(#clip020)" d="M623.326 117.613 L623.326 121.594 Q621.521 120.599 619.692 120.113 Q617.886 119.604 616.035 119.604 Q611.891 119.604 609.599 122.243 Q607.308 124.858 607.308 129.604 Q607.308 134.349 609.599 136.988 Q611.891 139.604 616.035 139.604 Q617.886 139.604 619.692 139.118 Q621.521 138.608 623.326 137.613 L623.326 141.548 Q621.544 142.381 619.623 142.798 Q617.724 143.215 615.572 143.215 Q609.715 143.215 606.266 139.534 Q602.817 135.854 602.817 129.604 Q602.817 123.261 606.289 119.627 Q609.785 115.993 615.849 115.993 Q617.817 115.993 619.692 116.409 Q621.567 116.803 623.326 117.613 Z" fill="#000000" fill-rule="nonzero" fill-opacity="1"></path><path clip-path="url(#clip020)" d="M642.516 129.511 Q637.354 129.511 635.363 130.692 Q633.372 131.872 633.372 134.719 Q633.372 136.988 634.854 138.33 Q636.359 139.65 638.928 139.65 Q642.47 139.65 644.599 137.15 Q646.752 134.627 646.752 130.46 L646.752 129.511 L642.516 129.511 M651.011 127.752 L651.011 142.543 L646.752 142.543 L646.752 138.608 Q645.294 140.969 643.118 142.104 Q640.942 143.215 637.794 143.215 Q633.812 143.215 631.451 140.993 Q629.113 138.747 629.113 134.997 Q629.113 130.622 632.03 128.4 Q634.97 126.178 640.78 126.178 L646.752 126.178 L646.752 125.761 Q646.752 122.821 644.808 121.224 Q642.886 119.604 639.391 119.604 Q637.169 119.604 635.062 120.136 Q632.956 120.669 631.011 121.733 L631.011 117.798 Q633.349 116.895 635.548 116.456 Q637.747 115.993 639.831 115.993 Q645.456 115.993 648.233 118.909 Q651.011 121.826 651.011 127.752 Z" fill="#000000" fill-rule="nonzero" fill-opacity="1"></path><path clip-path="url(#clip020)" d="M659.784 106.525 L664.044 106.525 L664.044 142.543 L659.784 142.543 L659.784 106.525 Z" fill="#000000" fill-rule="nonzero" fill-opacity="1"></path><path clip-path="url(#clip020)" d="M695.131 128.516 L695.131 130.599 L675.548 130.599 Q675.826 134.997 678.187 137.312 Q680.571 139.604 684.807 139.604 Q687.261 139.604 689.553 139.002 Q691.867 138.4 694.136 137.196 L694.136 141.224 Q691.844 142.196 689.437 142.705 Q687.03 143.215 684.553 143.215 Q678.349 143.215 674.715 139.604 Q671.104 135.993 671.104 129.835 Q671.104 123.469 674.53 119.743 Q677.979 115.993 683.812 115.993 Q689.043 115.993 692.076 119.372 Q695.131 122.729 695.131 128.516 M690.872 127.266 Q690.826 123.77 688.905 121.687 Q687.006 119.604 683.858 119.604 Q680.293 119.604 678.141 121.618 Q676.011 123.631 675.687 127.289 L690.872 127.266 Z" fill="#000000" fill-rule="nonzero" fill-opacity="1"></path><polyline clip-path="url(#clip020)" style="stroke:#e26f46; stroke-linecap:round; stroke-linejoin:round; stroke-width:4; stroke-opacity:1; fill:none" points="304.799,177.103 405.819,177.103 "></polyline>
<circle clip-path="url(#clip020)" cx="355.309" cy="177.103" r="14.0306" fill="#e26f46" fill-rule="evenodd" fill-opacity="1" stroke="#000000" stroke-opacity="1" stroke-width="2.84444"></circle>
<path clip-path="url(#clip020)" d="M443.003 173.434 Q444.6 170.564 446.823 169.198 Q449.045 167.833 452.054 167.833 Q456.105 167.833 458.304 170.68 Q460.503 173.504 460.503 178.735 L460.503 194.383 L456.221 194.383 L456.221 178.874 Q456.221 175.147 454.901 173.342 Q453.582 171.536 450.873 171.536 Q447.563 171.536 445.642 173.735 Q443.721 175.934 443.721 179.731 L443.721 194.383 L439.438 194.383 L439.438 178.874 Q439.438 175.124 438.119 173.342 Q436.799 171.536 434.045 171.536 Q430.781 171.536 428.86 173.759 Q426.938 175.958 426.938 179.731 L426.938 194.383 L422.656 194.383 L422.656 168.458 L426.938 168.458 L426.938 172.485 Q428.397 170.101 430.434 168.967 Q432.471 167.833 435.272 167.833 Q438.096 167.833 440.063 169.268 Q442.054 170.703 443.003 173.434 Z" fill="#000000" fill-rule="nonzero" fill-opacity="1"></path><path clip-path="url(#clip020)" d="M468.558 184.152 L468.558 168.458 L472.818 168.458 L472.818 183.99 Q472.818 187.67 474.253 189.522 Q475.688 191.351 478.558 191.351 Q482.007 191.351 483.998 189.152 Q486.012 186.953 486.012 183.157 L486.012 168.458 L490.271 168.458 L490.271 194.383 L486.012 194.383 L486.012 190.402 Q484.461 192.763 482.401 193.92 Q480.364 195.055 477.656 195.055 Q473.188 195.055 470.873 192.277 Q468.558 189.499 468.558 184.152 M479.276 167.833 L479.276 167.833 Z" fill="#000000" fill-rule="nonzero" fill-opacity="1"></path><path clip-path="url(#clip020)" d="M499.044 158.365 L503.304 158.365 L503.304 194.383 L499.044 194.383 L499.044 158.365 Z" fill="#000000" fill-rule="nonzero" fill-opacity="1"></path><path clip-path="url(#clip020)" d="M516.429 161.097 L516.429 168.458 L525.202 168.458 L525.202 171.768 L516.429 171.768 L516.429 185.842 Q516.429 189.013 517.285 189.916 Q518.165 190.819 520.827 190.819 L525.202 190.819 L525.202 194.383 L520.827 194.383 Q515.896 194.383 514.021 192.555 Q512.146 190.703 512.146 185.842 L512.146 171.768 L509.021 171.768 L509.021 168.458 L512.146 168.458 L512.146 161.097 L516.429 161.097 Z" fill="#000000" fill-rule="nonzero" fill-opacity="1"></path><path clip-path="url(#clip020)" d="M530.804 168.458 L535.063 168.458 L535.063 194.383 L530.804 194.383 L530.804 168.458 M530.804 158.365 L535.063 158.365 L535.063 163.759 L530.804 163.759 L530.804 158.365 Z" fill="#000000" fill-rule="nonzero" fill-opacity="1"></path><path clip-path="url(#clip020)" d="M575.572 169.222 L575.572 173.249 Q573.766 172.323 571.822 171.86 Q569.877 171.397 567.794 171.397 Q564.623 171.397 563.026 172.37 Q561.452 173.342 561.452 175.286 Q561.452 176.768 562.586 177.624 Q563.72 178.458 567.146 179.221 L568.604 179.546 Q573.141 180.518 575.039 182.3 Q576.961 184.059 576.961 187.231 Q576.961 190.842 574.09 192.948 Q571.243 195.055 566.243 195.055 Q564.16 195.055 561.891 194.638 Q559.646 194.245 557.146 193.434 L557.146 189.036 Q559.507 190.263 561.799 190.888 Q564.09 191.49 566.336 191.49 Q569.345 191.49 570.965 190.471 Q572.586 189.43 572.586 187.555 Q572.586 185.819 571.405 184.893 Q570.248 183.967 566.289 183.11 L564.808 182.763 Q560.85 181.93 559.09 180.217 Q557.331 178.481 557.331 175.471 Q557.331 171.814 559.924 169.823 Q562.516 167.833 567.285 167.833 Q569.646 167.833 571.729 168.18 Q573.813 168.527 575.572 169.222 Z" fill="#000000" fill-rule="nonzero" fill-opacity="1"></path><path clip-path="url(#clip020)" d="M602.4 169.453 L602.4 173.434 Q600.595 172.439 598.766 171.953 Q596.961 171.444 595.109 171.444 Q590.965 171.444 588.674 174.083 Q586.382 176.698 586.382 181.444 Q586.382 186.189 588.674 188.828 Q590.965 191.444 595.109 191.444 Q596.961 191.444 598.766 190.958 Q600.595 190.448 602.4 189.453 L602.4 193.388 Q600.618 194.221 598.697 194.638 Q596.799 195.055 594.646 195.055 Q588.789 195.055 585.34 191.374 Q581.891 187.694 581.891 181.444 Q581.891 175.101 585.363 171.467 Q588.859 167.833 594.924 167.833 Q596.891 167.833 598.766 168.249 Q600.641 168.643 602.4 169.453 Z" fill="#000000" fill-rule="nonzero" fill-opacity="1"></path><path clip-path="url(#clip020)" d="M621.59 181.351 Q616.428 181.351 614.437 182.532 Q612.447 183.712 612.447 186.559 Q612.447 188.828 613.928 190.17 Q615.433 191.49 618.002 191.49 Q621.544 191.49 623.673 188.99 Q625.826 186.467 625.826 182.3 L625.826 181.351 L621.59 181.351 M630.085 179.592 L630.085 194.383 L625.826 194.383 L625.826 190.448 Q624.368 192.809 622.192 193.944 Q620.016 195.055 616.868 195.055 Q612.886 195.055 610.525 192.833 Q608.187 190.587 608.187 186.837 Q608.187 182.462 611.104 180.24 Q614.044 178.018 619.854 178.018 L625.826 178.018 L625.826 177.601 Q625.826 174.661 623.882 173.064 Q621.96 171.444 618.465 171.444 Q616.243 171.444 614.136 171.976 Q612.03 172.509 610.086 173.573 L610.086 169.638 Q612.423 168.735 614.623 168.296 Q616.822 167.833 618.905 167.833 Q624.53 167.833 627.308 170.749 Q630.085 173.666 630.085 179.592 Z" fill="#000000" fill-rule="nonzero" fill-opacity="1"></path><path clip-path="url(#clip020)" d="M638.859 158.365 L643.118 158.365 L643.118 194.383 L638.859 194.383 L638.859 158.365 Z" fill="#000000" fill-rule="nonzero" fill-opacity="1"></path><path clip-path="url(#clip020)" d="M674.206 180.356 L674.206 182.439 L654.622 182.439 Q654.9 186.837 657.261 189.152 Q659.645 191.444 663.882 191.444 Q666.335 191.444 668.627 190.842 Q670.942 190.24 673.21 189.036 L673.21 193.064 Q670.919 194.036 668.511 194.545 Q666.104 195.055 663.627 195.055 Q657.423 195.055 653.789 191.444 Q650.178 187.833 650.178 181.675 Q650.178 175.309 653.604 171.583 Q657.053 167.833 662.886 167.833 Q668.118 167.833 671.15 171.212 Q674.206 174.569 674.206 180.356 M669.946 179.106 Q669.9 175.61 667.979 173.527 Q666.081 171.444 662.932 171.444 Q659.368 171.444 657.215 173.458 Q655.085 175.471 654.761 179.129 L669.946 179.106 Z" fill="#000000" fill-rule="nonzero" fill-opacity="1"></path></svg>