<?xml version="1.0" encoding="utf-8"?>
<svg xmlns="http://www.w3.org/2000/svg" xmlns:xlink="http://www.w3.org/1999/xlink" width="450" height="250" viewBox="0 0 1800 1000">
<defs>
  <clipPath id="clip140">
    <rect x="0" y="0" width="1800" height="1000"/>
  </clipPath>
</defs>
<path clip-path="url(#clip140)" d="M0 1000 L1800 1000 L1800 0 L0 0  Z" fill="#ffffff" fill-rule="evenodd" fill-opacity="1"/>
<defs>
  <clipPath id="clip141">
    <rect x="161" y="47" width="1592" height="797"/>
  </clipPath>
</defs>
<path clip-path="url(#clip140)" d="M191.201 842.86 L1752.76 842.86 L1752.76 47.2441 L191.201 47.2441  Z" fill="#ffffff" fill-rule="evenodd" fill-opacity="1"/>
<defs>
  <clipPath id="clip142">
    <rect x="191" y="47" width="1563" height="797"/>
  </clipPath>
</defs>
<polyline clip-path="url(#clip142)" style="stroke:#000000; stroke-linecap:round; stroke-linejoin:round; stroke-width:2; stroke-opacity:0.1; fill:none" points="235.396,842.86 235.396,47.2441 "/>
<polyline clip-path="url(#clip142)" style="stroke:#000000; stroke-linecap:round; stroke-linejoin:round; stroke-width:2; stroke-opacity:0.1; fill:none" points="603.687,842.86 603.687,47.2441 "/>
<polyline clip-path="url(#clip142)" style="stroke:#000000; stroke-linecap:round; stroke-linejoin:round; stroke-width:2; stroke-opacity:0.1; fill:none" points="971.978,842.86 971.978,47.2441 "/>
<polyline clip-path="url(#clip142)" style="stroke:#000000; stroke-linecap:round; stroke-linejoin:round; stroke-width:2; stroke-opacity:0.1; fill:none" points="1340.27,842.86 1340.27,47.2441 "/>
<polyline clip-path="url(#clip142)" style="stroke:#000000; stroke-linecap:round; stroke-linejoin:round; stroke-width:2; stroke-opacity:0.1; fill:none" points="1708.56,842.86 1708.56,47.2441 "/>
<polyline clip-path="url(#clip142)" style="stroke:#000000; stroke-linecap:round; stroke-linejoin:round; stroke-width:2; stroke-opacity:0.1; fill:none" points="191.201,708.554 1752.76,708.554 "/>
<polyline clip-path="url(#clip142)" style="stroke:#000000; stroke-linecap:round; stroke-linejoin:round; stroke-width:2; stroke-opacity:0.1; fill:none" points="191.201,548.856 1752.76,548.856 "/>
<polyline clip-path="url(#clip142)" style="stroke:#000000; stroke-linecap:round; stroke-linejoin:round; stroke-width:2; stroke-opacity:0.1; fill:none" points="191.201,389.158 1752.76,389.158 "/>
<polyline clip-path="url(#clip142)" style="stroke:#000000; stroke-linecap:round; stroke-linejoin:round; stroke-width:2; stroke-opacity:0.1; fill:none" points="191.201,229.46 1752.76,229.46 "/>
<polyline clip-path="url(#clip142)" style="stroke:#000000; stroke-linecap:round; stroke-linejoin:round; stroke-width:2; stroke-opacity:0.1; fill:none" points="191.201,69.7615 1752.76,69.7615 "/>
<polyline clip-path="url(#clip140)" style="stroke:#000000; stroke-linecap:round; stroke-linejoin:round; stroke-width:4; stroke-opacity:1; fill:none" points="191.201,842.86 1752.76,842.86 "/>
<polyline clip-path="url(#clip140)" style="stroke:#000000; stroke-linecap:round; stroke-linejoin:round; stroke-width:4; stroke-opacity:1; fill:none" points="235.396,842.86 235.396,823.962 "/>
<polyline clip-path="url(#clip140)" style="stroke:#000000; stroke-linecap:round; stroke-linejoin:round; stroke-width:4; stroke-opacity:1; fill:none" points="603.687,842.86 603.687,823.962 "/>
<polyline clip-path="url(#clip140)" style="stroke:#000000; stroke-linecap:round; stroke-linejoin:round; stroke-width:4; stroke-opacity:1; fill:none" points="971.978,842.86 971.978,823.962 "/>
<polyline clip-path="url(#clip140)" style="stroke:#000000; stroke-linecap:round; stroke-linejoin:round; stroke-width:4; stroke-opacity:1; fill:none" points="1340.27,842.86 1340.27,823.962 "/>
<polyline clip-path="url(#clip140)" style="stroke:#000000; stroke-linecap:round; stroke-linejoin:round; stroke-width:4; stroke-opacity:1; fill:none" points="1708.56,842.86 1708.56,823.962 "/>
<path clip-path="url(#clip140)" d="M235.396 868.979 Q231.785 868.979 229.956 872.543 Q228.151 876.085 228.151 883.215 Q228.151 890.321 229.956 893.886 Q231.785 897.427 235.396 897.427 Q239.03 897.427 240.836 893.886 Q242.664 890.321 242.664 883.215 Q242.664 876.085 240.836 872.543 Q239.03 868.979 235.396 868.979 M235.396 865.275 Q241.206 865.275 244.262 869.881 Q247.34 874.465 247.34 883.215 Q247.34 891.941 244.262 896.548 Q241.206 901.131 235.396 901.131 Q229.586 901.131 226.507 896.548 Q223.452 891.941 223.452 883.215 Q223.452 874.465 226.507 869.881 Q229.586 865.275 235.396 865.275 Z" fill="#000000" fill-rule="nonzero" fill-opacity="1" /><path clip-path="url(#clip140)" d="M578.375 896.525 L586.014 896.525 L586.014 870.159 L577.704 871.826 L577.704 867.567 L585.967 865.9 L590.643 865.9 L590.643 896.525 L598.282 896.525 L598.282 900.46 L578.375 900.46 L578.375 896.525 Z" fill="#000000" fill-rule="nonzero" fill-opacity="1" /><path clip-path="url(#clip140)" d="M617.726 868.979 Q614.115 868.979 612.287 872.543 Q610.481 876.085 610.481 883.215 Q610.481 890.321 612.287 893.886 Q614.115 897.427 617.726 897.427 Q621.361 897.427 623.166 893.886 Q624.995 890.321 624.995 883.215 Q624.995 876.085 623.166 872.543 Q621.361 868.979 617.726 868.979 M617.726 865.275 Q623.537 865.275 626.592 869.881 Q629.671 874.465 629.671 883.215 Q629.671 891.941 626.592 896.548 Q623.537 901.131 617.726 901.131 Q611.916 901.131 608.838 896.548 Q605.782 891.941 605.782 883.215 Q605.782 874.465 608.838 869.881 Q611.916 865.275 617.726 865.275 Z" fill="#000000" fill-rule="nonzero" fill-opacity="1" /><path clip-path="url(#clip140)" d="M950.752 896.525 L967.071 896.525 L967.071 900.46 L945.127 900.46 L945.127 896.525 Q947.789 893.77 952.372 889.14 Q956.979 884.488 958.159 883.145 Q960.404 880.622 961.284 878.886 Q962.187 877.127 962.187 875.437 Q962.187 872.682 960.242 870.946 Q958.321 869.21 955.219 869.21 Q953.02 869.21 950.567 869.974 Q948.136 870.738 945.358 872.289 L945.358 867.567 Q948.182 866.432 950.636 865.854 Q953.09 865.275 955.127 865.275 Q960.497 865.275 963.691 867.96 Q966.886 870.645 966.886 875.136 Q966.886 877.266 966.076 879.187 Q965.289 881.085 963.182 883.678 Q962.603 884.349 959.502 887.566 Q956.4 890.761 950.752 896.525 Z" fill="#000000" fill-rule="nonzero" fill-opacity="1" /><path clip-path="url(#clip140)" d="M986.886 868.979 Q983.275 868.979 981.446 872.543 Q979.64 876.085 979.64 883.215 Q979.64 890.321 981.446 893.886 Q983.275 897.427 986.886 897.427 Q990.52 897.427 992.326 893.886 Q994.154 890.321 994.154 883.215 Q994.154 876.085 992.326 872.543 Q990.52 868.979 986.886 868.979 M986.886 865.275 Q992.696 865.275 995.751 869.881 Q998.83 874.465 998.83 883.215 Q998.83 891.941 995.751 896.548 Q992.696 901.131 986.886 901.131 Q981.076 901.131 977.997 896.548 Q974.941 891.941 974.941 883.215 Q974.941 874.465 977.997 869.881 Q981.076 865.275 986.886 865.275 Z" fill="#000000" fill-rule="nonzero" fill-opacity="1" /><path clip-path="url(#clip140)" d="M1329.11 881.826 Q1332.47 882.543 1334.34 884.812 Q1336.24 887.08 1336.24 890.414 Q1336.24 895.529 1332.72 898.33 Q1329.2 901.131 1322.72 901.131 Q1320.55 901.131 1318.23 900.691 Q1315.94 900.275 1313.49 899.418 L1313.49 894.904 Q1315.43 896.039 1317.75 896.617 Q1320.06 897.196 1322.58 897.196 Q1326.98 897.196 1329.27 895.46 Q1331.59 893.724 1331.59 890.414 Q1331.59 887.358 1329.44 885.645 Q1327.31 883.909 1323.49 883.909 L1319.46 883.909 L1319.46 880.066 L1323.67 880.066 Q1327.12 880.066 1328.95 878.701 Q1330.78 877.312 1330.78 874.719 Q1330.78 872.057 1328.88 870.645 Q1327.01 869.21 1323.49 869.21 Q1321.57 869.21 1319.37 869.627 Q1317.17 870.043 1314.53 870.923 L1314.53 866.756 Q1317.19 866.016 1319.51 865.645 Q1321.84 865.275 1323.9 865.275 Q1329.23 865.275 1332.33 867.705 Q1335.43 870.113 1335.43 874.233 Q1335.43 877.103 1333.79 879.094 Q1332.14 881.062 1329.11 881.826 Z" fill="#000000" fill-rule="nonzero" fill-opacity="1" /><path clip-path="url(#clip140)" d="M1355.11 868.979 Q1351.5 868.979 1349.67 872.543 Q1347.86 876.085 1347.86 883.215 Q1347.86 890.321 1349.67 893.886 Q1351.5 897.427 1355.11 897.427 Q1358.74 897.427 1360.55 893.886 Q1362.38 890.321 1362.38 883.215 Q1362.38 876.085 1360.55 872.543 Q1358.74 868.979 1355.11 868.979 M1355.11 865.275 Q1360.92 865.275 1363.97 869.881 Q1367.05 874.465 1367.05 883.215 Q1367.05 891.941 1363.97 896.548 Q1360.92 901.131 1355.11 901.131 Q1349.3 901.131 1346.22 896.548 Q1343.16 891.941 1343.16 883.215 Q1343.16 874.465 1346.22 869.881 Q1349.3 865.275 1355.11 865.275 Z" fill="#000000" fill-rule="nonzero" fill-opacity="1" /><path clip-path="url(#clip140)" d="M1696.73 869.974 L1684.93 888.423 L1696.73 888.423 L1696.73 869.974 M1695.51 865.9 L1701.39 865.9 L1701.39 888.423 L1706.32 888.423 L1706.32 892.312 L1701.39 892.312 L1701.39 900.46 L1696.73 900.46 L1696.73 892.312 L1681.13 892.312 L1681.13 887.798 L1695.51 865.9 Z" fill="#000000" fill-rule="nonzero" fill-opacity="1" /><path clip-path="url(#clip140)" d="M1724.05 868.979 Q1720.44 868.979 1718.61 872.543 Q1716.8 876.085 1716.8 883.215 Q1716.8 890.321 1718.61 893.886 Q1720.44 897.427 1724.05 897.427 Q1727.68 897.427 1729.49 893.886 Q1731.32 890.321 1731.32 883.215 Q1731.32 876.085 1729.49 872.543 Q1727.68 868.979 1724.05 868.979 M1724.05 865.275 Q1729.86 865.275 1732.91 869.881 Q1735.99 874.465 1735.99 883.215 Q1735.99 891.941 1732.91 896.548 Q1729.86 901.131 1724.05 901.131 Q1718.24 901.131 1715.16 896.548 Q1712.1 891.941 1712.1 883.215 Q1712.1 874.465 1715.16 869.881 Q1718.24 865.275 1724.05 865.275 Z" fill="#000000" fill-rule="nonzero" fill-opacity="1" /><path clip-path="url(#clip140)" d="M580.734 931.925 L580.734 937.4 Q578.251 936.031 575.737 935.363 Q573.254 934.663 570.708 934.663 Q565.01 934.663 561.859 938.291 Q558.708 941.888 558.708 948.413 Q558.708 954.937 561.859 958.566 Q565.01 962.162 570.708 962.162 Q573.254 962.162 575.737 961.494 Q578.251 960.794 580.734 959.425 L580.734 964.836 Q578.283 965.982 575.641 966.555 Q573.031 967.128 570.071 967.128 Q562.019 967.128 557.276 962.067 Q552.534 957.006 552.534 948.413 Q552.534 939.691 557.308 934.694 Q562.114 929.697 570.453 929.697 Q573.159 929.697 575.737 930.27 Q578.315 930.811 580.734 931.925 Z" fill="#000000" fill-rule="nonzero" fill-opacity="1" /><path clip-path="url(#clip140)" d="M604.732 934.663 Q600.022 934.663 597.285 938.355 Q594.547 942.015 594.547 948.413 Q594.547 954.81 597.253 958.502 Q599.99 962.162 604.732 962.162 Q609.411 962.162 612.149 958.47 Q614.886 954.778 614.886 948.413 Q614.886 942.079 612.149 938.387 Q609.411 934.663 604.732 934.663 M604.732 929.697 Q612.371 929.697 616.732 934.663 Q621.092 939.628 621.092 948.413 Q621.092 957.165 616.732 962.162 Q612.371 967.128 604.732 967.128 Q597.062 967.128 592.701 962.162 Q588.373 957.165 588.373 948.413 Q588.373 939.628 592.701 934.663 Q597.062 929.697 604.732 929.697 Z" fill="#000000" fill-rule="nonzero" fill-opacity="1" /><path clip-path="url(#clip140)" d="M647.001 948.285 Q639.903 948.285 637.166 949.908 Q634.428 951.532 634.428 955.447 Q634.428 958.566 636.466 960.412 Q638.534 962.226 642.067 962.226 Q646.937 962.226 649.865 958.789 Q652.825 955.319 652.825 949.59 L652.825 948.285 L647.001 948.285 M658.682 945.866 L658.682 966.205 L652.825 966.205 L652.825 960.794 Q650.82 964.04 647.828 965.6 Q644.836 967.128 640.508 967.128 Q635.033 967.128 631.787 964.072 Q628.572 960.985 628.572 955.829 Q628.572 949.813 632.582 946.757 Q636.625 943.702 644.614 943.702 L652.825 943.702 L652.825 943.129 Q652.825 939.087 650.152 936.891 Q647.51 934.663 642.704 934.663 Q639.648 934.663 636.752 935.395 Q633.856 936.127 631.182 937.591 L631.182 932.18 Q634.397 930.939 637.42 930.334 Q640.444 929.697 643.309 929.697 Q651.043 929.697 654.862 933.708 Q658.682 937.718 658.682 945.866 Z" fill="#000000" fill-rule="nonzero" fill-opacity="1" /><path clip-path="url(#clip140)" d="M691.402 936.031 Q690.415 935.458 689.237 935.204 Q688.091 934.917 686.691 934.917 Q681.726 934.917 679.052 938.164 Q676.41 941.378 676.41 947.426 L676.41 966.205 L670.522 966.205 L670.522 930.557 L676.41 930.557 L676.41 936.095 Q678.256 932.848 681.216 931.289 Q684.176 929.697 688.41 929.697 Q689.014 929.697 689.746 929.793 Q690.479 929.856 691.37 930.016 L691.402 936.031 Z" fill="#000000" fill-rule="nonzero" fill-opacity="1" /><path clip-path="url(#clip140)" d="M720.27 931.607 L720.27 937.145 Q717.787 935.872 715.114 935.235 Q712.44 934.599 709.576 934.599 Q705.215 934.599 703.019 935.936 Q700.855 937.273 700.855 939.946 Q700.855 941.983 702.414 943.161 Q703.974 944.307 708.684 945.357 L710.69 945.803 Q716.928 947.139 719.538 949.59 Q722.18 952.009 722.18 956.37 Q722.18 961.335 718.233 964.231 Q714.318 967.128 707.443 967.128 Q704.579 967.128 701.459 966.555 Q698.372 966.014 694.935 964.9 L694.935 958.852 Q698.181 960.539 701.332 961.399 Q704.483 962.226 707.57 962.226 Q711.708 962.226 713.936 960.826 Q716.164 959.393 716.164 956.815 Q716.164 954.428 714.541 953.155 Q712.949 951.882 707.507 950.704 L705.47 950.227 Q700.027 949.081 697.608 946.726 Q695.189 944.338 695.189 940.201 Q695.189 935.172 698.754 932.435 Q702.319 929.697 708.875 929.697 Q712.122 929.697 714.987 930.175 Q717.851 930.652 720.27 931.607 Z" fill="#000000" fill-rule="nonzero" fill-opacity="1" /><path clip-path="url(#clip140)" d="M761.997 946.917 L761.997 949.781 L735.07 949.781 Q735.452 955.829 738.699 959.011 Q741.977 962.162 747.802 962.162 Q751.176 962.162 754.327 961.335 Q757.509 960.507 760.629 958.852 L760.629 964.39 Q757.478 965.727 754.167 966.427 Q750.857 967.128 747.452 967.128 Q738.922 967.128 733.924 962.162 Q728.959 957.197 728.959 948.731 Q728.959 939.978 733.67 934.854 Q738.412 929.697 746.433 929.697 Q753.626 929.697 757.796 934.344 Q761.997 938.959 761.997 946.917 M756.141 945.198 Q756.077 940.392 753.435 937.527 Q750.825 934.663 746.497 934.663 Q741.595 934.663 738.635 937.432 Q735.707 940.201 735.261 945.23 L756.141 945.198 Z" fill="#000000" fill-rule="nonzero" fill-opacity="1" /><path clip-path="url(#clip140)" d="M815.055 931.607 L815.055 937.145 Q812.573 935.872 809.899 935.235 Q807.226 934.599 804.361 934.599 Q800.001 934.599 797.804 935.936 Q795.64 937.273 795.64 939.946 Q795.64 941.983 797.2 943.161 Q798.759 944.307 803.47 945.357 L805.475 945.803 Q811.713 947.139 814.323 949.59 Q816.965 952.009 816.965 956.37 Q816.965 961.335 813.018 964.231 Q809.103 967.128 802.229 967.128 Q799.364 967.128 796.245 966.555 Q793.157 966.014 789.72 964.9 L789.72 958.852 Q792.966 960.539 796.117 961.399 Q799.268 962.226 802.356 962.226 Q806.494 962.226 808.722 960.826 Q810.95 959.393 810.95 956.815 Q810.95 954.428 809.326 953.155 Q807.735 951.882 802.292 950.704 L800.255 950.227 Q794.812 949.081 792.393 946.726 Q789.975 944.338 789.975 940.201 Q789.975 935.172 793.539 932.435 Q797.104 929.697 803.661 929.697 Q806.907 929.697 809.772 930.175 Q812.636 930.652 815.055 931.607 Z" fill="#000000" fill-rule="nonzero" fill-opacity="1" /><path clip-path="url(#clip140)" d="M851.945 931.925 L851.945 937.4 Q849.462 936.031 846.948 935.363 Q844.465 934.663 841.919 934.663 Q836.221 934.663 833.07 938.291 Q829.919 941.888 829.919 948.413 Q829.919 954.937 833.07 958.566 Q836.221 962.162 841.919 962.162 Q844.465 962.162 846.948 961.494 Q849.462 960.794 851.945 959.425 L851.945 964.836 Q849.494 965.982 846.852 966.555 Q844.242 967.128 841.282 967.128 Q833.23 967.128 828.487 962.067 Q823.745 957.006 823.745 948.413 Q823.745 939.691 828.519 934.694 Q833.325 929.697 841.664 929.697 Q844.369 929.697 846.948 930.27 Q849.526 930.811 851.945 931.925 Z" fill="#000000" fill-rule="nonzero" fill-opacity="1" /><path clip-path="url(#clip140)" d="M878.331 948.285 Q871.233 948.285 868.496 949.908 Q865.758 951.532 865.758 955.447 Q865.758 958.566 867.795 960.412 Q869.864 962.226 873.397 962.226 Q878.267 962.226 881.195 958.789 Q884.155 955.319 884.155 949.59 L884.155 948.285 L878.331 948.285 M890.012 945.866 L890.012 966.205 L884.155 966.205 L884.155 960.794 Q882.15 964.04 879.158 965.6 Q876.166 967.128 871.838 967.128 Q866.363 967.128 863.116 964.072 Q859.902 960.985 859.902 955.829 Q859.902 949.813 863.912 946.757 Q867.954 943.702 875.943 943.702 L884.155 943.702 L884.155 943.129 Q884.155 939.087 881.482 936.891 Q878.84 934.663 874.034 934.663 Q870.978 934.663 868.082 935.395 Q865.185 936.127 862.512 937.591 L862.512 932.18 Q865.726 930.939 868.75 930.334 Q871.774 929.697 874.638 929.697 Q882.373 929.697 886.192 933.708 Q890.012 937.718 890.012 945.866 Z" fill="#000000" fill-rule="nonzero" fill-opacity="1" /><path clip-path="url(#clip140)" d="M902.075 916.679 L907.931 916.679 L907.931 966.205 L902.075 966.205 L902.075 916.679 Z" fill="#000000" fill-rule="nonzero" fill-opacity="1" /><path clip-path="url(#clip140)" d="M950.677 946.917 L950.677 949.781 L923.75 949.781 Q924.132 955.829 927.378 959.011 Q930.657 962.162 936.481 962.162 Q939.855 962.162 943.006 961.335 Q946.189 960.507 949.308 958.852 L949.308 964.39 Q946.157 965.727 942.847 966.427 Q939.537 967.128 936.131 967.128 Q927.601 967.128 922.604 962.162 Q917.639 957.197 917.639 948.731 Q917.639 939.978 922.349 934.854 Q927.092 929.697 935.113 929.697 Q942.306 929.697 946.475 934.344 Q950.677 938.959 950.677 946.917 M944.82 945.198 Q944.757 940.392 942.115 937.527 Q939.505 934.663 935.176 934.663 Q930.275 934.663 927.315 937.432 Q924.386 940.201 923.941 945.23 L944.82 945.198 Z" fill="#000000" fill-rule="nonzero" fill-opacity="1" /><path clip-path="url(#clip140)" d="M981.009 930.557 L986.866 930.557 L986.866 966.205 L981.009 966.205 L981.009 930.557 M981.009 916.679 L986.866 916.679 L986.866 924.096 L981.009 924.096 L981.009 916.679 Z" fill="#000000" fill-rule="nonzero" fill-opacity="1" /><path clip-path="url(#clip140)" d="M1004.91 920.435 L1004.91 930.557 L1016.98 930.557 L1016.98 935.108 L1004.91 935.108 L1004.91 954.46 Q1004.91 958.82 1006.09 960.062 Q1007.3 961.303 1010.96 961.303 L1016.98 961.303 L1016.98 966.205 L1010.96 966.205 Q1004.18 966.205 1001.6 963.69 Q999.024 961.144 999.024 954.46 L999.024 935.108 L994.727 935.108 L994.727 930.557 L999.024 930.557 L999.024 920.435 L1004.91 920.435 Z" fill="#000000" fill-rule="nonzero" fill-opacity="1" /><path clip-path="url(#clip140)" d="M1055.17 946.917 L1055.17 949.781 L1028.24 949.781 Q1028.62 955.829 1031.87 959.011 Q1035.15 962.162 1040.97 962.162 Q1044.35 962.162 1047.5 961.335 Q1050.68 960.507 1053.8 958.852 L1053.8 964.39 Q1050.65 965.727 1047.34 966.427 Q1044.03 967.128 1040.62 967.128 Q1032.09 967.128 1027.1 962.162 Q1022.13 957.197 1022.13 948.731 Q1022.13 939.978 1026.84 934.854 Q1031.58 929.697 1039.61 929.697 Q1046.8 929.697 1050.97 934.344 Q1055.17 938.959 1055.17 946.917 M1049.31 945.198 Q1049.25 940.392 1046.61 937.527 Q1044 934.663 1039.67 934.663 Q1034.77 934.663 1031.81 937.432 Q1028.88 940.201 1028.43 945.23 L1049.31 945.198 Z" fill="#000000" fill-rule="nonzero" fill-opacity="1" /><path clip-path="url(#clip140)" d="M1085.44 936.031 Q1084.45 935.458 1083.27 935.204 Q1082.13 934.917 1080.73 934.917 Q1075.76 934.917 1073.09 938.164 Q1070.45 941.378 1070.45 947.426 L1070.45 966.205 L1064.56 966.205 L1064.56 930.557 L1070.45 930.557 L1070.45 936.095 Q1072.29 932.848 1075.25 931.289 Q1078.21 929.697 1082.45 929.697 Q1083.05 929.697 1083.78 929.793 Q1084.52 929.856 1085.41 930.016 L1085.44 936.031 Z" fill="#000000" fill-rule="nonzero" fill-opacity="1" /><path clip-path="url(#clip140)" d="M1107.78 948.285 Q1100.68 948.285 1097.95 949.908 Q1095.21 951.532 1095.21 955.447 Q1095.21 958.566 1097.25 960.412 Q1099.32 962.226 1102.85 962.226 Q1107.72 962.226 1110.65 958.789 Q1113.61 955.319 1113.61 949.59 L1113.61 948.285 L1107.78 948.285 M1119.46 945.866 L1119.46 966.205 L1113.61 966.205 L1113.61 960.794 Q1111.6 964.04 1108.61 965.6 Q1105.62 967.128 1101.29 967.128 Q1095.81 967.128 1092.57 964.072 Q1089.35 960.985 1089.35 955.829 Q1089.35 949.813 1093.36 946.757 Q1097.41 943.702 1105.4 943.702 L1113.61 943.702 L1113.61 943.129 Q1113.61 939.087 1110.93 936.891 Q1108.29 934.663 1103.49 934.663 Q1100.43 934.663 1097.53 935.395 Q1094.64 936.127 1091.96 937.591 L1091.96 932.18 Q1095.18 930.939 1098.2 930.334 Q1101.23 929.697 1104.09 929.697 Q1111.82 929.697 1115.64 933.708 Q1119.46 937.718 1119.46 945.866 Z" fill="#000000" fill-rule="nonzero" fill-opacity="1" /><path clip-path="url(#clip140)" d="M1137.32 920.435 L1137.32 930.557 L1149.38 930.557 L1149.38 935.108 L1137.32 935.108 L1137.32 954.46 Q1137.32 958.82 1138.5 960.062 Q1139.71 961.303 1143.37 961.303 L1149.38 961.303 L1149.38 966.205 L1143.37 966.205 Q1136.59 966.205 1134.01 963.69 Q1131.43 961.144 1131.43 954.46 L1131.43 935.108 L1127.13 935.108 L1127.13 930.557 L1131.43 930.557 L1131.43 920.435 L1137.32 920.435 Z" fill="#000000" fill-rule="nonzero" fill-opacity="1" /><path clip-path="url(#clip140)" d="M1157.08 930.557 L1162.94 930.557 L1162.94 966.205 L1157.08 966.205 L1157.08 930.557 M1157.08 916.679 L1162.94 916.679 L1162.94 924.096 L1157.08 924.096 L1157.08 916.679 Z" fill="#000000" fill-rule="nonzero" fill-opacity="1" /><path clip-path="url(#clip140)" d="M1189.01 934.663 Q1184.3 934.663 1181.56 938.355 Q1178.82 942.015 1178.82 948.413 Q1178.82 954.81 1181.53 958.502 Q1184.27 962.162 1189.01 962.162 Q1193.69 962.162 1196.42 958.47 Q1199.16 954.778 1199.16 948.413 Q1199.16 942.079 1196.42 938.387 Q1193.69 934.663 1189.01 934.663 M1189.01 929.697 Q1196.65 929.697 1201.01 934.663 Q1205.37 939.628 1205.37 948.413 Q1205.37 957.165 1201.01 962.162 Q1196.65 967.128 1189.01 967.128 Q1181.34 967.128 1176.98 962.162 Q1172.65 957.165 1172.65 948.413 Q1172.65 939.628 1176.98 934.663 Q1181.34 929.697 1189.01 929.697 Z" fill="#000000" fill-rule="nonzero" fill-opacity="1" /><path clip-path="url(#clip140)" d="M1244.71 944.689 L1244.71 966.205 L1238.85 966.205 L1238.85 944.88 Q1238.85 939.819 1236.88 937.304 Q1234.91 934.79 1230.96 934.79 Q1226.22 934.79 1223.48 937.814 Q1220.74 940.837 1220.74 946.057 L1220.74 966.205 L1214.85 966.205 L1214.85 930.557 L1220.74 930.557 L1220.74 936.095 Q1222.84 932.88 1225.68 931.289 Q1228.54 929.697 1232.26 929.697 Q1238.41 929.697 1241.56 933.517 Q1244.71 937.304 1244.71 944.689 Z" fill="#000000" fill-rule="nonzero" fill-opacity="1" /><path clip-path="url(#clip140)" d="M1279.12 931.607 L1279.12 937.145 Q1276.63 935.872 1273.96 935.235 Q1271.29 934.599 1268.42 934.599 Q1264.06 934.599 1261.86 935.936 Q1259.7 937.273 1259.7 939.946 Q1259.7 941.983 1261.26 943.161 Q1262.82 944.307 1267.53 945.357 L1269.54 945.803 Q1275.77 947.139 1278.38 949.59 Q1281.03 952.009 1281.03 956.37 Q1281.03 961.335 1277.08 964.231 Q1273.16 967.128 1266.29 967.128 Q1263.42 967.128 1260.3 966.555 Q1257.22 966.014 1253.78 964.9 L1253.78 958.852 Q1257.03 960.539 1260.18 961.399 Q1263.33 962.226 1266.42 962.226 Q1270.55 962.226 1272.78 960.826 Q1275.01 959.393 1275.01 956.815 Q1275.01 954.428 1273.39 953.155 Q1271.79 951.882 1266.35 950.704 L1264.32 950.227 Q1258.87 949.081 1256.45 946.726 Q1254.03 944.338 1254.03 940.201 Q1254.03 935.172 1257.6 932.435 Q1261.16 929.697 1267.72 929.697 Q1270.97 929.697 1273.83 930.175 Q1276.7 930.652 1279.12 931.607 Z" fill="#000000" fill-rule="nonzero" fill-opacity="1" /><path clip-path="url(#clip140)" d="M1361.06 921.889 Q1361.06 922.308 1360.97 922.598 Q1360.87 922.856 1360.64 922.984 Q1360.42 923.113 1360.29 923.145 Q1360.16 923.178 1359.87 923.21 Q1358.49 923.339 1357.52 923.564 Q1356.59 923.79 1354.27 924.949 Q1351.98 926.108 1349.11 928.202 L1337.59 937.123 L1335.65 938.636 Q1335.65 938.733 1335.72 938.926 Q1335.78 939.087 1335.85 939.313 Q1335.94 939.506 1335.97 939.57 L1345.35 961.181 Q1346.09 962.92 1346.99 963.532 Q1347.89 964.143 1349.92 964.176 Q1350.24 964.176 1350.37 964.208 Q1350.53 964.208 1350.76 964.272 Q1351.01 964.305 1351.11 964.466 Q1351.24 964.627 1351.24 964.884 Q1351.24 966.205 1350.05 966.205 Q1349.31 966.205 1346.8 966.108 Q1344.28 966.011 1343.58 966.011 Q1342.25 966.011 1339.55 966.108 Q1336.84 966.205 1335.52 966.205 Q1334.59 966.205 1334.59 965.464 Q1334.59 964.852 1334.82 964.562 Q1335.07 964.24 1335.3 964.208 Q1335.52 964.176 1336.04 964.176 Q1336.43 964.176 1336.84 964.143 Q1337.3 964.079 1337.94 963.918 Q1338.62 963.725 1339.03 963.274 Q1339.49 962.791 1339.49 962.115 Q1339.49 961.567 1338.68 959.796 L1331.05 942.05 L1321.22 949.715 L1318.58 960.086 Q1318.52 960.472 1318.36 961.148 Q1318.2 961.825 1318.07 962.308 Q1317.97 962.791 1317.97 962.984 Q1317.97 963.403 1318.23 963.66 Q1318.52 963.918 1319.23 964.047 Q1319.94 964.143 1320.48 964.176 Q1321.06 964.176 1322.26 964.176 Q1323.74 964.176 1323.99 964.433 Q1324.12 964.594 1324.12 964.884 Q1324.12 965.335 1323.99 965.657 Q1323.87 965.947 1323.61 966.044 Q1323.38 966.14 1323.22 966.172 Q1323.06 966.205 1322.8 966.205 Q1322.13 966.205 1320.68 966.14 Q1319.26 966.076 1318.52 966.076 L1314.3 966.011 L1305.93 966.205 Q1304.93 966.205 1304.93 965.4 Q1304.93 964.788 1305.19 964.53 Q1305.44 964.24 1305.73 964.208 Q1306.02 964.176 1306.76 964.176 Q1308.37 964.176 1309.34 964.079 Q1310.31 963.982 1310.92 963.854 Q1311.56 963.693 1311.88 963.242 Q1312.24 962.791 1312.4 962.404 Q1312.56 961.986 1312.79 961.052 L1321.61 925.625 Q1321.87 924.562 1321.87 924.401 Q1321.87 923.854 1321.55 923.661 Q1321.26 923.435 1320.42 923.339 Q1318.81 923.21 1317.59 923.21 Q1316.78 923.21 1316.46 923.178 Q1316.17 923.145 1315.91 922.984 Q1315.69 922.791 1315.69 922.405 Q1315.69 921.149 1317.01 921.149 L1325.51 921.342 L1333.95 921.149 Q1334.88 921.149 1334.88 921.889 Q1334.88 922.823 1334.43 923.017 Q1334.01 923.21 1332.63 923.21 Q1330.21 923.21 1329.11 923.532 Q1328.05 923.822 1327.73 924.337 Q1327.44 924.82 1327.09 926.237 L1321.8 947.396 L1347.54 927.622 Q1349.92 925.625 1349.92 924.595 Q1349.92 923.918 1349.44 923.629 Q1348.99 923.306 1347.86 923.21 Q1347.05 923.081 1347.05 922.469 Q1347.05 921.857 1347.28 921.567 Q1347.54 921.245 1347.73 921.213 Q1347.96 921.149 1348.31 921.149 Q1349.5 921.149 1351.98 921.245 Q1354.46 921.342 1355.65 921.342 Q1356.46 921.342 1358.04 921.245 Q1359.61 921.149 1360.32 921.149 Q1360.68 921.149 1360.87 921.406 Q1361.06 921.632 1361.06 921.889 Z" fill="#000000" fill-rule="nonzero" fill-opacity="1" /><path clip-path="url(#clip140)" d="M1384.55 961.893 Q1384.55 963.155 1383.92 963.831 Q1383.29 964.485 1382.43 964.485 Q1381.73 964.485 1381.35 964.079 Q1380.99 963.674 1380.99 963.133 Q1380.99 962.343 1381.62 961.712 Q1382.27 961.081 1383.22 961.058 Q1382.9 960.224 1382.07 959.728 Q1381.23 959.21 1380.49 959.075 Q1379.77 958.939 1379.05 958.939 Q1377.63 958.939 1376.55 959.39 Q1375.46 959.841 1374.92 960.54 Q1374.38 961.216 1374.13 961.87 Q1373.89 962.524 1373.89 963.087 Q1373.89 963.583 1374 963.989 Q1374.13 964.372 1374.45 964.666 Q1374.76 964.936 1374.99 965.116 Q1375.24 965.297 1375.78 965.455 Q1376.32 965.612 1376.55 965.68 Q1376.77 965.725 1377.4 965.86 Q1378.71 966.131 1379.3 966.289 Q1379.88 966.424 1380.65 966.807 Q1381.44 967.19 1382.02 967.799 Q1383.44 969.219 1383.44 971.181 Q1383.44 971.902 1383.2 972.781 Q1382.97 973.661 1382.32 974.765 Q1381.66 975.87 1380.67 976.749 Q1379.68 977.628 1377.97 978.237 Q1376.27 978.846 1374.16 978.846 Q1371.2 978.846 1369.38 977.606 Q1367.55 976.343 1367.55 974.359 Q1367.55 972.917 1368.34 972.128 Q1369.13 971.316 1370.14 971.316 Q1370.91 971.316 1371.38 971.744 Q1371.86 972.15 1371.86 972.917 Q1371.86 973.954 1371.02 974.743 Q1370.19 975.532 1368.95 975.374 Q1370.01 977.809 1374.2 977.809 Q1375.78 977.809 1377 977.403 Q1378.24 976.975 1378.91 976.388 Q1379.61 975.78 1380.06 975.036 Q1380.51 974.292 1380.65 973.728 Q1380.81 973.165 1380.81 972.736 Q1380.81 971.992 1380.51 971.429 Q1380.22 970.865 1379.81 970.55 Q1379.43 970.211 1378.69 969.941 Q1377.97 969.648 1377.45 969.535 Q1376.93 969.422 1376 969.242 Q1375.58 969.152 1375.31 969.107 Q1375.04 969.039 1374.47 968.859 Q1373.93 968.656 1373.55 968.453 Q1373.19 968.25 1372.71 967.889 Q1372.24 967.529 1371.95 967.1 Q1371.65 966.672 1371.45 966.041 Q1371.25 965.409 1371.25 964.666 Q1371.25 963.989 1371.45 963.178 Q1371.68 962.366 1372.24 961.419 Q1372.83 960.472 1373.66 959.706 Q1374.49 958.939 1375.89 958.443 Q1377.31 957.925 1379.05 957.925 Q1381.57 957.925 1383.06 959.097 Q1384.55 960.247 1384.55 961.893 Z" fill="#000000" fill-rule="nonzero" fill-opacity="1" /><polyline clip-path="url(#clip140)" style="stroke:#000000; stroke-linecap:round; stroke-linejoin:round; stroke-width:4; stroke-opacity:1; fill:none" points="191.201,842.86 191.201,47.2441 "/>
<polyline clip-path="url(#clip140)" style="stroke:#000000; stroke-linecap:round; stroke-linejoin:round; stroke-width:4; stroke-opacity:1; fill:none" points="191.201,708.554 210.099,708.554 "/>
<polyline clip-path="url(#clip140)" style="stroke:#000000; stroke-linecap:round; stroke-linejoin:round; stroke-width:4; stroke-opacity:1; fill:none" points="191.201,548.856 210.099,548.856 "/>
<polyline clip-path="url(#clip140)" style="stroke:#000000; stroke-linecap:round; stroke-linejoin:round; stroke-width:4; stroke-opacity:1; fill:none" points="191.201,389.158 210.099,389.158 "/>
<polyline clip-path="url(#clip140)" style="stroke:#000000; stroke-linecap:round; stroke-linejoin:round; stroke-width:4; stroke-opacity:1; fill:none" points="191.201,229.46 210.099,229.46 "/>
<polyline clip-path="url(#clip140)" style="stroke:#000000; stroke-linecap:round; stroke-linejoin:round; stroke-width:4; stroke-opacity:1; fill:none" points="191.201,69.7615 210.099,69.7615 "/>
<path clip-path="url(#clip140)" d="M112.905 721.899 L120.544 721.899 L120.544 695.533 L112.234 697.2 L112.234 692.94 L120.498 691.274 L125.173 691.274 L125.173 721.899 L132.812 721.899 L132.812 725.834 L112.905 725.834 L112.905 721.899 Z" fill="#000000" fill-rule="nonzero" fill-opacity="1" /><path clip-path="url(#clip140)" d="M152.257 694.352 Q148.646 694.352 146.817 697.917 Q145.011 701.459 145.011 708.588 Q145.011 715.695 146.817 719.26 Q148.646 722.801 152.257 722.801 Q155.891 722.801 157.696 719.26 Q159.525 715.695 159.525 708.588 Q159.525 701.459 157.696 697.917 Q155.891 694.352 152.257 694.352 M152.257 690.649 Q158.067 690.649 161.122 695.255 Q164.201 699.839 164.201 708.588 Q164.201 717.315 161.122 721.922 Q158.067 726.505 152.257 726.505 Q146.446 726.505 143.368 721.922 Q140.312 717.315 140.312 708.588 Q140.312 699.839 143.368 695.255 Q146.446 690.649 152.257 690.649 Z" fill="#000000" fill-rule="nonzero" fill-opacity="1" /><path clip-path="url(#clip140)" d="M116.123 562.201 L132.442 562.201 L132.442 566.136 L110.498 566.136 L110.498 562.201 Q113.16 559.446 117.743 554.816 Q122.349 550.164 123.53 548.821 Q125.775 546.298 126.655 544.562 Q127.558 542.803 127.558 541.113 Q127.558 538.358 125.613 536.622 Q123.692 534.886 120.59 534.886 Q118.391 534.886 115.937 535.65 Q113.507 536.414 110.729 537.965 L110.729 533.242 Q113.553 532.108 116.007 531.529 Q118.46 530.951 120.498 530.951 Q125.868 530.951 129.062 533.636 Q132.257 536.321 132.257 540.812 Q132.257 542.941 131.447 544.863 Q130.659 546.761 128.553 549.353 Q127.974 550.025 124.872 553.242 Q121.771 556.437 116.123 562.201 Z" fill="#000000" fill-rule="nonzero" fill-opacity="1" /><path clip-path="url(#clip140)" d="M152.257 534.654 Q148.646 534.654 146.817 538.219 Q145.011 541.761 145.011 548.89 Q145.011 555.997 146.817 559.562 Q148.646 563.103 152.257 563.103 Q155.891 563.103 157.696 559.562 Q159.525 555.997 159.525 548.89 Q159.525 541.761 157.696 538.219 Q155.891 534.654 152.257 534.654 M152.257 530.951 Q158.067 530.951 161.122 535.557 Q164.201 540.14 164.201 548.89 Q164.201 557.617 161.122 562.224 Q158.067 566.807 152.257 566.807 Q146.446 566.807 143.368 562.224 Q140.312 557.617 140.312 548.89 Q140.312 540.14 143.368 535.557 Q146.446 530.951 152.257 530.951 Z" fill="#000000" fill-rule="nonzero" fill-opacity="1" /><path clip-path="url(#clip140)" d="M126.261 387.803 Q129.618 388.521 131.493 390.79 Q133.391 393.058 133.391 396.391 Q133.391 401.507 129.872 404.308 Q126.354 407.109 119.873 407.109 Q117.697 407.109 115.382 406.669 Q113.09 406.252 110.636 405.396 L110.636 400.882 Q112.581 402.016 114.896 402.595 Q117.21 403.174 119.734 403.174 Q124.132 403.174 126.423 401.438 Q128.738 399.702 128.738 396.391 Q128.738 393.336 126.585 391.623 Q124.456 389.887 120.636 389.887 L116.609 389.887 L116.609 386.044 L120.822 386.044 Q124.271 386.044 126.099 384.679 Q127.928 383.29 127.928 380.697 Q127.928 378.035 126.03 376.623 Q124.155 375.188 120.636 375.188 Q118.715 375.188 116.516 375.604 Q114.317 376.021 111.678 376.901 L111.678 372.734 Q114.34 371.993 116.655 371.623 Q118.993 371.253 121.053 371.253 Q126.377 371.253 129.479 373.683 Q132.581 376.091 132.581 380.211 Q132.581 383.081 130.937 385.072 Q129.294 387.04 126.261 387.803 Z" fill="#000000" fill-rule="nonzero" fill-opacity="1" /><path clip-path="url(#clip140)" d="M152.257 374.956 Q148.646 374.956 146.817 378.521 Q145.011 382.063 145.011 389.192 Q145.011 396.299 146.817 399.864 Q148.646 403.405 152.257 403.405 Q155.891 403.405 157.696 399.864 Q159.525 396.299 159.525 389.192 Q159.525 382.063 157.696 378.521 Q155.891 374.956 152.257 374.956 M152.257 371.253 Q158.067 371.253 161.122 375.859 Q164.201 380.442 164.201 389.192 Q164.201 397.919 161.122 402.526 Q158.067 407.109 152.257 407.109 Q146.446 407.109 143.368 402.526 Q140.312 397.919 140.312 389.192 Q140.312 380.442 143.368 375.859 Q146.446 371.253 152.257 371.253 Z" fill="#000000" fill-rule="nonzero" fill-opacity="1" /><path clip-path="url(#clip140)" d="M124.942 216.254 L113.136 234.703 L124.942 234.703 L124.942 216.254 M123.715 212.18 L129.595 212.18 L129.595 234.703 L134.525 234.703 L134.525 238.591 L129.595 238.591 L129.595 246.74 L124.942 246.74 L124.942 238.591 L109.34 238.591 L109.34 234.078 L123.715 212.18 Z" fill="#000000" fill-rule="nonzero" fill-opacity="1" /><path clip-path="url(#clip140)" d="M152.257 215.258 Q148.646 215.258 146.817 218.823 Q145.011 222.365 145.011 229.494 Q145.011 236.601 146.817 240.166 Q148.646 243.707 152.257 243.707 Q155.891 243.707 157.696 240.166 Q159.525 236.601 159.525 229.494 Q159.525 222.365 157.696 218.823 Q155.891 215.258 152.257 215.258 M152.257 211.555 Q158.067 211.555 161.122 216.161 Q164.201 220.744 164.201 229.494 Q164.201 238.221 161.122 242.828 Q158.067 247.411 152.257 247.411 Q146.446 247.411 143.368 242.828 Q140.312 238.221 140.312 229.494 Q140.312 220.744 143.368 216.161 Q146.446 211.555 152.257 211.555 Z" fill="#000000" fill-rule="nonzero" fill-opacity="1" /><path clip-path="url(#clip140)" d="M112.141 52.4815 L130.497 52.4815 L130.497 56.4167 L116.423 56.4167 L116.423 64.8889 Q117.442 64.5416 118.46 64.3796 Q119.479 64.1944 120.498 64.1944 Q126.285 64.1944 129.664 67.3657 Q133.044 70.537 133.044 75.9536 Q133.044 81.5323 129.572 84.6341 Q126.099 87.7128 119.78 87.7128 Q117.604 87.7128 115.335 87.3424 Q113.09 86.9721 110.683 86.2313 L110.683 81.5323 Q112.766 82.6665 114.988 83.2221 Q117.21 83.7776 119.687 83.7776 Q123.692 83.7776 126.03 81.6712 Q128.368 79.5647 128.368 75.9536 Q128.368 72.3425 126.03 70.2361 Q123.692 68.1296 119.687 68.1296 Q117.812 68.1296 115.937 68.5463 Q114.086 68.9629 112.141 69.8425 L112.141 52.4815 Z" fill="#000000" fill-rule="nonzero" fill-opacity="1" /><path clip-path="url(#clip140)" d="M152.257 55.5602 Q148.646 55.5602 146.817 59.125 Q145.011 62.6667 145.011 69.7962 Q145.011 76.9027 146.817 80.4675 Q148.646 84.0091 152.257 84.0091 Q155.891 84.0091 157.696 80.4675 Q159.525 76.9027 159.525 69.7962 Q159.525 62.6667 157.696 59.125 Q155.891 55.5602 152.257 55.5602 M152.257 51.8565 Q158.067 51.8565 161.122 56.463 Q164.201 61.0463 164.201 69.7962 Q164.201 78.523 161.122 83.1295 Q158.067 87.7128 152.257 87.7128 Q146.446 87.7128 143.368 83.1295 Q140.312 78.523 140.312 69.7962 Q140.312 61.0463 143.368 56.463 Q146.446 51.8565 152.257 51.8565 Z" fill="#000000" fill-rule="nonzero" fill-opacity="1" /><path clip-path="url(#clip140)" d="M17.4805 794.953 L22.3502 794.953 L22.3502 800.555 Q22.3502 803.706 23.6234 804.947 Q24.8965 806.157 28.2067 806.157 L31.3577 806.157 L31.3577 796.513 L35.9092 796.513 L35.9092 806.157 L67.0057 806.157 L67.0057 812.045 L35.9092 812.045 L35.9092 817.647 L31.3577 817.647 L31.3577 812.045 L28.8751 812.045 Q22.9231 812.045 20.2177 809.276 Q17.4805 806.507 17.4805 800.491 L17.4805 794.953 Z" fill="#000000" fill-rule="nonzero" fill-opacity="1" /><path clip-path="url(#clip140)" d="M31.3577 790.051 L31.3577 784.195 L67.0057 784.195 L67.0057 790.051 L31.3577 790.051 M17.4805 790.051 L17.4805 784.195 L24.8965 784.195 L24.8965 790.051 L17.4805 790.051 Z" fill="#000000" fill-rule="nonzero" fill-opacity="1" /><path clip-path="url(#clip140)" d="M45.4896 742.309 L67.0057 742.309 L67.0057 748.165 L45.6805 748.165 Q40.6198 748.165 38.1053 750.138 Q35.5909 752.112 35.5909 756.059 Q35.5909 760.801 38.6146 763.538 Q41.6383 766.276 46.8582 766.276 L67.0057 766.276 L67.0057 772.164 L31.3577 772.164 L31.3577 766.276 L36.8959 766.276 Q33.6812 764.175 32.0898 761.342 Q30.4983 758.478 30.4983 754.754 Q30.4983 748.611 34.3178 745.46 Q38.1053 742.309 45.4896 742.309 Z" fill="#000000" fill-rule="nonzero" fill-opacity="1" /><path clip-path="url(#clip140)" d="M47.7176 700.136 L50.5821 700.136 L50.5821 727.063 Q56.6296 726.681 59.8124 723.434 Q62.9634 720.156 62.9634 714.331 Q62.9634 710.958 62.1359 707.807 Q61.3084 704.624 59.6533 701.504 L65.1914 701.504 Q66.5282 704.655 67.2285 707.966 Q67.9287 711.276 67.9287 714.681 Q67.9287 723.212 62.9634 728.209 Q57.9982 733.174 49.5318 733.174 Q40.7789 733.174 35.6546 728.463 Q30.4983 723.721 30.4983 715.7 Q30.4983 708.507 35.1453 704.337 Q39.7604 700.136 47.7176 700.136 M45.9988 705.992 Q41.1927 706.056 38.3281 708.698 Q35.4636 711.308 35.4636 715.636 Q35.4636 720.538 38.2327 723.498 Q41.0017 726.426 46.0307 726.872 L45.9988 705.992 Z" fill="#000000" fill-rule="nonzero" fill-opacity="1" /><path clip-path="url(#clip140)" d="M32.408 647.078 L37.9462 647.078 Q36.6731 649.56 36.0365 652.234 Q35.3999 654.907 35.3999 657.772 Q35.3999 662.133 36.7367 664.329 Q38.0735 666.493 40.7471 666.493 Q42.7841 666.493 43.9618 664.933 Q45.1076 663.374 46.158 658.663 L46.6036 656.658 Q47.9404 650.42 50.3912 647.81 Q52.8101 645.168 57.1706 645.168 Q62.1359 645.168 65.0323 649.115 Q67.9287 653.03 67.9287 659.905 Q67.9287 662.769 67.3558 665.888 Q66.8147 668.976 65.7007 672.413 L59.6533 672.413 Q61.3402 669.167 62.1995 666.016 Q63.0271 662.865 63.0271 659.777 Q63.0271 655.64 61.6266 653.412 Q60.1944 651.184 57.6162 651.184 Q55.2291 651.184 53.956 652.807 Q52.6828 654.398 51.5052 659.841 L51.0277 661.878 Q49.8819 667.321 47.5266 669.74 Q45.1395 672.159 41.0017 672.159 Q35.9728 672.159 33.2356 668.594 Q30.4983 665.029 30.4983 658.472 Q30.4983 655.226 30.9758 652.361 Q31.4532 649.497 32.408 647.078 Z" fill="#000000" fill-rule="nonzero" fill-opacity="1" /><path clip-path="url(#clip140)" d="M32.7263 610.188 L38.2008 610.188 Q36.8322 612.671 36.1638 615.185 Q35.4636 617.668 35.4636 620.214 Q35.4636 625.912 39.092 629.063 Q42.6887 632.214 49.2135 632.214 Q55.7384 632.214 59.3668 629.063 Q62.9634 625.912 62.9634 620.214 Q62.9634 617.668 62.295 615.185 Q61.5948 612.671 60.2262 610.188 L65.637 610.188 Q66.7829 612.639 67.3558 615.281 Q67.9287 617.891 67.9287 620.851 Q67.9287 628.904 62.8679 633.646 Q57.8072 638.388 49.2135 638.388 Q40.4925 638.388 35.4954 633.614 Q30.4983 628.808 30.4983 620.469 Q30.4983 617.764 31.0712 615.185 Q31.6123 612.607 32.7263 610.188 Z" fill="#000000" fill-rule="nonzero" fill-opacity="1" /><path clip-path="url(#clip140)" d="M49.0862 583.803 Q49.0862 590.9 50.7094 593.638 Q52.3327 596.375 56.2476 596.375 Q59.3668 596.375 61.2129 594.338 Q63.0271 592.269 63.0271 588.736 Q63.0271 583.866 59.5896 580.938 Q56.1203 577.978 50.3912 577.978 L49.0862 577.978 L49.0862 583.803 M46.6672 572.121 L67.0057 572.121 L67.0057 577.978 L61.5948 577.978 Q64.8413 579.983 66.4009 582.975 Q67.9287 585.967 67.9287 590.296 Q67.9287 595.77 64.8731 599.017 Q61.7858 602.231 56.6296 602.231 Q50.614 602.231 47.5584 598.221 Q44.5029 594.179 44.5029 586.19 L44.5029 577.978 L43.93 577.978 Q39.8877 577.978 37.6916 580.652 Q35.4636 583.293 35.4636 588.099 Q35.4636 591.155 36.1956 594.051 Q36.9277 596.948 38.3918 599.621 L32.981 599.621 Q31.7396 596.407 31.1349 593.383 Q30.4983 590.359 30.4983 587.495 Q30.4983 579.76 34.5087 575.941 Q38.5191 572.121 46.6672 572.121 Z" fill="#000000" fill-rule="nonzero" fill-opacity="1" /><path clip-path="url(#clip140)" d="M17.4805 560.058 L17.4805 554.202 L67.0057 554.202 L67.0057 560.058 L17.4805 560.058 Z" fill="#000000" fill-rule="nonzero" fill-opacity="1" /><path clip-path="url(#clip140)" d="M47.7176 511.456 L50.5821 511.456 L50.5821 538.383 Q56.6296 538.001 59.8124 534.755 Q62.9634 531.476 62.9634 525.652 Q62.9634 522.278 62.1359 519.127 Q61.3084 515.944 59.6533 512.825 L65.1914 512.825 Q66.5282 515.976 67.2285 519.286 Q67.9287 522.596 67.9287 526.002 Q67.9287 534.532 62.9634 539.529 Q57.9982 544.494 49.5318 544.494 Q40.7789 544.494 35.6546 539.784 Q30.4983 535.041 30.4983 527.02 Q30.4983 519.827 35.1453 515.658 Q39.7604 511.456 47.7176 511.456 M45.9988 517.313 Q41.1927 517.376 38.3281 520.018 Q35.4636 522.628 35.4636 526.957 Q35.4636 531.858 38.2327 534.818 Q41.0017 537.747 46.0307 538.192 L45.9988 517.313 Z" fill="#000000" fill-rule="nonzero" fill-opacity="1" /><path clip-path="url(#clip140)" d="M31.3577 481.124 L31.3577 475.267 L67.0057 475.267 L67.0057 481.124 L31.3577 481.124 M17.4805 481.124 L17.4805 475.267 L24.8965 475.267 L24.8965 481.124 L17.4805 481.124 Z" fill="#000000" fill-rule="nonzero" fill-opacity="1" /><path clip-path="url(#clip140)" d="M21.2362 457.22 L31.3577 457.22 L31.3577 445.157 L35.9092 445.157 L35.9092 457.22 L55.2609 457.22 Q59.6214 457.22 60.8628 456.043 Q62.1041 454.833 62.1041 451.173 L62.1041 445.157 L67.0057 445.157 L67.0057 451.173 Q67.0057 457.953 64.4912 460.531 Q61.9449 463.109 55.2609 463.109 L35.9092 463.109 L35.9092 467.406 L31.3577 467.406 L31.3577 463.109 L21.2362 463.109 L21.2362 457.22 Z" fill="#000000" fill-rule="nonzero" fill-opacity="1" /><path clip-path="url(#clip140)" d="M47.7176 406.963 L50.5821 406.963 L50.5821 433.89 Q56.6296 433.508 59.8124 430.262 Q62.9634 426.983 62.9634 421.159 Q62.9634 417.785 62.1359 414.634 Q61.3084 411.451 59.6533 408.332 L65.1914 408.332 Q66.5282 411.483 67.2285 414.793 Q67.9287 418.103 67.9287 421.509 Q67.9287 430.039 62.9634 435.036 Q57.9982 440.001 49.5318 440.001 Q40.7789 440.001 35.6546 435.291 Q30.4983 430.548 30.4983 422.527 Q30.4983 415.334 35.1453 411.165 Q39.7604 406.963 47.7176 406.963 M45.9988 412.82 Q41.1927 412.883 38.3281 415.525 Q35.4636 418.135 35.4636 422.464 Q35.4636 427.365 38.2327 430.325 Q41.0017 433.254 46.0307 433.699 L45.9988 412.82 Z" fill="#000000" fill-rule="nonzero" fill-opacity="1" /><path clip-path="url(#clip140)" d="M36.8322 376.694 Q36.2593 377.681 36.0047 378.859 Q35.7182 380.004 35.7182 381.405 Q35.7182 386.37 38.9647 389.044 Q42.1794 391.686 48.2268 391.686 L67.0057 391.686 L67.0057 397.574 L31.3577 397.574 L31.3577 391.686 L36.8959 391.686 Q33.6494 389.839 32.0898 386.879 Q30.4983 383.919 30.4983 379.686 Q30.4983 379.081 30.5938 378.349 Q30.6575 377.617 30.8166 376.726 L36.8322 376.694 Z" fill="#000000" fill-rule="nonzero" fill-opacity="1" /><path clip-path="url(#clip140)" d="M49.0862 354.351 Q49.0862 361.448 50.7094 364.186 Q52.3327 366.923 56.2476 366.923 Q59.3668 366.923 61.2129 364.886 Q63.0271 362.817 63.0271 359.284 Q63.0271 354.414 59.5896 351.486 Q56.1203 348.526 50.3912 348.526 L49.0862 348.526 L49.0862 354.351 M46.6672 342.67 L67.0057 342.67 L67.0057 348.526 L61.5948 348.526 Q64.8413 350.531 66.4009 353.523 Q67.9287 356.515 67.9287 360.844 Q67.9287 366.318 64.8731 369.565 Q61.7858 372.779 56.6296 372.779 Q50.614 372.779 47.5584 368.769 Q44.5029 364.727 44.5029 356.738 L44.5029 348.526 L43.93 348.526 Q39.8877 348.526 37.6916 351.2 Q35.4636 353.841 35.4636 358.648 Q35.4636 361.703 36.1956 364.599 Q36.9277 367.496 38.3918 370.169 L32.981 370.169 Q31.7396 366.955 31.1349 363.931 Q30.4983 360.907 30.4983 358.043 Q30.4983 350.308 34.5087 346.489 Q38.5191 342.67 46.6672 342.67 Z" fill="#000000" fill-rule="nonzero" fill-opacity="1" /><path clip-path="url(#clip140)" d="M21.2362 324.814 L31.3577 324.814 L31.3577 312.751 L35.9092 312.751 L35.9092 324.814 L55.2609 324.814 Q59.6214 324.814 60.8628 323.636 Q62.1041 322.427 62.1041 318.766 L62.1041 312.751 L67.0057 312.751 L67.0057 318.766 Q67.0057 325.546 64.4912 328.124 Q61.9449 330.702 55.2609 330.702 L35.9092 330.702 L35.9092 334.999 L31.3577 334.999 L31.3577 330.702 L21.2362 330.702 L21.2362 324.814 Z" fill="#000000" fill-rule="nonzero" fill-opacity="1" /><path clip-path="url(#clip140)" d="M31.3577 305.048 L31.3577 299.192 L67.0057 299.192 L67.0057 305.048 L31.3577 305.048 M17.4805 305.048 L17.4805 299.192 L24.8965 299.192 L24.8965 305.048 L17.4805 305.048 Z" fill="#000000" fill-rule="nonzero" fill-opacity="1" /><path clip-path="url(#clip140)" d="M35.4636 273.124 Q35.4636 277.835 39.1557 280.572 Q42.816 283.309 49.2135 283.309 Q55.611 283.309 59.3032 280.604 Q62.9634 277.867 62.9634 273.124 Q62.9634 268.445 59.2713 265.708 Q55.5792 262.971 49.2135 262.971 Q42.8796 262.971 39.1875 265.708 Q35.4636 268.445 35.4636 273.124 M30.4983 273.124 Q30.4983 265.485 35.4636 261.125 Q40.4288 256.764 49.2135 256.764 Q57.9664 256.764 62.9634 261.125 Q67.9287 265.485 67.9287 273.124 Q67.9287 280.795 62.9634 285.155 Q57.9664 289.484 49.2135 289.484 Q40.4288 289.484 35.4636 285.155 Q30.4983 280.795 30.4983 273.124 Z" fill="#000000" fill-rule="nonzero" fill-opacity="1" /><path clip-path="url(#clip140)" d="M45.4896 217.424 L67.0057 217.424 L67.0057 223.281 L45.6805 223.281 Q40.6198 223.281 38.1053 225.254 Q35.5909 227.227 35.5909 231.174 Q35.5909 235.917 38.6146 238.654 Q41.6383 241.391 46.8582 241.391 L67.0057 241.391 L67.0057 247.279 L31.3577 247.279 L31.3577 241.391 L36.8959 241.391 Q33.6812 239.291 32.0898 236.458 Q30.4983 233.593 30.4983 229.869 Q30.4983 223.726 34.3178 220.575 Q38.1053 217.424 45.4896 217.424 Z" fill="#000000" fill-rule="nonzero" fill-opacity="1" /><path clip-path="url(#clip140)" d="M32.408 183.018 L37.9462 183.018 Q36.6731 185.5 36.0365 188.174 Q35.3999 190.847 35.3999 193.712 Q35.3999 198.073 36.7367 200.269 Q38.0735 202.433 40.7471 202.433 Q42.7841 202.433 43.9618 200.873 Q45.1076 199.314 46.158 194.603 L46.6036 192.598 Q47.9404 186.36 50.3912 183.75 Q52.8101 181.108 57.1706 181.108 Q62.1359 181.108 65.0323 185.055 Q67.9287 188.97 67.9287 195.845 Q67.9287 198.709 67.3558 201.828 Q66.8147 204.916 65.7007 208.353 L59.6533 208.353 Q61.3402 205.107 62.1995 201.956 Q63.0271 198.805 63.0271 195.717 Q63.0271 191.58 61.6266 189.352 Q60.1944 187.124 57.6162 187.124 Q55.2291 187.124 53.956 188.747 Q52.6828 190.338 51.5052 195.781 L51.0277 197.818 Q49.8819 203.261 47.5266 205.68 Q45.1395 208.099 41.0017 208.099 Q35.9728 208.099 33.2356 204.534 Q30.4983 200.969 30.4983 194.412 Q30.4983 191.166 30.9758 188.301 Q31.4532 185.437 32.408 183.018 Z" fill="#000000" fill-rule="nonzero" fill-opacity="1" /><path clip-path="url(#clip140)" d="M22.6904 101.07 Q23.1091 101.07 23.3989 101.167 Q23.6566 101.263 23.7854 101.489 Q23.9142 101.714 23.9464 101.843 Q23.9786 101.972 24.0108 102.262 Q24.1397 103.646 24.3651 104.613 Q24.5905 105.547 25.7499 107.865 Q26.9094 110.152 29.0027 113.018 L37.9238 124.548 L39.4374 126.48 Q39.5341 126.48 39.7273 126.416 Q39.8883 126.352 40.1138 126.287 Q40.307 126.19 40.3714 126.158 L61.9815 116.786 Q63.7207 116.046 64.3326 115.144 Q64.9445 114.242 64.9767 112.213 Q64.9767 111.891 65.0089 111.762 Q65.0089 111.601 65.0733 111.376 Q65.1055 111.118 65.2665 111.022 Q65.4276 110.893 65.6852 110.893 Q67.0057 110.893 67.0057 112.084 Q67.0057 112.825 66.909 115.337 Q66.8124 117.849 66.8124 118.558 Q66.8124 119.878 66.909 122.583 Q67.0057 125.289 67.0057 126.609 Q67.0057 127.543 66.2649 127.543 Q65.653 127.543 65.3632 127.318 Q65.0411 127.06 65.0089 126.835 Q64.9767 126.609 64.9767 126.094 Q64.9767 125.707 64.9445 125.289 Q64.8801 124.838 64.719 124.194 Q64.5258 123.517 64.0749 123.099 Q63.5918 122.648 62.9155 122.648 Q62.368 122.648 60.5967 123.453 L42.8513 131.086 L50.5163 140.909 L60.8865 143.549 Q61.273 143.614 61.9493 143.775 Q62.6257 143.936 63.1087 144.065 Q63.5918 144.161 63.7851 144.161 Q64.2037 144.161 64.4614 143.904 Q64.719 143.614 64.8479 142.905 Q64.9445 142.197 64.9767 141.649 Q64.9767 141.07 64.9767 139.878 Q64.9767 138.397 65.2343 138.139 Q65.3954 138.01 65.6852 138.01 Q66.1361 138.01 66.4582 138.139 Q66.748 138.268 66.8446 138.525 Q66.9412 138.751 66.9735 138.912 Q67.0057 139.073 67.0057 139.33 Q67.0057 140.007 66.9412 141.456 Q66.8768 142.873 66.8768 143.614 L66.8124 147.833 L67.0057 156.206 Q67.0057 157.205 66.2005 157.205 Q65.5886 157.205 65.331 156.947 Q65.0411 156.689 65.0089 156.4 Q64.9767 156.11 64.9767 155.369 Q64.9767 153.759 64.8801 152.793 Q64.7835 151.826 64.6546 151.214 Q64.4936 150.57 64.0427 150.248 Q63.5918 149.894 63.2054 149.733 Q62.7867 149.572 61.8527 149.346 L26.4263 140.522 Q25.3635 140.264 25.2024 140.264 Q24.6549 140.264 24.4617 140.587 Q24.2363 140.876 24.1397 141.714 Q24.0108 143.324 24.0108 144.548 Q24.0108 145.353 23.9786 145.675 Q23.9464 145.965 23.7854 146.223 Q23.5922 146.448 23.2057 146.448 Q21.9497 146.448 21.9497 145.128 L22.1429 136.625 L21.9497 128.187 Q21.9497 127.253 22.6904 127.253 Q23.6244 127.253 23.8176 127.704 Q24.0108 128.123 24.0108 129.508 Q24.0108 131.923 24.3329 133.018 Q24.6227 134.081 25.138 134.403 Q25.6211 134.693 27.0382 135.047 L48.1974 140.329 L28.423 114.596 Q26.4263 112.213 25.3957 112.213 Q24.7194 112.213 24.4295 112.696 Q24.1075 113.147 24.0108 114.274 Q23.882 115.079 23.2701 115.079 Q22.6582 115.079 22.3683 114.854 Q22.0463 114.596 22.0141 114.403 Q21.9497 114.178 21.9497 113.823 Q21.9497 112.632 22.0463 110.152 Q22.1429 107.672 22.1429 106.48 Q22.1429 105.675 22.0463 104.097 Q21.9497 102.519 21.9497 101.811 Q21.9497 101.456 22.2073 101.263 Q22.4327 101.07 22.6904 101.07 Z" fill="#000000" fill-rule="nonzero" fill-opacity="1" /><path clip-path="url(#clip140)" d="M58.9216 94.5827 L57.4788 94.5827 Q57.4788 89.0368 54.5255 86.1737 Q54.5255 85.3847 54.7059 85.2494 Q54.8862 85.1142 55.7203 85.1142 L81.6235 85.1142 Q82.9987 85.1142 83.427 84.4378 Q83.8554 83.7615 83.8554 80.8082 L83.8554 79.3429 L85.2757 79.3429 Q85.1404 80.9661 85.1404 86.8275 Q85.1404 92.689 85.2757 94.2896 L83.8554 94.2896 L83.8554 92.8243 Q83.8554 89.9161 83.4496 89.2172 Q83.0212 88.5183 81.6235 88.5183 L57.7042 88.5183 Q58.9216 90.9306 58.9216 94.5827 Z" fill="#000000" fill-rule="nonzero" fill-opacity="1" /><path clip-path="url(#clip142)" d="M272.225 293.339 L309.054 612.735 L345.883 532.886 L382.712 596.765 L419.542 580.795 L456.371 644.675 L493.2 740.493 L530.029 788.403 L566.858 788.403 L603.687 804.373 L677.345 804.373 L751.004 804.373 L824.662 820.342 L898.32 804.373 L971.978 804.373 L1340.27 804.373 L1708.56 804.373 L1708.56 804.373 L1340.27 804.373 L971.978 804.373 L898.32 804.373 L824.662 804.373 L751.004 804.373 L677.345 804.373 L603.687 804.373 L566.858 724.524 L530.029 724.524 L493.2 660.644 L456.371 453.037 L419.542 516.916 L382.712 405.127 L345.883 229.46 L309.054 213.49 L272.225 69.7615  Z" fill="#009af9" fill-rule="evenodd" fill-opacity="0.2"/>
<polyline clip-path="url(#clip142)" style="stroke:#009af9; stroke-linecap:round; stroke-linejoin:round; stroke-width:4; stroke-opacity:1; fill:none" points="272.225,85.7313 309.054,277.369 345.883,341.248 382.712,421.097 419.542,548.856 456.371,548.856 493.2,676.614 530.029,788.403 566.858,740.493 603.687,804.373 677.345,804.373 751.004,804.373 824.662,804.373 898.32,804.373 971.978,804.373 1340.27,804.373 1708.56,804.373 "/>
<path clip-path="url(#clip142)" d="M235.396 329.271 L272.225 293.339 L272.225 69.7615 L235.396 81.7389  Z" fill="#e26f46" fill-rule="evenodd" fill-opacity="0.2"/>
<polyline clip-path="url(#clip142)" style="stroke:#e26f46; stroke-linecap:round; stroke-linejoin:round; stroke-width:4; stroke-opacity:1; fill:none" points="235.396,269.384 272.225,85.7313 "/>
<path clip-path="url(#clip140)" d="M1409.29 229.285 L1700.7 229.285 L1700.7 73.7646 L1409.29 73.7646  Z" fill="#ffffff" fill-rule="evenodd" fill-opacity="1"/>
<polyline clip-path="url(#clip140)" style="stroke:#000000; stroke-linecap:round; stroke-linejoin:round; stroke-width:4; stroke-opacity:1; fill:none" points="1409.29,229.285 1700.7,229.285 1700.7,73.7646 1409.29,73.7646 1409.29,229.285 "/>
<polyline clip-path="url(#clip140)" style="stroke:#009af9; stroke-linecap:round; stroke-linejoin:round; stroke-width:4; stroke-opacity:1; fill:none" points="1426.65,125.605 1530.75,125.605 "/>
<path clip-path="url(#clip140)" d="M1568.45 121.936 Q1570.04 119.065 1572.27 117.7 Q1574.49 116.334 1577.5 116.334 Q1581.55 116.334 1583.75 119.181 Q1585.95 122.005 1585.95 127.237 L1585.95 142.885 L1581.66 142.885 L1581.66 127.375 Q1581.66 123.649 1580.34 121.843 Q1579.03 120.038 1576.32 120.038 Q1573.01 120.038 1571.09 122.237 Q1569.16 124.436 1569.16 128.232 L1569.16 142.885 L1564.88 142.885 L1564.88 127.375 Q1564.88 123.625 1563.56 121.843 Q1562.24 120.038 1559.49 120.038 Q1556.22 120.038 1554.3 122.26 Q1552.38 124.459 1552.38 128.232 L1552.38 142.885 L1548.1 142.885 L1548.1 116.959 L1552.38 116.959 L1552.38 120.987 Q1553.84 118.602 1555.88 117.468 Q1557.91 116.334 1560.72 116.334 Q1563.54 116.334 1565.51 117.769 Q1567.5 119.204 1568.45 121.936 Z" fill="#000000" fill-rule="nonzero" fill-opacity="1" /><path clip-path="url(#clip140)" d="M1594 132.653 L1594 116.959 L1598.26 116.959 L1598.26 132.491 Q1598.26 136.172 1599.7 138.024 Q1601.13 139.852 1604 139.852 Q1607.45 139.852 1609.44 137.653 Q1611.46 135.454 1611.46 131.658 L1611.46 116.959 L1615.71 116.959 L1615.71 142.885 L1611.46 142.885 L1611.46 138.903 Q1609.9 141.264 1607.84 142.422 Q1605.81 143.556 1603.1 143.556 Q1598.63 143.556 1596.32 140.778 Q1594 138 1594 132.653 M1604.72 116.334 L1604.72 116.334 Z" fill="#000000" fill-rule="nonzero" fill-opacity="1" /><path clip-path="url(#clip140)" d="M1624.49 106.866 L1628.75 106.866 L1628.75 142.885 L1624.49 142.885 L1624.49 106.866 Z" fill="#000000" fill-rule="nonzero" fill-opacity="1" /><path clip-path="url(#clip140)" d="M1641.87 109.598 L1641.87 116.959 L1650.65 116.959 L1650.65 120.269 L1641.87 120.269 L1641.87 134.343 Q1641.87 137.514 1642.73 138.417 Q1643.61 139.32 1646.27 139.32 L1650.65 139.32 L1650.65 142.885 L1646.27 142.885 Q1641.34 142.885 1639.46 141.056 Q1637.59 139.204 1637.59 134.343 L1637.59 120.269 L1634.46 120.269 L1634.46 116.959 L1637.59 116.959 L1637.59 109.598 L1641.87 109.598 Z" fill="#000000" fill-rule="nonzero" fill-opacity="1" /><path clip-path="url(#clip140)" d="M1656.25 116.959 L1660.51 116.959 L1660.51 142.885 L1656.25 142.885 L1656.25 116.959 M1656.25 106.866 L1660.51 106.866 L1660.51 112.26 L1656.25 112.26 L1656.25 106.866 Z" fill="#000000" fill-rule="nonzero" fill-opacity="1" /><polyline clip-path="url(#clip140)" style="stroke:#e26f46; stroke-linecap:round; stroke-linejoin:round; stroke-width:4; stroke-opacity:1; fill:none" points="1426.65,177.445 1530.75,177.445 "/>
<path clip-path="url(#clip140)" d="M1566.53 169.563 L1566.53 173.59 Q1564.72 172.665 1562.78 172.202 Q1560.83 171.739 1558.75 171.739 Q1555.58 171.739 1553.98 172.711 Q1552.41 173.683 1552.41 175.627 Q1552.41 177.109 1553.54 177.965 Q1554.67 178.799 1558.1 179.563 L1559.56 179.887 Q1564.09 180.859 1565.99 182.641 Q1567.91 184.401 1567.91 187.572 Q1567.91 191.183 1565.04 193.289 Q1562.2 195.396 1557.2 195.396 Q1555.11 195.396 1552.84 194.979 Q1550.6 194.586 1548.1 193.776 L1548.1 189.377 Q1550.46 190.604 1552.75 191.229 Q1555.04 191.831 1557.29 191.831 Q1560.3 191.831 1561.92 190.813 Q1563.54 189.771 1563.54 187.896 Q1563.54 186.16 1562.36 185.234 Q1561.2 184.308 1557.24 183.452 L1555.76 183.104 Q1551.8 182.271 1550.04 180.558 Q1548.28 178.822 1548.28 175.813 Q1548.28 172.155 1550.88 170.165 Q1553.47 168.174 1558.24 168.174 Q1560.6 168.174 1562.68 168.521 Q1564.77 168.868 1566.53 169.563 Z" fill="#000000" fill-rule="nonzero" fill-opacity="1" /><path clip-path="url(#clip140)" d="M1574.7 168.799 L1578.96 168.799 L1578.96 194.725 L1574.7 194.725 L1574.7 168.799 M1574.7 158.706 L1578.96 158.706 L1578.96 164.1 L1574.7 164.1 L1574.7 158.706 Z" fill="#000000" fill-rule="nonzero" fill-opacity="1" /><path clip-path="url(#clip140)" d="M1609.42 179.077 L1609.42 194.725 L1605.16 194.725 L1605.16 179.215 Q1605.16 175.535 1603.72 173.706 Q1602.29 171.878 1599.42 171.878 Q1595.97 171.878 1593.98 174.077 Q1591.99 176.276 1591.99 180.072 L1591.99 194.725 L1587.71 194.725 L1587.71 168.799 L1591.99 168.799 L1591.99 172.827 Q1593.52 170.489 1595.58 169.331 Q1597.66 168.174 1600.37 168.174 Q1604.84 168.174 1607.13 170.952 Q1609.42 173.706 1609.42 179.077 Z" fill="#000000" fill-rule="nonzero" fill-opacity="1" /><path clip-path="url(#clip140)" d="M1634.97 181.461 Q1634.97 176.831 1633.05 174.285 Q1631.15 171.739 1627.71 171.739 Q1624.28 171.739 1622.36 174.285 Q1620.46 176.831 1620.46 181.461 Q1620.46 186.067 1622.36 188.614 Q1624.28 191.16 1627.71 191.16 Q1631.15 191.16 1633.05 188.614 Q1634.97 186.067 1634.97 181.461 M1639.23 191.507 Q1639.23 198.127 1636.29 201.345 Q1633.35 204.586 1627.29 204.586 Q1625.04 204.586 1623.05 204.238 Q1621.06 203.914 1619.19 203.22 L1619.19 199.076 Q1621.06 200.095 1622.89 200.581 Q1624.72 201.067 1626.62 201.067 Q1630.81 201.067 1632.89 198.868 Q1634.97 196.692 1634.97 192.271 L1634.97 190.164 Q1633.65 192.456 1631.59 193.59 Q1629.53 194.725 1626.66 194.725 Q1621.9 194.725 1618.98 191.09 Q1616.06 187.456 1616.06 181.461 Q1616.06 175.442 1618.98 171.808 Q1621.9 168.174 1626.66 168.174 Q1629.53 168.174 1631.59 169.308 Q1633.65 170.442 1634.97 172.734 L1634.97 168.799 L1639.23 168.799 L1639.23 191.507 Z" fill="#000000" fill-rule="nonzero" fill-opacity="1" /><path clip-path="url(#clip140)" d="M1648.01 158.706 L1652.27 158.706 L1652.27 194.725 L1648.01 194.725 L1648.01 158.706 Z" fill="#000000" fill-rule="nonzero" fill-opacity="1" /><path clip-path="url(#clip140)" d="M1683.35 180.697 L1683.35 182.78 L1663.77 182.78 Q1664.05 187.178 1666.41 189.493 Q1668.79 191.785 1673.03 191.785 Q1675.48 191.785 1677.77 191.183 Q1680.09 190.581 1682.36 189.377 L1682.36 193.405 Q1680.07 194.377 1677.66 194.887 Q1675.25 195.396 1672.77 195.396 Q1666.57 195.396 1662.94 191.785 Q1659.33 188.174 1659.33 182.016 Q1659.33 175.651 1662.75 171.924 Q1666.2 168.174 1672.03 168.174 Q1677.27 168.174 1680.3 171.553 Q1683.35 174.91 1683.35 180.697 M1679.09 179.447 Q1679.05 175.952 1677.13 173.868 Q1675.23 171.785 1672.08 171.785 Q1668.52 171.785 1666.36 173.799 Q1664.23 175.813 1663.91 179.47 L1679.09 179.447 Z" fill="#000000" fill-rule="nonzero" fill-opacity="1" /></svg>
