<?xml version="1.0" encoding="UTF-8" standalone="no"?>
<svg
   width="450"
   height="250"
   viewBox="0 0 1800 1000"
   version="1.1"
   id="svg75"
   sodipodi:docname="time-vs-number-of-coarse-iterations-thick.svg"
   inkscape:export-filename="..\paper_files\mediabag\figure\time-vs-number-of-coarse-iterations-thick.pdf"
   inkscape:export-xdpi="96"
   inkscape:export-ydpi="96"
   inkscape:version="1.3.2 (091e20e, 2023-11-25, custom)"
   xmlns:inkscape="http://www.inkscape.org/namespaces/inkscape"
   xmlns:sodipodi="http://sodipodi.sourceforge.net/DTD/sodipodi-0.dtd"
   xmlns="http://www.w3.org/2000/svg"
   xmlns:svg="http://www.w3.org/2000/svg">
  <sodipodi:namedview
     id="namedview75"
     pagecolor="#ffffff"
     bordercolor="#000000"
     borderopacity="0.25"
     inkscape:showpageshadow="2"
     inkscape:pageopacity="0.0"
     inkscape:pagecheckerboard="0"
     inkscape:deskcolor="#d1d1d1"
     inkscape:zoom="1.0213765"
     inkscape:cx="173.29555"
     inkscape:cy="52.86983"
     inkscape:window-width="1280"
     inkscape:window-height="730"
     inkscape:window-x="-6"
     inkscape:window-y="-6"
     inkscape:window-maximized="1"
     inkscape:current-layer="svg75" />
  <defs
     id="defs1">
    <clipPath
       id="clip090">
      <rect
         x="0"
         y="0"
         width="1800"
         height="1000"
         id="rect1" />
    </clipPath>
  </defs>
  <path
     clip-path="url(#clip090)"
     d="M0 1000 L1800 1000 L1800 0 L0 0  Z"
     fill="#ffffff"
     fill-rule="evenodd"
     fill-opacity="1"
     id="path1" />
  <defs
     id="defs2">
    <clipPath
       id="clip091">
      <rect
         x="161"
         y="47"
         width="1592"
         height="797"
         id="rect2" />
    </clipPath>
  </defs>
  <path
     clip-path="url(#clip090)"
     d="M161.525 842.86 L1752.76 842.86 L1752.76 47.2441 L161.525 47.2441  Z"
     fill="#ffffff"
     fill-rule="evenodd"
     fill-opacity="1"
     id="path2" />
  <polyline
     clip-path="url(#clip091)"
     style="stroke:#000000; stroke-linecap:round; stroke-linejoin:round; stroke-width:2; stroke-opacity:0.1; fill:none"
     points="206.56,842.86 206.56,47.2441 "
     id="polyline2" />
  <polyline
     clip-path="url(#clip091)"
     style="stroke:#000000; stroke-linecap:round; stroke-linejoin:round; stroke-width:2; stroke-opacity:0.1; fill:none"
     points="581.85,842.86 581.85,47.2441 "
     id="polyline3" />
  <polyline
     clip-path="url(#clip091)"
     style="stroke:#000000; stroke-linecap:round; stroke-linejoin:round; stroke-width:2; stroke-opacity:0.1; fill:none"
     points="957.141,842.86 957.141,47.2441 "
     id="polyline4" />
  <polyline
     clip-path="url(#clip091)"
     style="stroke:#000000; stroke-linecap:round; stroke-linejoin:round; stroke-width:2; stroke-opacity:0.1; fill:none"
     points="1332.43,842.86 1332.43,47.2441 "
     id="polyline5" />
  <polyline
     clip-path="url(#clip091)"
     style="stroke:#000000; stroke-linecap:round; stroke-linejoin:round; stroke-width:2; stroke-opacity:0.1; fill:none"
     points="1707.72,842.86 1707.72,47.2441 "
     id="polyline6" />
  <polyline
     clip-path="url(#clip091)"
     style="stroke:#000000; stroke-linecap:round; stroke-linejoin:round; stroke-width:2; stroke-opacity:0.1; fill:none"
     points="161.525,712.638 1752.76,712.638 "
     id="polyline7" />
  <polyline
     clip-path="url(#clip091)"
     style="stroke:#000000; stroke-linecap:round; stroke-linejoin:round; stroke-width:2; stroke-opacity:0.1; fill:none"
     points="161.525,508.294 1752.76,508.294 "
     id="polyline8" />
  <polyline
     clip-path="url(#clip091)"
     style="stroke:#000000; stroke-linecap:round; stroke-linejoin:round; stroke-width:2; stroke-opacity:0.1; fill:none"
     points="161.525,303.95 1752.76,303.95 "
     id="polyline9" />
  <polyline
     clip-path="url(#clip091)"
     style="stroke:#000000; stroke-linecap:round; stroke-linejoin:round; stroke-width:2; stroke-opacity:0.1; fill:none"
     points="161.525,99.6056 1752.76,99.6056 "
     id="polyline10" />
  <polyline
     clip-path="url(#clip090)"
     style="stroke:#000000; stroke-linecap:round; stroke-linejoin:round; stroke-width:4; stroke-opacity:1; fill:none"
     points="161.525,842.86 1752.76,842.86 "
     id="polyline11" />
  <polyline
     clip-path="url(#clip090)"
     style="stroke:#000000; stroke-linecap:round; stroke-linejoin:round; stroke-width:4; stroke-opacity:1; fill:none"
     points="206.56,842.86 206.56,823.962 "
     id="polyline12" />
  <polyline
     clip-path="url(#clip090)"
     style="stroke:#000000; stroke-linecap:round; stroke-linejoin:round; stroke-width:4; stroke-opacity:1; fill:none"
     points="581.85,842.86 581.85,823.962 "
     id="polyline13" />
  <polyline
     clip-path="url(#clip090)"
     style="stroke:#000000; stroke-linecap:round; stroke-linejoin:round; stroke-width:4; stroke-opacity:1; fill:none"
     points="957.141,842.86 957.141,823.962 "
     id="polyline14" />
  <polyline
     clip-path="url(#clip090)"
     style="stroke:#000000; stroke-linecap:round; stroke-linejoin:round; stroke-width:4; stroke-opacity:1; fill:none"
     points="1332.43,842.86 1332.43,823.962 "
     id="polyline15" />
  <polyline
     clip-path="url(#clip090)"
     style="stroke:#000000; stroke-linecap:round; stroke-linejoin:round; stroke-width:4; stroke-opacity:1; fill:none"
     points="1707.72,842.86 1707.72,823.962 "
     id="polyline16" />
  <path
     clip-path="url(#clip090)"
     d="M206.56 868.979 Q202.949 868.979 201.12 872.543 Q199.315 876.085 199.315 883.215 Q199.315 890.321 201.12 893.886 Q202.949 897.427 206.56 897.427 Q210.194 897.427 212 893.886 Q213.829 890.321 213.829 883.215 Q213.829 876.085 212 872.543 Q210.194 868.979 206.56 868.979 M206.56 865.275 Q212.37 865.275 215.426 869.881 Q218.504 874.465 218.504 883.215 Q218.504 891.941 215.426 896.548 Q212.37 901.131 206.56 901.131 Q200.75 901.131 197.671 896.548 Q194.616 891.941 194.616 883.215 Q194.616 874.465 197.671 869.881 Q200.75 865.275 206.56 865.275 Z"
     fill="#000000"
     fill-rule="nonzero"
     fill-opacity="1"
     id="path16" />
  <path
     clip-path="url(#clip090)"
     d="M556.538 896.525 L564.177 896.525 L564.177 870.159 L555.867 871.826 L555.867 867.567 L564.13 865.9 L568.806 865.9 L568.806 896.525 L576.445 896.525 L576.445 900.46 L556.538 900.46 L556.538 896.525 Z"
     fill="#000000"
     fill-rule="nonzero"
     fill-opacity="1"
     id="path17" />
  <path
     clip-path="url(#clip090)"
     d="M595.89 868.979 Q592.278 868.979 590.45 872.543 Q588.644 876.085 588.644 883.215 Q588.644 890.321 590.45 893.886 Q592.278 897.427 595.89 897.427 Q599.524 897.427 601.329 893.886 Q603.158 890.321 603.158 883.215 Q603.158 876.085 601.329 872.543 Q599.524 868.979 595.89 868.979 M595.89 865.275 Q601.7 865.275 604.755 869.881 Q607.834 874.465 607.834 883.215 Q607.834 891.941 604.755 896.548 Q601.7 901.131 595.89 901.131 Q590.079 901.131 587.001 896.548 Q583.945 891.941 583.945 883.215 Q583.945 874.465 587.001 869.881 Q590.079 865.275 595.89 865.275 Z"
     fill="#000000"
     fill-rule="nonzero"
     fill-opacity="1"
     id="path18" />
  <path
     clip-path="url(#clip090)"
     d="M935.914 896.525 L952.233 896.525 L952.233 900.46 L930.289 900.46 L930.289 896.525 Q932.951 893.77 937.534 889.14 Q942.141 884.488 943.321 883.145 Q945.567 880.622 946.446 878.886 Q947.349 877.127 947.349 875.437 Q947.349 872.682 945.405 870.946 Q943.483 869.21 940.381 869.21 Q938.182 869.21 935.729 869.974 Q933.298 870.738 930.52 872.289 L930.52 867.567 Q933.344 866.432 935.798 865.854 Q938.252 865.275 940.289 865.275 Q945.659 865.275 948.854 867.96 Q952.048 870.645 952.048 875.136 Q952.048 877.266 951.238 879.187 Q950.451 881.085 948.344 883.678 Q947.766 884.349 944.664 887.566 Q941.562 890.761 935.914 896.525 Z"
     fill="#000000"
     fill-rule="nonzero"
     fill-opacity="1"
     id="path19" />
  <path
     clip-path="url(#clip090)"
     d="M972.048 868.979 Q968.437 868.979 966.608 872.543 Q964.803 876.085 964.803 883.215 Q964.803 890.321 966.608 893.886 Q968.437 897.427 972.048 897.427 Q975.682 897.427 977.488 893.886 Q979.316 890.321 979.316 883.215 Q979.316 876.085 977.488 872.543 Q975.682 868.979 972.048 868.979 M972.048 865.275 Q977.858 865.275 980.914 869.881 Q983.992 874.465 983.992 883.215 Q983.992 891.941 980.914 896.548 Q977.858 901.131 972.048 901.131 Q966.238 901.131 963.159 896.548 Q960.104 891.941 960.104 883.215 Q960.104 874.465 963.159 869.881 Q966.238 865.275 972.048 865.275 Z"
     fill="#000000"
     fill-rule="nonzero"
     fill-opacity="1"
     id="path20" />
  <path
     clip-path="url(#clip090)"
     d="M1321.27 881.826 Q1324.63 882.543 1326.5 884.812 Q1328.4 887.08 1328.4 890.414 Q1328.4 895.529 1324.88 898.33 Q1321.37 901.131 1314.88 901.131 Q1312.71 901.131 1310.39 900.691 Q1308.1 900.275 1305.65 899.418 L1305.65 894.904 Q1307.59 896.039 1309.91 896.617 Q1312.22 897.196 1314.75 897.196 Q1319.14 897.196 1321.44 895.46 Q1323.75 893.724 1323.75 890.414 Q1323.75 887.358 1321.6 885.645 Q1319.47 883.909 1315.65 883.909 L1311.62 883.909 L1311.62 880.066 L1315.83 880.066 Q1319.28 880.066 1321.11 878.701 Q1322.94 877.312 1322.94 874.719 Q1322.94 872.057 1321.04 870.645 Q1319.17 869.21 1315.65 869.21 Q1313.73 869.21 1311.53 869.627 Q1309.33 870.043 1306.69 870.923 L1306.69 866.756 Q1309.35 866.016 1311.67 865.645 Q1314 865.275 1316.07 865.275 Q1321.39 865.275 1324.49 867.705 Q1327.59 870.113 1327.59 874.233 Q1327.59 877.103 1325.95 879.094 Q1324.31 881.062 1321.27 881.826 Z"
     fill="#000000"
     fill-rule="nonzero"
     fill-opacity="1"
     id="path21" />
  <path
     clip-path="url(#clip090)"
     d="M1347.27 868.979 Q1343.66 868.979 1341.83 872.543 Q1340.02 876.085 1340.02 883.215 Q1340.02 890.321 1341.83 893.886 Q1343.66 897.427 1347.27 897.427 Q1350.9 897.427 1352.71 893.886 Q1354.54 890.321 1354.54 883.215 Q1354.54 876.085 1352.71 872.543 Q1350.9 868.979 1347.27 868.979 M1347.27 865.275 Q1353.08 865.275 1356.13 869.881 Q1359.21 874.465 1359.21 883.215 Q1359.21 891.941 1356.13 896.548 Q1353.08 901.131 1347.27 901.131 Q1341.46 901.131 1338.38 896.548 Q1335.32 891.941 1335.32 883.215 Q1335.32 874.465 1338.38 869.881 Q1341.46 865.275 1347.27 865.275 Z"
     fill="#000000"
     fill-rule="nonzero"
     fill-opacity="1"
     id="path22" />
  <path
     clip-path="url(#clip090)"
     d="M1695.89 869.974 L1684.09 888.423 L1695.89 888.423 L1695.89 869.974 M1694.67 865.9 L1700.55 865.9 L1700.55 888.423 L1705.48 888.423 L1705.48 892.312 L1700.55 892.312 L1700.55 900.46 L1695.89 900.46 L1695.89 892.312 L1680.29 892.312 L1680.29 887.798 L1694.67 865.9 Z"
     fill="#000000"
     fill-rule="nonzero"
     fill-opacity="1"
     id="path23" />
  <path
     clip-path="url(#clip090)"
     d="M1723.21 868.979 Q1719.6 868.979 1717.77 872.543 Q1715.96 876.085 1715.96 883.215 Q1715.96 890.321 1717.77 893.886 Q1719.6 897.427 1723.21 897.427 Q1726.84 897.427 1728.65 893.886 Q1730.48 890.321 1730.48 883.215 Q1730.48 876.085 1728.65 872.543 Q1726.84 868.979 1723.21 868.979 M1723.21 865.275 Q1729.02 865.275 1732.07 869.881 Q1735.15 874.465 1735.15 883.215 Q1735.15 891.941 1732.07 896.548 Q1729.02 901.131 1723.21 901.131 Q1717.4 901.131 1714.32 896.548 Q1711.26 891.941 1711.26 883.215 Q1711.26 874.465 1714.32 869.881 Q1717.4 865.275 1723.21 865.275 Z"
     fill="#000000"
     fill-rule="nonzero"
     fill-opacity="1"
     id="path24" />
  <path
     clip-path="url(#clip090)"
     d="M565.896 931.925 L565.896 937.4 Q563.413 936.031 560.899 935.363 Q558.416 934.663 555.87 934.663 Q550.173 934.663 547.022 938.291 Q543.871 941.888 543.871 948.413 Q543.871 954.937 547.022 958.566 Q550.173 962.162 555.87 962.162 Q558.416 962.162 560.899 961.494 Q563.413 960.794 565.896 959.425 L565.896 964.836 Q563.445 965.982 560.803 966.555 Q558.193 967.128 555.233 967.128 Q547.181 967.128 542.438 962.067 Q537.696 957.006 537.696 948.413 Q537.696 939.691 542.47 934.694 Q547.276 929.697 555.615 929.697 Q558.321 929.697 560.899 930.27 Q563.477 930.811 565.896 931.925 Z"
     fill="#000000"
     fill-rule="nonzero"
     fill-opacity="1"
     id="path25" />
  <path
     clip-path="url(#clip090)"
     d="M589.895 934.663 Q585.184 934.663 582.447 938.355 Q579.709 942.015 579.709 948.413 Q579.709 954.81 582.415 958.502 Q585.152 962.162 589.895 962.162 Q594.573 962.162 597.311 958.47 Q600.048 954.778 600.048 948.413 Q600.048 942.079 597.311 938.387 Q594.573 934.663 589.895 934.663 M589.895 929.697 Q597.533 929.697 601.894 934.663 Q606.254 939.628 606.254 948.413 Q606.254 957.165 601.894 962.162 Q597.533 967.128 589.895 967.128 Q582.224 967.128 577.863 962.162 Q573.535 957.165 573.535 948.413 Q573.535 939.628 577.863 934.663 Q582.224 929.697 589.895 929.697 Z"
     fill="#000000"
     fill-rule="nonzero"
     fill-opacity="1"
     id="path26" />
  <path
     clip-path="url(#clip090)"
     d="M632.163 948.285 Q625.065 948.285 622.328 949.908 Q619.591 951.532 619.591 955.447 Q619.591 958.566 621.628 960.412 Q623.696 962.226 627.229 962.226 Q632.099 962.226 635.027 958.789 Q637.987 955.319 637.987 949.59 L637.987 948.285 L632.163 948.285 M643.844 945.866 L643.844 966.205 L637.987 966.205 L637.987 960.794 Q635.982 964.04 632.99 965.6 Q629.999 967.128 625.67 967.128 Q620.195 967.128 616.949 964.072 Q613.734 960.985 613.734 955.829 Q613.734 949.813 617.745 946.757 Q621.787 943.702 629.776 943.702 L637.987 943.702 L637.987 943.129 Q637.987 939.087 635.314 936.891 Q632.672 934.663 627.866 934.663 Q624.81 934.663 621.914 935.395 Q619.018 936.127 616.344 937.591 L616.344 932.18 Q619.559 930.939 622.582 930.334 Q625.606 929.697 628.471 929.697 Q636.205 929.697 640.025 933.708 Q643.844 937.718 643.844 945.866 Z"
     fill="#000000"
     fill-rule="nonzero"
     fill-opacity="1"
     id="path27" />
  <path
     clip-path="url(#clip090)"
     d="M676.564 936.031 Q675.577 935.458 674.399 935.204 Q673.254 934.917 671.853 934.917 Q666.888 934.917 664.214 938.164 Q661.572 941.378 661.572 947.426 L661.572 966.205 L655.684 966.205 L655.684 930.557 L661.572 930.557 L661.572 936.095 Q663.418 932.848 666.379 931.289 Q669.339 929.697 673.572 929.697 Q674.177 929.697 674.909 929.793 Q675.641 929.856 676.532 930.016 L676.564 936.031 Z"
     fill="#000000"
     fill-rule="nonzero"
     fill-opacity="1"
     id="path28" />
  <path
     clip-path="url(#clip090)"
     d="M705.432 931.607 L705.432 937.145 Q702.95 935.872 700.276 935.235 Q697.602 934.599 694.738 934.599 Q690.377 934.599 688.181 935.936 Q686.017 937.273 686.017 939.946 Q686.017 941.983 687.576 943.161 Q689.136 944.307 693.847 945.357 L695.852 945.803 Q702.09 947.139 704.7 949.59 Q707.342 952.009 707.342 956.37 Q707.342 961.335 703.395 964.231 Q699.48 967.128 692.605 967.128 Q689.741 967.128 686.621 966.555 Q683.534 966.014 680.097 964.9 L680.097 958.852 Q683.343 960.539 686.494 961.399 Q689.645 962.226 692.733 962.226 Q696.87 962.226 699.098 960.826 Q701.326 959.393 701.326 956.815 Q701.326 954.428 699.703 953.155 Q698.112 951.882 692.669 950.704 L690.632 950.227 Q685.189 949.081 682.77 946.726 Q680.351 944.338 680.351 940.201 Q680.351 935.172 683.916 932.435 Q687.481 929.697 694.038 929.697 Q697.284 929.697 700.149 930.175 Q703.013 930.652 705.432 931.607 Z"
     fill="#000000"
     fill-rule="nonzero"
     fill-opacity="1"
     id="path29" />
  <path
     clip-path="url(#clip090)"
     d="M747.159 946.917 L747.159 949.781 L720.232 949.781 Q720.614 955.829 723.861 959.011 Q727.139 962.162 732.964 962.162 Q736.338 962.162 739.489 961.335 Q742.672 960.507 745.791 958.852 L745.791 964.39 Q742.64 965.727 739.33 966.427 Q736.019 967.128 732.614 967.128 Q724.084 967.128 719.087 962.162 Q714.121 957.197 714.121 948.731 Q714.121 939.978 718.832 934.854 Q723.574 929.697 731.595 929.697 Q738.788 929.697 742.958 934.344 Q747.159 938.959 747.159 946.917 M741.303 945.198 Q741.239 940.392 738.597 937.527 Q735.988 934.663 731.659 934.663 Q726.757 934.663 723.797 937.432 Q720.869 940.201 720.423 945.23 L741.303 945.198 Z"
     fill="#000000"
     fill-rule="nonzero"
     fill-opacity="1"
     id="path30" />
  <path
     clip-path="url(#clip090)"
     d="M800.218 931.607 L800.218 937.145 Q797.735 935.872 795.061 935.235 Q792.388 934.599 789.523 934.599 Q785.163 934.599 782.966 935.936 Q780.802 937.273 780.802 939.946 Q780.802 941.983 782.362 943.161 Q783.921 944.307 788.632 945.357 L790.637 945.803 Q796.876 947.139 799.485 949.59 Q802.127 952.009 802.127 956.37 Q802.127 961.335 798.181 964.231 Q794.266 967.128 787.391 967.128 Q784.526 967.128 781.407 966.555 Q778.319 966.014 774.882 964.9 L774.882 958.852 Q778.129 960.539 781.28 961.399 Q784.431 962.226 787.518 962.226 Q791.656 962.226 793.884 960.826 Q796.112 959.393 796.112 956.815 Q796.112 954.428 794.488 953.155 Q792.897 951.882 787.454 950.704 L785.417 950.227 Q779.975 949.081 777.556 946.726 Q775.137 944.338 775.137 940.201 Q775.137 935.172 778.701 932.435 Q782.266 929.697 788.823 929.697 Q792.069 929.697 794.934 930.175 Q797.799 930.652 800.218 931.607 Z"
     fill="#000000"
     fill-rule="nonzero"
     fill-opacity="1"
     id="path31" />
  <path
     clip-path="url(#clip090)"
     d="M837.107 931.925 L837.107 937.4 Q834.624 936.031 832.11 935.363 Q829.627 934.663 827.081 934.663 Q821.384 934.663 818.232 938.291 Q815.081 941.888 815.081 948.413 Q815.081 954.937 818.232 958.566 Q821.384 962.162 827.081 962.162 Q829.627 962.162 832.11 961.494 Q834.624 960.794 837.107 959.425 L837.107 964.836 Q834.656 965.982 832.014 966.555 Q829.404 967.128 826.444 967.128 Q818.392 967.128 813.649 962.067 Q808.907 957.006 808.907 948.413 Q808.907 939.691 813.681 934.694 Q818.487 929.697 826.826 929.697 Q829.532 929.697 832.11 930.27 Q834.688 930.811 837.107 931.925 Z"
     fill="#000000"
     fill-rule="nonzero"
     fill-opacity="1"
     id="path32" />
  <path
     clip-path="url(#clip090)"
     d="M863.493 948.285 Q856.395 948.285 853.658 949.908 Q850.92 951.532 850.92 955.447 Q850.92 958.566 852.957 960.412 Q855.026 962.226 858.559 962.226 Q863.429 962.226 866.357 958.789 Q869.317 955.319 869.317 949.59 L869.317 948.285 L863.493 948.285 M875.174 945.866 L875.174 966.205 L869.317 966.205 L869.317 960.794 Q867.312 964.04 864.32 965.6 Q861.328 967.128 857 967.128 Q851.525 967.128 848.279 964.072 Q845.064 960.985 845.064 955.829 Q845.064 949.813 849.074 946.757 Q853.117 943.702 861.106 943.702 L869.317 943.702 L869.317 943.129 Q869.317 939.087 866.644 936.891 Q864.002 934.663 859.196 934.663 Q856.14 934.663 853.244 935.395 Q850.347 936.127 847.674 937.591 L847.674 932.18 Q850.889 930.939 853.912 930.334 Q856.936 929.697 859.801 929.697 Q867.535 929.697 871.354 933.708 Q875.174 937.718 875.174 945.866 Z"
     fill="#000000"
     fill-rule="nonzero"
     fill-opacity="1"
     id="path33" />
  <path
     clip-path="url(#clip090)"
     d="M887.237 916.679 L893.093 916.679 L893.093 966.205 L887.237 966.205 L887.237 916.679 Z"
     fill="#000000"
     fill-rule="nonzero"
     fill-opacity="1"
     id="path34" />
  <path
     clip-path="url(#clip090)"
     d="M935.839 946.917 L935.839 949.781 L908.912 949.781 Q909.294 955.829 912.54 959.011 Q915.819 962.162 921.643 962.162 Q925.017 962.162 928.168 961.335 Q931.351 960.507 934.47 958.852 L934.47 964.39 Q931.319 965.727 928.009 966.427 Q924.699 967.128 921.293 967.128 Q912.763 967.128 907.766 962.162 Q902.801 957.197 902.801 948.731 Q902.801 939.978 907.512 934.854 Q912.254 929.697 920.275 929.697 Q927.468 929.697 931.638 934.344 Q935.839 938.959 935.839 946.917 M929.982 945.198 Q929.919 940.392 927.277 937.527 Q924.667 934.663 920.338 934.663 Q915.437 934.663 912.477 937.432 Q909.549 940.201 909.103 945.23 L929.982 945.198 Z"
     fill="#000000"
     fill-rule="nonzero"
     fill-opacity="1"
     id="path35" />
  <path
     clip-path="url(#clip090)"
     d="M966.172 930.557 L972.028 930.557 L972.028 966.205 L966.172 966.205 L966.172 930.557 M966.172 916.679 L972.028 916.679 L972.028 924.096 L966.172 924.096 L966.172 916.679 Z"
     fill="#000000"
     fill-rule="nonzero"
     fill-opacity="1"
     id="path36" />
  <path
     clip-path="url(#clip090)"
     d="M990.075 920.435 L990.075 930.557 L1002.14 930.557 L1002.14 935.108 L990.075 935.108 L990.075 954.46 Q990.075 958.82 991.252 960.062 Q992.462 961.303 996.122 961.303 L1002.14 961.303 L1002.14 966.205 L996.122 966.205 Q989.343 966.205 986.765 963.69 Q984.186 961.144 984.186 954.46 L984.186 935.108 L979.89 935.108 L979.89 930.557 L984.186 930.557 L984.186 920.435 L990.075 920.435 Z"
     fill="#000000"
     fill-rule="nonzero"
     fill-opacity="1"
     id="path37" />
  <path
     clip-path="url(#clip090)"
     d="M1040.33 946.917 L1040.33 949.781 L1013.41 949.781 Q1013.79 955.829 1017.03 959.011 Q1020.31 962.162 1026.14 962.162 Q1029.51 962.162 1032.66 961.335 Q1035.84 960.507 1038.96 958.852 L1038.96 964.39 Q1035.81 965.727 1032.5 966.427 Q1029.19 967.128 1025.79 967.128 Q1017.26 967.128 1012.26 962.162 Q1007.29 957.197 1007.29 948.731 Q1007.29 939.978 1012 934.854 Q1016.75 929.697 1024.77 929.697 Q1031.96 929.697 1036.13 934.344 Q1040.33 938.959 1040.33 946.917 M1034.48 945.198 Q1034.41 940.392 1031.77 937.527 Q1029.16 934.663 1024.83 934.663 Q1019.93 934.663 1016.97 937.432 Q1014.04 940.201 1013.6 945.23 L1034.48 945.198 Z"
     fill="#000000"
     fill-rule="nonzero"
     fill-opacity="1"
     id="path38" />
  <path
     clip-path="url(#clip090)"
     d="M1070.6 936.031 Q1069.61 935.458 1068.44 935.204 Q1067.29 934.917 1065.89 934.917 Q1060.93 934.917 1058.25 938.164 Q1055.61 941.378 1055.61 947.426 L1055.61 966.205 L1049.72 966.205 L1049.72 930.557 L1055.61 930.557 L1055.61 936.095 Q1057.46 932.848 1060.42 931.289 Q1063.38 929.697 1067.61 929.697 Q1068.21 929.697 1068.95 929.793 Q1069.68 929.856 1070.57 930.016 L1070.6 936.031 Z"
     fill="#000000"
     fill-rule="nonzero"
     fill-opacity="1"
     id="path39" />
  <path
     clip-path="url(#clip090)"
     d="M1092.94 948.285 Q1085.85 948.285 1083.11 949.908 Q1080.37 951.532 1080.37 955.447 Q1080.37 958.566 1082.41 960.412 Q1084.48 962.226 1088.01 962.226 Q1092.88 962.226 1095.81 958.789 Q1098.77 955.319 1098.77 949.59 L1098.77 948.285 L1092.94 948.285 M1104.63 945.866 L1104.63 966.205 L1098.77 966.205 L1098.77 960.794 Q1096.76 964.04 1093.77 965.6 Q1090.78 967.128 1086.45 967.128 Q1080.98 967.128 1077.73 964.072 Q1074.52 960.985 1074.52 955.829 Q1074.52 949.813 1078.53 946.757 Q1082.57 943.702 1090.56 943.702 L1098.77 943.702 L1098.77 943.129 Q1098.77 939.087 1096.1 936.891 Q1093.45 934.663 1088.65 934.663 Q1085.59 934.663 1082.7 935.395 Q1079.8 936.127 1077.13 937.591 L1077.13 932.18 Q1080.34 930.939 1083.36 930.334 Q1086.39 929.697 1089.25 929.697 Q1096.99 929.697 1100.81 933.708 Q1104.63 937.718 1104.63 945.866 Z"
     fill="#000000"
     fill-rule="nonzero"
     fill-opacity="1"
     id="path40" />
  <path
     clip-path="url(#clip090)"
     d="M1122.48 920.435 L1122.48 930.557 L1134.54 930.557 L1134.54 935.108 L1122.48 935.108 L1122.48 954.46 Q1122.48 958.82 1123.66 960.062 Q1124.87 961.303 1128.53 961.303 L1134.54 961.303 L1134.54 966.205 L1128.53 966.205 Q1121.75 966.205 1119.17 963.69 Q1116.59 961.144 1116.59 954.46 L1116.59 935.108 L1112.3 935.108 L1112.3 930.557 L1116.59 930.557 L1116.59 920.435 L1122.48 920.435 Z"
     fill="#000000"
     fill-rule="nonzero"
     fill-opacity="1"
     id="path41" />
  <path
     clip-path="url(#clip090)"
     d="M1142.25 930.557 L1148.1 930.557 L1148.1 966.205 L1142.25 966.205 L1142.25 930.557 M1142.25 916.679 L1148.1 916.679 L1148.1 924.096 L1142.25 924.096 L1142.25 916.679 Z"
     fill="#000000"
     fill-rule="nonzero"
     fill-opacity="1"
     id="path42" />
  <path
     clip-path="url(#clip090)"
     d="M1174.17 934.663 Q1169.46 934.663 1166.72 938.355 Q1163.99 942.015 1163.99 948.413 Q1163.99 954.81 1166.69 958.502 Q1169.43 962.162 1174.17 962.162 Q1178.85 962.162 1181.59 958.47 Q1184.32 954.778 1184.32 948.413 Q1184.32 942.079 1181.59 938.387 Q1178.85 934.663 1174.17 934.663 M1174.17 929.697 Q1181.81 929.697 1186.17 934.663 Q1190.53 939.628 1190.53 948.413 Q1190.53 957.165 1186.17 962.162 Q1181.81 967.128 1174.17 967.128 Q1166.5 967.128 1162.14 962.162 Q1157.81 957.165 1157.81 948.413 Q1157.81 939.628 1162.14 934.663 Q1166.5 929.697 1174.17 929.697 Z"
     fill="#000000"
     fill-rule="nonzero"
     fill-opacity="1"
     id="path43" />
  <path
     clip-path="url(#clip090)"
     d="M1229.87 944.689 L1229.87 966.205 L1224.01 966.205 L1224.01 944.88 Q1224.01 939.819 1222.04 937.304 Q1220.07 934.79 1216.12 934.79 Q1211.38 934.79 1208.64 937.814 Q1205.9 940.837 1205.9 946.057 L1205.9 966.205 L1200.02 966.205 L1200.02 930.557 L1205.9 930.557 L1205.9 936.095 Q1208 932.88 1210.84 931.289 Q1213.7 929.697 1217.43 929.697 Q1223.57 929.697 1226.72 933.517 Q1229.87 937.304 1229.87 944.689 Z"
     fill="#000000"
     fill-rule="nonzero"
     fill-opacity="1"
     id="path44" />
  <path
     clip-path="url(#clip090)"
     d="M1264.28 931.607 L1264.28 937.145 Q1261.79 935.872 1259.12 935.235 Q1256.45 934.599 1253.58 934.599 Q1249.22 934.599 1247.03 935.936 Q1244.86 937.273 1244.86 939.946 Q1244.86 941.983 1246.42 943.161 Q1247.98 944.307 1252.69 945.357 L1254.7 945.803 Q1260.94 947.139 1263.55 949.59 Q1266.19 952.009 1266.19 956.37 Q1266.19 961.335 1262.24 964.231 Q1258.33 967.128 1251.45 967.128 Q1248.59 967.128 1245.47 966.555 Q1242.38 966.014 1238.94 964.9 L1238.94 958.852 Q1242.19 960.539 1245.34 961.399 Q1248.49 962.226 1251.58 962.226 Q1255.72 962.226 1257.94 960.826 Q1260.17 959.393 1260.17 956.815 Q1260.17 954.428 1258.55 953.155 Q1256.96 951.882 1251.51 950.704 L1249.48 950.227 Q1244.03 949.081 1241.62 946.726 Q1239.2 944.338 1239.2 940.201 Q1239.2 935.172 1242.76 932.435 Q1246.33 929.697 1252.88 929.697 Q1256.13 929.697 1258.99 930.175 Q1261.86 930.652 1264.28 931.607 Z"
     fill="#000000"
     fill-rule="nonzero"
     fill-opacity="1"
     id="path45" />
  <path
     clip-path="url(#clip090)"
     d="M1346.23 921.889 Q1346.23 922.308 1346.13 922.598 Q1346.03 922.856 1345.81 922.984 Q1345.58 923.113 1345.45 923.145 Q1345.32 923.178 1345.03 923.21 Q1343.65 923.339 1342.68 923.564 Q1341.75 923.79 1339.43 924.949 Q1337.14 926.108 1334.28 928.202 L1322.75 937.123 L1320.81 938.636 Q1320.81 938.733 1320.88 938.926 Q1320.94 939.087 1321.01 939.313 Q1321.1 939.506 1321.14 939.57 L1330.51 961.181 Q1331.25 962.92 1332.15 963.532 Q1333.05 964.143 1335.08 964.176 Q1335.4 964.176 1335.53 964.208 Q1335.69 964.208 1335.92 964.272 Q1336.18 964.305 1336.27 964.466 Q1336.4 964.627 1336.4 964.884 Q1336.4 966.205 1335.21 966.205 Q1334.47 966.205 1331.96 966.108 Q1329.45 966.011 1328.74 966.011 Q1327.42 966.011 1324.71 966.108 Q1322.01 966.205 1320.69 966.205 Q1319.75 966.205 1319.75 965.464 Q1319.75 964.852 1319.98 964.562 Q1320.24 964.24 1320.46 964.208 Q1320.69 964.176 1321.2 964.176 Q1321.59 964.176 1322.01 964.143 Q1322.46 964.079 1323.1 963.918 Q1323.78 963.725 1324.2 963.274 Q1324.65 962.791 1324.65 962.115 Q1324.65 961.567 1323.84 959.796 L1316.21 942.05 L1306.39 949.715 L1303.75 960.086 Q1303.68 960.472 1303.52 961.148 Q1303.36 961.825 1303.23 962.308 Q1303.13 962.791 1303.13 962.984 Q1303.13 963.403 1303.39 963.66 Q1303.68 963.918 1304.39 964.047 Q1305.1 964.143 1305.65 964.176 Q1306.23 964.176 1307.42 964.176 Q1308.9 964.176 1309.16 964.433 Q1309.29 964.594 1309.29 964.884 Q1309.29 965.335 1309.16 965.657 Q1309.03 965.947 1308.77 966.044 Q1308.54 966.14 1308.38 966.172 Q1308.22 966.205 1307.96 966.205 Q1307.29 966.205 1305.84 966.14 Q1304.42 966.076 1303.68 966.076 L1299.46 966.011 L1291.09 966.205 Q1290.09 966.205 1290.09 965.4 Q1290.09 964.788 1290.35 964.53 Q1290.61 964.24 1290.9 964.208 Q1291.19 964.176 1291.93 964.176 Q1293.54 964.176 1294.5 964.079 Q1295.47 963.982 1296.08 963.854 Q1296.72 963.693 1297.05 963.242 Q1297.4 962.791 1297.56 962.404 Q1297.72 961.986 1297.95 961.052 L1306.77 925.625 Q1307.03 924.562 1307.03 924.401 Q1307.03 923.854 1306.71 923.661 Q1306.42 923.435 1305.58 923.339 Q1303.97 923.21 1302.75 923.21 Q1301.94 923.21 1301.62 923.178 Q1301.33 923.145 1301.07 922.984 Q1300.85 922.791 1300.85 922.405 Q1300.85 921.149 1302.17 921.149 L1310.67 921.342 L1319.11 921.149 Q1320.04 921.149 1320.04 921.889 Q1320.04 922.823 1319.59 923.017 Q1319.17 923.21 1317.79 923.21 Q1315.37 923.21 1314.28 923.532 Q1313.21 923.822 1312.89 924.337 Q1312.6 924.82 1312.25 926.237 L1306.97 947.396 L1332.7 927.622 Q1335.08 925.625 1335.08 924.595 Q1335.08 923.918 1334.6 923.629 Q1334.15 923.306 1333.02 923.21 Q1332.22 923.081 1332.22 922.469 Q1332.22 921.857 1332.44 921.567 Q1332.7 921.245 1332.89 921.213 Q1333.12 921.149 1333.47 921.149 Q1334.66 921.149 1337.14 921.245 Q1339.62 921.342 1340.81 921.342 Q1341.62 921.342 1343.2 921.245 Q1344.78 921.149 1345.48 921.149 Q1345.84 921.149 1346.03 921.406 Q1346.23 921.632 1346.23 921.889 Z"
     fill="#000000"
     fill-rule="nonzero"
     fill-opacity="1"
     id="path46" />
  <path
     clip-path="url(#clip090)"
     d="M1369.71 961.893 Q1369.71 963.155 1369.08 963.831 Q1368.45 964.485 1367.59 964.485 Q1366.89 964.485 1366.51 964.079 Q1366.15 963.674 1366.15 963.133 Q1366.15 962.343 1366.78 961.712 Q1367.43 961.081 1368.38 961.058 Q1368.07 960.224 1367.23 959.728 Q1366.4 959.21 1365.65 959.075 Q1364.93 958.939 1364.21 958.939 Q1362.79 958.939 1361.71 959.39 Q1360.63 959.841 1360.08 960.54 Q1359.54 961.216 1359.3 961.87 Q1359.05 962.524 1359.05 963.087 Q1359.05 963.583 1359.16 963.989 Q1359.3 964.372 1359.61 964.666 Q1359.93 964.936 1360.15 965.116 Q1360.4 965.297 1360.94 965.455 Q1361.48 965.612 1361.71 965.68 Q1361.93 965.725 1362.56 965.86 Q1363.87 966.131 1364.46 966.289 Q1365.04 966.424 1365.81 966.807 Q1366.6 967.19 1367.19 967.799 Q1368.61 969.219 1368.61 971.181 Q1368.61 971.902 1368.36 972.781 Q1368.13 973.661 1367.48 974.765 Q1366.83 975.87 1365.83 976.749 Q1364.84 977.628 1363.13 978.237 Q1361.44 978.846 1359.32 978.846 Q1356.36 978.846 1354.54 977.606 Q1352.71 976.343 1352.71 974.359 Q1352.71 972.917 1353.5 972.128 Q1354.29 971.316 1355.31 971.316 Q1356.07 971.316 1356.55 971.744 Q1357.02 972.15 1357.02 972.917 Q1357.02 973.954 1356.18 974.743 Q1355.35 975.532 1354.11 975.374 Q1355.17 977.809 1359.36 977.809 Q1360.94 977.809 1362.16 977.403 Q1363.4 976.975 1364.07 976.388 Q1364.77 975.78 1365.22 975.036 Q1365.68 974.292 1365.81 973.728 Q1365.97 973.165 1365.97 972.736 Q1365.97 971.992 1365.68 971.429 Q1365.38 970.865 1364.98 970.55 Q1364.59 970.211 1363.85 969.941 Q1363.13 969.648 1362.61 969.535 Q1362.09 969.422 1361.17 969.242 Q1360.74 969.152 1360.47 969.107 Q1360.2 969.039 1359.63 968.859 Q1359.09 968.656 1358.71 968.453 Q1358.35 968.25 1357.88 967.889 Q1357.4 967.529 1357.11 967.1 Q1356.82 966.672 1356.61 966.041 Q1356.41 965.409 1356.41 964.666 Q1356.41 963.989 1356.61 963.178 Q1356.84 962.366 1357.4 961.419 Q1357.99 960.472 1358.82 959.706 Q1359.66 958.939 1361.05 958.443 Q1362.47 957.925 1364.21 957.925 Q1366.73 957.925 1368.22 959.097 Q1369.71 960.247 1369.71 961.893 Z"
     fill="#000000"
     fill-rule="nonzero"
     fill-opacity="1"
     id="path47" />
  <polyline
     clip-path="url(#clip090)"
     style="stroke:#000000; stroke-linecap:round; stroke-linejoin:round; stroke-width:4; stroke-opacity:1; fill:none"
     points="161.525,842.86 161.525,47.2441 "
     id="polyline47" />
  <polyline
     clip-path="url(#clip090)"
     style="stroke:#000000; stroke-linecap:round; stroke-linejoin:round; stroke-width:4; stroke-opacity:1; fill:none"
     points="161.525,712.638 180.423,712.638 "
     id="polyline48" />
  <polyline
     clip-path="url(#clip090)"
     style="stroke:#000000; stroke-linecap:round; stroke-linejoin:round; stroke-width:4; stroke-opacity:1; fill:none"
     points="161.525,508.294 180.423,508.294 "
     id="polyline49" />
  <polyline
     clip-path="url(#clip090)"
     style="stroke:#000000; stroke-linecap:round; stroke-linejoin:round; stroke-width:4; stroke-opacity:1; fill:none"
     points="161.525,303.95 180.423,303.95 "
     id="polyline50" />
  <polyline
     clip-path="url(#clip090)"
     style="stroke:#000000; stroke-linecap:round; stroke-linejoin:round; stroke-width:4; stroke-opacity:1; fill:none"
     points="161.525,99.6056 180.423,99.6056 "
     id="polyline51" />
  <path
     clip-path="url(#clip090)"
     d="M114.618 725.982 L122.257 725.982 L122.257 699.617 L113.947 701.283 L113.947 697.024 L122.21 695.358 L126.886 695.358 L126.886 725.982 L134.525 725.982 L134.525 729.918 L114.618 729.918 L114.618 725.982 Z"
     fill="#000000"
     fill-rule="nonzero"
     fill-opacity="1"
     id="path51" />
  <path
     clip-path="url(#clip090)"
     d="M118.206 521.638 L134.525 521.638 L134.525 525.574 L112.581 525.574 L112.581 521.638 Q115.243 518.884 119.826 514.254 Q124.433 509.601 125.613 508.259 Q127.859 505.736 128.738 504 Q129.641 502.24 129.641 500.551 Q129.641 497.796 127.697 496.06 Q125.775 494.324 122.673 494.324 Q120.474 494.324 118.021 495.088 Q115.59 495.851 112.812 497.402 L112.812 492.68 Q115.636 491.546 118.09 490.967 Q120.544 490.389 122.581 490.389 Q127.951 490.389 131.146 493.074 Q134.34 495.759 134.34 500.25 Q134.34 502.379 133.53 504.301 Q132.743 506.199 130.636 508.791 Q130.058 509.463 126.956 512.68 Q123.854 515.875 118.206 521.638 Z"
     fill="#000000"
     fill-rule="nonzero"
     fill-opacity="1"
     id="path52" />
  <path
     clip-path="url(#clip090)"
     d="M127.396 302.595 Q130.752 303.313 132.627 305.582 Q134.525 307.85 134.525 311.183 Q134.525 316.299 131.007 319.1 Q127.488 321.901 121.007 321.901 Q118.831 321.901 116.516 321.461 Q114.224 321.044 111.771 320.188 L111.771 315.674 Q113.715 316.808 116.03 317.387 Q118.345 317.966 120.868 317.966 Q125.266 317.966 127.558 316.23 Q129.872 314.494 129.872 311.183 Q129.872 308.128 127.72 306.415 Q125.59 304.679 121.771 304.679 L117.743 304.679 L117.743 300.836 L121.956 300.836 Q125.405 300.836 127.234 299.47 Q129.062 298.082 129.062 295.489 Q129.062 292.827 127.164 291.415 Q125.289 289.98 121.771 289.98 Q119.849 289.98 117.65 290.396 Q115.451 290.813 112.812 291.693 L112.812 287.526 Q115.474 286.785 117.789 286.415 Q120.127 286.045 122.187 286.045 Q127.511 286.045 130.613 288.475 Q133.715 290.883 133.715 295.003 Q133.715 297.873 132.072 299.864 Q130.428 301.832 127.396 302.595 Z"
     fill="#000000"
     fill-rule="nonzero"
     fill-opacity="1"
     id="path53" />
  <path
     clip-path="url(#clip090)"
     d="M124.942 86.3997 L113.136 104.849 L124.942 104.849 L124.942 86.3997 M123.715 82.3256 L129.595 82.3256 L129.595 104.849 L134.525 104.849 L134.525 108.738 L129.595 108.738 L129.595 116.886 L124.942 116.886 L124.942 108.738 L109.34 108.738 L109.34 104.224 L123.715 82.3256 Z"
     fill="#000000"
     fill-rule="nonzero"
     fill-opacity="1"
     id="path54" />
  <path
     clip-path="url(#clip090)"
     d="M22.3147 557.598 L32.4362 557.598 L32.4362 545.535 L36.9877 545.535 L36.9877 557.598 L56.3394 557.598 Q60.6999 557.598 61.9413 556.42 Q63.1826 555.211 63.1826 551.55 L63.1826 545.535 L68.0842 545.535 L68.0842 551.55 Q68.0842 558.33 65.5697 560.908 Q63.0234 563.486 56.3394 563.486 L36.9877 563.486 L36.9877 567.783 L32.4362 567.783 L32.4362 563.486 L22.3147 563.486 L22.3147 557.598 Z"
     fill="#000000"
     fill-rule="nonzero"
     fill-opacity="1"
     id="path55" />
  <path
     clip-path="url(#clip090)"
     d="M32.4362 537.832 L32.4362 531.976 L68.0842 531.976 L68.0842 537.832 L32.4362 537.832 M18.559 537.832 L18.559 531.976 L25.975 531.976 L25.975 537.832 L18.559 537.832 Z"
     fill="#000000"
     fill-rule="nonzero"
     fill-opacity="1"
     id="path56" />
  <path
     clip-path="url(#clip090)"
     d="M39.2793 491.967 Q35.3326 489.771 33.4547 486.716 Q31.5768 483.66 31.5768 479.522 Q31.5768 473.952 35.4917 470.929 Q39.3748 467.905 46.5681 467.905 L68.0842 467.905 L68.0842 473.793 L46.759 473.793 Q41.6346 473.793 39.152 475.607 Q36.6694 477.422 36.6694 481.146 Q36.6694 485.697 39.6931 488.339 Q42.7168 490.981 47.9367 490.981 L68.0842 490.981 L68.0842 496.869 L46.759 496.869 Q41.6028 496.869 39.152 498.683 Q36.6694 500.497 36.6694 504.285 Q36.6694 508.773 39.7249 511.414 Q42.7486 514.056 47.9367 514.056 L68.0842 514.056 L68.0842 519.945 L32.4362 519.945 L32.4362 514.056 L37.9744 514.056 Q34.696 512.051 33.1364 509.25 Q31.5768 506.449 31.5768 502.598 Q31.5768 498.715 33.5502 496.009 Q35.5236 493.272 39.2793 491.967 Z"
     fill="#000000"
     fill-rule="nonzero"
     fill-opacity="1"
     id="path57" />
  <path
     clip-path="url(#clip090)"
     d="M48.7961 425.732 L51.6606 425.732 L51.6606 452.659 Q57.7081 452.277 60.8909 449.031 Q64.0419 445.752 64.0419 439.928 Q64.0419 436.554 63.2144 433.403 Q62.3869 430.22 60.7318 427.101 L66.2699 427.101 Q67.6067 430.252 68.307 433.562 Q69.0072 436.872 69.0072 440.278 Q69.0072 448.808 64.0419 453.805 Q59.0767 458.77 50.6103 458.77 Q41.8574 458.77 36.7331 454.059 Q31.5768 449.317 31.5768 441.296 Q31.5768 434.103 36.2238 429.933 Q40.8389 425.732 48.7961 425.732 M47.0773 431.588 Q42.2712 431.652 39.4066 434.294 Q36.5421 436.904 36.5421 441.233 Q36.5421 446.134 39.3112 449.094 Q42.0802 452.022 47.1092 452.468 L47.0773 431.588 Z"
     fill="#000000"
     fill-rule="nonzero"
     fill-opacity="1"
     id="path58" />
  <path
     clip-path="url(#clip090)"
     d="M18.6226 381.331 Q25.9432 385.596 33.1046 387.665 Q40.266 389.734 47.6184 389.734 Q54.9708 389.734 62.1959 387.665 Q69.3891 385.564 76.6779 381.331 L76.6779 386.424 Q69.1982 391.198 61.9731 393.585 Q54.748 395.941 47.6184 395.941 Q40.5206 395.941 33.3274 393.585 Q26.1342 391.23 18.6226 386.424 L18.6226 381.331 Z"
     fill="#000000"
     fill-rule="nonzero"
     fill-opacity="1"
     id="path59" />
  <path
     clip-path="url(#clip090)"
     d="M33.4865 347.243 L39.0247 347.243 Q37.7516 349.726 37.115 352.399 Q36.4784 355.073 36.4784 357.937 Q36.4784 362.298 37.8152 364.494 Q39.152 366.658 41.8256 366.658 Q43.8626 366.658 45.0403 365.099 Q46.1861 363.539 47.2365 358.828 L47.6821 356.823 Q49.0189 350.585 51.4697 347.975 Q53.8886 345.333 58.2491 345.333 Q63.2144 345.333 66.1108 349.28 Q69.0072 353.195 69.0072 360.07 Q69.0072 362.934 68.4343 366.054 Q67.8932 369.141 66.7792 372.578 L60.7318 372.578 Q62.4187 369.332 63.278 366.181 Q64.1056 363.03 64.1056 359.942 Q64.1056 355.805 62.7051 353.577 Q61.2729 351.349 58.6947 351.349 Q56.3076 351.349 55.0345 352.972 Q53.7613 354.563 52.5837 360.006 L52.1062 362.043 Q50.9604 367.486 48.6051 369.905 Q46.218 372.324 42.0802 372.324 Q37.0513 372.324 34.3141 368.759 Q31.5768 365.194 31.5768 358.638 Q31.5768 355.391 32.0543 352.526 Q32.5317 349.662 33.4865 347.243 Z"
     fill="#000000"
     fill-rule="nonzero"
     fill-opacity="1"
     id="path60" />
  <path
     clip-path="url(#clip090)"
     d="M18.6226 336.93 L18.6226 331.838 Q26.1342 327.064 33.3274 324.708 Q40.5206 322.321 47.6184 322.321 Q54.748 322.321 61.9731 324.708 Q69.1982 327.064 76.6779 331.838 L76.6779 336.93 Q69.3891 332.697 62.1959 330.628 Q54.9708 328.528 47.6184 328.528 Q40.266 328.528 33.1046 330.628 Q25.9432 332.697 18.6226 336.93 Z"
     fill="#000000"
     fill-rule="nonzero"
     fill-opacity="1"
     id="path61" />
  <path
     clip-path="url(#clip091)"
     d="M244.089 251.859 L281.618 425.473 L319.147 514.037 L356.676 584.503 L394.205 717.561 L431.734 762.063 L469.263 791.738 L506.792 781.973 L544.321 820.342 L581.85 820.199 L656.908 816.607 L731.966 813.633 L807.024 807.986 L882.083 802.246 L957.141 798.481 L1332.43 778.715 L1707.72 753.77 L1707.72 682.914 L1332.43 715.796 L957.141 729.129 L882.083 736.555 L807.024 742.358 L731.966 737.244 L656.908 788.942 L581.85 747.975 L544.321 731.151 L506.792 684.81 L469.263 581.164 L431.734 585.601 L394.205 562.47 L356.676 425.856 L319.147 222.585 L281.618 139.78 L244.089 84.8111  Z"
     fill="#009af9"
     fill-rule="evenodd"
     fill-opacity="0.2"
     id="path62" />
  <polyline
     clip-path="url(#clip091)"
     style="stroke:#009af9;stroke-linecap:round;stroke-linejoin:round;stroke-width:20;stroke-opacity:1;fill:none;stroke-dasharray:none"
     points="244.089,143.516 281.618,248.472 319.147,407.551 356.676,499.104 394.205,691.753 431.734,682.685 469.263,746.599 506.792,740.862 544.321,794.563 581.85,780.145 656.908,814.885 731.966,808.876 807.024,804.247 882.083,798.264 957.141,791.173 1332.43,775.047 1707.72,746.077 "
     id="polyline62" />
  <path
     clip-path="url(#clip091)"
     d="M206.56 353.306 L244.089 251.859 L244.089 84.8111 L206.56 69.7615  Z"
     fill="#e26f46"
     fill-rule="evenodd"
     fill-opacity="0.2"
     id="path63" />
  <path
     id="polyline63"
     clip-path="url(#clip091)"
     style="fill:none;stroke:#e26f46;stroke-width:32;stroke-linecap:round;stroke-linejoin:round;stroke-dasharray:none"
     d="m 206.56,262.611 -0.0429,0.10688"
     sodipodi:nodetypes="cc" />
  <path
     clip-path="url(#clip090)"
     d="M1405.34 229.285 L1699.71 229.285 L1699.71 73.7646 L1405.34 73.7646  Z"
     fill="#ffffff"
     fill-rule="evenodd"
     fill-opacity="1"
     id="path64" />
  <polyline
     clip-path="url(#clip090)"
     style="stroke:#000000; stroke-linecap:round; stroke-linejoin:round; stroke-width:4; stroke-opacity:1; fill:none"
     points="1405.34,229.285 1699.71,229.285 1699.71,73.7646 1405.34,73.7646 1405.34,229.285 "
     id="polyline64" />
  <polyline
     clip-path="url(#clip090)"
     style="stroke:#009af9;stroke-linecap:round;stroke-linejoin:round;stroke-width:20;stroke-opacity:1;fill:none;stroke-dasharray:none"
     points="1423.02,125.605 1529.1,125.605 "
     id="polyline65" />
  <path
     clip-path="url(#clip090)"
     d="M1567.13 121.936 Q1568.72 119.065 1570.95 117.7 Q1573.17 116.334 1576.18 116.334 Q1580.23 116.334 1582.43 119.181 Q1584.63 122.005 1584.63 127.237 L1584.63 142.885 L1580.35 142.885 L1580.35 127.375 Q1580.35 123.649 1579.03 121.843 Q1577.71 120.038 1575 120.038 Q1571.69 120.038 1569.77 122.237 Q1567.85 124.436 1567.85 128.232 L1567.85 142.885 L1563.56 142.885 L1563.56 127.375 Q1563.56 123.625 1562.24 121.843 Q1560.92 120.038 1558.17 120.038 Q1554.91 120.038 1552.98 122.26 Q1551.06 124.459 1551.06 128.232 L1551.06 142.885 L1546.78 142.885 L1546.78 116.959 L1551.06 116.959 L1551.06 120.987 Q1552.52 118.602 1554.56 117.468 Q1556.6 116.334 1559.4 116.334 Q1562.22 116.334 1564.19 117.769 Q1566.18 119.204 1567.13 121.936 Z"
     fill="#000000"
     fill-rule="nonzero"
     fill-opacity="1"
     id="path65" />
  <path
     clip-path="url(#clip090)"
     d="M1592.68 132.653 L1592.68 116.959 L1596.94 116.959 L1596.94 132.491 Q1596.94 136.172 1598.38 138.024 Q1599.81 139.852 1602.68 139.852 Q1606.13 139.852 1608.12 137.653 Q1610.14 135.454 1610.14 131.658 L1610.14 116.959 L1614.4 116.959 L1614.4 142.885 L1610.14 142.885 L1610.14 138.903 Q1608.59 141.264 1606.53 142.422 Q1604.49 143.556 1601.78 143.556 Q1597.31 143.556 1595 140.778 Q1592.68 138 1592.68 132.653 M1603.4 116.334 L1603.4 116.334 Z"
     fill="#000000"
     fill-rule="nonzero"
     fill-opacity="1"
     id="path66" />
  <path
     clip-path="url(#clip090)"
     d="M1623.17 106.866 L1627.43 106.866 L1627.43 142.885 L1623.17 142.885 L1623.17 106.866 Z"
     fill="#000000"
     fill-rule="nonzero"
     fill-opacity="1"
     id="path67" />
  <path
     clip-path="url(#clip090)"
     d="M1640.55 109.598 L1640.55 116.959 L1649.33 116.959 L1649.33 120.269 L1640.55 120.269 L1640.55 134.343 Q1640.55 137.514 1641.41 138.417 Q1642.29 139.32 1644.95 139.32 L1649.33 139.32 L1649.33 142.885 L1644.95 142.885 Q1640.02 142.885 1638.15 141.056 Q1636.27 139.204 1636.27 134.343 L1636.27 120.269 L1633.15 120.269 L1633.15 116.959 L1636.27 116.959 L1636.27 109.598 L1640.55 109.598 Z"
     fill="#000000"
     fill-rule="nonzero"
     fill-opacity="1"
     id="path68" />
  <path
     clip-path="url(#clip090)"
     d="M1654.93 116.959 L1659.19 116.959 L1659.19 142.885 L1654.93 142.885 L1654.93 116.959 M1654.93 106.866 L1659.19 106.866 L1659.19 112.26 L1654.93 112.26 L1654.93 106.866 Z"
     fill="#000000"
     fill-rule="nonzero"
     fill-opacity="1"
     id="path69" />
  <path
     id="polyline69"
     clip-path="url(#clip090)"
     style="fill:none;stroke:#e26f46;stroke-width:32;stroke-linecap:round;stroke-linejoin:round;stroke-dasharray:none"
     d="m 1475.6451,177.445 h -0.1492"
     sodipodi:nodetypes="cc" />
  <path
     clip-path="url(#clip090)"
     d="M1565.21 169.563 L1565.21 173.59 Q1563.4 172.665 1561.46 172.202 Q1559.51 171.739 1557.43 171.739 Q1554.26 171.739 1552.66 172.711 Q1551.09 173.683 1551.09 175.627 Q1551.09 177.109 1552.22 177.965 Q1553.35 178.799 1556.78 179.563 L1558.24 179.887 Q1562.78 180.859 1564.67 182.641 Q1566.6 184.401 1566.6 187.572 Q1566.6 191.183 1563.72 193.289 Q1560.88 195.396 1555.88 195.396 Q1553.79 195.396 1551.53 194.979 Q1549.28 194.586 1546.78 193.776 L1546.78 189.377 Q1549.14 190.604 1551.43 191.229 Q1553.73 191.831 1555.97 191.831 Q1558.98 191.831 1560.6 190.813 Q1562.22 189.771 1562.22 187.896 Q1562.22 186.16 1561.04 185.234 Q1559.88 184.308 1555.92 183.452 L1554.44 183.104 Q1550.48 182.271 1548.73 180.558 Q1546.97 178.822 1546.97 175.813 Q1546.97 172.155 1549.56 170.165 Q1552.15 168.174 1556.92 168.174 Q1559.28 168.174 1561.36 168.521 Q1563.45 168.868 1565.21 169.563 Z"
     fill="#000000"
     fill-rule="nonzero"
     fill-opacity="1"
     id="path70" />
  <path
     clip-path="url(#clip090)"
     d="M1573.38 168.799 L1577.64 168.799 L1577.64 194.725 L1573.38 194.725 L1573.38 168.799 M1573.38 158.706 L1577.64 158.706 L1577.64 164.1 L1573.38 164.1 L1573.38 158.706 Z"
     fill="#000000"
     fill-rule="nonzero"
     fill-opacity="1"
     id="path71" />
  <path
     clip-path="url(#clip090)"
     d="M1608.1 179.077 L1608.1 194.725 L1603.84 194.725 L1603.84 179.215 Q1603.84 175.535 1602.41 173.706 Q1600.97 171.878 1598.1 171.878 Q1594.65 171.878 1592.66 174.077 Q1590.67 176.276 1590.67 180.072 L1590.67 194.725 L1586.39 194.725 L1586.39 168.799 L1590.67 168.799 L1590.67 172.827 Q1592.2 170.489 1594.26 169.331 Q1596.34 168.174 1599.05 168.174 Q1603.52 168.174 1605.81 170.952 Q1608.1 173.706 1608.1 179.077 Z"
     fill="#000000"
     fill-rule="nonzero"
     fill-opacity="1"
     id="path72" />
  <path
     clip-path="url(#clip090)"
     d="M1633.66 181.461 Q1633.66 176.831 1631.73 174.285 Q1629.84 171.739 1626.39 171.739 Q1622.96 171.739 1621.04 174.285 Q1619.14 176.831 1619.14 181.461 Q1619.14 186.067 1621.04 188.614 Q1622.96 191.16 1626.39 191.16 Q1629.84 191.16 1631.73 188.614 Q1633.66 186.067 1633.66 181.461 M1637.91 191.507 Q1637.91 198.127 1634.97 201.345 Q1632.03 204.586 1625.97 204.586 Q1623.72 204.586 1621.73 204.238 Q1619.74 203.914 1617.87 203.22 L1617.87 199.076 Q1619.74 200.095 1621.57 200.581 Q1623.4 201.067 1625.3 201.067 Q1629.49 201.067 1631.57 198.868 Q1633.66 196.692 1633.66 192.271 L1633.66 190.164 Q1632.34 192.456 1630.28 193.59 Q1628.22 194.725 1625.35 194.725 Q1620.58 194.725 1617.66 191.09 Q1614.74 187.456 1614.74 181.461 Q1614.74 175.442 1617.66 171.808 Q1620.58 168.174 1625.35 168.174 Q1628.22 168.174 1630.28 169.308 Q1632.34 170.442 1633.66 172.734 L1633.66 168.799 L1637.91 168.799 L1637.91 191.507 Z"
     fill="#000000"
     fill-rule="nonzero"
     fill-opacity="1"
     id="path73" />
  <path
     clip-path="url(#clip090)"
     d="M1646.69 158.706 L1650.95 158.706 L1650.95 194.725 L1646.69 194.725 L1646.69 158.706 Z"
     fill="#000000"
     fill-rule="nonzero"
     fill-opacity="1"
     id="path74" />
  <path
     clip-path="url(#clip090)"
     d="M1682.03 180.697 L1682.03 182.78 L1662.45 182.78 Q1662.73 187.178 1665.09 189.493 Q1667.47 191.785 1671.71 191.785 Q1674.16 191.785 1676.46 191.183 Q1678.77 190.581 1681.04 189.377 L1681.04 193.405 Q1678.75 194.377 1676.34 194.887 Q1673.93 195.396 1671.46 195.396 Q1665.25 195.396 1661.62 191.785 Q1658.01 188.174 1658.01 182.016 Q1658.01 175.651 1661.43 171.924 Q1664.88 168.174 1670.72 168.174 Q1675.95 168.174 1678.98 171.553 Q1682.03 174.91 1682.03 180.697 M1677.78 179.447 Q1677.73 175.952 1675.81 173.868 Q1673.91 171.785 1670.76 171.785 Q1667.2 171.785 1665.04 173.799 Q1662.91 175.813 1662.59 179.47 L1677.78 179.447 Z"
     fill="#000000"
     fill-rule="nonzero"
     fill-opacity="1"
     id="path75" />
</svg>
